<?xml version="1.0" encoding="UTF-8" ?>
<!DOCTYPE svg PUBLIC "-//W3C//DTD SVG 1.1//EN" "http://www.w3.org/Graphics/SVG/1.1/DTD/svg11.dtd">
<svg width="201pt" height="181pt" viewBox="0 0 201 181" version="1.1" xmlns="http://www.w3.org/2000/svg">
<g id="#ffffffff">
<path fill="#ffffff" opacity="1.00" d=" M 0.00 0.00 L 201.00 0.00 L 201.00 181.00 L 0.00 181.00 L 0.00 0.00 M 4.68 8.01 C 10.67 19.84 17.88 31.03 24.43 42.56 C 28.26 43.70 32.44 43.05 36.41 43.16 C 33.96 37.58 30.77 32.39 27.98 26.99 C 24.82 28.40 21.29 28.36 17.91 28.30 C 19.97 27.71 22.13 27.56 24.26 27.64 C 27.83 24.53 24.49 21.15 22.90 18.03 C 74.66 17.98 126.42 17.98 178.19 18.03 C 173.79 26.74 168.45 34.96 164.12 43.70 C 168.25 43.11 172.72 44.06 176.66 42.91 C 183.30 31.33 190.13 19.83 196.31 8.01 C 132.43 7.96 68.56 7.90 4.68 8.01 M 16.32 46.01 C 20.03 52.33 26.22 56.89 31.08 62.36 C 60.29 62.10 89.50 62.54 118.71 62.22 C 120.66 63.95 122.57 65.74 124.38 67.62 C 124.82 67.30 125.70 66.65 126.13 66.32 C 133.05 68.76 139.96 71.42 145.62 76.27 C 145.60 78.00 145.61 79.73 145.64 81.47 C 140.77 82.82 135.83 83.97 131.10 85.78 C 129.62 80.99 130.86 75.91 130.37 71.01 C 130.39 69.38 128.41 67.88 126.93 68.96 C 127.27 69.96 127.80 70.85 128.53 71.64 C 128.48 85.94 127.76 100.20 127.99 114.51 C 134.67 114.19 141.34 114.20 148.02 114.56 C 148.23 98.76 147.21 82.93 148.01 67.15 C 141.35 59.73 133.82 53.18 126.94 45.98 C 90.07 46.02 53.19 45.98 16.32 46.01 M 130.80 46.73 C 137.44 48.06 144.28 47.05 151.00 47.41 C 154.96 47.13 159.45 48.34 162.97 46.03 C 152.27 46.36 141.33 45.07 130.80 46.73 M 131.69 48.81 C 136.60 52.79 140.43 57.91 145.20 62.05 C 148.48 63.00 152.02 61.83 155.29 62.70 C 158.52 65.07 160.95 68.34 164.00 70.92 C 164.06 85.59 163.80 100.27 164.15 114.93 C 170.74 114.24 177.44 114.03 184.01 115.00 C 184.01 98.74 184.01 82.47 184.00 66.21 C 176.65 60.64 170.95 53.27 164.13 47.14 C 153.52 48.95 141.76 45.80 131.69 48.81 M 52.97 66.00 C 53.25 81.98 53.27 97.96 53.28 113.94 C 59.52 114.14 65.78 113.84 72.01 114.21 C 71.98 98.14 72.03 82.07 72.01 66.00 C 65.66 65.96 59.31 66.01 52.97 66.00 M 92.35 65.99 C 92.76 82.17 92.88 98.40 92.39 114.58 C 98.55 113.65 104.79 114.12 111.00 114.00 C 111.18 98.00 110.93 82.00 111.44 66.00 C 105.08 66.00 98.72 65.99 92.35 65.99 M 69.56 119.01 C 69.81 123.04 72.51 126.21 74.36 129.62 C 83.51 144.29 92.55 159.09 100.32 174.52 C 109.49 157.85 119.42 141.62 129.25 125.31 C 130.53 123.44 131.22 121.28 131.35 119.01 C 127.95 118.95 124.56 118.94 121.17 118.94 C 113.71 131.01 107.97 144.04 100.42 156.03 C 93.00 143.97 87.08 131.11 79.78 119.00 C 76.37 118.99 72.97 118.99 69.56 119.01 Z" />
<path fill="#ffffff" opacity="1.00" d=" M 44.45 9.51 C 58.27 9.44 72.11 9.86 85.91 9.17 C 84.89 9.79 83.88 10.42 82.88 11.06 C 90.74 15.20 99.88 12.41 108.20 14.71 C 98.55 14.26 88.86 14.93 79.24 14.26 C 70.62 11.60 61.04 8.64 52.15 11.73 C 58.44 15.58 67.10 11.49 74.08 14.68 C 66.53 14.33 58.52 15.47 51.27 13.73 C 46.62 15.32 41.62 14.19 36.81 14.68 C 39.87 13.83 42.68 12.22 44.45 9.51 Z" />
<path fill="#ffffff" opacity="1.00" d=" M 15.16 22.97 C 17.94 22.26 20.82 22.40 23.66 22.44 C 23.65 22.99 23.65 24.08 23.65 24.62 C 21.47 25.20 19.28 25.72 17.08 26.24 C 16.45 25.14 15.81 24.06 15.16 22.97 Z" />
<path fill="#ffffff" opacity="1.00" d=" M 23.05 36.35 C 27.98 34.21 32.65 36.47 33.97 41.68 C 31.19 41.65 28.42 41.54 25.65 41.42 C 24.70 39.77 23.81 38.09 23.05 36.35 Z" />
<path fill="#ffffff" opacity="1.00" d=" M 53.14 47.43 C 63.69 48.07 74.23 47.08 84.79 47.46 C 79.75 47.87 74.67 47.44 69.62 47.77 C 69.58 48.41 69.49 49.70 69.44 50.35 C 81.07 51.30 92.15 56.11 103.15 59.55 C 95.36 60.16 87.72 58.17 79.94 58.58 C 73.84 57.78 68.30 53.68 61.93 54.62 C 58.89 56.83 55.89 59.29 51.98 59.64 C 54.43 55.61 59.62 53.06 59.65 47.82 C 57.48 47.72 55.31 47.61 53.14 47.43 Z" />
<path fill="#ffffff" opacity="1.00" d=" M 61.42 57.31 C 68.02 56.15 73.88 59.48 80.18 60.63 C 72.43 60.90 64.67 60.56 56.92 60.79 C 58.44 59.65 59.94 58.50 61.42 57.31 Z" />
<path fill="#ffffff" opacity="1.00" d=" M 54.43 67.34 C 59.86 67.51 65.29 67.48 70.73 67.35 C 70.70 69.17 70.70 70.99 70.71 72.82 C 66.29 71.46 58.84 70.48 58.37 76.95 C 59.35 83.11 66.35 81.25 70.61 80.27 C 70.56 82.68 70.54 85.08 70.56 87.49 C 64.80 87.93 58.39 86.98 54.76 82.01 C 54.46 77.13 54.87 72.22 54.43 67.34 Z" />
<path fill="#ffffff" opacity="1.00" d=" M 94.31 67.44 C 99.43 67.56 104.56 67.59 109.68 67.46 C 109.68 70.01 109.76 72.56 109.92 75.10 C 109.35 74.18 108.77 73.27 108.18 72.36 C 107.54 73.21 106.89 74.06 106.25 74.91 C 102.63 72.64 98.56 70.91 94.19 71.57 C 94.24 70.19 94.28 68.82 94.31 67.44 Z" />
<path fill="#ffffff" opacity="1.00" d=" M 60.02 76.97 C 60.47 71.79 66.62 73.86 69.95 74.24 C 69.95 75.75 69.97 77.25 69.99 78.76 C 66.71 79.19 60.93 81.82 60.02 76.97 Z" />
<path fill="#ffffff" opacity="1.00" d=" M 95.40 73.01 C 100.31 72.75 103.99 77.02 108.85 76.78 C 108.79 77.22 108.68 78.11 108.62 78.55 C 103.84 79.31 98.71 82.04 94.00 79.79 C 94.40 77.52 94.89 75.26 95.40 73.01 Z" />
<path fill="#ffffff" opacity="1.00" d=" M 94.02 82.30 C 99.50 83.02 104.77 81.24 110.04 80.08 C 108.83 86.69 99.45 84.13 94.51 84.58 C 94.38 84.01 94.14 82.87 94.02 82.30 Z" />
<path fill="#ffffff" opacity="1.00" d=" M 55.16 85.00 C 59.38 88.97 64.87 90.03 70.49 89.31 C 70.49 90.47 70.50 91.64 70.51 92.81 C 67.67 92.62 64.82 92.31 62.06 91.59 C 59.72 92.95 57.39 94.32 55.14 95.82 C 55.36 92.22 55.35 88.60 55.16 85.00 Z" />
<path fill="#ffffff" opacity="1.00" d=" M 94.36 86.55 C 99.12 86.72 104.15 87.20 108.65 85.33 C 108.43 89.08 108.35 92.94 109.81 96.48 C 104.83 94.84 99.65 93.36 94.36 93.60 C 94.41 91.25 94.41 88.90 94.36 86.55 Z" />
<path fill="#ffffff" opacity="1.00" d=" M 55.30 97.56 C 59.65 93.87 65.19 93.69 70.60 94.41 C 70.57 95.81 70.56 97.22 70.55 98.62 C 66.80 97.73 62.90 97.48 59.13 98.42 C 58.94 99.02 58.57 100.24 58.38 100.84 C 62.21 98.49 66.58 99.46 70.67 100.29 C 70.55 104.49 70.55 108.70 70.66 112.90 C 65.85 112.77 61.03 112.61 56.23 113.01 C 57.42 109.49 58.26 104.57 55.90 101.45 C 55.65 104.70 55.96 108.00 55.41 111.23 C 55.16 106.68 55.18 102.11 55.30 97.56 Z" />
<path fill="#ffffff" opacity="1.00" d=" M 95.05 95.34 C 99.98 96.22 104.97 96.88 109.74 98.47 C 109.44 98.77 108.83 99.36 108.53 99.66 C 104.29 98.02 97.68 99.05 95.05 95.34 Z" />
<path fill="#ffffff" opacity="1.00" d=" M 131.72 96.18 C 136.01 97.18 140.08 99.06 144.49 99.59 C 145.22 103.67 144.97 107.77 144.53 111.86 C 141.99 111.66 139.51 111.01 137.27 109.77 C 138.43 107.62 139.27 105.31 139.66 102.89 C 137.03 100.84 134.04 98.99 130.54 99.56 C 130.94 98.43 131.33 97.30 131.72 96.18 Z" />
<path fill="#ffffff" opacity="1.00" d=" M 94.61 98.80 C 99.56 98.96 104.67 101.39 109.85 101.35 C 109.78 105.15 109.71 108.96 109.68 112.76 C 104.50 112.62 99.31 112.51 94.14 112.89 C 94.53 108.24 93.54 103.23 94.61 98.80 Z" />
<path fill="#ffffff" opacity="1.00" d=" M 131.30 101.19 C 133.06 101.93 135.35 101.98 136.67 103.44 C 136.74 106.24 135.55 108.92 135.56 111.74 C 134.13 111.72 132.70 111.72 131.27 111.72 C 131.36 108.21 131.36 104.70 131.30 101.19 Z" />
<path fill="#ffffff" opacity="1.00" d=" M 85.40 131.83 C 85.84 132.59 86.29 133.36 86.74 134.12 C 85.78 135.43 84.87 136.77 83.94 138.11 C 84.29 135.98 84.82 133.90 85.40 131.83 Z" />
<path fill="#ffffff" opacity="1.00" d=" M 87.20 135.85 C 88.85 139.96 93.73 143.81 92.42 148.41 C 88.00 150.75 85.51 145.35 83.99 142.16 C 85.18 140.12 86.23 138.00 87.20 135.85 Z" />
<path fill="#ffffff" opacity="1.00" d=" M 83.94 138.11 C 84.89 142.84 79.47 137.31 83.94 138.11 Z" />
<path fill="#ffffff" opacity="1.00" d=" M 111.55 139.63 C 113.28 140.69 114.94 141.88 116.50 143.19 C 115.71 144.50 114.94 145.83 114.18 147.17 C 111.24 147.95 108.61 149.49 106.02 151.02 C 106.94 146.82 109.92 143.54 111.55 139.63 Z" />
<path fill="#ffffff" opacity="1.00" d=" M 89.33 151.21 C 91.14 150.57 92.95 149.92 94.75 149.24 C 95.00 149.72 95.50 150.66 95.75 151.14 C 94.99 152.44 94.24 153.74 93.49 155.04 C 95.06 155.82 96.65 156.60 98.21 157.43 C 96.36 157.45 94.53 157.46 92.69 157.47 C 91.62 155.36 90.50 153.27 89.33 151.21 Z" />
<path fill="#ffffff" opacity="1.00" d=" M 103.43 156.18 C 105.06 156.35 106.54 157.04 107.92 157.89 C 107.18 159.18 106.45 160.49 105.74 161.81 C 104.53 160.58 103.31 159.36 102.09 158.15 C 102.42 157.66 103.09 156.67 103.43 156.18 Z" />
<path fill="#ffffff" opacity="1.00" d=" M 93.79 159.13 C 97.56 158.93 102.15 159.52 104.20 163.16 C 104.00 166.05 101.55 168.39 100.54 171.09 C 98.46 167.01 95.86 163.22 93.79 159.13 Z" />
</g>
<g id="#55007fff">
<path fill="#55007f" opacity="1.00" d=" M 4.68 8.01 C 68.56 7.90 132.43 7.96 196.31 8.01 C 190.13 19.83 183.30 31.33 176.66 42.91 C 172.72 44.06 168.25 43.11 164.12 43.70 C 168.45 34.96 173.79 26.74 178.19 18.03 C 126.42 17.98 74.66 17.98 22.90 18.03 C 24.49 21.15 27.83 24.53 24.26 27.64 C 22.13 27.56 19.97 27.71 17.91 28.30 C 21.29 28.36 24.82 28.40 27.98 26.99 C 30.77 32.39 33.96 37.58 36.41 43.16 C 32.44 43.05 28.26 43.70 24.43 42.56 C 17.88 31.03 10.67 19.84 4.68 8.01 M 44.45 9.51 C 42.68 12.22 39.87 13.83 36.81 14.68 C 41.62 14.19 46.62 15.32 51.27 13.73 C 58.52 15.47 66.53 14.33 74.08 14.68 C 67.10 11.49 58.44 15.58 52.15 11.73 C 61.04 8.64 70.62 11.60 79.24 14.26 C 88.86 14.93 98.55 14.26 108.20 14.71 C 99.88 12.41 90.74 15.20 82.88 11.06 C 83.88 10.42 84.89 9.79 85.91 9.17 C 72.11 9.86 58.27 9.44 44.45 9.51 M 15.16 22.97 C 15.81 24.06 16.45 25.14 17.08 26.24 C 19.28 25.72 21.47 25.20 23.65 24.62 C 23.65 24.08 23.65 22.99 23.66 22.44 C 20.82 22.40 17.94 22.26 15.16 22.97 M 23.05 36.35 C 23.81 38.09 24.70 39.77 25.65 41.42 C 28.42 41.54 31.19 41.65 33.97 41.68 C 32.65 36.47 27.98 34.21 23.05 36.35 Z" />
<path fill="#55007f" opacity="1.00" d=" M 16.32 46.01 C 53.19 45.98 90.07 46.02 126.94 45.98 C 133.82 53.18 141.35 59.73 148.01 67.15 C 147.21 82.93 148.23 98.76 148.02 114.56 C 141.34 114.20 134.67 114.19 127.99 114.51 C 127.76 100.20 128.48 85.94 128.53 71.64 C 127.80 70.85 127.27 69.96 126.93 68.96 C 128.41 67.88 130.39 69.38 130.37 71.01 C 130.86 75.91 129.62 80.99 131.10 85.78 C 135.83 83.97 140.77 82.82 145.64 81.47 C 145.61 79.73 145.60 78.00 145.62 76.27 C 139.96 71.42 133.05 68.76 126.13 66.32 C 125.70 66.65 124.82 67.30 124.38 67.62 C 122.57 65.74 120.66 63.95 118.71 62.22 C 89.50 62.54 60.29 62.10 31.08 62.36 C 26.22 56.89 20.03 52.33 16.32 46.01 M 53.14 47.43 C 55.31 47.61 57.48 47.72 59.65 47.82 C 59.62 53.06 54.43 55.61 51.98 59.64 C 55.89 59.29 58.89 56.83 61.93 54.62 C 68.30 53.68 73.84 57.78 79.94 58.58 C 87.72 58.17 95.36 60.16 103.15 59.55 C 92.15 56.11 81.07 51.30 69.44 50.35 C 69.49 49.70 69.58 48.41 69.62 47.77 C 74.67 47.44 79.75 47.87 84.79 47.46 C 74.23 47.08 63.69 48.07 53.14 47.43 M 61.42 57.31 C 59.94 58.50 58.44 59.65 56.92 60.79 C 64.67 60.56 72.43 60.90 80.18 60.63 C 73.88 59.48 68.02 56.15 61.42 57.31 M 131.72 96.18 C 131.33 97.30 130.94 98.43 130.54 99.56 C 134.04 98.99 137.03 100.84 139.66 102.89 C 139.27 105.31 138.43 107.62 137.27 109.77 C 139.51 111.01 141.99 111.66 144.53 111.86 C 144.97 107.77 145.22 103.67 144.49 99.59 C 140.08 99.06 136.01 97.18 131.72 96.18 M 131.30 101.19 C 131.36 104.70 131.36 108.21 131.27 111.72 C 132.70 111.72 134.13 111.72 135.56 111.74 C 135.55 108.92 136.74 106.24 136.67 103.44 C 135.35 101.98 133.06 101.93 131.30 101.19 Z" />
<path fill="#55007f" opacity="1.00" d=" M 130.80 46.73 C 141.33 45.07 152.27 46.36 162.97 46.03 C 159.45 48.34 154.96 47.13 151.00 47.41 C 144.28 47.05 137.44 48.06 130.80 46.73 Z" />
<path fill="#55007f" opacity="1.00" d=" M 131.69 48.81 C 141.76 45.80 153.52 48.95 164.13 47.14 C 170.95 53.27 176.65 60.64 184.00 66.21 C 184.01 82.47 184.01 98.74 184.01 115.00 C 177.44 114.03 170.74 114.24 164.15 114.93 C 163.80 100.27 164.06 85.59 164.00 70.92 C 160.95 68.34 158.52 65.07 155.29 62.70 C 152.02 61.83 148.48 63.00 145.20 62.05 C 140.43 57.91 136.60 52.79 131.69 48.81 Z" />
<path fill="#55007f" opacity="1.00" d=" M 52.97 66.00 C 59.31 66.01 65.66 65.96 72.01 66.00 C 72.03 82.07 71.98 98.14 72.01 114.21 C 65.78 113.84 59.52 114.14 53.28 113.94 C 53.27 97.96 53.25 81.98 52.97 66.00 M 54.43 67.34 C 54.87 72.22 54.46 77.13 54.76 82.01 C 58.39 86.98 64.80 87.93 70.56 87.49 C 70.54 85.08 70.56 82.68 70.61 80.27 C 66.35 81.25 59.35 83.11 58.37 76.95 C 58.84 70.48 66.29 71.46 70.71 72.82 C 70.70 70.99 70.70 69.17 70.73 67.35 C 65.29 67.48 59.86 67.51 54.43 67.34 M 60.02 76.97 C 60.93 81.82 66.71 79.19 69.99 78.76 C 69.97 77.25 69.95 75.75 69.95 74.24 C 66.62 73.86 60.47 71.79 60.02 76.97 M 55.16 85.00 C 55.35 88.60 55.36 92.22 55.14 95.82 C 57.39 94.32 59.72 92.95 62.06 91.59 C 64.82 92.31 67.67 92.62 70.51 92.81 C 70.50 91.64 70.49 90.47 70.49 89.31 C 64.87 90.03 59.38 88.97 55.16 85.00 M 55.30 97.56 C 55.18 102.11 55.16 106.68 55.41 111.23 C 55.96 108.00 55.65 104.70 55.90 101.45 C 58.26 104.57 57.42 109.49 56.23 113.01 C 61.03 112.61 65.85 112.77 70.66 112.90 C 70.55 108.70 70.55 104.49 70.67 100.29 C 66.58 99.46 62.21 98.49 58.38 100.84 C 58.57 100.24 58.94 99.02 59.13 98.42 C 62.90 97.48 66.80 97.73 70.55 98.62 C 70.56 97.22 70.57 95.81 70.60 94.41 C 65.19 93.69 59.65 93.87 55.30 97.56 Z" />
<path fill="#55007f" opacity="1.00" d=" M 92.35 65.99 C 98.72 65.99 105.08 66.00 111.44 66.00 C 110.93 82.00 111.18 98.00 111.00 114.00 C 104.79 114.12 98.55 113.65 92.39 114.58 C 92.88 98.40 92.76 82.17 92.35 65.99 M 94.31 67.44 C 94.28 68.82 94.24 70.19 94.19 71.57 C 98.56 70.91 102.63 72.64 106.25 74.91 C 106.89 74.06 107.54 73.21 108.18 72.36 C 108.77 73.27 109.35 74.18 109.92 75.10 C 109.76 72.56 109.68 70.01 109.68 67.46 C 104.56 67.59 99.43 67.56 94.31 67.44 M 95.40 73.01 C 94.89 75.26 94.40 77.52 94.00 79.79 C 98.71 82.04 103.84 79.31 108.62 78.55 C 108.68 78.11 108.79 77.22 108.85 76.78 C 103.99 77.02 100.31 72.75 95.40 73.01 M 94.02 82.30 C 94.14 82.87 94.38 84.01 94.51 84.58 C 99.45 84.13 108.83 86.69 110.04 80.08 C 104.77 81.24 99.50 83.02 94.02 82.30 M 94.36 86.55 C 94.41 88.90 94.41 91.25 94.36 93.60 C 99.65 93.36 104.83 94.84 109.81 96.48 C 108.35 92.94 108.43 89.08 108.65 85.33 C 104.15 87.20 99.12 86.72 94.36 86.55 M 95.05 95.34 C 97.68 99.05 104.29 98.02 108.53 99.66 C 108.83 99.36 109.44 98.77 109.74 98.47 C 104.97 96.88 99.98 96.22 95.05 95.34 M 94.61 98.80 C 93.54 103.23 94.53 108.24 94.14 112.89 C 99.31 112.51 104.50 112.62 109.68 112.76 C 109.71 108.96 109.78 105.15 109.85 101.35 C 104.67 101.39 99.56 98.96 94.61 98.80 Z" />
<path fill="#55007f" opacity="1.00" d=" M 69.56 119.01 C 72.97 118.99 76.37 118.99 79.78 119.00 C 87.08 131.11 93.00 143.97 100.42 156.03 C 107.97 144.04 113.71 131.01 121.17 118.94 C 124.56 118.94 127.95 118.95 131.35 119.01 C 131.22 121.28 130.53 123.44 129.25 125.31 C 119.42 141.62 109.49 157.85 100.32 174.52 C 92.55 159.09 83.51 144.29 74.36 129.62 C 72.51 126.21 69.81 123.04 69.56 119.01 M 85.40 131.83 C 84.82 133.90 84.29 135.98 83.94 138.11 C 84.87 136.77 85.78 135.43 86.74 134.12 C 86.29 133.36 85.84 132.59 85.40 131.83 M 87.20 135.85 C 86.23 138.00 85.18 140.12 83.99 142.16 C 85.51 145.35 88.00 150.75 92.42 148.41 C 93.73 143.81 88.85 139.96 87.20 135.85 M 83.94 138.11 C 79.47 137.31 84.89 142.84 83.94 138.11 M 111.55 139.63 C 109.92 143.54 106.94 146.82 106.02 151.02 C 108.61 149.49 111.24 147.95 114.18 147.17 C 114.94 145.83 115.71 144.50 116.50 143.19 C 114.94 141.88 113.28 140.69 111.55 139.63 M 89.33 151.21 C 90.50 153.27 91.62 155.36 92.69 157.47 C 94.53 157.46 96.36 157.45 98.21 157.43 C 96.65 156.60 95.06 155.82 93.49 155.04 C 94.24 153.74 94.99 152.44 95.75 151.14 C 95.50 150.66 95.00 149.72 94.75 149.24 C 92.95 149.92 91.14 150.57 89.33 151.21 M 103.43 156.18 C 103.09 156.67 102.42 157.66 102.09 158.15 C 103.31 159.36 104.53 160.58 105.74 161.81 C 106.45 160.49 107.18 159.18 107.92 157.89 C 106.54 157.04 105.06 156.35 103.43 156.18 M 93.79 159.13 C 95.86 163.22 98.46 167.01 100.54 171.09 C 101.55 168.39 104.00 166.05 104.20 163.16 C 102.15 159.52 97.56 158.93 93.79 159.13 Z" />
</g>
</svg>
