<?xml version="1.0"?>
<svg xmlns="http://www.w3.org/2000/svg" viewBox="0 0 24 24">
    <path d="M 12 1 C 5.925 1 1 5.925 1 12 C 1 18.075 5.925 23 12 23 C 18.075 23 23 18.075 23 12 C 23 5.925 18.075 1 12 1 z M 8.625 7.5 C 11.654 7.5 11.78125 10.55975 11.78125 11.34375 L 11.78125 12.78125 C 11.78125 13.39525 11.704 16.5 8.625 16.5 C 5.551 16.5 5.46875 13.49225 5.46875 12.78125 L 5.46875 11.34375 C 5.46875 9.90375 6.001 7.5 8.625 7.5 z M 15.78125 7.5 C 18.32825 7.5 18.53125 9.70075 18.53125 10.21875 L 16.78125 10.21875 C 16.78125 10.03475 16.75 8.9375 15.75 8.9375 C 14.813 8.9375 14.78125 9.82775 14.78125 9.96875 C 14.78225 11.55475 18.53125 10.9935 18.53125 14.0625 C 18.53125 16.3965 16.2295 16.5 15.8125 16.5 C 13.4515 16.5 12.78125 14.771 12.78125 13.625 L 14.5625 13.625 C 14.5625 13.89 14.4825 15.0625 15.8125 15.0625 C 16.7465 15.0625 16.75 14.23475 16.75 14.09375 C 16.75 12.19975 13 12.9415 13 9.9375 C 13 7.6475 15.37225 7.5 15.78125 7.5 z M 8.625 8.96875 C 8.396 8.96875 7.21875 8.8385 7.21875 11.3125 L 7.21875 12.78125 C 7.21875 13.17825 7.144 15.03125 8.625 15.03125 C 10.064 15.03125 10 13.17825 10 12.78125 L 10 11.3125 C 10 10.8055 10.092 8.96875 8.625 8.96875 z"/>
</svg>
