<?xml version="1.0" standalone="no"?>
<!DOCTYPE svg PUBLIC "-//W3C//DTD SVG 20010904//EN"
 "http://www.w3.org/TR/2001/REC-SVG-20010904/DTD/svg10.dtd">
<svg version="1.0" xmlns="http://www.w3.org/2000/svg"
 width="3120.000000pt" height="3120.000000pt" viewBox="0 0 3120.000000 3120.000000"
 preserveAspectRatio="xMidYMid meet">
<metadata>
Created by potrace 1.16, written by Peter Selinger 2001-2019
</metadata>
<g transform="translate(0.000000,3120.000000) scale(0.100000,-0.100000)"
fill="#000000" stroke="none">
<path d="M0 15600 l0 -15600 7971 0 7971 0 -4 35 c-2 19 0 35 5 35 5 0 4 7 -3
15 -7 8 -19 15 -27 15 -11 0 -13 5 -7 17 4 10 7 31 7 48 0 16 7 35 15 41 14
10 14 14 3 28 -11 14 -11 16 3 16 9 0 16 8 16 20 0 26 20 26 27 0 3 -11 9 -18
13 -15 5 3 11 1 15 -5 3 -5 1 -10 -5 -10 -21 0 19 -57 50 -70 16 -7 30 -16 30
-21 0 -13 34 -11 48 3 7 7 12 20 12 30 0 26 35 23 54 -4 13 -17 18 -20 28 -10
10 10 7 15 -10 28 -25 17 -29 44 -7 44 22 0 18 17 -6 23 -31 8 -51 -2 -44 -23
5 -15 2 -17 -15 -13 -24 6 -26 19 -4 31 15 8 15 11 0 34 -11 17 -15 35 -10 52
5 21 3 25 -9 20 -19 -7 -29 -31 -17 -39 5 -3 5 -18 1 -33 -4 -15 -6 -32 -4
-38 6 -18 -25 -25 -41 -8 -8 8 -21 13 -28 12 -7 -2 -13 4 -13 12 0 8 10 16 23
18 13 2 21 9 19 15 -2 7 0 21 6 32 13 25 11 53 -30 458 -3 30 -1 47 6 47 6 0
11 -6 11 -12 0 -20 49 -38 83 -31 21 4 28 3 23 -5 -5 -8 2 -12 20 -12 31 0 78
-45 70 -66 -3 -9 1 -14 13 -14 10 0 23 -11 29 -25 6 -14 16 -25 22 -25 5 0 10
-6 10 -14 0 -8 9 -22 21 -30 13 -9 18 -19 14 -27 -5 -7 -2 -17 7 -23 17 -12
26 -43 38 -131 4 -33 15 -77 25 -99 24 -55 57 -217 50 -246 -4 -20 -3 -22 6
-10 9 12 10 11 6 -8 -4 -15 1 -30 14 -43 19 -19 64 -19 2499 -19 1364 0 2480
3 2480 7 0 4 -9 27 -21 52 -59 129 -61 136 -65 261 -5 122 -8 156 -17 180 -3
8 -6 26 -6 40 1 30 1 257 0 284 0 15 5 17 34 12 44 -9 50 4 25 51 -24 45 -26
71 -5 79 20 8 22 133 3 135 -25 2 -43 -3 -59 -17 -14 -13 -17 -13 -22 0 -3 8
-1 17 6 19 8 3 6 10 -7 19 -15 12 -17 18 -7 36 7 14 21 22 36 22 17 0 25 6 25
18 0 10 5 23 12 30 9 9 7 12 -10 12 -12 0 -27 10 -33 23 -7 12 -39 47 -71 78
-32 30 -58 61 -58 67 0 7 -4 12 -8 12 -5 0 -19 26 -32 58 -13 31 -36 80 -51
108 -29 55 -33 88 -44 384 -3 85 -11 151 -26 205 -12 44 -21 89 -21 100 1 10
-3 24 -7 30 -5 5 -11 28 -15 50 -3 22 -10 65 -16 95 -6 30 -13 80 -16 110 -3
30 -8 58 -11 63 -8 14 -8 99 1 125 4 12 12 22 18 22 5 0 8 7 5 15 -4 8 -2 17
3 20 4 3 11 -1 13 -7 3 -8 6 -6 6 5 1 12 5 16 14 11 8 -5 7 -2 -2 9 -8 10 -21
15 -32 12 -16 -5 -17 3 -16 107 1 62 -1 136 -5 163 -8 50 -8 50 42 105 27 30
52 66 55 80 3 14 10 44 15 68 6 24 8 48 4 53 -3 6 -8 32 -11 57 -3 26 -11 65
-18 87 -8 22 -16 55 -20 72 -3 18 -16 53 -30 77 -14 25 -25 53 -25 63 0 10 -6
27 -14 38 -13 19 -54 144 -77 235 -6 25 -14 56 -18 70 -3 14 -5 87 -4 164 1
134 2 141 32 200 17 33 61 95 97 136 84 97 84 97 118 145 16 22 42 52 57 66
15 14 33 45 39 70 7 24 21 62 32 84 19 37 20 51 14 210 -14 362 -33 487 -108
705 -15 43 -18 198 -6 276 6 42 5 88 -6 164 -11 77 -16 222 -18 542 -2 240 -1
438 2 441 6 5 109 61 255 137 55 28 105 55 110 59 6 4 30 13 55 20 63 18 143
83 198 160 26 36 60 81 77 100 16 19 53 60 80 92 28 31 69 79 93 107 41 48 76
69 87 51 3 -4 18 -6 33 -4 68 12 213 11 230 -1 12 -9 39 -11 97 -7 96 8 368 8
555 -1 74 -3 140 -6 145 -6 6 0 109 1 230 3 121 2 258 1 305 -3 47 -3 89 -5
93 -2 22 11 527 0 567 -13 10 -3 21 -2 24 3 3 5 34 5 69 1 52 -6 262 -16 462
-21 22 -1 78 3 125 7 107 11 104 11 170 1 30 -4 63 -15 73 -24 13 -11 20 -13
25 -5 5 8 21 9 52 3 24 -4 52 -7 62 -5 23 5 91 -14 99 -28 4 -6 19 -1 38 12
25 18 50 24 124 28 156 10 291 10 304 0 7 -5 19 -7 27 -4 7 3 31 1 52 -4 22
-5 93 -12 159 -14 66 -2 190 -6 275 -9 142 -4 247 -17 271 -32 6 -3 16 -1 23
5 8 7 23 7 46 1 25 -7 39 -6 54 4 12 7 25 13 29 14 11 0 67 53 67 63 0 14 -40
16 -51 3 -15 -18 -26 -18 -53 4 -19 14 -21 20 -10 30 24 22 1 142 -26 142 -6
0 -10 -4 -10 -9 0 -17 -41 1 -57 25 -8 13 -19 22 -23 19 -9 -5 -99 23 -117 38
-7 5 -10 13 -7 19 3 5 -10 8 -30 6 -20 -1 -36 -5 -36 -9 0 -3 -11 -4 -25 -1
-18 3 -25 0 -25 -12 0 -31 -51 -19 -87 20 -18 20 -33 42 -33 48 0 6 -7 -2 -15
-17 -8 -15 -12 -34 -8 -42 3 -8 1 -15 -5 -15 -6 0 -12 5 -14 11 -3 8 -14 6
-37 -6 -25 -12 -36 -14 -41 -5 -5 9 -17 9 -44 2 -24 -7 -36 -7 -36 0 0 12 -63
0 -68 -13 -5 -13 -36 -11 -50 3 -8 8 -15 8 -27 -2 -13 -11 -18 -10 -28 3 -7 9
-42 20 -87 27 -66 10 -103 20 -72 20 21 0 12 34 -13 53 -24 17 -25 17 -27 0 0
-10 -2 -25 -2 -33 -1 -8 3 -18 9 -22 5 -4 -9 -8 -33 -8 -28 0 -45 -5 -48 -14
-3 -8 -12 -12 -19 -10 -8 3 -19 -3 -26 -14 -8 -13 -19 -17 -36 -14 -15 3 -29
-1 -34 -9 -10 -14 -14 -11 -55 46 -14 19 -14 19 -30 -3 -17 -25 -64 -31 -64
-8 0 20 -20 31 -29 17 -6 -9 -15 -8 -37 4 -37 19 -54 19 -54 0 0 -18 -12 -19
-28 -3 -8 8 -15 8 -26 -1 -11 -9 -15 -9 -18 0 -3 8 -15 9 -36 4 -35 -7 -42
-21 -14 -28 9 -3 0 -5 -20 -6 -21 0 -38 4 -38 9 0 6 -16 10 -36 10 -23 0 -33
4 -28 11 5 8 1 8 -14 0 -11 -6 -41 -11 -67 -11 -25 0 -60 -6 -78 -13 -39 -16
-159 -15 -165 2 -2 6 -12 11 -21 11 -10 0 -40 11 -67 25 -52 27 -79 31 -89 15
-9 -15 -25 -12 -25 5 0 11 -8 13 -30 9 -22 -5 -30 -3 -30 7 -1 10 -5 9 -14 -4
-12 -15 -14 -16 -20 -2 -5 14 -8 14 -30 0 -15 -10 -33 -14 -46 -10 -11 4 -20
2 -20 -4 0 -6 -7 -8 -15 -5 -9 4 -15 0 -15 -10 0 -40 -68 -41 -107 -1 -34 35
-144 49 -184 24 -29 -19 -114 -15 -166 6 -32 14 -37 14 -48 -1 -8 -12 -14 -14
-19 -6 -10 17 -46 15 -46 -3 0 -18 -16 -20 -23 -2 -4 8 -8 8 -14 2 -10 -13
-53 -18 -53 -6 0 10 -50 9 -67 -2 -7 -5 -13 -4 -13 1 0 5 -20 19 -45 32 -37
19 -44 27 -40 44 5 19 4 19 -6 -1 -12 -24 -43 -31 -54 -13 -3 6 1 17 10 26 9
9 14 18 12 20 -9 9 -35 -8 -47 -32 -16 -29 -34 -34 -123 -37 -52 -2 -67 1 -67
12 0 11 -4 11 -18 -2 -10 -10 -25 -17 -33 -17 -8 0 -20 -5 -27 -12 -7 -7 -12
-8 -12 -2 0 12 -60 17 -156 13 -29 -2 -49 3 -54 11 -6 10 -12 8 -26 -9 -25
-29 -50 -27 -60 7 -5 19 -8 22 -11 10 -5 -19 -30 -31 -38 -18 -7 11 -45 -5
-58 -24 -5 -7 -14 -2 -28 14 -12 15 -22 20 -25 14 -3 -7 -14 -10 -25 -7 -10 3
-26 0 -34 -7 -13 -11 -14 -10 -9 4 5 12 0 16 -19 16 -14 0 -28 -4 -31 -9 -6
-10 -55 -7 -93 4 -18 6 -23 3 -23 -11 -1 -17 -3 -16 -20 5 -11 13 -20 18 -20
12 0 -6 -11 -11 -25 -11 -14 0 -25 5 -25 10 0 6 -10 10 -22 10 -13 0 -31 7
-41 15 -11 7 -26 11 -35 8 -15 -6 -15 -4 1 14 9 11 17 28 17 38 0 14 3 15 15
5 21 -18 29 -6 14 18 -11 17 -10 27 6 59 11 21 25 45 32 54 7 8 22 53 33 99
12 45 38 117 59 159 21 42 49 101 62 131 12 30 30 66 39 80 9 14 33 76 54 139
20 63 43 128 50 145 8 17 31 76 52 131 29 77 48 110 81 143 23 23 45 42 49 42
4 0 37 28 74 62 36 35 97 90 135 122 143 122 377 382 420 466 38 75 75 314 75
488 0 88 25 205 55 257 24 41 31 45 64 45 54 0 101 18 99 38 -5 65 4 92 53
158 28 38 62 94 75 124 14 30 31 69 39 85 8 17 19 42 24 58 6 15 15 27 21 27
5 0 10 4 10 10 0 5 15 30 32 54 22 30 40 44 53 43 15 -1 19 3 17 18 -2 18 -2
18 8 3 6 -10 17 -18 24 -18 11 0 13 -47 12 -248 -1 -136 -5 -253 -9 -259 -5
-8 -3 -13 3 -13 7 0 10 -6 7 -14 -7 -18 11 -39 43 -52 14 -6 68 -10 120 -9
230 5 329 5 390 -1 36 -3 72 -6 80 -6 8 0 22 -2 30 -5 18 -6 104 -5 142 3 16
3 30 14 34 27 8 25 8 272 -2 1132 -4 325 -8 718 -10 875 -2 306 -11 740 -19
1040 -3 102 -7 349 -10 550 -3 201 -6 411 -8 468 -2 56 1 102 6 102 4 0 5 5 2
10 -4 6 -8 113 -10 238 -2 125 -7 310 -10 412 -3 102 -7 365 -8 585 -1 220 -6
406 -10 413 -5 7 -4 12 2 12 6 0 8 38 6 103 -3 56 -5 102 -5 102 -1 0 -2 35
-3 78 -1 42 0 77 3 77 8 0 3 138 -6 151 -3 6 -1 15 6 19 7 4 9 13 5 19 -4 7
-9 233 -11 504 -2 271 -4 494 -5 497 0 3 0 46 1 95 1 50 1 106 1 125 -2 53
-10 955 -16 1700 -2 366 -7 739 -10 830 -4 91 -6 179 -5 195 1 17 2 39 1 50
-2 45 0 153 3 204 2 30 0 64 -4 76 -6 14 -4 27 3 34 9 9 9 14 -1 20 -8 5 -11
18 -8 32 12 49 14 99 5 105 -5 3 -6 10 -3 16 7 11 7 228 0 291 -2 20 -1 39 3
41 4 3 6 39 6 81 -1 42 2 78 7 81 4 3 5 11 2 19 -4 8 -11 12 -17 8 -6 -4 -7
-1 -2 7 12 20 16 181 16 845 0 94 1 238 1 320 0 83 0 182 -1 220 0 39 1 115 4
170 9 169 10 345 3 345 -4 0 -3 14 2 31 5 17 6 39 1 48 -4 9 -6 43 -5 76 4 92
6 169 4 180 -1 6 -2 14 -1 20 2 10 10 633 16 1305 4 494 10 683 19 698 4 7 4
17 1 23 -4 6 -6 86 -6 177 1 92 3 258 4 369 1 112 6 203 10 203 5 0 5 5 1 12
-10 16 -12 143 -3 186 5 21 3 32 -5 32 -7 0 -7 3 -1 8 6 4 10 57 10 122 0 65
4 118 10 122 6 5 6 8 -1 8 -7 0 -10 12 -7 28 4 30 10 138 17 338 3 72 8 139
12 148 3 9 1 16 -6 16 -6 0 -8 5 -5 10 4 6 6 61 5 123 -1 62 -1 117 -1 122 1
6 4 240 6 520 3 281 9 731 15 1001 5 270 10 579 10 687 l0 197 -455 0 c-493 0
-467 3 -446 -53 6 -14 12 -175 15 -359 3 -183 10 -367 16 -408 6 -41 13 -112
14 -156 2 -45 7 -91 11 -103 4 -13 1 -29 -7 -38 -7 -9 -8 -14 -2 -10 8 4 11
-7 11 -36 0 -23 1 -75 3 -115 2 -39 1 -74 -2 -77 -3 -3 -2 -25 2 -50 4 -29 3
-46 -4 -49 -7 -3 -6 -5 2 -5 10 -1 10 -5 0 -21 -11 -17 -10 -22 1 -29 8 -5 12
-18 8 -30 -3 -12 -2 -35 3 -50 4 -16 4 -33 -1 -38 -5 -5 -4 -24 2 -46 5 -20 7
-43 3 -49 -7 -11 -9 -64 -4 -70 9 -11 7 -184 -2 -195 -9 -11 -8 -13 3 -11 8 2
13 -3 11 -11 -2 -8 -5 -30 -7 -50 -2 -20 -7 -44 -10 -53 -5 -13 -2 -18 10 -18
12 0 15 -5 10 -21 -12 -36 -13 -163 -2 -177 7 -9 7 -16 0 -23 -7 -7 -7 -24 -2
-47 4 -20 4 -39 -1 -42 -7 -4 -7 -104 0 -120 5 -12 5 -47 -1 -77 -4 -18 -3
-33 2 -33 6 0 5 -8 -1 -19 -13 -25 -13 -34 0 -26 12 8 13 3 0 -29 -7 -20 -6
-27 8 -35 9 -6 13 -11 7 -11 -11 0 -12 -201 -1 -218 3 -5 3 -12 -1 -15 -7 -7
-6 -617 1 -660 2 -15 1 -41 -4 -57 -5 -16 -5 -32 -2 -34 10 -6 7 -369 -2 -385
-5 -8 -3 -17 5 -22 10 -7 11 -11 3 -16 -7 -5 -10 -21 -7 -38 8 -54 9 -159 2
-186 -4 -15 -3 -31 3 -37 6 -6 6 -12 -1 -16 -6 -4 -11 -12 -11 -17 0 -6 3 -8
8 -6 4 3 6 -11 5 -31 -1 -21 -2 -37 -3 -37 -1 0 -3 -17 -5 -38 -2 -21 -1 -35
4 -33 4 3 6 -15 4 -40 -3 -26 1 -51 8 -60 6 -8 8 -14 3 -14 -11 0 -10 -422 0
-439 4 -6 2 -11 -4 -11 -6 0 -8 -5 -5 -10 10 -16 12 -331 3 -336 -5 -3 -5 -10
-1 -17 3 -6 8 -61 10 -121 2 -61 4 -115 4 -121 2 -18 -10 -85 -16 -95 -3 -6
-1 -10 4 -10 7 0 10 -27 8 -75 -2 -41 1 -79 7 -85 6 -6 6 -10 1 -10 -9 0 -13
-245 -5 -275 1 -5 1 -12 0 -15 -7 -16 -6 -188 1 -202 6 -10 5 -19 -1 -23 -5
-3 -7 -12 -4 -20 3 -7 0 -23 -6 -35 -9 -18 -9 -24 1 -30 9 -6 12 -55 11 -197
-1 -103 -1 -188 -2 -188 0 0 -2 -116 -4 -258 -3 -191 0 -267 9 -295 8 -22 9
-39 4 -43 -6 -3 -8 -40 -5 -84 3 -45 1 -86 -5 -97 -8 -14 -7 -24 3 -35 8 -10
9 -18 3 -20 -6 -2 -8 -36 -5 -90 3 -49 2 -106 -1 -128 -4 -22 -6 -124 -5 -227
1 -123 -2 -188 -9 -188 -7 0 -7 -3 0 -8 9 -6 11 -28 5 -42 -1 -3 -3 -38 -5
-78 -2 -53 2 -77 12 -88 10 -9 11 -14 2 -14 -8 0 -9 -4 0 -13 8 -10 7 -17 -1
-25 -7 -7 -8 -16 -2 -24 6 -7 9 -39 9 -70 -1 -32 2 -58 7 -58 4 0 5 -29 2 -65
-4 -49 -2 -65 8 -65 10 0 10 -2 0 -9 -9 -5 -12 -20 -9 -40 3 -17 2 -33 -2 -35
-8 -6 -7 -63 3 -93 5 -14 3 -23 -3 -23 -7 0 -10 -31 -9 -90 2 -50 1 -90 -2
-90 -8 0 -5 -94 4 -108 4 -7 3 -19 -4 -27 -8 -9 -8 -15 0 -20 6 -4 7 -12 3
-18 -5 -7 -7 -25 -6 -42 3 -35 4 -45 2 -185 -1 -58 -5 -113 -11 -123 -6 -13
-5 -23 3 -33 10 -12 10 -17 1 -23 -8 -5 -9 -17 -3 -39 7 -22 6 -32 -1 -32 -6
0 -6 -6 2 -15 7 -8 9 -15 4 -15 -13 0 -13 -274 0 -282 8 -5 7 -11 -2 -20 -16
-16 -16 -45 1 -51 9 -4 8 -8 -3 -17 -10 -8 -11 -13 -3 -16 8 -4 8 -15 2 -40
-6 -19 -6 -48 -2 -66 9 -35 8 -83 -2 -208 -8 -97 -7 -80 -2 -200 2 -58 1 -114
-3 -125 -4 -11 -4 -30 1 -42 5 -13 5 -23 1 -23 -9 0 -9 -212 1 -227 4 -6 3
-14 -3 -18 -10 -6 -6 -109 6 -147 3 -10 1 -18 -5 -18 -7 0 -8 -9 -3 -22 5 -13
7 -34 5 -48 -2 -14 -4 -62 -6 -107 -1 -45 -6 -85 -10 -89 -10 -10 -9 -26 1
-20 5 3 8 -62 6 -144 -2 -100 1 -150 8 -150 7 0 7 -4 -1 -13 -6 -8 -8 -17 -4
-20 3 -4 1 -7 -5 -7 -7 0 -12 -5 -12 -11 0 -5 4 -8 9 -5 10 7 9 -44 -2 -61 -4
-6 -4 -14 1 -17 4 -2 6 -46 5 -98 -2 -51 -4 -137 -6 -190 -2 -57 1 -99 7 -101
5 -2 3 -17 -6 -34 -14 -29 -14 -32 0 -38 10 -4 12 -9 6 -13 -14 -9 -16 -46
-13 -182 1 -41 0 -121 -1 -177 -1 -56 1 -106 4 -112 4 -5 2 -13 -4 -16 -6 -4
-8 -14 -5 -24 4 -13 7 -180 5 -300 0 -13 4 -29 10 -36 6 -7 6 -15 0 -21 -5 -5
-11 -67 -14 -139 -2 -71 -6 -137 -9 -145 -2 -8 -2 -12 0 -7 14 25 18 -13 16
-175 -3 -263 -6 -328 -14 -328 -4 0 -4 -15 1 -32 5 -18 9 -94 9 -168 0 -74 1
-218 1 -319 1 -140 -2 -186 -12 -193 -10 -6 -9 -8 4 -8 17 0 18 -8 4 -81 -2
-9 0 -23 5 -30 4 -7 3 -21 -2 -31 -6 -10 -6 -18 -1 -18 11 0 9 -256 -1 -266
-4 -4 -1 -15 7 -23 12 -13 13 -26 6 -56 -5 -22 -6 -41 -2 -42 6 -2 7 -132 1
-153 -2 -9 1 -103 6 -170 2 -36 2 -72 -2 -80 -10 -24 -11 -373 -1 -400 5 -14
5 -26 0 -28 -4 -1 -5 -25 -2 -52 4 -28 4 -53 1 -55 -7 -8 -8 -85 -1 -85 7 0 6
-48 -1 -55 -3 -3 -3 -27 1 -55 5 -40 3 -50 -8 -50 -11 0 -12 -3 -4 -13 7 -8 7
-18 2 -27 -5 -8 -7 -22 -5 -31 3 -9 -2 -22 -10 -29 -13 -11 -13 -15 -3 -21 9
-6 7 -9 -9 -9 -12 0 -23 -5 -25 -11 -2 -6 -10 2 -17 18 -7 15 -17 35 -22 45
-4 9 -29 96 -54 193 -25 98 -52 192 -59 209 -26 56 -58 150 -63 181 -2 17 -7
37 -10 45 -3 8 -7 20 -9 25 -1 6 -11 42 -22 80 -48 165 -81 273 -97 315 -9 25
-21 64 -25 88 -11 51 -49 176 -99 332 -21 63 -46 142 -57 175 -10 33 -21 67
-25 75 -15 33 -63 169 -91 260 -12 36 -24 74 -29 85 -19 47 -80 228 -110 323
-24 77 -39 108 -56 119 -29 19 -53 73 -53 121 0 19 -8 53 -18 73 -18 40 -32
50 -32 24 0 -18 -23 -19 -52 -4 -18 10 -20 9 -15 -5 3 -8 1 -18 -5 -22 -15 -9
-58 45 -58 72 0 11 -7 29 -15 40 -30 40 -9 80 26 48 18 -16 20 -16 37 -1 10
10 24 17 31 17 13 0 6 65 -9 85 -4 6 -11 21 -15 35 -4 14 -16 51 -27 82 -18
51 -24 58 -53 64 -33 6 -49 28 -57 79 -4 25 -31 26 -36 2 -2 -9 6 -38 18 -63
12 -25 20 -47 18 -49 -10 -10 -48 43 -50 68 -3 31 -6 32 -31 12 -18 -13 -18
-14 3 -25 42 -22 50 -100 10 -100 -10 0 -25 -11 -34 -25 -10 -16 -26 -25 -42
-25 -20 0 -29 9 -44 43 -11 23 -20 54 -20 68 0 28 30 62 50 57 6 -2 17 6 23
17 16 27 33 40 100 78 l58 32 -7 40 c-3 22 -10 45 -15 51 -18 23 -79 -4 -221
-98 -179 -118 -206 -135 -240 -149 -16 -6 -28 -15 -28 -20 0 -5 -4 -9 -9 -9
-5 0 -33 -16 -63 -35 -122 -81 -178 -92 -199 -39 -5 15 -25 53 -45 87 -30 52
-34 64 -25 89 12 34 24 46 71 72 78 42 107 60 141 87 20 16 39 29 42 29 5 0
67 41 315 211 52 35 102 75 113 89 10 14 29 35 41 48 12 12 17 22 11 22 -9 0
-9 9 -1 33 12 39 11 81 -2 85 -6 2 -4 13 5 25 20 28 19 37 -2 37 -12 0 -14 3
-6 8 14 9 25 102 12 102 -5 0 -11 11 -15 25 -3 14 -11 25 -18 26 -6 0 0 5 14
11 14 6 28 10 33 10 4 -1 7 3 7 8 0 6 -4 10 -10 10 -5 0 -10 11 -10 25 0 14
-4 25 -10 25 -5 0 -10 5 -10 10 0 6 7 10 15 10 9 0 15 10 15 26 0 14 -4 23
-10 19 -5 -3 -10 -1 -10 5 0 6 7 13 15 16 9 4 15 19 15 41 0 20 -4 32 -10 28
-5 -3 -10 3 -10 14 0 12 -5 21 -12 21 -7 0 -5 7 5 18 11 12 13 22 6 35 -6 9
-7 22 -4 28 4 5 1 17 -6 25 -9 12 -10 17 0 27 10 9 11 8 5 -8 -4 -12 -3 -17 2
-12 12 12 11 50 -1 60 -6 5 -4 12 7 20 15 12 15 14 0 23 -14 9 -15 15 -4 35
11 22 12 23 6 2 -4 -18 -2 -22 11 -17 16 7 12 45 -6 52 -5 2 -9 8 -9 13 0 6 5
7 10 4 6 -3 10 -3 10 2 0 13 -14 29 -34 40 -17 9 -16 11 8 17 14 3 26 11 26
16 0 14 -23 12 -39 -2 -11 -11 -13 -10 -7 5 3 10 6 25 6 33 0 9 5 12 10 9 6
-3 10 1 10 10 0 9 5 13 10 10 20 -12 10 14 -11 29 -21 14 -23 53 -3 49 12 -2
6 55 -7 62 -4 3 -1 21 7 40 9 22 10 36 4 40 -6 4 -8 15 -5 26 5 14 0 22 -17
29 -23 10 -23 11 -1 6 13 -2 26 1 30 6 4 7 1 8 -7 3 -10 -6 -11 -4 -5 11 9 23
12 94 4 100 -4 2 -5 25 -2 51 8 84 8 141 1 137 -4 -2 -9 0 -13 6 -3 5 -1 10 6
10 10 0 10 3 2 11 -9 9 -8 15 3 26 17 18 18 34 2 30 -7 -1 -14 8 -16 21 -2 13
2 22 10 22 10 0 10 2 -1 9 -8 6 -10 14 -5 22 5 8 7 22 6 32 -2 9 2 17 9 17 8
0 5 8 -6 20 -16 17 -16 20 -2 20 9 0 19 4 22 10 3 6 -1 7 -9 4 -9 -3 -16 -2
-17 2 0 5 -2 17 -4 27 -2 11 3 17 15 17 10 0 22 5 26 11 7 11 -12 29 -31 29
-5 0 -3 -4 5 -10 8 -5 11 -12 7 -16 -4 -4 -13 -2 -19 4 -10 10 -10 17 0 33 11
16 11 24 1 36 -10 12 -10 16 2 24 11 7 12 11 1 18 -11 6 -11 11 2 24 22 22 20
30 -4 17 -16 -9 -20 -8 -20 5 0 8 6 15 14 15 8 0 17 7 20 16 5 14 4 15 -8 5
-11 -9 -15 -8 -19 3 -4 9 3 17 16 21 19 6 20 8 5 12 -21 5 -23 14 -6 31 10 10
10 15 -2 22 -13 9 -13 11 0 20 12 8 13 12 2 19 -11 7 -11 9 2 14 9 4 16 15 16
26 0 24 -16 36 -23 19 -4 -9 -6 -10 -6 -1 -1 6 3 14 9 18 6 4 6 15 0 31 -6 14
-8 29 -6 32 2 4 7 24 10 45 5 33 4 37 -17 38 -17 1 -18 2 -4 6 12 3 16 10 12
24 -5 13 -2 19 10 19 10 0 13 4 9 12 -12 19 -15 106 -4 113 17 11 11 23 -9 18
-10 -3 -22 1 -26 8 -5 7 -4 10 1 7 5 -3 15 0 21 7 10 11 10 17 0 27 -16 17
-15 61 1 71 8 6 11 18 8 32 -3 13 -2 27 4 30 7 4 6 14 -1 28 -9 16 -9 22 0 25
12 4 16 23 4 21 -20 -3 -23 2 -9 17 9 8 16 21 15 27 0 9 -2 8 -6 0 -11 -29
-18 -8 -20 62 -2 49 2 75 9 75 7 0 6 5 -2 15 -10 12 -10 15 1 15 10 0 10 3 1
12 -8 8 -8 17 -1 30 8 15 5 28 -10 54 -20 33 -20 35 -3 30 16 -5 19 -1 20 29
1 28 -2 35 -18 35 -13 0 -18 5 -14 15 4 8 12 15 20 15 16 0 18 9 4 30 -6 10
-10 11 -10 3 0 -7 -4 -13 -10 -13 -19 0 -10 21 12 29 21 8 21 8 2 27 -11 11
-18 28 -16 38 2 10 -1 23 -7 29 -15 15 -14 33 5 52 12 12 16 33 15 77 -1 40 3
65 11 70 9 5 4 8 -12 8 -23 1 -24 2 -7 14 9 7 17 20 17 28 0 8 4 18 9 24 6 5
3 31 -9 68 -11 32 -18 62 -15 66 3 5 -1 11 -7 14 -7 3 -3 3 10 0 30 -7 28 8
-8 48 -29 31 -29 33 -10 40 11 4 20 12 20 18 0 5 5 9 11 7 6 -1 13 3 16 9 4
12 -25 12 -45 0 -17 -10 -15 10 3 28 8 8 15 19 15 24 0 6 6 13 12 15 9 4 10 8
3 14 -14 11 -37 63 -27 62 19 -3 22 3 12 21 -9 16 -8 20 5 20 9 0 15 6 12 13
-2 6 -13 12 -25 11 -17 0 -19 3 -11 18 12 22 18 23 36 1 9 -11 12 -12 7 -3 -4
8 -14 23 -22 32 -10 12 -13 29 -9 53 4 27 2 35 -9 35 -8 0 -12 5 -9 11 4 6 13
8 21 5 12 -5 12 -2 3 16 -9 16 -13 18 -20 7 -5 -8 -9 -11 -9 -6 0 4 6 16 12
27 10 16 10 24 -1 42 -14 22 -14 22 12 5 l26 -17 -2 31 c-2 23 -6 29 -19 25
-10 -2 -18 0 -18 5 0 5 7 9 15 9 15 0 19 10 15 44 -1 10 4 23 12 27 9 6 7 9
-9 9 -28 0 -29 7 -5 33 11 13 13 21 6 24 -6 2 -9 15 -6 29 3 16 -1 30 -9 35
-10 6 -10 9 -1 9 6 0 12 10 12 23 0 13 5 28 11 34 8 8 8 13 0 17 -18 11 -14
49 5 42 8 -3 12 -2 9 4 -3 6 -13 10 -21 10 -8 0 -14 5 -14 11 0 5 5 7 10 4 6
-3 10 -1 10 5 0 6 -7 13 -15 16 -13 5 -13 9 0 27 13 18 12 22 -3 34 -15 13
-15 13 6 8 13 -4 22 -2 22 4 0 6 -5 11 -12 11 -6 0 -8 3 -5 7 4 3 -1 12 -11
20 -9 8 -12 12 -5 9 16 -8 24 7 13 24 -4 7 -4 24 1 38 7 19 6 27 -8 38 -13 9
-14 13 -4 14 7 0 11 6 8 14 -3 8 -1 17 6 20 9 3 8 7 -2 14 -8 6 -9 12 -3 16 6
3 8 15 5 26 -3 11 0 20 6 20 5 0 8 7 5 15 -4 8 -13 15 -21 15 -13 0 -13 3 -3
15 23 28 31 266 10 273 -8 3 -4 10 11 19 13 8 16 12 7 9 -21 -6 -25 20 -5 27
9 3 9 8 1 18 -14 18 -17 69 -4 69 6 0 10 7 10 15 0 8 -7 15 -17 15 -14 0 -14
2 3 21 14 16 15 23 7 26 -7 3 -13 9 -13 14 0 6 4 8 8 5 4 -2 8 4 8 14 0 10 -6
16 -13 13 -15 -6 -18 13 -4 22 6 3 6 17 1 35 -5 18 -5 32 1 35 18 12 9 26 -13
20 l-23 -7 23 17 c20 14 22 24 19 63 -3 26 -7 54 -10 62 -18 49 -17 68 4 73
17 5 19 9 9 26 -6 12 -17 21 -25 21 -9 0 -15 9 -15 21 0 15 5 19 15 15 8 -3
15 -1 15 3 0 5 -6 11 -12 14 -10 3 -10 7 -1 19 7 8 10 17 8 20 -3 3 -1 16 4
30 5 14 5 31 0 40 -6 11 -5 26 3 43 9 21 9 28 -1 35 -11 6 -11 8 0 12 12 5 12
9 1 27 -7 12 -9 27 -5 34 4 7 6 20 5 30 -2 9 2 17 8 17 6 0 9 4 5 10 -3 5 -13
6 -22 3 -13 -5 -15 -2 -9 13 7 18 18 98 19 139 1 11 5 23 11 27 6 4 6 11 -2
21 -7 7 -9 16 -6 20 3 3 1 14 -5 25 -8 15 -8 22 2 25 9 4 9 8 -2 15 -16 11 -7
47 9 37 5 -3 10 -2 10 4 0 5 -4 12 -9 16 -12 7 -10 215 1 215 12 0 9 35 -4 48
-8 8 -8 15 0 25 7 8 9 17 5 20 -3 4 -1 7 5 7 7 0 12 7 12 16 0 14 -1 14 -16 0
-19 -20 -24 -20 -24 0 0 8 4 13 9 10 15 -10 20 34 6 48 -8 7 -11 16 -8 20 4 3
7 43 7 89 1 45 5 87 9 93 4 7 1 14 -6 17 -9 3 -12 16 -9 36 2 17 8 28 13 25 5
-3 9 -1 9 5 0 5 -8 14 -17 20 -15 8 -16 12 -5 22 6 7 12 19 12 27 0 7 -6 10
-12 7 -7 -4 -4 1 6 9 18 15 18 17 3 34 -21 23 -21 32 -2 32 19 0 19 5 -2 29
-21 25 -26 71 -8 71 18 0 13 49 -6 61 -11 7 -9 13 10 28 18 14 22 23 16 37
-12 26 -14 85 -4 78 5 -3 9 4 9 16 0 12 -4 18 -10 15 -6 -4 -9 20 -7 65 1 39
1 66 -1 60 -2 -5 -8 -10 -13 -10 -6 0 -6 8 1 19 20 38 30 72 20 66 -6 -3 -10
1 -10 10 0 9 5 13 10 10 6 -3 10 -2 10 4 0 5 -5 13 -11 17 -8 4 -7 9 2 15 10
6 11 11 3 17 -18 13 -24 40 -8 46 8 3 14 13 14 21 0 9 -4 14 -9 11 -5 -4 -8
18 -5 51 5 74 5 70 0 123 -2 25 0 52 5 61 5 9 4 20 -2 26 -8 8 -7 13 0 17 7 5
7 13 -2 27 -10 17 -9 22 6 33 9 7 17 17 17 21 0 4 -8 1 -17 -6 -15 -13 -16
-11 -10 10 3 14 2 30 -4 37 -7 8 -7 14 1 19 5 3 10 0 10 -7 0 -8 5 -6 11 5 8
13 7 22 -2 33 -18 22 -21 154 -3 161 11 4 11 8 -1 20 -18 17 -20 37 -3 27 8
-5 9 -2 5 9 -4 10 -10 24 -14 34 -4 11 -3 14 5 9 8 -4 9 6 6 35 -3 27 -1 39 6
34 5 -3 10 -2 10 4 0 5 -5 13 -11 17 -8 4 -7 9 2 15 11 6 11 12 -1 34 -12 22
-12 28 -1 34 9 6 10 11 2 15 -17 11 -13 26 7 27 14 0 14 2 2 7 -16 7 -21 87
-7 109 4 6 4 18 1 26 -3 10 1 17 13 20 16 4 16 5 1 6 -17 1 -24 26 -20 71 1 8
2 32 3 53 1 20 6 37 10 37 4 0 6 10 6 23 -1 12 3 33 7 46 5 15 5 21 -2 17 -5
-3 -13 1 -16 10 -8 21 -8 34 2 33 19 -3 23 2 12 16 -17 20 -23 167 -7 177 9 6
9 10 0 16 -12 8 -12 32 1 90 5 19 4 32 -2 32 -5 0 -12 11 -14 25 -5 22 -2 25
16 20 12 -4 16 -3 11 2 -12 9 -12 30 -1 56 5 11 4 29 -3 44 -10 21 -8 32 7 64
13 26 16 42 9 54 -5 9 -7 31 -4 48 3 18 3 26 0 20 -2 -7 -9 -13 -14 -13 -6 0
-6 7 0 19 6 10 7 21 4 25 -10 9 -7 77 3 84 12 9 11 51 -1 60 -11 8 -13 31 -4
47 8 14 4 79 -6 94 -4 8 -2 16 5 21 8 5 11 27 9 61 -1 30 1 62 6 73 5 12 3 21
-6 27 -12 8 -11 11 4 20 20 12 23 31 3 23 -10 -4 -12 2 -9 20 3 14 10 26 15
26 7 0 7 4 0 13 -13 15 -13 67 0 67 6 0 7 7 4 15 -3 8 -9 22 -12 30 -4 10 0
15 12 15 12 0 15 3 8 8 -15 10 -26 112 -13 112 6 0 9 6 6 13 -2 6 -10 11 -16
9 -9 -2 -9 4 0 20 7 13 14 45 16 72 1 28 9 53 15 58 10 6 9 11 -5 19 -12 7
-15 15 -8 27 5 9 6 32 4 50 -4 21 -1 32 7 32 10 0 10 3 0 15 -7 9 -8 15 -2 15
6 0 9 21 7 53 -1 28 0 46 2 40 10 -28 21 -11 16 25 -7 55 -5 96 7 100 5 2 10
8 10 13 0 6 -5 7 -12 3 -7 -5 -8 -3 -3 7 14 21 23 99 12 99 -5 0 -4 6 2 14 9
11 8 15 -5 20 -15 6 -14 9 6 26 19 16 21 22 10 35 -10 12 -10 18 0 30 8 9 8
15 2 15 -7 0 -8 10 -1 32 5 18 6 40 4 49 -3 10 -2 20 2 22 10 6 9 164 -1 195
-5 13 -3 22 3 22 6 0 11 4 11 10 0 5 -7 7 -16 3 -14 -5 -15 -3 -4 17 6 12 10
35 8 51 -3 16 -2 29 2 29 3 0 6 9 6 20 0 11 -4 20 -7 20 -4 0 -4 14 1 30 8 29
4 125 -6 142 -3 4 3 8 12 8 16 0 16 1 0 19 -12 13 -14 20 -5 23 14 5 20 96 6
105 -5 3 -6 16 -3 28 3 13 1 36 -4 51 -8 20 -8 29 1 34 13 8 3 50 -12 50 -5 0
-9 5 -9 11 0 6 6 9 14 6 8 -3 17 7 24 29 5 19 6 32 2 29 -5 -3 -11 -1 -15 5
-4 7 -571 10 -1725 10 l-1719 0 5 -27 c3 -15 7 -30 10 -35 9 -14 -7 -48 -22
-48 -8 0 -14 5 -14 10 0 6 7 10 16 10 8 0 12 5 9 10 -3 6 -17 10 -31 10 -20 0
-24 -4 -19 -19 3 -12 0 -21 -10 -25 -13 -4 -15 -1 -10 13 5 16 2 19 -18 17
-30 -3 -80 -36 -54 -36 9 0 17 5 17 10 0 6 4 10 9 10 14 0 1 -38 -15 -44 -8
-3 -14 -12 -14 -20 0 -17 33 -32 38 -17 8 24 21 9 16 -18 -4 -18 -1 -32 6 -36
10 -6 11 -1 6 19 -5 19 -3 26 9 26 8 0 15 -7 15 -15 0 -8 6 -15 14 -15 9 0 12
8 9 24 -4 21 -2 23 22 18 21 -4 26 -1 23 9 -3 8 -10 14 -16 14 -5 0 -14 3 -17
7 -4 4 -16 3 -26 -3 -11 -5 -19 -6 -19 -1 0 15 48 33 56 20 4 -7 13 -3 24 12
16 22 17 21 17 -39 0 -39 -3 -58 -10 -54 -6 4 -7 1 -3 -6 5 -7 14 -10 22 -7 8
3 14 -1 14 -9 0 -8 -5 -15 -11 -15 -13 0 -1 -39 18 -59 14 -13 13 -16 -4 -22
-11 -4 -23 -17 -26 -29 -5 -21 -5 -21 15 -3 20 18 20 17 17 -2 -2 -11 0 -26 4
-33 5 -7 5 -12 0 -11 -20 3 -23 -2 -13 -22 9 -17 8 -23 -7 -34 -17 -13 -17
-15 0 -51 15 -30 16 -39 5 -45 -9 -6 -4 -9 15 -9 35 0 35 -17 0 -23 -27 -4
-27 -4 -6 -12 17 -5 21 -11 14 -24 -7 -11 -5 -21 6 -33 15 -17 15 -18 -2 -18
-18 0 -13 -14 6 -16 22 -3 23 -5 10 -13 -11 -7 -11 -15 -2 -41 6 -18 8 -36 5
-41 -3 -5 0 -9 6 -9 6 0 8 -4 5 -10 -3 -5 0 -10 7 -10 8 -1 5 -7 -7 -16 -14
-11 -16 -18 -7 -21 15 -6 16 -49 1 -59 -8 -4 -8 -9 -1 -13 7 -4 8 -20 2 -46
-5 -22 -5 -44 -1 -50 11 -15 11 -56 0 -50 -5 4 -9 1 -9 -4 0 -6 5 -11 10 -11
6 0 10 -7 10 -15 0 -8 -4 -15 -9 -15 -5 0 -7 -9 -4 -20 3 -11 9 -20 14 -20 5
0 9 -10 9 -22 0 -17 -3 -19 -9 -10 -6 9 -8 5 -9 -15 0 -15 -1 -68 -1 -117 -1
-58 3 -94 11 -104 11 -13 10 -15 -6 -9 -14 6 -17 4 -12 -8 3 -8 1 -15 -4 -15
-6 0 -10 -5 -10 -11 0 -6 7 -9 15 -5 10 4 15 -1 15 -14 0 -11 -6 -20 -12 -20
-9 0 -9 -3 1 -9 12 -8 12 -13 3 -24 -9 -11 -10 -22 -2 -43 8 -19 8 -30 1 -32
-7 -2 -7 -12 0 -29 5 -14 7 -34 4 -44 -4 -11 -2 -19 5 -19 6 0 8 -5 4 -12 -14
-22 -11 -59 5 -53 11 4 12 3 1 -10 -10 -11 -10 -18 -1 -29 9 -10 9 -16 1 -21
-6 -4 -11 -25 -11 -48 0 -23 0 -51 0 -62 0 -11 1 -47 2 -81 1 -34 -1 -66 -4
-71 -4 -6 -1 -13 7 -16 14 -6 16 -61 2 -74 -11 -12 -6 -23 12 -23 15 -1 16 -2
1 -13 -12 -9 -14 -16 -5 -29 8 -14 6 -21 -9 -32 -11 -9 -14 -16 -7 -16 6 0 12
-9 12 -20 0 -11 5 -20 11 -20 5 0 7 -5 3 -11 -3 -6 0 -15 7 -20 11 -7 10 -9
-3 -9 -21 0 -21 -1 -8 -34 7 -21 6 -26 -5 -26 -8 0 -15 -4 -15 -10 0 -5 7 -10
15 -10 16 0 19 -14 16 -73 -2 -32 0 -36 16 -31 14 5 15 4 4 -4 -8 -6 -11 -17
-8 -25 3 -8 0 -26 -8 -40 -8 -16 -9 -29 -3 -35 6 -6 5 -25 -2 -53 -7 -28 -8
-53 -2 -69 6 -16 5 -31 -1 -41 -7 -11 -7 -33 0 -66 8 -44 7 -54 -10 -77 -19
-26 -19 -27 -1 -40 15 -11 16 -17 6 -28 -6 -8 -9 -18 -5 -22 4 -3 8 -12 9 -19
2 -7 6 -23 10 -36 6 -21 5 -23 -12 -18 -18 7 -18 6 1 -10 13 -12 20 -31 21
-58 1 -22 2 -51 2 -65 1 -14 0 -51 -1 -82 -2 -52 -4 -57 -22 -52 -15 4 -16 3
-6 -4 17 -12 23 -64 9 -73 -8 -5 -8 -16 1 -38 11 -26 11 -33 -4 -47 -15 -15
-15 -19 -3 -28 10 -8 14 -36 13 -101 0 -49 4 -93 9 -96 4 -4 3 -16 -3 -27 -8
-14 -8 -23 -1 -27 8 -5 8 -11 0 -20 -7 -9 -8 -15 -1 -19 10 -7 8 -57 -4 -76
-4 -6 -2 -17 4 -24 7 -8 9 -28 6 -46 -3 -18 -1 -38 5 -45 8 -10 7 -16 -6 -23
-16 -9 -15 -12 5 -40 20 -29 20 -31 4 -41 -12 -7 -14 -13 -7 -18 18 -13 24
-43 14 -64 -7 -13 -7 -25 0 -38 7 -14 7 -20 -2 -23 -6 -2 -12 -21 -13 -42 -2
-29 1 -36 13 -31 12 4 12 1 -2 -19 -14 -23 -14 -26 0 -40 14 -15 14 -16 0 -16
-20 0 -20 -14 0 -34 10 -11 11 -16 3 -16 -7 0 -9 -3 -6 -6 3 -4 2 -16 -4 -27
-6 -10 -7 -17 -2 -14 5 3 15 2 23 -4 10 -6 11 -9 3 -9 -7 0 -12 -6 -10 -12 1
-7 -4 -12 -10 -11 -7 2 -13 -4 -13 -13 0 -8 4 -13 9 -9 5 3 13 0 17 -6 3 -6 0
-15 -7 -20 -11 -7 -11 -9 -1 -9 13 0 11 -13 -6 -59 -3 -8 -1 -12 5 -8 12 7 11
-49 -1 -75 -5 -10 -5 -26 -1 -35 13 -34 16 -70 6 -96 -8 -20 -7 -26 2 -24 8 1
11 -8 9 -25 -1 -16 2 -28 8 -28 5 0 10 -7 10 -16 0 -9 -6 -14 -14 -11 -10 4
-13 -7 -11 -51 1 -32 6 -57 13 -60 7 -2 12 -8 12 -14 0 -6 -6 -8 -13 -5 -9 3
-12 -11 -12 -53 0 -32 3 -56 7 -54 13 8 9 -5 -8 -31 -11 -16 -12 -25 -5 -25 6
0 14 7 17 15 4 8 11 15 17 15 5 0 3 -8 -5 -17 -17 -20 -24 -108 -8 -98 13 8
13 -8 -1 -22 -8 -8 -7 -16 2 -31 10 -16 10 -24 1 -35 -9 -11 -10 -22 -2 -41 8
-21 6 -33 -6 -51 -13 -20 -14 -25 -3 -25 9 0 10 -3 3 -8 -11 -7 -12 -97 -1
-108 4 -4 2 -15 -4 -25 -6 -13 -6 -25 1 -38 7 -14 6 -21 -2 -23 -10 -4 -10
-11 0 -33 10 -22 10 -30 1 -36 -10 -6 -10 -11 -1 -21 7 -8 7 -19 2 -28 -5 -9
-5 -19 2 -27 7 -9 7 -13 -1 -13 -6 0 -11 -9 -11 -21 0 -11 5 -17 10 -14 5 3
10 1 10 -4 0 -6 -4 -11 -9 -11 -10 0 -8 -57 5 -205 4 -49 7 -114 7 -142 0 -33
4 -53 11 -53 6 0 3 -5 -6 -11 -10 -5 -18 -21 -18 -35 0 -14 4 -22 10 -19 5 3
10 -1 10 -9 0 -9 -5 -16 -12 -16 -6 0 -9 -3 -6 -6 4 -3 2 -19 -2 -35 -5 -18
-5 -41 0 -55 5 -13 6 -24 1 -24 -5 0 -11 -11 -13 -25 -3 -13 -2 -22 2 -20 11
7 16 -14 14 -55 -3 -58 -4 -61 -14 -55 -14 9 -13 -8 2 -23 8 -8 8 -15 -1 -26
-9 -10 -9 -16 -1 -21 8 -5 8 -11 -1 -21 -6 -8 -8 -14 -4 -14 4 0 2 -7 -5 -15
-10 -12 -9 -15 5 -15 14 0 15 -3 5 -15 -7 -8 -16 -12 -21 -9 -5 3 -6 -2 -3
-11 4 -9 12 -14 18 -12 8 3 10 -8 8 -34 -3 -25 -9 -39 -18 -39 -8 0 -14 -4
-14 -10 0 -5 7 -10 16 -10 10 0 14 -6 11 -14 -3 -7 0 -19 6 -25 8 -8 7 -11 -4
-11 -9 0 -16 -7 -16 -15 0 -8 4 -15 9 -15 5 0 6 -16 2 -35 -4 -24 -2 -35 6
-35 7 0 4 -11 -8 -27 -15 -22 -17 -34 -10 -53 5 -14 7 -35 5 -47 -3 -18 1 -23
17 -24 17 -1 18 -2 4 -6 -21 -5 -23 -14 -5 -32 10 -11 8 -13 -11 -8 -19 4 -22
2 -17 -13 3 -11 0 -20 -10 -24 -14 -5 -14 -9 -1 -41 9 -20 13 -42 10 -49 -3
-7 2 -20 11 -29 9 -10 11 -18 5 -22 -16 -10 -11 -28 6 -21 12 5 14 1 8 -17 -4
-12 -12 -25 -18 -29 -8 -6 -8 -8 0 -8 20 0 26 -33 9 -42 -12 -7 -13 -14 -5
-29 8 -14 7 -19 -2 -19 -10 0 -10 -2 1 -9 9 -6 12 -18 7 -37 -5 -21 -4 -25 4
-14 13 20 13 4 0 -21 -8 -14 -7 -19 2 -19 9 0 9 -3 -2 -11 -11 -7 -12 -12 -3
-15 7 -3 9 -18 6 -41 -4 -26 -3 -34 5 -29 8 4 10 2 6 -8 -3 -8 -12 -17 -20
-20 -8 -3 -14 -10 -14 -15 0 -6 6 -8 13 -5 8 3 20 -2 27 -11 11 -13 9 -15 -9
-15 -11 0 -21 -4 -21 -10 0 -5 5 -10 10 -10 6 0 10 -5 10 -11 0 -5 -4 -8 -9
-4 -22 13 -19 -16 4 -39 13 -13 20 -26 14 -28 -6 -2 -11 -20 -12 -40 -1 -25
-6 -39 -16 -41 -14 -4 -14 -5 0 -6 12 -1 16 -11 16 -41 0 -22 -4 -40 -8 -40
-16 0 -10 -18 17 -50 25 -29 25 -32 10 -49 -19 -21 -21 -48 -3 -54 9 -3 9 -7
0 -17 -15 -16 -6 -40 16 -40 14 0 14 -2 1 -11 -11 -8 -12 -12 -2 -16 18 -7 14
-24 -5 -21 -13 2 -17 -3 -15 -17 2 -11 8 -21 13 -23 5 -2 2 -10 -6 -19 -21
-21 -19 -33 8 -34 12 0 16 -3 9 -6 -6 -2 -12 -11 -12 -19 0 -8 -4 -14 -10 -14
-14 0 -12 -28 3 -33 9 -3 9 -8 -2 -21 -22 -26 -26 -120 -6 -140 9 -9 13 -16 9
-16 -4 0 1 -6 11 -14 11 -7 16 -20 12 -29 -3 -9 0 -18 9 -21 8 -3 14 -10 14
-15 0 -6 -7 -8 -16 -4 -12 4 -15 2 -12 -8 3 -8 15 -14 27 -13 26 1 27 -5 4
-22 -17 -13 -17 -15 0 -28 17 -13 17 -15 1 -31 -15 -14 -15 -18 -3 -26 11 -8
10 -10 -6 -8 -34 2 -35 0 -14 -37 22 -40 19 -55 -7 -33 -15 12 -16 11 -10 -9
4 -13 3 -22 -3 -22 -5 0 -12 -9 -16 -19 -4 -14 -12 -18 -23 -14 -14 5 -15 3
-4 -8 19 -20 14 -31 -9 -24 -16 5 -19 4 -14 -5 6 -9 4 -11 -6 -5 -7 5 -26 8
-41 7 -20 -2 -28 2 -28 14 0 10 -5 14 -15 10 -8 -3 -15 -1 -15 4 0 5 -8 6 -17
3 -13 -5 -15 -3 -8 13 17 42 17 65 -1 85 -11 12 -18 23 -16 25 8 13 0 16 -9 4
-8 -12 -9 -11 -4 6 3 12 1 34 -5 50 -9 22 -8 29 4 36 20 11 8 46 -18 51 l-21
4 22 8 c28 9 30 31 3 40 -16 5 -18 10 -10 25 16 31 13 42 -9 30 -31 -16 -32
-12 -10 26 16 30 18 39 7 45 -7 5 -17 9 -22 9 -4 0 -5 11 -2 24 4 16 1 26 -9
30 -21 8 -19 26 4 26 27 0 21 30 -11 58 -17 14 -25 29 -21 38 3 9 0 20 -8 25
-11 6 -8 9 9 9 12 0 22 5 22 11 0 6 -7 8 -17 5 -16 -6 -16 -5 -1 11 20 22 5
49 -30 55 -13 1 -22 8 -21 13 0 6 5 9 9 8 5 -2 12 6 15 17 4 11 15 20 26 20
11 0 17 -4 14 -10 -3 -5 -2 -10 4 -10 5 0 12 4 16 9 7 13 -32 34 -46 25 -6 -3
-19 2 -30 12 -24 22 -29 17 -31 -30 -1 -31 -4 -37 -20 -33 -22 6 -23 -6 -2
-27 8 -9 14 -26 13 -39 -2 -12 0 -28 4 -35 5 -7 2 -14 -7 -18 -9 -3 -16 -12
-16 -20 0 -7 6 -11 13 -8 10 4 12 -3 9 -26 -3 -25 -7 -28 -18 -19 -19 16 -17
-1 3 -23 15 -17 15 -19 -3 -40 -10 -12 -13 -18 -7 -14 13 7 17 -9 13 -48 -1
-10 4 -22 11 -27 9 -5 10 -11 3 -21 -6 -7 -9 -28 -7 -46 2 -21 -3 -40 -13 -50
-15 -14 -15 -17 0 -27 12 -9 13 -14 4 -23 -9 -9 -9 -12 2 -12 10 0 8 -4 -5
-14 -11 -7 -16 -20 -12 -29 3 -9 -1 -18 -11 -22 -16 -6 -16 -7 1 -16 28 -16
20 -29 -20 -30 -34 -1 -35 -2 -13 -9 17 -5 19 -8 8 -9 -13 -1 -18 -9 -18 -31
0 -16 -4 -30 -9 -30 -5 0 -16 -3 -25 -6 -12 -5 -16 0 -16 20 0 15 -7 29 -16
33 -8 3 -13 12 -10 19 3 9 0 11 -11 7 -12 -5 -15 -2 -11 8 3 8 0 23 -8 33 -8
11 -11 30 -7 49 4 20 3 28 -4 24 -15 -10 -26 42 -13 58 8 10 7 17 -3 27 -12
10 -12 16 -1 33 7 11 14 29 15 40 4 27 -11 87 -25 104 -8 11 -8 15 2 18 18 7
15 23 -5 24 -12 1 -9 4 7 9 22 6 23 8 8 15 -10 4 -18 15 -18 25 0 10 -7 20
-15 24 -8 3 -15 13 -15 22 0 12 3 14 13 6 7 -6 17 -8 23 -4 12 8 13 91 1 110
-6 8 -2 12 13 12 27 0 22 21 -9 36 -16 8 -18 13 -8 17 9 3 12 15 9 36 -2 17 0
31 4 31 11 0 11 80 1 98 -6 8 -2 12 12 12 14 0 19 5 15 15 -5 12 -9 13 -20 4
-12 -10 -13 -9 -8 5 7 18 20 21 29 5 5 -7 15 -5 32 6 13 9 32 14 40 11 10 -4
22 2 30 14 14 20 16 20 28 4 12 -18 50 -30 39 -13 -3 5 6 9 20 9 14 0 26 5 26
10 0 17 28 11 39 -7 9 -16 12 -16 21 -3 9 13 11 13 20 0 14 -21 12 -3 -2 23
-10 20 -10 21 5 8 13 -10 17 -10 17 -1 0 7 7 10 16 6 13 -5 15 -1 10 18 -4 18
-1 29 14 39 18 12 18 15 4 35 -8 12 -12 22 -8 22 4 0 0 8 -9 18 -13 15 -14 21
-4 32 10 10 9 12 -5 7 -23 -8 -23 -1 1 30 11 13 17 31 14 39 -3 9 0 26 7 39 8
14 9 31 5 42 -8 16 -9 16 -12 -4 -3 -13 -8 -23 -13 -23 -4 0 -3 16 3 35 11 38
23 45 30 18 2 -10 4 -2 3 17 0 19 -5 38 -11 42 -6 4 -3 19 8 38 16 27 16 31 3
36 -22 8 -20 34 2 34 20 0 26 30 8 42 -7 5 -3 8 8 8 18 0 18 1 3 18 -10 10
-14 22 -10 26 5 4 0 13 -9 20 -16 12 -16 14 2 34 13 13 17 27 13 39 -6 15 -9
13 -19 -12 -7 -17 -13 -23 -14 -15 0 8 -3 26 -7 39 -4 17 -3 22 5 17 7 -4 12
-3 12 3 0 5 -4 11 -10 13 -6 2 -4 23 4 56 12 43 12 52 1 52 -8 0 -16 -10 -18
-22 -3 -14 -5 -9 -6 15 -1 31 2 37 19 37 11 0 20 5 20 10 0 6 -5 10 -11 10 -5
0 -7 5 -4 10 3 6 1 10 -5 10 -6 0 -8 5 -5 10 3 6 0 10 -7 11 -7 0 -4 4 7 9 11
5 14 9 7 9 -7 1 -10 6 -7 11 3 6 -1 10 -9 10 -9 0 -16 5 -16 11 0 6 9 8 21 4
21 -7 21 -7 1 13 -16 16 -20 32 -18 90 1 52 -1 68 -10 62 -6 -6 -14 -7 -17 -3
-12 11 -8 23 8 23 16 0 16 1 20 36 2 17 -2 20 -19 16 -20 -4 -20 -4 -4 13 13
14 14 24 7 43 -5 13 -7 33 -4 42 3 10 1 22 -6 25 -7 5 -7 10 -2 14 6 3 13 23
17 44 6 34 5 39 -13 44 -12 3 -21 12 -21 20 0 13 3 13 15 3 13 -11 18 -11 28
0 8 8 8 11 1 7 -7 -4 -19 4 -28 17 -14 22 -14 25 -1 28 13 2 12 9 -5 41 -21
38 -17 51 6 20 7 -10 15 -15 18 -12 4 3 -3 17 -14 32 -22 27 -26 47 -10 47 6
0 10 11 10 25 0 16 -6 25 -15 25 -19 0 -19 20 0 47 15 22 5 41 -15 28 -5 -3
-10 -2 -10 4 0 5 4 12 8 15 5 3 9 22 10 43 1 21 6 39 12 41 6 2 8 7 5 12 -3 5
-1 19 4 32 7 19 5 27 -10 36 -17 11 -18 15 -5 35 19 30 28 107 13 107 -7 0 -3
7 8 16 13 10 16 17 9 22 -11 7 -34 46 -34 58 0 3 7 1 15 -6 20 -17 20 4 0 24
-13 12 -14 20 -4 37 9 18 8 24 -5 31 -11 6 -14 14 -7 25 4 9 6 24 4 33 -3 10
0 21 6 25 8 4 3 13 -11 25 -23 19 -23 19 -3 34 20 16 20 16 -2 22 -24 7 -30
19 -13 29 6 3 10 2 10 -4 0 -6 7 -8 15 -5 17 7 21 34 5 34 -5 0 -10 7 -10 15
0 8 -5 15 -11 15 -5 0 -7 5 -4 10 4 6 10 8 15 5 5 -3 4 11 -2 31 -7 27 -7 39
2 44 8 5 7 9 -3 13 -10 4 -13 13 -10 27 4 15 9 18 16 11 6 -6 16 -11 22 -11 5
1 0 9 -13 20 -19 16 -21 23 -12 40 8 15 8 25 1 34 -7 9 -7 16 1 24 9 9 9 12
-1 12 -8 0 -10 7 -6 22 6 16 4 20 -8 15 -11 -4 -14 -2 -11 7 3 8 14 12 25 9
10 -3 19 0 19 6 0 6 -9 11 -19 11 -30 0 -34 28 -6 46 24 16 24 33 1 64 -19 25
-18 66 1 86 16 15 16 17 1 12 -18 -7 -34 17 -17 28 6 3 8 12 5 20 -3 8 1 17 9
20 8 4 15 10 15 15 0 4 -6 6 -14 3 -8 -3 -17 -1 -20 4 -3 6 1 12 9 16 15 5 15
43 0 80 -5 11 -3 21 5 26 7 4 10 17 8 28 -4 13 0 23 11 28 13 5 12 8 -8 13
-30 8 -40 31 -14 32 10 0 13 3 6 6 -7 2 -13 14 -13 25 0 18 -2 19 -17 7 -14
-12 -14 -9 3 21 10 19 24 38 29 42 6 5 4 8 -5 8 -11 0 -11 3 -2 12 17 17 15
26 -5 30 -15 3 -15 4 1 21 10 10 15 24 12 32 -3 8 -1 17 4 20 20 12 10 35 -14
35 -24 0 -24 1 -10 30 9 16 13 34 9 40 -3 5 -1 10 5 10 8 0 8 6 0 20 -7 14 -7
20 0 20 5 0 10 5 10 10 0 6 -8 10 -18 10 -13 0 -18 6 -16 23 1 12 3 26 3 30 1
5 6 5 12 2 6 -4 8 -13 5 -21 -3 -8 -1 -14 4 -14 5 0 8 14 8 30 -1 22 -5 29
-15 26 -7 -3 -13 1 -13 10 0 8 4 12 10 9 6 -3 10 1 10 9 0 9 5 16 11 16 8 0 8
4 0 13 -13 16 -6 77 10 87 6 4 9 12 5 18 -10 16 -16 102 -7 102 4 0 8 16 9 35
1 20 -3 33 -8 30 -5 -3 -11 -1 -15 5 -3 5 2 10 12 10 14 0 15 2 4 9 -8 5 -11
16 -6 30 4 13 1 28 -5 36 -10 12 -9 15 6 15 14 0 15 3 6 8 -7 5 -10 16 -6 25
3 9 2 17 -4 17 -5 0 -13 7 -16 16 -4 12 -2 15 9 10 18 -7 20 5 3 22 -15 15 -3
16 22 2 16 -8 18 -8 14 5 -4 8 -10 15 -15 15 -5 0 -9 7 -9 16 0 10 5 14 16 10
19 -7 8 14 -18 32 -21 15 -24 37 -4 29 16 -6 21 49 5 59 -6 4 -6 11 1 19 8 10
7 16 -7 23 -16 9 -15 11 10 17 19 5 25 11 19 17 -6 6 -8 17 -5 26 4 10 2 13
-5 8 -8 -5 -12 0 -12 14 0 11 7 23 15 26 8 4 15 11 15 16 0 6 -6 6 -14 -1 -11
-9 -16 -9 -22 0 -4 7 -2 15 4 17 14 4 16 32 3 32 -6 0 -9 9 -8 19 0 11 4 18 8
15 4 -2 11 1 14 7 4 6 -2 13 -14 16 -15 4 -20 11 -16 23 18 57 20 79 9 104 -4
11 -4 17 2 14 5 -4 10 20 12 53 2 51 0 59 -15 59 -17 1 -17 1 -1 11 10 5 15
16 12 24 -4 8 -1 15 5 15 8 0 9 5 1 19 -7 14 -7 22 0 26 6 4 7 11 3 18 -3 6
-7 27 -7 46 -1 23 -5 35 -14 34 -18 -4 -15 14 6 26 14 9 15 12 3 20 -7 5 -11
13 -8 18 4 6 0 19 -8 29 -17 22 -20 64 -5 64 6 0 10 9 10 20 0 11 5 20 12 20
6 0 1 9 -12 20 -13 11 -20 23 -15 28 4 4 10 1 12 -5 3 -7 9 -13 14 -13 14 0
11 28 -4 33 -9 3 -9 11 0 36 6 17 8 29 3 26 -11 -7 -21 22 -14 40 4 8 1 21 -5
29 -9 11 -7 15 9 19 11 3 20 11 19 19 0 10 -2 10 -6 1 -11 -29 -23 -10 -18 30
3 23 2 36 -1 29 -9 -19 -23 -5 -17 18 3 11 12 20 19 20 8 0 14 7 14 15 0 17
-16 21 -22 5 -2 -6 -8 -6 -18 1 -13 8 -13 11 3 20 20 12 23 45 5 52 -7 2 -10
7 -6 11 3 4 17 2 30 -5 22 -12 23 -11 5 8 -9 11 -15 27 -12 36 4 8 2 18 -4 22
-6 3 -11 14 -10 23 0 14 2 14 8 -2 5 -13 10 -16 15 -8 4 6 2 20 -4 31 -14 27
-13 31 7 31 13 0 14 3 5 12 -16 16 -15 28 3 28 19 0 19 9 0 34 -12 16 -12 22
-2 29 9 7 9 10 0 14 -18 7 -16 23 3 23 14 0 14 3 4 15 -9 11 -9 15 -1 15 8 0
7 10 -3 34 -12 30 -12 36 2 50 15 15 15 16 -1 16 -9 0 -17 5 -17 10 0 6 9 10
21 10 15 0 19 4 15 16 -3 9 -6 18 -6 20 0 2 -7 4 -15 4 -19 0 -19 9 -1 24 9 7
12 22 9 44 -5 30 -6 31 -20 15 -14 -17 -14 -17 -7 2 4 11 8 35 8 53 0 22 4 32
15 32 13 1 12 4 -4 16 -20 14 -19 15 2 20 21 6 21 8 7 30 -9 13 -12 29 -8 36
12 19 14 166 4 194 -5 13 -6 24 -1 24 5 0 7 23 6 50 -2 41 0 48 11 39 11 -9
11 -5 5 19 -6 20 -5 34 2 41 9 9 6 13 -11 17 -24 7 -31 24 -9 24 7 0 14 10 14
22 2 16 0 19 -6 9 -5 -8 -11 -9 -15 -3 -8 13 4 43 15 37 4 -3 2 14 -5 39 -8
25 -12 47 -10 49 2 2 -6 12 -17 23 -16 14 -23 15 -26 7 -3 -7 -11 -13 -19 -13
-16 0 -19 -16 -5 -24 5 -3 12 2 15 11 6 15 8 15 22 2 11 -12 13 -22 5 -42 -10
-27 -43 -39 -38 -14 1 6 -5 13 -13 13 -8 1 -19 2 -25 3 -5 0 -4 6 3 13 15 15
16 32 2 23 -5 -3 -10 0 -10 7 0 7 -3 24 -7 37 -5 20 -3 22 16 16 12 -4 21 -2
21 4 0 6 -5 11 -11 11 -6 0 -8 9 -4 20 4 12 2 20 -5 20 -6 0 -9 -4 -6 -9 5 -7
-14 -21 -28 -21 -1 0 -1 18 -1 41 0 22 1 36 3 30 6 -19 17 -12 18 13 1 16 -3
23 -11 20 -7 -3 -15 4 -18 15 -3 12 -1 19 4 15 5 -3 9 2 9 11 0 8 -7 18 -15
21 -8 4 -13 10 -10 14 3 4 -4 10 -16 13 -16 4 -18 11 -13 31 4 16 2 26 -5 26
-17 0 -14 67 4 74 8 3 15 12 15 20 0 8 6 17 12 19 8 3 6 6 -4 6 -10 1 -18 8
-18 17 0 10 6 14 14 11 9 -4 16 3 20 16 7 27 0 33 -19 17 -12 -10 -15 -10 -15
3 0 8 7 17 15 21 8 3 15 12 15 20 0 10 -6 13 -15 10 -10 -4 -15 0 -15 11 0 11
5 15 15 12 11 -5 12 -1 5 19 -14 35 -12 44 5 44 8 0 15 5 15 10 0 6 -4 10 -9
10 -5 0 -11 9 -14 20 -3 12 -1 17 5 14 5 -3 12 3 15 15 3 12 10 21 15 21 5 0
6 5 3 10 -3 6 4 10 15 10 15 0 20 5 16 15 -3 8 2 19 12 24 23 14 6 14 -20 0
-14 -8 -23 -8 -31 0 -8 8 -8 11 1 11 6 0 11 11 10 25 -1 14 -6 25 -10 25 -4 0
-8 7 -8 15 0 8 5 15 11 15 5 0 7 5 4 10 -4 6 -11 7 -17 4 -6 -4 -8 1 -3 15 l6
21 -1974 0 -1975 0 4 -142 c2 -79 5 -164 8 -190 3 -27 0 -50 -6 -54 -7 -4 -6
-9 3 -14 10 -7 10 -11 0 -24 -11 -13 -11 -19 -1 -31 7 -8 10 -21 7 -30 -4 -8
-2 -17 4 -20 5 -4 6 -11 2 -18 -6 -11 -6 -91 3 -322 3 -60 6 -158 7 -217 1
-60 4 -108 7 -108 3 0 5 -42 4 -93 -1 -50 3 -97 8 -104 5 -7 6 -17 2 -24 -10
-16 -12 -419 -2 -425 5 -3 5 -10 2 -16 -13 -21 -4 -561 9 -574 4 -4 3 -12 -3
-18 -5 -7 -6 -27 -1 -46 8 -41 6 -133 -4 -150 -4 -6 -2 -17 4 -24 6 -6 12 -60
13 -118 2 -60 7 -104 12 -100 5 3 5 -1 1 -9 -13 -21 -14 -99 -1 -99 6 0 4 -5
-4 -10 -13 -8 -13 -13 3 -40 14 -22 15 -30 5 -30 -8 0 -6 -5 5 -11 9 -5 17
-19 17 -30 0 -16 41 -90 60 -109 3 -3 14 -23 25 -44 11 -22 25 -45 30 -51 17
-18 35 -48 48 -77 6 -16 17 -28 23 -28 11 0 25 -30 28 -60 1 -8 7 -14 14 -12
9 1 10 -6 6 -23 -4 -15 -2 -25 5 -25 6 0 11 -7 11 -15 0 -8 4 -15 8 -15 9 0
36 -106 30 -114 -2 -2 5 -13 15 -23 9 -11 14 -23 11 -26 -4 -4 -2 -12 4 -19
17 -21 44 -120 49 -178 4 -56 22 -110 35 -110 4 0 5 -7 2 -15 -4 -8 -2 -15 3
-15 5 0 9 -15 10 -32 0 -18 5 -45 11 -61 6 -15 13 -60 16 -100 2 -39 6 -80 10
-89 14 -40 14 -46 3 -57 -9 -9 -9 -14 1 -20 10 -6 12 -26 9 -75 -3 -36 -1 -68
4 -71 4 -3 4 -16 0 -29 -11 -26 -1 -88 14 -86 5 1 11 -4 14 -11 2 -7 -1 -9 -8
-5 -6 4 -11 3 -11 -3 0 -5 -3 -17 -7 -27 -4 -12 -3 -15 5 -10 8 5 12 0 12 -13
0 -10 -5 -21 -11 -23 -16 -5 -22 -108 -7 -108 8 0 7 -6 -3 -15 -12 -12 -14
-27 -9 -60 4 -27 3 -46 -3 -48 -10 -3 13 -37 41 -61 7 -6 21 -19 30 -28 9 -10
22 -18 30 -18 9 0 11 -7 7 -20 -4 -12 -2 -20 5 -20 6 0 8 5 5 10 -4 7 3 8 20
4 18 -4 30 -2 36 7 7 11 9 11 9 -3 0 -9 -8 -19 -17 -21 -17 -4 -17 -5 0 -6 13
-1 17 -6 12 -20 -4 -14 0 -21 15 -26 25 -8 26 -21 0 -35 -24 -13 -27 -32 -4
-23 13 5 15 2 9 -15 -5 -16 -2 -22 9 -22 9 0 16 -4 16 -10 0 -5 -5 -10 -11
-10 -6 0 -8 -9 -4 -21 6 -18 4 -20 -13 -15 -17 6 -20 1 -25 -36 -3 -24 -2 -47
4 -52 15 -16 11 -76 -6 -76 -15 0 -15 -18 0 -54 5 -12 3 -21 -6 -27 -11 -6
-11 -11 -1 -21 6 -6 12 -9 12 -4 0 4 7 1 15 -8 20 -19 19 -26 -2 -26 -17 -1
-17 -1 0 -14 9 -7 17 -22 17 -34 0 -11 5 -22 12 -24 10 -4 10 -13 1 -41 -6
-20 -7 -39 -3 -42 5 -3 7 -16 5 -30 -1 -14 2 -28 6 -31 5 -3 5 -13 -1 -24 -7
-13 -6 -19 6 -24 14 -5 14 -7 0 -22 -20 -20 -20 -29 0 -49 9 -9 14 -18 11 -21
-3 -3 1 -17 9 -32 7 -14 10 -29 5 -32 -5 -3 -7 -40 -6 -82 3 -59 0 -78 -11
-82 -8 -3 -14 -11 -14 -17 0 -8 4 -8 15 1 12 10 15 10 15 -4 0 -9 -3 -16 -7
-16 -5 0 -8 -14 -7 -32 1 -21 7 -34 20 -39 14 -6 15 -8 3 -8 -21 -1 -68 -51
-48 -51 8 0 15 -9 16 -20 1 -12 -4 -20 -13 -20 -8 0 -13 -4 -10 -9 3 -5 -1
-11 -8 -14 -9 -4 -17 1 -19 11 -3 10 -5 7 -5 -8 0 -14 -4 -36 -8 -49 -5 -16
-4 -22 3 -18 6 4 14 0 17 -9 10 -27 7 -32 -16 -26 -21 5 -22 4 -9 -12 12 -14
12 -19 1 -26 -7 -4 -10 -15 -7 -24 4 -10 1 -19 -8 -22 -7 -3 -11 -12 -8 -20 3
-8 -4 -24 -16 -35 -11 -11 -21 -24 -21 -29 0 -6 -6 -10 -14 -10 -8 0 -23 -10
-33 -22 -10 -14 -30 -24 -48 -25 -16 0 -31 -6 -33 -12 -2 -6 -25 10 -52 36
-58 58 -66 99 -45 222 10 54 12 89 5 100 -15 29 -24 167 -11 175 15 10 5 147
-15 200 -8 21 -14 58 -12 83 1 26 -3 48 -10 52 -9 5 -8 12 3 27 18 24 19 38 1
31 -10 -4 -12 0 -9 14 7 24 12 24 29 2 13 -16 14 -16 11 7 -1 14 -6 28 -12 33
-6 4 0 10 13 13 26 7 27 13 8 39 -7 10 -12 30 -10 44 2 20 -4 30 -26 43 -29
16 -65 82 -55 99 3 4 -4 34 -15 66 -20 58 -27 143 -11 143 13 0 20 37 9 48
-13 13 12 52 34 52 10 0 18 6 18 13 0 7 18 20 40 30 25 10 40 24 40 34 0 10 7
26 15 37 7 10 17 43 21 72 4 34 12 58 23 64 11 6 12 12 5 17 -6 5 -18 37 -28
73 -26 95 -56 190 -72 228 -8 18 -12 38 -8 43 3 5 -2 28 -11 52 -8 23 -17 58
-20 77 -2 19 -14 64 -26 100 -47 136 -91 256 -104 285 -36 83 -75 185 -75 198
0 9 -4 17 -8 19 -11 4 -72 115 -72 130 0 6 -8 21 -18 32 -28 32 -92 142 -92
158 0 8 -11 24 -25 36 -14 12 -25 29 -25 37 0 8 -4 15 -10 15 -5 0 -10 7 -10
15 0 23 -15 18 -30 -10 -19 -36 -41 -28 -69 26 l-25 46 22 28 c34 43 16 44
-22 2 -37 -42 -51 -46 -59 -17 -3 14 -14 20 -31 20 -18 0 -46 18 -89 56 -120
109 -143 129 -174 154 -17 14 -69 61 -117 104 -47 43 -98 88 -113 100 -16 12
-44 36 -63 53 -19 18 -71 59 -115 92 -44 33 -87 67 -96 76 -9 8 -23 15 -31 15
-9 0 -22 7 -29 16 -23 27 -196 141 -249 163 -14 6 -32 15 -40 21 -8 5 -28 16
-45 23 -16 8 -36 21 -44 30 -7 10 -20 17 -28 17 -7 0 -37 12 -66 27 -29 15
-56 26 -60 25 -5 -1 -23 8 -40 20 -17 12 -36 23 -42 23 -5 0 -35 12 -66 27
-30 15 -64 29 -76 31 -12 1 -28 9 -36 16 -21 16 -388 140 -441 147 -23 4 -50
12 -61 18 -11 7 -38 13 -59 15 -21 1 -48 6 -58 12 -11 6 -26 8 -34 5 -8 -3
-45 2 -82 10 -203 48 -554 64 -732 35 -84 -14 -111 -17 -169 -20 -16 0 -36 -7
-43 -15 -8 -7 -41 -20 -74 -27 -32 -7 -70 -20 -83 -28 -14 -9 -38 -16 -54 -17
-16 -1 -32 -6 -36 -10 -12 -17 -73 -44 -98 -44 -15 0 -23 -3 -20 -7 8 -7 -79
-53 -99 -53 -7 0 -15 -7 -18 -16 -3 -8 -10 -13 -15 -10 -5 3 -14 -1 -21 -9 -7
-8 -19 -15 -27 -15 -9 0 -37 -16 -64 -36 -27 -20 -49 -33 -49 -29 0 3 -6 1
-12 -5 -38 -32 -144 -110 -150 -110 -5 0 -8 8 -8 17 0 9 3 13 6 10 9 -8 44 11
44 24 0 19 44 69 61 69 10 0 24 6 31 13 7 7 21 16 30 20 12 4 15 12 11 23 -4
12 -2 15 8 12 8 -3 23 5 34 18 11 12 53 40 94 61 120 62 126 66 129 75 2 4 8
8 13 8 6 0 7 -6 4 -12 -4 -7 0 -5 8 5 8 9 19 17 25 17 6 0 17 7 26 15 8 9 29
17 46 18 18 1 32 9 35 19 5 12 48 33 62 29 2 -1 21 7 44 16 22 9 53 17 67 18
15 1 43 9 62 17 123 57 184 73 330 89 85 9 123 18 145 33 40 28 42 31 39 69
-10 157 -15 393 -19 862 -2 303 -6 597 -8 655 -2 58 -5 156 -6 218 l-1 112
-6160 0 -6160 0 0 -15600z m10910 12974 c0 -9 -9 -18 -20 -21 -11 -3 -18 -9
-15 -13 3 -4 -15 -26 -40 -49 -25 -23 -45 -45 -45 -49 0 -4 -16 -24 -35 -44
-19 -20 -35 -41 -35 -46 0 -4 -11 -19 -25 -32 -14 -13 -25 -27 -25 -32 0 -5
-11 -21 -25 -36 -14 -15 -25 -32 -25 -39 0 -7 -6 -13 -12 -13 -7 0 -29 -28
-48 -61 -19 -34 -43 -65 -52 -70 -15 -8 -16 -6 -6 23 6 18 20 40 30 49 9 9 15
19 12 22 -4 3 3 19 15 35 12 17 21 33 21 37 0 4 16 26 35 49 19 24 35 48 35
54 0 6 9 16 20 22 11 6 20 17 20 25 0 8 6 15 13 16 6 0 32 25 57 54 25 30 50
55 57 55 6 0 13 10 15 21 2 13 18 30 38 40 42 23 40 23 40 3z m3359 -1084 c19
-5 39 -6 45 -1 10 7 27 7 85 0 8 -1 19 -15 25 -31 7 -19 17 -28 33 -28 13 0
23 5 23 11 0 7 10 9 28 4 15 -4 35 -7 44 -7 9 0 19 -6 22 -14 3 -8 2 -13 -3
-10 -11 7 -26 -12 -34 -41 -3 -16 -1 -23 9 -23 8 0 19 -11 24 -25 6 -15 17
-24 27 -23 10 0 39 0 64 0 38 -2 48 -6 52 -22 3 -14 14 -20 31 -20 14 0 26 -4
26 -10 0 -20 19 -10 22 12 4 25 17 32 38 18 13 -9 13 -12 -3 -21 -18 -10 -18
-11 0 -31 13 -15 15 -22 6 -25 -19 -7 -16 -53 4 -60 9 -4 19 -1 21 5 2 7 12
12 22 12 9 0 23 7 30 15 7 8 18 15 25 15 8 0 16 6 18 13 3 6 6 0 6 -15 1 -14
-5 -28 -11 -31 -17 -6 8 -32 40 -42 21 -6 23 -4 17 14 -9 29 4 26 43 -9 19
-18 32 -39 32 -54 0 -25 20 -39 45 -30 8 4 17 -1 21 -9 3 -9 19 -19 35 -22 34
-8 38 -20 9 -28 -26 -7 -26 -24 0 -32 11 -4 23 -20 28 -37 9 -35 41 -62 49
-40 5 14 33 17 33 2 0 -5 -6 -15 -14 -22 -12 -11 -9 -15 18 -28 18 -9 32 -24
34 -38 2 -12 8 -22 14 -22 6 0 8 -11 6 -25 -3 -13 -1 -22 3 -19 9 5 13 -10 10
-35 -2 -7 9 -36 22 -65 33 -69 57 -145 57 -178 0 -15 4 -29 9 -32 5 -3 14 -36
21 -73 17 -103 86 -351 101 -367 5 -6 9 -20 9 -32 0 -13 5 -26 10 -29 6 -3 10
-20 10 -36 0 -17 7 -44 16 -61 9 -17 18 -45 20 -62 3 -17 11 -49 19 -71 8 -22
16 -59 18 -83 3 -23 7 -45 11 -49 3 -3 6 -48 6 -99 0 -51 4 -95 9 -98 11 -7 4
-158 -9 -198 -5 -17 -5 -30 1 -33 12 -8 12 -52 0 -59 -5 -3 -7 -14 -4 -24 2
-10 -1 -31 -8 -47 -18 -45 -20 -153 -3 -210 13 -45 13 -51 -2 -62 -13 -10 -14
-15 -5 -26 9 -11 8 -17 -4 -27 -10 -9 -15 -9 -15 -1 0 19 -17 12 -23 -9 -3
-11 -1 -18 4 -14 5 3 9 0 9 -6 0 -6 10 -9 23 -8 12 2 23 -1 25 -7 1 -5 -7 -11
-19 -11 -21 -1 -58 -38 -59 -58 0 -4 10 -6 22 -3 15 4 29 -2 46 -20 l25 -27
-24 -19 c-17 -13 -20 -20 -11 -26 7 -4 10 -15 7 -23 -4 -9 0 -18 9 -21 12 -5
14 -17 9 -54 -3 -26 -7 -95 -8 -152 -2 -106 -15 -141 -50 -141 -20 0 -19 -16
3 -30 12 -8 13 -13 5 -16 -20 -8 -15 -42 6 -56 15 -9 17 -16 10 -30 -6 -12 -5
-24 3 -37 15 -25 4 -38 -17 -21 -9 7 -15 8 -15 2 0 -6 -3 -17 -6 -26 -5 -12 0
-16 19 -16 20 0 25 -5 23 -25 -1 -22 -5 -25 -28 -20 -34 8 -45 -11 -22 -36 9
-10 15 -20 13 -22 -35 -20 -53 -27 -74 -27 -18 0 -25 -5 -25 -20 0 -11 -3 -20
-8 -20 -4 0 -13 -13 -20 -30 -10 -21 -21 -30 -38 -30 -26 0 -33 -18 -9 -25 48
-15 48 -16 37 -27 -8 -8 -15 -8 -27 2 -12 10 -18 8 -34 -11 -11 -13 -23 -36
-26 -51 -4 -16 -16 -30 -28 -34 -12 -4 -39 -18 -60 -31 -25 -16 -45 -22 -59
-17 -18 5 -20 3 -14 -19 5 -21 1 -27 -24 -37 -17 -7 -30 -19 -30 -27 0 -7 -10
-17 -22 -22 -18 -7 -26 -4 -39 15 -8 13 -19 21 -22 17 -12 -11 -8 -23 9 -23 9
0 14 -6 11 -12 -2 -7 3 -18 12 -24 13 -10 11 -15 -15 -37 -33 -30 -55 -36 -32
-9 42 49 14 51 -32 2 -14 -14 -30 -25 -36 -23 -5 2 -15 -10 -21 -27 -6 -16 -7
-30 -2 -30 22 0 6 -16 -26 -26 -19 -6 -35 -9 -35 -7 0 2 10 17 21 32 24 33 23
63 -1 39 -8 -8 -23 -17 -34 -21 -11 -4 -16 -13 -12 -22 4 -12 -1 -15 -23 -13
-22 2 -27 6 -23 20 2 10 0 18 -6 18 -6 0 -12 -10 -14 -22 -2 -17 -10 -23 -28
-23 -19 0 -25 -5 -24 -22 0 -13 -5 -23 -12 -23 -10 0 -11 6 -4 25 11 29 -3 30
-34 2 -11 -9 -28 -15 -38 -11 -11 3 -18 0 -18 -7 0 -8 -6 -6 -18 4 -23 21 -39
22 -22 1 11 -13 8 -20 -18 -44 -18 -16 -32 -34 -32 -41 0 -6 -6 -9 -13 -6 -7
3 -33 -12 -58 -34 -27 -24 -50 -37 -61 -33 -9 3 -21 -2 -26 -12 -6 -11 -14
-14 -23 -8 -28 17 -90 13 -107 -7 -20 -23 -32 -24 -32 -3 0 10 -6 14 -14 11
-8 -3 -17 1 -20 10 -6 14 -10 12 -33 -8 -14 -13 -27 -19 -30 -14 -13 35 -21
39 -42 21 -15 -14 -24 -15 -40 -7 -25 14 -27 14 -46 -5 -9 -9 -13 -25 -10 -38
2 -11 2 -15 -1 -8 -7 14 -44 16 -44 2 0 -20 -19 -9 -22 12 -2 13 -15 29 -30
36 -16 7 -28 18 -28 25 0 7 -5 4 -11 -5 -14 -24 -23 -23 -39 7 -12 22 -18 24
-47 19 -25 -5 -34 -2 -39 10 -3 9 -12 16 -20 16 -17 0 -18 -17 -1 -23 6 -2 8
-8 4 -13 -5 -5 -14 -1 -21 9 -7 9 -18 17 -24 17 -6 0 -12 3 -15 8 -2 4 -3 2
-1 -5 5 -19 -8 -23 -30 -8 -11 8 -27 15 -35 15 -8 0 -23 8 -33 17 -17 15 -20
15 -41 -7 -19 -21 -22 -22 -25 -7 -4 18 -22 24 -22 8 0 -18 -37 -21 -66 -6
-16 8 -35 15 -43 15 -8 0 -20 8 -27 18 -13 16 -15 16 -28 0 -7 -10 -18 -18
-25 -18 -12 0 -15 13 -4 23 3 4 8 19 9 33 2 21 0 23 -12 13 -8 -6 -14 -18 -14
-25 0 -21 -21 -17 -27 6 -3 11 -12 20 -19 20 -19 0 -18 29 1 36 8 4 22 1 30
-6 9 -7 18 -11 20 -8 6 5 -47 53 -55 50 -6 -3 -5 7 5 36 10 30 27 28 19 -3 -5
-22 -3 -25 20 -25 23 0 26 3 20 26 -6 25 -5 26 24 22 17 -2 29 -1 27 3 -3 4 3
13 12 20 15 12 16 11 11 -8 -7 -25 -6 -26 16 -17 9 3 16 12 16 20 0 19 7 18
37 -6 20 -16 28 -17 44 -7 28 17 23 30 -8 23 -16 -3 -22 -3 -15 0 6 3 12 10
12 16 0 6 8 17 18 24 16 12 16 14 -3 28 -11 8 -15 15 -10 15 6 1 21 -8 35 -19
34 -26 43 -25 36 6 -6 22 -4 25 17 22 29 -3 67 31 63 57 -2 11 2 27 9 35 7 8
16 29 19 45 10 41 53 95 76 95 13 0 17 5 13 19 -4 15 3 20 41 25 25 4 46 12
46 17 0 6 9 7 20 4 31 -10 23 9 -12 30 -33 20 -41 22 -90 32 -16 3 -28 12 -28
19 0 8 -3 14 -7 14 -5 0 -17 14 -28 30 -11 16 -26 30 -32 30 -7 0 -13 5 -13
10 0 14 -38 12 -43 -2 -3 -10 -9 -8 -24 5 -26 23 -37 22 -57 -5 -15 -22 -16
-22 -29 -5 -15 18 -62 23 -72 7 -4 -7 -13 -7 -24 0 -10 5 -36 8 -58 7 -21 0
-56 7 -77 17 -27 13 -48 16 -78 11 -26 -5 -38 -4 -34 3 3 5 -9 23 -28 40 -53
46 -54 66 -6 82 22 7 40 16 40 20 0 7 40 15 199 40 29 5 58 13 64 19 6 6 28
11 50 11 21 0 48 5 60 12 12 7 42 13 67 14 25 2 56 5 70 7 14 3 27 6 29 6 3 1
0 6 -6 12 -8 8 -17 7 -32 -2 -15 -10 -23 -11 -32 -2 -16 16 7 57 28 49 8 -3
28 -6 45 -6 26 0 30 -3 25 -21 -6 -24 -24 -24 163 2 85 12 169 13 214 3 17 -4
36 -8 41 -9 48 -5 92 -21 106 -38 16 -20 16 -20 80 12 35 17 78 47 96 66 35
37 43 58 19 49 -11 -4 -13 3 -9 38 7 51 12 58 37 49 17 -7 17 -8 2 -23 -15
-16 -14 -18 6 -32 31 -22 36 -20 30 9 -5 27 7 32 26 13 7 -7 12 -8 12 -3 0 15
-13 31 -30 38 -8 4 1 4 20 1 19 -4 36 -10 38 -15 4 -10 42 12 42 25 0 4 -7 3
-15 -4 -21 -17 -32 -4 -17 20 10 16 10 20 -1 20 -7 0 -19 -6 -26 -12 -11 -11
-13 -9 -8 10 4 16 1 22 -13 22 -10 0 -23 7 -30 15 -10 13 -10 19 5 35 15 16
16 22 5 36 -8 8 -22 13 -32 11 -12 -4 -18 0 -18 13 0 12 -10 19 -30 22 -17 3
-33 1 -36 -3 -2 -4 -17 -1 -32 6 -43 21 -64 21 -116 -3 -58 -26 -66 -27 -66
-7 0 11 -7 14 -24 9 -19 -4 -30 1 -47 20 -14 16 -33 26 -50 26 -15 0 -29 6
-32 13 -4 9 -7 9 -17 0 -11 -10 -10 -14 3 -19 9 -3 17 -14 17 -24 0 -24 16
-34 24 -15 6 16 36 21 36 5 0 -5 -8 -13 -17 -19 -20 -11 -17 -16 13 -25 17 -5
23 -1 29 16 l8 23 4 -22 c2 -13 11 -23 19 -23 8 0 14 -4 14 -10 0 -14 27 -12
33 3 3 6 6 2 6 -10 1 -14 7 -23 17 -23 9 0 18 -9 21 -20 3 -11 14 -20 24 -20
10 0 32 -13 49 -30 17 -16 34 -30 39 -30 5 0 14 -7 21 -15 6 -8 15 -13 18 -12
10 3 13 -15 6 -36 -6 -18 -7 -17 -29 3 -13 12 -28 19 -33 16 -5 -3 -27 -8 -48
-11 -22 -2 -59 -9 -84 -14 -28 -6 -49 -6 -56 0 -15 12 -42 1 -55 -22 -6 -12
-15 -17 -22 -12 -7 4 -22 6 -34 4 -13 -1 -23 2 -23 8 0 6 -4 11 -10 11 -5 0
-10 -8 -10 -17 0 -13 -3 -14 -12 -5 -14 14 -74 16 -83 2 -4 -6 -15 -4 -28 5
-18 11 -36 13 -82 6 -33 -5 -80 -8 -105 -6 -25 2 -69 3 -97 4 -38 1 -53 5 -53
15 0 7 -10 16 -22 20 -24 6 -56 -25 -70 -68 -6 -21 -6 -21 -7 0 -1 16 -7 22
-23 22 -44 0 -103 15 -111 29 -5 7 -23 13 -40 13 -43 -1 -115 15 -154 35 -30
15 -44 27 -25 23 18 -4 62 27 62 44 0 10 5 18 11 18 5 0 7 5 4 11 -4 5 -4 22
-1 35 6 21 9 24 22 13 8 -6 18 -9 22 -5 4 4 -1 13 -11 20 -20 15 -23 36 -4 36
6 0 25 19 40 41 l29 40 -26 -7 c-28 -7 -32 3 -17 41 5 12 3 33 -5 54 -8 18
-11 37 -8 42 3 5 -4 9 -16 9 l-21 0 20 29 c14 19 33 31 58 36 56 10 93 33 104
63 13 33 10 37 -17 34 -17 -2 -23 4 -27 27 -5 23 -13 32 -34 36 -15 4 -52 15
-81 26 -30 10 -65 19 -79 19 -18 0 -24 4 -19 15 3 9 0 15 -9 15 -8 0 -15 -4
-15 -10 0 -5 -5 -10 -11 -10 -6 0 -9 9 -6 20 3 11 1 20 -4 20 -17 0 -49 35
-49 53 0 16 -2 17 -15 7 -9 -7 -13 -15 -10 -18 8 -9 -16 -32 -34 -32 -14 0
-14 2 -1 10 8 5 11 12 7 16 -4 4 0 18 8 31 17 26 5 32 -16 7 -9 -11 -22 -14
-47 -9 -28 5 -34 3 -39 -14 -3 -12 -9 -18 -14 -15 -5 3 -9 -4 -9 -15 0 -12 -5
-21 -11 -21 -7 0 -9 -10 -5 -25 4 -15 1 -29 -9 -37 -52 -45 -72 -67 -67 -73 4
-4 -1 -5 -10 -3 -9 1 -17 -1 -17 -5 0 -5 -7 -14 -17 -21 -9 -7 -14 -18 -10
-24 4 -7 1 -12 -8 -12 -19 0 -26 -20 -14 -43 13 -26 19 -55 19 -106 0 -24 5
-55 10 -68 6 -16 5 -22 -1 -18 -6 3 -10 2 -10 -4 0 -5 5 -13 10 -16 6 -3 10
-15 10 -27 0 -15 5 -19 19 -15 17 4 35 -9 55 -41 5 -8 2 -10 -9 -5 -15 5 -15
3 -4 -15 17 -27 2 -73 -29 -87 -12 -5 -22 -13 -22 -18 0 -4 -4 -6 -9 -2 -5 3
-12 -4 -16 -15 -4 -11 -12 -20 -18 -19 -25 3 -57 -14 -57 -30 0 -9 -5 -22 -12
-29 -9 -9 -15 -6 -24 16 -12 26 -13 26 -19 6 -4 -12 -18 -28 -32 -35 -22 -12
-26 -11 -34 4 -7 11 -18 16 -34 13 -26 -5 -69 -31 -71 -44 -8 -41 -17 -50 -49
-47 -23 2 -36 -2 -39 -12 -4 -10 -14 -13 -30 -9 -20 5 -23 3 -19 -14 5 -18 2
-19 -18 -11 -13 4 -24 13 -24 19 0 19 -14 25 -21 8 -3 -9 -17 -16 -30 -16 -14
0 -24 -6 -24 -15 0 -18 -36 -39 -45 -26 -3 5 -1 12 5 16 10 6 15 55 6 55 -3 0
-16 -4 -30 -10 -17 -6 -26 -6 -26 0 0 6 -7 10 -15 10 -8 0 -15 5 -15 10 0 6
-7 10 -16 10 -9 0 -18 9 -21 20 -3 11 -10 20 -17 20 -6 0 -20 11 -30 25 -25
33 -31 32 -30 -7 1 -19 7 -32 13 -31 6 2 11 -4 11 -12 0 -8 -9 -15 -19 -15
-22 0 -37 30 -20 41 20 12 2 41 -22 34 -18 -6 -20 -5 -10 14 10 19 9 21 -12
21 -26 0 -52 22 -40 34 4 4 0 4 -10 0 -24 -9 -21 -21 10 -48 23 -20 26 -46 4
-46 -9 0 -76 92 -76 105 0 19 -39 44 -52 33 -13 -11 -33 -3 -33 13 0 6 5 7 10
4 6 -3 10 3 10 14 0 11 -8 24 -17 30 -17 9 -17 10 0 17 14 5 17 13 12 35 -4
19 -3 29 5 29 6 0 9 4 5 10 -3 5 -12 7 -20 3 -14 -5 -19 7 -16 36 2 8 -2 10
-10 5 -9 -5 -11 -1 -7 14 5 17 -1 26 -22 39 -22 12 -27 22 -24 41 3 14 14 33
25 42 24 21 25 42 2 38 -10 -2 -19 5 -21 15 -3 13 1 17 15 15 15 -2 18 5 21
44 2 41 0 47 -14 41 -9 -3 -15 -2 -13 3 3 5 11 22 19 38 11 23 12 30 2 34 -6
2 -12 10 -12 18 0 9 4 13 9 10 13 -8 24 45 12 57 -6 6 -11 19 -11 29 0 16 3
17 21 8 28 -16 56 5 34 26 -7 8 -18 14 -24 14 -6 0 -11 5 -11 10 0 17 29 11
39 -9 15 -27 51 -34 51 -10 0 12 -7 19 -20 19 -14 0 -18 5 -13 16 3 9 13 14
24 11 12 -3 19 0 19 9 0 22 28 5 39 -24 10 -27 10 -27 16 -4 4 12 14 22 21 22
8 0 17 7 20 15 5 12 10 10 26 -8 18 -21 19 -21 13 -1 -4 16 3 24 36 38 22 10
48 16 58 13 14 -3 17 0 14 14 -6 20 11 26 22 8 5 -7 15 -4 29 9 11 10 38 29
59 41 20 13 37 26 37 29 0 11 52 32 62 26 10 -6 108 54 108 66 0 5 14 11 30
15 17 4 30 12 30 19 0 15 47 39 60 31 4 -3 6 4 3 15 -6 24 18 27 41 5 17 -17
25 -9 28 29 3 31 9 33 25 7 12 -19 38 -21 64 -6 6 4 13 -2 15 -12 8 -31 37
-44 67 -28 25 13 77 10 77 -5 0 -4 -7 -13 -15 -20 -8 -7 -12 -16 -9 -22 3 -5
12 -4 22 4 13 12 14 10 8 -17 -4 -16 -14 -34 -22 -38 -13 -7 -13 -11 -2 -25
11 -13 11 -15 -4 -9 -14 5 -16 -1 -13 -44 2 -28 5 -53 8 -56 3 -2 2 -17 -3
-33 -7 -23 -5 -29 11 -33 10 -3 19 -10 19 -16 0 -6 -7 -8 -15 -5 -8 4 -15 1
-15 -5 0 -18 21 -13 56 14 37 29 44 30 44 12 0 -9 12 -13 35 -13 33 1 37 4 49
46 11 34 16 41 21 28 4 -10 11 -15 16 -12 5 3 7 10 4 15 -4 5 -1 17 4 26 7 12
10 14 11 4 0 -11 3 -11 15 -1 8 7 15 18 15 25 0 6 9 20 20 30 11 10 18 21 15
23 -3 3 5 16 17 29 18 20 20 26 9 33 -8 4 -20 6 -27 3 -6 -2 -15 0 -19 6 -3 6
0 12 7 13 7 0 18 2 23 2 16 2 17 9 10 39 -6 24 -12 28 -31 24 -15 -2 -24 1
-24 8 0 7 10 11 25 10 21 -3 25 2 31 30 3 18 1 42 -5 53 -14 26 -15 54 -1 32
14 -22 20 -9 24 50 3 40 -1 62 -16 88 -16 29 -17 39 -8 58 7 12 9 31 6 42 -4
11 -2 23 3 26 6 4 8 13 5 20 -3 8 -1 17 4 20 6 4 7 20 2 43 -6 23 -5 42 1 49
6 7 7 28 3 48 -5 31 -4 35 10 30 9 -3 16 -2 16 2 0 5 3 19 6 32 5 18 3 21 -10
16 -9 -3 -23 -3 -32 0 -15 6 -15 9 1 33 16 24 16 26 0 20 -14 -6 -16 -3 -9 26
4 17 8 52 9 77 3 56 2 55 20 40 9 -7 19 -9 23 -5 4 4 1 10 -5 12 -7 3 -13 11
-13 19 0 8 -6 14 -12 13 -24 -3 -38 1 -38 11 0 15 -33 50 -47 50 -7 0 -13 9
-13 20 0 24 -28 39 -39 21 -4 -6 -15 -9 -24 -5 -10 3 -23 1 -31 -5 -11 -9 -19
-5 -39 19 -14 16 -32 30 -39 30 -7 0 -21 18 -31 40 -11 24 -26 40 -35 40 -15
0 -15 -2 -2 -10 10 -7 12 -12 4 -17 -6 -5 -16 -18 -22 -29 -10 -19 -17 -21
-44 -15 -18 4 -54 6 -80 5 -43 -3 -49 0 -63 24 l-14 27 -1 -27 0 -27 -87 4
c-49 3 -100 5 -115 5 -16 0 -28 5 -29 12 0 7 -4 4 -8 -6 -7 -19 -8 -19 -27 0
-22 22 -44 21 -44 -2 0 -16 -9 -18 -30 -4 -13 8 -12 10 4 10 11 0 16 3 13 7
-4 3 -2 12 5 20 6 7 8 17 4 21 -4 4 -16 -3 -26 -15 -22 -27 -36 -29 -44 -7 -9
22 0 30 18 15 8 -7 16 -8 18 -4 1 5 19 18 38 31 35 22 35 22 8 20 -16 -1 -28
-8 -28 -15 0 -17 -15 -16 -30 2 -14 17 -5 35 19 35 10 0 30 14 44 30 15 17 23
30 18 30 -5 0 -7 9 -4 21 4 14 9 17 16 10 6 -6 15 -11 19 -11 12 0 10 17 -5
32 -7 7 -17 22 -21 33 -6 16 -5 18 5 8 16 -16 59 -17 59 -2 0 5 4 8 9 5 8 -6
23 18 25 39 1 5 14 16 31 24 16 8 25 16 18 18 -8 3 -5 11 8 24 23 23 39 18 20
-5 -15 -18 -6 -37 14 -29 11 4 13 1 9 -11 -3 -9 -3 -16 0 -16 3 0 13 18 22 40
9 22 20 37 25 34 5 -3 6 1 4 9 -3 7 3 21 14 32 18 15 23 16 38 4 16 -13 17
-12 4 4 -7 9 -23 17 -35 18 -11 0 -15 3 -8 6 17 7 15 23 -4 23 -13 0 -14 3 -5
14 6 8 11 18 9 22 -1 5 5 23 15 39 14 26 23 22 18 -8 -1 -4 6 -10 14 -13 8 -4
15 -12 15 -20 0 -8 7 -14 16 -14 14 0 14 3 4 15 -11 13 -8 15 14 15 16 0 26 5
26 15 0 8 -8 15 -17 15 -15 0 -16 2 -3 10 13 8 13 10 1 10 -22 0 20 29 42 30
28 0 9 20 -19 20 -13 0 -24 5 -24 12 0 7 -12 24 -26 39 -16 16 -23 32 -19 40
6 8 13 5 26 -12 10 -13 19 -30 19 -36 0 -7 2 -13 4 -13 2 0 11 -3 20 -6 9 -3
16 -1 16 6 0 6 -5 8 -12 4 -7 -4 -8 -3 -4 4 13 21 42 13 55 -14 6 -15 14 -24
18 -21 3 4 0 13 -6 21 -16 19 1 30 32 20 18 -5 17 -1 -10 23 -38 34 -41 53
-13 71 12 7 17 18 13 27 -3 9 2 22 13 30 26 19 34 18 34 -4 0 -18 18 -31 44
-31 7 0 18 11 24 25 8 17 20 25 36 25 14 0 28 5 31 10 3 6 15 10 26 10 10 0
19 7 19 15 0 15 33 37 49 33 5 -2 16 6 24 17 12 16 18 17 30 7 11 -9 17 -10
22 -2 4 6 15 8 26 5 11 -4 19 -2 19 4 0 16 26 13 40 -4 10 -12 10 -15 0 -15
-7 0 -10 -7 -6 -15 3 -8 9 -22 13 -32 5 -13 2 -15 -15 -11 -13 4 -23 0 -26 -9
-8 -21 -8 -23 9 -23 9 0 12 -6 9 -15 -7 -16 12 -45 28 -45 5 0 6 9 3 20 -6 19
-3 20 33 14 43 -7 82 8 82 31 0 16 30 35 55 35 26 0 13 -33 -15 -40 -14 -3
-26 -14 -28 -23 -5 -26 48 -23 55 3 6 24 23 27 23 4 0 -18 34 -11 62 13 10 9
27 13 38 10 26 -7 133 18 164 38 12 8 46 16 74 18 28 2 54 6 58 10 3 3 18 4
33 2 78 -12 125 -14 111 -5 -11 7 -12 12 -3 21 9 9 15 6 24 -14 11 -24 18 -27
61 -27 26 0 48 5 48 10 0 6 10 10 23 10 13 0 33 9 46 21 12 11 28 18 36 15 8
-3 29 1 47 9 40 17 36 17 77 5z m3579 -737 c-16 -20 -13 -53 6 -53 7 0 21 7
32 16 16 13 16 15 2 10 -12 -3 -18 0 -18 9 0 11 5 12 25 5 20 -8 27 -6 31 5 4
8 10 15 16 15 5 0 6 -6 1 -12 -4 -7 -8 -20 -8 -28 0 -8 -11 -17 -25 -21 -15
-4 -18 -7 -8 -8 20 -1 14 -29 -11 -48 -14 -11 -13 -12 5 -13 23 0 40 -25 23
-35 -5 -4 -7 -11 -4 -16 4 -5 -3 -9 -14 -9 -12 0 -24 0 -28 0 -4 0 -8 6 -9 15
-1 8 2 15 7 15 5 0 9 5 9 11 0 6 -10 9 -22 7 -17 -2 -22 -9 -21 -26 2 -16 -2
-22 -18 -22 -12 0 -18 4 -13 11 5 8 -3 10 -25 7 -17 -2 -31 -1 -31 4 0 4 -7 8
-15 8 -18 0 -21 55 -4 66 7 4 9 0 5 -14 -5 -15 -1 -24 13 -32 19 -9 20 -8 12
12 -10 27 36 118 66 129 30 12 37 10 21 -8z m-5520 -782 c61 1 87 -3 98 -14 4
-4 18 -4 30 -1 15 4 24 2 24 -6 0 -6 -9 -14 -20 -17 -11 -3 -20 -8 -20 -12 0
-4 -33 -7 -72 -8 -89 -2 -101 -3 -161 -15 -34 -7 -52 -7 -61 1 -11 9 -15 7
-19 -10 -4 -13 -12 -19 -24 -18 -10 2 -24 0 -31 -5 -7 -4 -15 -6 -18 -3 -3 2
11 12 31 21 19 9 42 30 50 46 9 17 20 30 25 30 6 0 10 7 10 16 0 13 7 15 33
11 19 -3 40 -1 48 4 9 6 15 4 17 -6 3 -12 17 -15 60 -14z m164 -137 c34 -18
58 -52 58 -83 0 -31 -60 -110 -84 -111 -15 0 -16 -3 -6 -15 12 -14 15 -14 30
0 20 18 120 58 127 51 3 -2 -6 -14 -19 -26 -12 -11 -31 -28 -40 -36 -12 -11
-21 -13 -34 -6 -13 7 -24 2 -50 -26 -19 -20 -34 -42 -34 -49 0 -16 -15 -17
-41 -2 -15 8 -24 7 -35 -2 -18 -15 -29 -6 -20 17 4 11 13 14 29 10 20 -5 23
-2 22 27 -1 18 -4 38 -8 43 -3 6 3 25 13 42 18 28 19 40 10 99 -13 95 2 108
82 67z m4973 -173 c-3 -5 -1 -12 4 -15 5 -3 7 -15 4 -26 -3 -11 0 -20 6 -20 6
0 11 9 11 20 0 24 15 27 24 5 4 -11 13 -14 31 -9 19 5 25 2 25 -10 0 -19 -1
-19 -33 -7 -14 6 -27 7 -30 4 -9 -9 22 -35 33 -28 5 3 10 -1 10 -10 0 -8 7
-18 16 -22 9 -3 28 -17 42 -29 30 -29 47 -31 30 -4 -14 22 -8 33 16 24 9 -3
16 -16 16 -28 0 -18 9 -26 40 -36 22 -7 40 -17 40 -23 0 -5 -8 -6 -17 -2 -19
7 -33 9 -69 6 -15 -1 -20 -7 -19 -23 2 -29 23 -35 33 -10 6 18 9 19 25 7 19
-14 20 -51 2 -46 -5 1 -9 9 -7 17 2 8 -2 14 -8 14 -5 0 -10 -3 -10 -7 0 -5 -4
-14 -9 -22 -7 -12 -13 -12 -40 0 -33 15 -41 45 -19 67 9 9 9 15 0 24 -9 9 -12
7 -12 -12 -1 -24 -1 -24 -15 -6 -8 11 -15 29 -15 40 -1 24 -22 56 -38 56 -5 0
-12 7 -16 15 -3 8 -12 15 -19 15 -21 0 -48 35 -42 52 4 9 -1 18 -9 21 -10 4
-16 1 -16 -8 0 -8 -4 -15 -10 -15 -12 0 -12 3 -4 24 3 9 17 16 31 16 13 0 22
-4 18 -9z m-215 -782 c0 -11 -6 -19 -12 -19 -7 0 -4 -7 7 -16 11 -8 26 -12 33
-9 10 4 12 0 8 -11 -5 -12 -2 -15 10 -10 8 3 20 6 25 6 4 0 6 7 3 15 -7 18 3
20 20 2 7 -7 11 -18 8 -25 -2 -7 4 -23 14 -34 23 -26 1 -16 -33 15 -13 11 -23
15 -23 9 0 -6 5 -14 10 -17 23 -14 8 -21 -24 -11 -19 6 -34 13 -34 16 3 39
-14 35 -18 -5 -2 -23 0 -25 27 -20 16 3 29 1 29 -5 0 -5 6 -10 14 -10 17 0 31
-18 21 -28 -3 -3 -10 0 -14 7 -5 7 -14 10 -20 7 -20 -13 -12 -26 17 -26 l27 0
-32 -21 c-32 -20 -43 -39 -23 -39 6 0 10 -4 10 -10 0 -5 -15 -10 -32 -10 -30
1 -31 2 -15 14 17 13 17 15 -10 40 -30 28 -43 32 -43 15 0 -5 -5 -7 -12 -3 -8
5 -6 11 6 19 14 11 14 14 2 24 -11 9 -20 10 -35 1 -18 -9 -21 -8 -21 11 0 16
5 20 20 16 22 -6 45 16 37 37 -3 7 -1 18 4 23 6 6 6 19 1 33 -11 30 14 65 35
48 7 -6 13 -19 13 -29z m356 17 c-2 -13 -2 -27 1 -30 10 -9 41 17 36 31 -6 16
9 17 25 1 21 -21 15 -40 -10 -32 -20 6 -21 5 -9 -10 17 -20 41 -21 41 0 0 32
25 6 28 -29 3 -32 0 -37 -17 -37 -12 0 -21 7 -21 16 0 11 -6 14 -20 9 -14 -5
-20 -2 -20 9 0 9 -2 16 -4 16 -2 0 -13 3 -23 7 -17 7 -17 6 0 -11 9 -9 17 -26
17 -37 0 -11 7 -22 15 -25 8 -4 12 -10 9 -15 -3 -5 -10 -6 -16 -3 -7 5 -9 0
-5 -15 4 -18 3 -20 -9 -10 -8 6 -18 9 -21 5 -4 -4 -1 -11 7 -16 8 -6 11 -10 7
-10 -17 0 -67 42 -67 56 0 14 -11 18 -37 15 -7 -1 -13 2 -13 8 0 17 59 24 77
9 15 -12 15 -11 2 10 -9 14 -24 22 -41 22 -16 0 -28 5 -28 11 0 5 4 8 9 4 5
-3 12 -1 16 4 3 6 12 8 20 5 15 -6 49 48 38 60 -4 3 -1 6 6 6 7 0 10 -10 7
-24z m175 -910 c-7 -8 -12 -41 -12 -73 0 -33 -5 -61 -12 -65 -8 -5 -6 -8 6 -8
9 0 17 -4 17 -10 0 -5 8 -10 18 -10 15 1 15 2 1 13 -10 8 -14 19 -9 31 6 17 9
15 28 -16 24 -38 28 -58 12 -58 -5 0 -10 5 -10 10 0 6 -7 10 -15 10 -24 0 4
-49 32 -56 28 -7 31 -24 3 -24 -11 0 -20 4 -20 9 0 7 -64 51 -74 51 -2 0 -6
-11 -8 -25 -4 -17 -1 -25 9 -25 8 0 11 5 8 10 -3 6 0 10 9 10 8 0 13 -8 12
-17 -2 -12 -12 -18 -27 -18 -30 0 -51 -13 -43 -27 4 -6 1 -9 -6 -6 -18 6 -20
48 -3 48 8 0 12 4 8 10 -3 5 -13 6 -21 3 -9 -3 -20 0 -25 8 -8 12 -11 11 -20
-3 -15 -26 -27 -22 -21 7 3 20 0 25 -17 25 -11 0 -21 5 -21 11 0 13 53 2 58
-12 7 -17 22 -9 22 11 0 13 -7 20 -20 20 -11 0 -20 5 -20 11 0 6 9 8 20 4 11
-3 28 -2 37 4 10 6 12 11 6 11 -21 0 -15 30 6 30 15 0 18 8 18 50 -1 48 7 70
19 57 4 -4 1 -13 -6 -22 -21 -25 1 -17 26 10 25 27 56 37 35 11z m-473 -125
c12 -7 12 -12 1 -30 -15 -23 -34 -29 -26 -7 4 9 -3 16 -19 19 -13 2 -24 3 -24
1 0 -1 -3 -10 -7 -20 -4 -12 -3 -15 5 -10 8 5 12 0 12 -13 0 -12 5 -21 10 -21
6 0 10 5 10 11 0 5 4 8 9 4 5 -3 12 -1 16 5 9 15 25 12 25 -5 0 -20 17 -19 29
3 10 16 12 16 25 0 18 -25 36 -22 36 4 0 17 3 19 12 10 9 -9 9 -15 0 -24 -7
-7 -12 -20 -12 -30 0 -11 -7 -18 -18 -18 -10 0 -23 -5 -30 -12 -6 -6 -15 -8
-19 -4 -4 4 0 12 10 17 9 6 17 17 17 25 0 8 -5 12 -10 9 -6 -4 -7 -11 -4 -17
5 -7 2 -9 -8 -5 -26 9 -38 -11 -26 -45 6 -16 8 -32 4 -35 -3 -3 -1 -12 5 -20
9 -10 7 -13 -10 -13 -21 0 -24 5 -25 49 -1 30 -26 41 -26 12 0 -12 -4 -21 -9
-21 -5 0 -12 -11 -15 -25 -4 -14 -11 -25 -16 -25 -16 0 -12 27 6 45 9 9 15 17
13 18 -27 18 -63 26 -75 16 -7 -6 -19 -7 -26 -3 -9 6 -5 10 12 14 16 4 24 12
22 23 -2 9 2 17 9 17 7 0 9 10 5 28 -4 17 -3 22 2 14 7 -10 11 -8 15 9 3 13 2
28 -3 34 -6 7 4 10 31 10 21 0 39 3 39 7 0 10 12 10 28 -1z m-1453 -153 c4
-15 3 -33 -1 -39 -5 -9 -2 -10 9 -6 9 3 19 2 22 -3 4 -6 1 -10 -5 -10 -16 0
-1 -72 18 -87 9 -8 11 -13 4 -13 -14 0 -16 -29 -2 -31 6 -1 16 -2 22 -3 22 -2
19 -32 -4 -44 -23 -10 -23 -11 9 -23 34 -14 52 -39 29 -39 -8 0 -16 -10 -19
-22 -7 -24 3 -41 10 -20 8 22 25 12 21 -13 -4 -16 0 -25 11 -28 11 -3 9 -5 -6
-6 -31 -1 -40 -21 -10 -21 20 0 25 -5 25 -27 0 -16 -4 -32 -8 -38 -14 -18 -9
-64 6 -58 11 4 12 0 6 -18 -11 -28 -7 -109 8 -194 16 -92 18 -555 3 -555 -7 0
-13 -4 -13 -10 0 -5 6 -10 14 -10 13 0 27 -80 27 -150 -1 -136 0 -214 5 -222
3 -5 1 -14 -4 -21 -6 -7 -8 -39 -6 -72 3 -33 4 -76 4 -95 0 -19 5 -46 12 -59
11 -19 10 -25 -5 -36 -19 -13 -23 -40 -7 -50 6 -3 10 -15 10 -26 0 -12 7 -19
20 -20 11 -1 25 -3 30 -4 6 -1 13 -3 16 -4 3 0 2 -6 -2 -13 -4 -7 -9 -22 -10
-33 -3 -27 26 -27 57 1 16 14 23 15 26 7 3 -7 11 -13 20 -13 11 0 13 -7 8 -30
-4 -19 -3 -30 4 -30 6 0 11 -16 11 -35 0 -21 -5 -35 -12 -35 -7 0 -24 -16 -37
-35 -13 -19 -30 -35 -37 -35 -8 0 -14 -3 -14 -7 0 -19 -149 -186 -207 -233
-24 -19 -43 -41 -43 -47 0 -7 -6 -13 -13 -13 -7 0 -27 -13 -45 -30 -18 -16
-36 -30 -39 -30 -3 0 -33 -24 -66 -53 -34 -30 -81 -67 -103 -83 -38 -26 -215
-167 -273 -216 -20 -17 -254 -174 -332 -223 -9 -5 -44 -29 -77 -52 -34 -24
-63 -43 -66 -43 -3 0 -28 -16 -55 -35 -26 -19 -52 -35 -56 -35 -4 0 -22 -12
-40 -27 -18 -16 -52 -44 -76 -63 -61 -50 -129 -105 -165 -134 -36 -30 -85 -49
-179 -71 -62 -14 -96 -15 -280 -5 -205 10 -332 27 -358 48 -6 5 -43 17 -82 25
-38 8 -117 29 -175 47 -58 17 -121 36 -140 40 -19 5 -58 16 -87 24 -28 9 -61
16 -72 16 -11 0 -23 5 -26 10 -3 6 -21 10 -39 10 -17 0 -36 4 -42 9 -5 5 -40
20 -79 34 -48 17 -70 29 -69 40 1 9 -4 13 -11 11 -7 -3 -15 6 -19 22 -6 21 -9
25 -16 14 -5 -8 -12 -11 -16 -8 -10 11 4 39 18 37 30 -4 58 2 58 11 0 6 -8 11
-17 11 -16 1 -16 2 -1 6 13 3 16 14 13 48 -1 25 1 43 5 40 5 -3 6 3 4 12 -5
20 46 83 67 83 8 1 2 11 -14 23 -15 13 -24 26 -21 30 13 12 22 8 29 -14 5 -14
13 -19 25 -16 10 3 21 -1 24 -9 3 -7 23 -18 44 -24 22 -5 43 -17 46 -25 8 -22
31 -18 48 6 18 28 63 18 55 -12 -5 -18 -1 -19 29 -14 32 5 35 3 29 -14 -9 -30
50 -26 70 6 9 12 21 23 27 23 7 0 2 -9 -10 -20 -31 -29 -28 -35 18 -34 36 0
40 -2 35 -20 -5 -17 -4 -18 4 -5 7 10 19 15 34 12 14 -3 31 2 40 12 14 14 17
14 17 2 0 -8 7 -18 16 -21 24 -9 30 2 10 17 -17 13 -17 15 8 43 l25 29 1 -27
c0 -16 3 -28 6 -28 15 0 44 22 44 34 0 8 7 16 15 20 16 6 10 36 -7 36 -6 0 -8
-7 -4 -15 3 -9 0 -15 -9 -15 -12 0 -32 37 -23 44 11 10 58 15 58 6 0 -5 6 -10
14 -10 8 0 17 -6 19 -12 4 -8 6 -7 6 4 1 9 16 22 34 28 31 12 32 13 8 19 -20
5 -25 13 -25 41 0 38 22 53 31 21 3 -12 10 -21 15 -21 5 0 19 -10 30 -22 l19
-23 -6 30 c-4 17 -11 32 -16 33 -5 2 -9 16 -9 30 1 32 25 68 35 53 10 -18 35
-12 35 7 0 24 42 70 48 53 3 -8 0 -16 -6 -20 -5 -3 -13 -23 -16 -44 -4 -23 -2
-36 3 -32 5 3 12 1 15 -4 7 -11 46 -2 46 10 0 6 -7 12 -15 15 -8 4 -15 11 -15
16 0 7 4 7 13 1 6 -6 20 -13 30 -16 15 -6 17 -3 12 16 -7 21 -6 21 11 5 17
-16 19 -16 36 -1 17 15 18 15 18 -10 0 -15 -4 -27 -10 -27 -5 0 -10 -5 -10
-11 0 -7 13 -8 39 -4 29 5 42 2 55 -11 14 -14 22 -15 42 -5 29 13 44 7 44 -16
0 -10 -6 -14 -20 -10 -11 3 -20 1 -20 -4 0 -5 13 -9 28 -9 16 0 32 -3 36 -7 8
-8 13 -9 41 -12 9 -1 12 -7 9 -18 -4 -11 -3 -14 3 -7 4 7 24 13 43 15 19 2 41
7 48 12 18 14 27 0 12 -18 -15 -18 -7 -30 14 -22 9 4 13 13 10 21 -4 11 4 17
30 22 36 6 47 19 24 27 -10 3 -10 8 2 21 13 17 14 17 21 -1 3 -10 16 -18 27
-18 12 0 21 -4 19 -10 -1 -5 -11 -9 -21 -7 -11 1 -23 -3 -28 -10 -12 -20 -10
-28 6 -22 9 3 17 -3 21 -15 10 -31 35 -26 35 7 1 23 2 25 13 12 15 -19 47 -14
47 6 0 9 -5 12 -11 8 -6 -3 -15 0 -20 7 -12 20 -11 25 7 44 20 20 13 28 -26
31 -30 2 -41 -10 -17 -19 6 -2 10 -7 7 -10 -9 -10 -39 19 -32 30 4 6 27 14 52
17 25 2 46 5 48 5 1 1 2 7 2 15 0 20 -27 27 -40 11 -18 -22 -54 -12 -58 14 -3
19 0 22 18 16 35 -11 20 17 -20 37 -44 23 -74 53 -66 67 4 6 12 11 17 11 6 0
8 -4 5 -9 -8 -13 19 -32 49 -36 30 -3 43 18 26 39 -9 10 -9 16 -1 21 6 4 9 14
6 22 -4 9 1 17 14 20 12 3 19 12 18 21 -2 10 5 18 17 20 26 5 36 22 29 48 -3
12 1 28 11 38 10 9 14 24 10 35 -5 16 -2 18 16 14 19 -5 20 -4 10 16 -7 11
-17 21 -24 21 -16 0 -40 -38 -32 -50 8 -12 -3 -50 -14 -50 -5 0 -12 19 -17 43
-5 23 -14 43 -19 43 -33 5 -55 19 -55 35 0 23 -16 33 -27 16 -4 -8 -21 -22
-37 -33 l-29 -18 12 23 c16 28 6 39 -19 23 -26 -16 -25 -4 2 25 26 28 38 29
31 3 -7 -25 10 -26 33 -2 10 9 20 16 23 15 11 -3 2 48 -10 63 -15 19 -33 18
-25 -1 5 -15 -4 -19 -38 -15 -10 1 -22 -4 -27 -11 -6 -10 -11 -5 -18 16 -6 17
-15 37 -20 45 -11 21 -41 25 -41 6 0 -10 6 -13 15 -10 11 5 15 -2 15 -26 0
-31 -1 -32 -17 -18 -10 9 -24 13 -30 11 -7 -3 -13 0 -13 5 0 6 6 13 13 15 7 4
6 6 -5 6 -23 1 -28 23 -10 44 9 10 11 17 4 17 -6 0 -21 -13 -33 -29 -12 -16
-30 -31 -40 -34 -22 -6 -54 27 -46 48 7 17 23 20 32 5 7 -12 35 -1 35 14 -1 6
-16 18 -35 27 -30 14 -36 14 -48 1 -8 -8 -20 -11 -26 -8 -16 10 -13 36 5 43 9
3 13 12 9 21 -5 13 -3 13 13 -1 21 -20 28 -15 48 32 8 19 17 31 20 28 4 -4 15
-2 26 4 14 7 23 7 34 -2 11 -9 14 -7 14 12 0 37 14 52 39 44 18 -5 24 -2 28
14 3 12 13 21 24 21 12 0 19 7 19 20 0 11 7 20 15 20 25 0 19 48 -7 52 -12 2
-23 9 -26 16 -3 9 3 11 22 6 15 -3 32 -1 40 5 7 6 20 9 29 5 21 -8 30 11 12
26 -23 19 -18 45 11 60 19 10 24 20 20 36 -5 19 -2 21 29 18 38 -3 69 21 45
36 -7 4 -11 17 -8 28 3 10 1 27 -5 37 -6 12 -6 16 1 11 6 -3 13 -2 17 4 3 5 2
10 -3 10 -12 0 -34 49 -26 61 3 6 12 2 19 -8 7 -10 11 -21 9 -25 -2 -4 1 -10
7 -14 8 -4 9 -3 5 4 -5 8 3 12 26 12 27 0 35 5 46 30 8 17 20 30 28 30 8 0 14
9 14 21 0 11 -4 17 -10 14 -15 -9 -12 8 6 33 17 25 44 29 44 7 0 -8 4 -15 9
-15 16 0 24 21 12 33 -17 17 -13 27 12 27 34 0 50 15 42 39 -7 23 1 26 39 11
24 -9 25 -8 20 20 -6 26 -3 30 22 36 42 10 57 24 43 40 -9 11 -8 14 6 14 10 0
15 3 11 8 -4 4 -13 7 -19 7 -5 0 -12 6 -15 14 -3 8 0 11 7 7 26 -17 51 -14 66
7 8 12 18 21 20 20 15 -8 25 -1 25 17 0 11 4 20 9 20 4 0 6 11 3 25 -3 20 -1
24 12 19 9 -3 16 -10 16 -16 0 -5 5 -6 10 -3 6 3 10 11 10 16 0 6 -4 7 -10 4
-5 -3 -10 1 -10 9 0 9 5 16 11 16 18 0 48 44 43 63 -3 9 -2 17 2 17 4 0 16 -8
27 -17 11 -10 17 -12 13 -5 -4 6 -2 12 4 12 6 0 8 10 4 24 -6 27 20 43 42 25
16 -13 18 -5 4 21 -8 15 -6 17 10 13 11 -3 20 0 20 6 0 6 -4 11 -9 11 -5 0
-11 9 -14 19 -3 13 0 18 8 15 18 -7 30 15 16 29 -16 16 -14 32 3 18 10 -9 16
-9 21 -1 4 6 15 8 25 5 10 -3 21 -1 25 4 3 6 0 8 -8 5 -10 -4 -16 4 -19 26 -4
26 -2 29 14 24 12 -3 18 0 18 10 0 19 11 21 28 4 17 -17 15 -3 -4 33 -15 30
-15 31 6 24 19 -6 21 -4 15 14 -5 16 -3 20 9 15 12 -5 16 0 16 18 0 16 9 29
25 38 15 8 25 22 25 35 0 13 7 28 15 35 8 7 15 17 15 22 0 6 12 19 26 30 14
12 22 24 17 27 -4 3 -14 13 -21 22 -11 15 -9 16 15 15 16 -1 35 -6 43 -11 12
-7 13 -6 4 6 -16 20 -14 52 2 38 10 -8 15 -1 24 30 6 22 17 47 25 55 8 8 15
19 15 24 0 5 9 17 20 27 11 10 20 23 20 28 0 6 11 25 25 43 14 18 25 37 25 43
0 6 5 11 10 11 6 0 10 8 10 18 0 10 9 28 20 40 11 12 20 30 20 40 0 29 29 94
53 120 l21 23 18 -23 c9 -13 20 -35 23 -50z m1645 -167 c-14 -26 -13 -34 4
-28 7 3 23 -1 35 -9 19 -14 21 -13 21 0 0 9 5 16 10 16 6 0 10 -4 10 -9 0 -5
3 -16 6 -25 5 -12 0 -16 -20 -16 -27 0 -31 -7 -20 -34 7 -19 35 -22 30 -3 -1
6 -1 9 1 5 3 -5 13 -8 24 -8 11 0 19 -7 19 -16 0 -13 -3 -14 -14 -5 -8 7 -17
8 -20 3 -3 -6 1 -15 9 -22 8 -7 14 -27 14 -44 -2 -30 -2 -30 -6 -3 -2 15 -10
27 -18 27 -18 0 -12 -50 9 -65 8 -7 13 -15 9 -18 -3 -4 0 -13 7 -22 7 -8 9
-15 5 -15 -12 0 -45 42 -45 56 0 8 -6 11 -15 8 -17 -7 -21 11 -5 21 6 3 10 14
10 23 0 12 -3 13 -12 4 -17 -17 -29 -15 -22 3 4 8 15 15 26 15 17 0 18 2 4 15
-8 8 -20 15 -26 15 -6 0 -8 5 -5 10 3 6 1 10 -6 10 -7 0 -9 -10 -7 -25 3 -14
1 -28 -4 -31 -4 -3 -6 -10 -3 -15 10 -15 -22 -10 -39 6 -21 21 -27 19 -22 -8
6 -33 -21 -31 -53 5 -20 21 -30 26 -41 18 -13 -8 -12 -10 3 -10 9 0 17 -4 17
-10 0 -5 -9 -10 -21 -10 -29 0 -14 -18 24 -29 30 -9 31 -9 6 -10 -15 -1 -33
-9 -40 -18 -12 -15 -12 -16 4 -10 9 3 17 2 17 -3 0 -6 -14 -10 -32 -10 -25 0
-29 3 -20 12 7 7 12 17 12 23 0 5 -4 4 -9 -4 -5 -8 -14 -10 -21 -6 -10 6 -8
11 6 22 19 14 19 15 0 29 -12 8 -15 14 -7 14 11 0 11 3 1 15 -9 10 -9 15 -1
15 6 0 11 5 11 10 0 15 -16 12 -34 -5 -18 -18 -28 -19 -24 -2 1 6 -2 22 -6 35
-6 18 -11 21 -21 12 -8 -7 -19 -9 -25 -5 -16 10 -24 -23 -10 -40 20 -24 6 -28
-15 -5 -17 19 -17 21 0 40 10 11 22 17 27 14 6 -4 8 5 3 24 -8 39 12 52 25 16
8 -21 13 -25 23 -15 9 9 9 14 -3 21 -8 5 -11 12 -8 16 4 3 15 -1 24 -11 14
-14 15 -21 6 -36 -15 -23 -15 -39 -2 -39 6 0 10 6 10 13 0 23 22 38 37 25 11
-9 15 -7 20 10 4 17 12 22 34 20 21 -2 28 -6 24 -17 -6 -16 25 -49 42 -44 7 3
9 11 6 19 -3 8 0 20 6 28 6 7 8 16 4 19 -3 4 1 7 10 7 20 0 21 -4 7 -31 -9
-15 -7 -19 5 -19 9 0 13 5 10 10 -3 6 -1 10 4 10 6 0 11 -4 11 -10 0 -14 27
-12 36 3 4 6 4 9 0 5 -22 -19 -60 64 -39 85 14 15 23 6 13 -12z m155 -819
c-23 -19 -22 -52 2 -52 13 0 13 3 3 15 -7 8 -10 15 -7 15 3 0 13 3 23 7 14 5
16 2 12 -20 -4 -23 -3 -25 13 -16 14 7 19 6 19 -2 0 -7 9 -9 21 -6 15 4 19 2
15 -8 -3 -8 0 -15 6 -17 14 -5 3 -38 -12 -38 -5 0 -10 7 -10 15 0 8 -4 15 -10
15 -14 0 -13 -13 3 -29 10 -11 10 -14 0 -18 -7 -3 -13 -10 -13 -17 0 -7 -8
-23 -19 -35 -16 -18 -20 -19 -25 -6 -3 9 -2 13 4 10 12 -7 12 -3 4 19 -3 9
-15 16 -25 16 -10 0 -19 5 -19 10 0 6 -7 10 -16 10 -13 0 -14 -3 -4 -15 6 -8
9 -18 6 -24 -4 -5 1 -16 10 -25 14 -14 13 -16 -9 -14 -19 2 -23 6 -19 23 5 19
5 19 -12 2 -18 -17 -19 -17 -33 3 -8 11 -12 24 -8 29 3 5 -8 12 -25 16 -16 4
-30 11 -30 16 0 12 7 11 30 -1 13 -7 21 -6 30 5 7 9 9 19 5 23 -4 4 -10 1 -12
-5 -8 -23 -23 -13 -17 11 4 18 0 28 -17 40 -13 8 -20 19 -16 23 4 3 13 1 19
-5 17 -17 38 -15 32 3 -9 22 13 18 29 -6 16 -22 31 -12 16 11 -14 23 -11 29
13 22 14 -3 19 -1 14 6 -5 8 -1 10 10 5 14 -5 16 -2 11 17 -6 22 -5 22 11 6
16 -16 16 -18 -3 -34z m4267 -1004 c5 -44 4 -67 -3 -62 -5 3 -9 1 -9 -5 0 -5
5 -13 11 -17 8 -4 7 -9 -2 -15 -7 -4 -10 -11 -6 -16 10 -10 43 12 39 26 -4 21
28 24 73 6 27 -10 42 -21 39 -27 -5 -7 3 -9 22 -4 16 4 31 12 32 17 2 5 11 9
19 9 13 0 13 -3 3 -15 -7 -8 -10 -21 -6 -30 4 -12 2 -13 -13 -3 -13 8 -23 8
-37 -1 -12 -7 -14 -11 -4 -9 20 3 60 -23 60 -39 0 -7 -7 -10 -15 -7 -8 4 -15
1 -15 -5 0 -6 11 -11 25 -11 14 0 25 -4 25 -10 0 -5 -11 -10 -25 -10 -30 0
-33 -16 -5 -23 32 -8 75 7 72 26 -4 24 19 33 34 13 7 -10 18 -15 24 -11 9 5
10 1 5 -16 -4 -13 -12 -26 -16 -27 -5 -2 -6 -8 -3 -13 3 -6 1 -16 -5 -23 -14
-17 -4 -46 16 -46 9 0 13 -8 11 -22 -2 -17 1 -22 14 -20 13 2 16 -2 12 -13 -4
-10 -13 -13 -25 -10 -24 8 -24 0 1 -27 15 -16 17 -25 9 -40 -14 -26 -4 -34 25
-20 24 11 36 7 36 -11 0 -5 -6 -7 -14 -4 -8 3 -23 -5 -35 -17 -25 -27 -27 -38
-5 -29 10 4 21 -1 27 -13 15 -25 18 -46 6 -38 -5 3 -9 -2 -9 -10 0 -20 14 -20
30 -1 16 19 26 19 34 -1 3 -8 2 -13 -3 -10 -5 3 -14 -1 -21 -8 -9 -11 -8 -20
1 -38 17 -30 19 -47 8 -54 -15 -9 -32 7 -21 18 14 14 4 38 -15 38 -11 0 -13
-3 -5 -12 8 -10 4 -13 -14 -14 -28 -2 -28 -1 -12 25 9 15 9 25 0 43 -7 13 -11
16 -8 7 5 -19 -27 -72 -38 -62 -4 4 -4 0 -1 -9 4 -10 13 -14 22 -11 14 5 13 1
-3 -25 -10 -18 -23 -31 -29 -31 -27 3 -46 -2 -40 -11 8 -14 -11 -13 -34 2 -15
9 -17 15 -8 29 15 24 5 32 -27 23 -27 -6 -36 -24 -13 -24 7 0 13 -9 14 -20 1
-11 -2 -20 -8 -20 -5 0 -9 7 -9 15 0 8 -6 15 -14 15 -22 0 -30 19 -16 35 15
18 3 20 -14 2 -15 -15 -2 -62 14 -52 5 3 10 -1 10 -9 0 -9 -2 -16 -4 -16 -2 0
-11 -3 -19 -6 -10 -4 -17 2 -19 16 -2 11 -7 20 -13 20 -5 -1 -9 -8 -7 -16 2
-8 -2 -14 -7 -14 -17 0 -23 20 -11 35 7 8 7 15 1 19 -12 8 -21 -6 -27 -39 -4
-25 1 -29 41 -26 17 2 17 0 5 -8 -13 -9 -12 -11 3 -11 10 0 15 -5 12 -10 -4
-7 -14 -5 -28 5 -28 20 -34 19 -42 -6 -5 -16 -9 -18 -15 -9 -6 9 -11 6 -20
-10 -12 -22 -13 -23 -26 -6 -8 12 -19 16 -33 11 -12 -3 -19 -10 -16 -15 3 -5
-4 -18 -17 -29 -12 -12 -18 -24 -15 -28 4 -3 7 -1 7 5 0 7 9 12 20 12 18 0 19
-3 10 -20 -6 -11 -19 -20 -29 -20 -21 0 -22 -41 -2 -48 9 -3 11 2 7 16 -6 18
-1 23 26 31 18 5 27 10 21 10 -18 1 -16 21 1 21 18 0 30 -31 16 -40 -6 -4 -8
-15 -3 -26 6 -16 5 -17 -9 -6 -14 11 -17 10 -24 -10 -4 -13 -7 -27 -6 -31 1
-4 -5 -10 -15 -14 -15 -6 -15 -7 3 -14 17 -7 17 -8 2 -8 -10 -1 -18 -5 -18
-11 0 -12 23 -13 34 -2 11 10 50 9 58 -2 4 -6 13 -4 22 3 24 20 19 32 -9 25
-21 -5 -25 -3 -25 14 0 11 -8 23 -17 25 -11 3 -6 5 11 6 23 1 27 -2 23 -18 -3
-13 0 -17 12 -15 9 3 22 0 30 -5 11 -7 10 -13 -7 -31 -12 -14 -27 -20 -37 -17
-9 4 -24 -2 -35 -13 -24 -24 -49 -28 -29 -4 12 14 11 16 -6 13 -11 -3 -22 -16
-27 -35 -7 -29 -34 -52 -46 -39 -3 3 0 5 6 5 7 0 12 7 12 15 0 8 5 15 11 15 8
0 8 4 0 14 -7 8 -9 25 -5 40 5 22 3 26 -16 26 -16 0 -20 4 -16 15 3 10 -1 15
-11 15 -14 0 -14 2 3 15 17 13 17 14 2 15 -12 0 -15 5 -11 17 4 11 3 14 -6 9
-12 -8 -11 -42 3 -64 4 -7 5 -16 2 -19 -3 -3 5 -14 17 -24 21 -18 21 -18 2
-19 -18 -1 -19 -1 -2 -11 21 -12 23 -31 2 -23 -8 4 -15 1 -15 -5 0 -6 5 -11
12 -11 9 0 9 -3 0 -12 -17 -17 -16 -51 2 -45 7 3 18 1 24 -5 8 -8 13 -6 18 8
4 10 14 27 22 37 12 13 17 15 24 5 12 -20 9 -31 -7 -24 -24 9 -28 -18 -10 -55
15 -29 15 -31 1 -26 -12 5 -16 0 -16 -18 0 -14 -5 -25 -11 -25 -5 0 -7 -4 -4
-10 3 -5 2 -10 -3 -10 -19 0 -21 14 -5 41 20 33 11 49 -17 31 -26 -16 -30 -15
-30 4 0 8 -4 13 -9 10 -4 -3 -6 6 -3 20 3 15 -1 29 -8 34 -7 4 -9 13 -6 19 4
6 12 9 17 6 5 -4 9 -1 9 4 0 6 -5 11 -11 11 -8 0 -8 4 1 15 6 8 9 19 5 25 -8
13 -45 13 -45 -1 0 -5 -5 -7 -12 -3 -9 6 -9 9 -1 11 7 3 9 11 6 19 -3 9 -13
12 -32 7 -26 -6 -26 -6 -7 16 19 21 19 21 -4 21 -20 0 -21 2 -9 17 11 13 11
17 2 20 -7 3 -13 11 -13 19 0 9 -11 14 -31 14 -25 0 -29 3 -24 19 3 12 0 21
-10 25 -8 3 -15 13 -15 23 1 15 4 15 20 -6 15 -17 26 -22 45 -17 18 5 25 2 25
-9 0 -8 5 -15 11 -15 6 0 8 9 3 23 -9 30 -9 30 -32 18 -21 -11 -42 2 -42 26 0
7 -7 13 -15 13 -28 0 -18 54 15 78 35 27 37 27 43 5 3 -10 4 -6 4 9 -1 23 -5
27 -22 22 -11 -4 -23 -11 -27 -17 -4 -7 -12 -6 -22 2 -22 19 -20 34 4 28 23
-6 25 -2 8 17 -9 10 -15 9 -29 -5 -16 -16 -17 -21 -4 -46 13 -25 13 -28 0 -31
-18 -4 -19 -14 -3 -30 8 -8 8 -12 1 -12 -20 0 -37 30 -25 42 15 15 16 32 2 23
-6 -4 -10 6 -10 24 0 16 -3 36 -6 45 -4 11 0 16 12 16 16 0 16 2 4 10 -12 8
-12 10 3 16 24 9 21 21 -9 49 -24 23 -24 30 0 26 4 -1 6 9 2 23 -4 15 -1 27 7
30 6 3 1 3 -11 0 -21 -5 -23 -3 -17 15 5 16 2 21 -10 21 -9 0 -15 -6 -12 -12
2 -7 -3 -19 -12 -26 -9 -8 -11 -11 -6 -8 6 2 17 0 25 -5 13 -8 13 -11 0 -22
-21 -17 -23 -37 -5 -37 8 0 15 -4 15 -9 0 -5 -7 -14 -15 -21 -10 -9 -15 -9
-15 -1 0 6 -5 11 -11 11 -5 0 -7 -5 -3 -11 3 -6 0 -15 -7 -20 -10 -6 -7 -8 9
-6 12 0 22 5 22 9 0 4 7 8 15 8 8 0 15 5 15 11 0 5 5 7 11 3 7 -4 7 -9 2 -13
-6 -3 -12 -12 -15 -20 -2 -8 -18 -15 -36 -15 -26 -1 -34 4 -39 22 -3 13 0 29
6 35 17 17 13 22 -16 25 -15 1 -30 -4 -35 -10 -5 -9 -8 -5 -8 11 0 13 -7 29
-16 36 -15 11 -15 12 0 12 9 0 16 -4 16 -9 0 -4 9 -8 19 -8 11 0 21 -6 24 -12
2 -8 8 -9 13 -4 5 5 4 11 -3 13 -18 6 -16 23 1 23 8 0 19 15 24 33 16 51 10
82 -11 60 -4 -3 -2 -12 5 -20 13 -16 2 -31 -12 -17 -5 5 -16 27 -24 49 l-15
40 0 -32 c-1 -39 -13 -42 -31 -8 -7 13 -17 22 -22 19 -5 -3 -1 -12 9 -19 10
-7 15 -17 10 -21 -4 -4 -13 -2 -19 4 -15 15 -38 16 -38 1 0 -5 4 -8 9 -4 13 7
24 -13 25 -46 1 -21 -2 -25 -11 -17 -7 6 -10 14 -8 19 6 9 -25 44 -46 51 -7 2
-9 9 -5 17 5 7 14 10 22 7 17 -7 18 6 2 23 -11 11 -8 13 17 8 17 -4 24 -4 18
-1 -7 3 -13 14 -13 24 0 19 -25 34 -41 24 -17 -10 -9 -24 14 -25 16 -1 17 -3
5 -6 -9 -2 -20 -13 -23 -24 -7 -22 -25 -26 -25 -5 0 13 -35 32 -51 28 -11 -2
-59 46 -59 58 0 7 9 14 20 17 11 3 20 10 20 15 0 6 7 7 16 4 9 -3 12 -2 9 5
-4 6 -14 8 -22 5 -11 -4 -13 -2 -9 9 3 9 0 15 -10 15 -8 0 -14 -7 -12 -16 2
-10 -3 -19 -9 -21 -18 -6 -36 47 -25 72 5 11 8 32 8 48 -1 16 3 27 12 27 8 0
10 5 6 13 -5 9 -3 9 7 -1 12 -11 12 -14 -1 -22 -11 -7 -8 -10 13 -15 26 -7 38
-25 17 -25 -16 0 -11 -19 10 -37 11 -10 20 -23 20 -30 0 -7 9 -13 20 -13 11 0
20 5 20 11 0 5 -4 7 -10 4 -5 -3 -10 -1 -10 4 0 6 4 11 8 11 5 0 7 14 6 30 -2
25 2 30 19 30 21 -1 21 -2 5 -14 -10 -7 -18 -17 -18 -21 0 -5 9 0 21 11 13 12
19 27 16 41 -3 18 -1 21 9 12 7 -6 10 -17 7 -25 -6 -17 8 -18 26 -1 11 10 13
8 9 -9 -4 -13 1 -25 13 -33 16 -9 19 -8 19 5 0 8 -4 12 -10 9 -5 -3 -10 -1
-10 4 0 6 5 11 10 11 15 0 12 19 -5 36 -8 9 -15 21 -14 27 0 9 2 9 5 0 3 -7
12 -9 20 -6 10 4 12 0 8 -11 -3 -9 -1 -16 5 -16 6 0 11 -6 11 -14 0 -8 7 -17
16 -20 8 -3 13 -10 9 -15 -3 -6 7 -17 22 -24 25 -14 29 -13 45 6 l18 20 0 -21
c0 -30 12 -28 27 4 10 22 10 25 -3 20 -7 -3 -14 -1 -14 5 0 5 -11 7 -24 3 -13
-3 -27 -1 -31 6 -4 6 -18 15 -31 20 -13 5 -24 15 -24 22 0 10 2 10 8 1 6 -10
12 -10 28 1 18 14 18 15 -5 24 -15 5 -20 11 -13 16 6 3 20 -3 31 -15 16 -18
18 -25 9 -37 -10 -11 -8 -13 8 -10 12 1 28 -3 37 -10 12 -10 21 -11 36 -3 25
14 51 14 51 1 0 -6 -10 -14 -22 -19 -20 -7 -20 -8 -2 -15 19 -7 48 18 41 37
-3 11 -75 39 -100 38 -14 0 -15 3 -4 12 14 13 54 37 62 37 3 0 5 -7 5 -15 0
-8 -5 -15 -12 -15 -21 0 10 -24 33 -25 21 -2 21 -1 4 12 -18 12 -18 13 -1 13
19 0 48 -24 40 -33 -3 -3 4 -3 16 0 12 3 19 11 16 19 -3 7 2 18 10 25 13 11
15 10 12 -2 -1 -7 2 -16 7 -19 6 -3 10 6 11 20 1 14 5 33 9 43 5 12 3 17 -9
17 -9 0 -16 4 -16 9 0 5 -15 12 -32 17 l-33 8 35 4 c23 2 38 -1 46 -12 6 -9
16 -16 23 -16 6 0 11 -5 11 -11 0 -6 9 -8 21 -4 25 8 39 -8 39 -47 0 -20 -4
-26 -14 -22 -11 4 -13 0 -9 -15 4 -16 9 -19 18 -11 15 12 31 -3 21 -19 -7 -10
27 -21 65 -21 29 0 40 17 34 50 -5 26 3 25 40 -4 29 -23 29 -24 12 -50 -10
-14 -25 -26 -35 -26 -10 0 -24 -6 -31 -12 -10 -11 -14 -10 -22 5 -6 9 -15 17
-21 17 -7 0 -7 -4 1 -14 6 -7 8 -21 5 -31 -6 -14 -3 -16 14 -10 17 5 22 2 22
-10 0 -9 7 -23 15 -31 13 -14 15 -13 15 6 0 12 -4 18 -10 15 -5 -3 -10 3 -10
15 0 12 4 18 10 15 5 -3 15 3 22 15 7 11 18 20 24 20 7 0 14 7 18 15 3 8 10
15 16 15 7 0 7 -6 0 -21 -13 -23 -4 -41 9 -20 7 10 10 10 16 1 4 -7 2 -16 -6
-21 -11 -6 -11 -11 -1 -21 9 -9 12 -9 12 5 0 9 5 17 11 17 7 0 5 10 -5 25 -9
13 -16 32 -16 41 0 10 13 -2 30 -27 24 -35 26 -45 14 -47 -9 -2 -13 -10 -10
-18 3 -8 -1 -14 -10 -14 -8 0 -13 -4 -10 -9 3 -5 -5 -12 -19 -15 -14 -4 -25
-13 -25 -21 0 -7 -9 -17 -20 -20 -11 -3 -20 -11 -20 -17 0 -7 5 -6 15 2 8 6
18 9 24 6 5 -4 12 3 16 14 3 11 13 20 20 20 9 0 12 -6 9 -15 -4 -8 -11 -15
-16 -15 -6 0 -7 -7 -4 -16 4 -10 -1 -25 -10 -35 -16 -18 -16 -19 4 -19 18 0
22 6 22 33 0 39 13 62 30 52 8 -5 7 0 -2 14 -8 14 -10 24 -3 29 6 4 17 18 26
31 14 22 14 28 2 53 -8 15 -17 28 -19 28 -3 0 -2 -4 1 -10 3 -5 2 -10 -4 -10
-5 0 -15 16 -21 35 -6 19 -16 35 -21 35 -5 0 -9 7 -9 16 0 10 6 14 15 10 18
-7 20 15 3 32 -14 14 -38 16 -38 3 0 -5 10 -12 23 -14 16 -3 14 -5 -10 -6 -17
0 -34 -5 -37 -9 -3 -5 -19 -7 -36 -4 -18 3 -30 0 -30 -7 0 -12 -57 -10 -78 3
-17 11 -15 26 5 26 14 0 13 3 -5 23 -12 13 -22 29 -22 36 0 8 -7 10 -20 6 -22
-7 -26 5 -8 23 15 15 52 -4 44 -24 -3 -8 5 -24 19 -36 19 -16 22 -24 13 -30
-10 -6 -10 -10 2 -18 10 -6 19 -5 29 4 15 16 7 36 -15 36 -8 0 -14 5 -14 11 0
7 10 9 26 5 17 -5 23 -3 19 4 -3 5 -2 10 3 10 10 0 8 42 -3 59 -3 6 1 11 9 11
9 0 17 -6 18 -12z m-3031 -825 c39 -17 58 -50 33 -60 -8 -3 -25 2 -39 11 -27
18 -35 20 -35 9 0 -5 14 -16 30 -25 19 -11 28 -22 24 -32 -8 -22 -34 -28 -50
-11 -17 17 -34 20 -34 6 0 -5 9 -13 20 -16 11 -4 20 -15 20 -27 0 -17 -5 -20
-27 -15 -16 3 -36 9 -46 12 -13 6 -16 3 -11 -9 3 -9 14 -16 24 -16 26 0 35
-19 17 -37 -13 -13 -19 -12 -58 9 -48 27 -60 61 -23 66 16 2 20 9 16 32 -4 25
-1 28 17 23 17 -4 21 -1 21 21 0 19 5 26 20 26 13 0 20 7 20 18 0 36 10 38 61
15z m3329 -95 c0 -7 3 -30 6 -51 4 -21 3 -37 -2 -35 -5 2 -10 -1 -11 -6 -1 -4
-14 -14 -28 -22 -23 -12 -29 -12 -42 1 -19 19 -33 19 -33 0 0 -8 -11 -17 -25
-21 -31 -8 -27 -29 4 -28 12 0 20 -4 18 -10 -2 -6 -14 -12 -26 -12 -12 -1 -24
-4 -28 -7 -6 -7 -33 17 -33 29 0 5 5 3 12 -4 20 -20 33 -14 14 7 -9 10 -14 25
-10 35 3 9 1 16 -5 16 -6 0 -11 -7 -11 -15 0 -8 -4 -15 -10 -15 -19 0 -10 22
20 50 17 15 30 33 30 39 0 6 2 11 4 11 2 0 13 3 23 7 16 6 16 5 4 -10 -18 -22
2 -22 24 -1 15 16 18 16 33 -1 16 -16 16 -17 -5 -10 -17 5 -23 2 -23 -10 0
-11 7 -14 24 -11 20 4 23 1 19 -17 -5 -19 -2 -19 21 7 29 32 34 64 11 72 -22
9 -18 24 5 24 11 0 20 -6 20 -12z m-3522 -181 c17 -10 32 -25 32 -33 0 -23
-28 -28 -56 -9 -14 9 -28 15 -30 12 -9 -8 8 -37 22 -37 18 0 18 -29 1 -36 -7
-2 -27 2 -43 11 -40 20 -51 19 -29 -5 10 -11 22 -17 26 -14 5 3 8 -5 6 -17 -2
-13 -9 -25 -15 -27 -12 -4 -92 44 -92 56 0 14 23 32 41 32 10 0 16 7 15 18 -1
12 6 17 27 17 24 -1 27 3 27 32 0 36 6 36 68 0z m-150 -148 c17 -16 32 -34 32
-40 0 -19 -30 -21 -56 -4 -14 9 -29 13 -32 10 -4 -4 3 -14 16 -22 24 -17 30
-53 9 -53 -7 0 -22 7 -33 15 -29 22 -37 18 -14 -7 38 -41 19 -69 -30 -43 -32
17 -41 10 -13 -10 20 -15 10 -50 -12 -41 -51 21 -51 21 -31 -3 26 -29 9 -50
-29 -33 -26 12 -33 4 -14 -15 29 -29 -22 -44 -53 -16 -10 9 -18 11 -18 6 0 -6
7 -13 15 -17 19 -7 20 -35 1 -42 -17 -7 -76 34 -76 53 0 7 6 13 14 13 8 0 22
10 30 21 9 13 21 19 30 16 11 -5 16 0 16 14 0 12 8 23 19 26 11 3 21 15 23 27
2 16 9 20 29 18 23 -2 25 1 21 28 -3 23 0 30 12 30 9 0 21 11 26 25 5 14 16
25 25 25 9 0 20 11 25 25 12 33 28 31 68 -6z m-925 -855 c10 -4 17 -17 17 -31
0 -23 -3 -25 -30 -19 -36 7 -38 1 -8 -23 29 -24 18 -56 -17 -47 l-24 6 24 -24
c21 -21 23 -29 14 -49 -8 -18 -8 -30 0 -46 11 -19 9 -22 -20 -28 l-32 -6 27
-14 c18 -9 26 -20 22 -30 -3 -8 -6 -19 -6 -24 0 -10 -41 -5 -60 6 -14 9 -13
38 3 54 10 11 10 14 0 18 -16 6 -17 35 -2 50 8 8 8 17 -1 33 -9 18 -9 25 5 40
11 12 14 26 9 44 -4 19 -2 27 10 32 9 4 16 18 16 33 0 31 9 44 24 36 6 -3 19
-8 29 -11z m-1307 -456 c1 -26 7 -55 14 -63 9 -11 13 -52 12 -136 -1 -141 -7
-153 -80 -162 -26 -4 -58 -9 -72 -12 -14 -3 -41 -7 -60 -10 -81 -8 -85 -11
-119 -95 -18 -43 -36 -94 -41 -114 -8 -35 -7 -36 19 -29 14 3 43 12 65 20 21
7 48 13 61 13 12 0 25 3 29 7 4 4 13 8 19 8 7 1 38 9 70 19 101 31 91 83 92
-512 1 -589 8 -544 -78 -568 -23 -7 -76 -22 -117 -34 -176 -51 -210 -54 -210
-13 0 23 -52 12 -200 -43 -86 -31 -232 -74 -253 -74 -13 0 -28 -5 -34 -11 -19
-19 -58 -6 -62 21 -4 33 29 181 71 319 l23 74 50 17 c28 10 88 28 135 40 47
12 121 33 165 46 44 13 98 26 120 29 37 6 41 4 57 -24 13 -24 24 -31 46 -31
39 0 46 11 77 110 15 47 41 123 60 170 18 47 30 89 28 94 -6 10 -76 0 -101
-14 -27 -15 -139 -50 -161 -50 -12 0 -28 12 -38 28 -9 15 -31 43 -48 63 -16
20 -41 53 -55 73 -27 38 -36 41 -90 26 -19 -5 -48 -11 -65 -14 -16 -3 -42 -8
-56 -11 -17 -4 -32 0 -42 10 -15 14 -15 20 2 63 11 26 27 67 36 92 20 49 96
232 124 295 10 22 24 58 31 80 7 22 16 45 20 50 3 6 15 33 25 60 31 87 52 113
98 125 23 6 94 27 157 47 63 19 131 40 150 45 19 6 44 14 55 19 11 4 31 7 45
6 23 -2 25 -6 26 -49z m-13746 -358 c0 -5 -7 -10 -15 -10 -8 0 -15 -5 -15 -11
0 -5 8 -9 18 -8 29 5 60 -19 67 -51 4 -17 11 -28 16 -24 5 3 9 -2 9 -11 0 -9
9 -33 19 -54 16 -30 19 -50 14 -95 -5 -49 -11 -61 -39 -84 -51 -42 -92 -64
-99 -52 -3 5 1 10 9 10 9 0 16 8 16 18 0 12 -2 14 -8 4 -6 -9 -14 0 -27 28
-10 22 -21 40 -24 40 -12 0 -31 81 -31 134 0 35 5 60 15 70 8 8 15 25 15 38 0
28 9 41 35 56 25 14 25 14 25 2z m13066 -124 c-8 -20 -13 -36 -11 -36 2 0 -2
-15 -10 -34 -8 -18 -11 -36 -8 -40 4 -3 1 -6 -5 -6 -7 0 -12 -7 -12 -15 0 -8
-4 -15 -10 -15 -5 0 -10 -6 -10 -14 0 -8 -14 -46 -31 -86 -16 -39 -41 -124
-55 -188 -40 -182 -80 -288 -168 -441 -36 -63 -36 -64 -16 -78 11 -8 20 -22
20 -31 0 -18 -21 -80 -32 -98 -4 -6 -14 -38 -22 -70 -15 -65 -52 -175 -85
-257 -6 -15 -11 -40 -11 -55 0 -32 -44 -157 -65 -187 -52 -71 -114 -140 -126
-140 -11 0 -13 12 -11 50 9 129 40 386 57 468 19 90 19 107 0 107 -23 0 -19
65 10 156 14 43 25 87 25 97 0 10 11 42 24 70 13 29 27 63 31 77 4 14 18 47
31 74 13 28 24 51 24 53 0 2 -21 3 -46 3 l-47 0 6 44 c6 45 20 78 124 296 82
172 113 233 127 252 18 24 293 102 309 88 5 -4 2 -24 -7 -44z m6591 -54 c65
-83 71 -222 9 -222 -20 0 -21 36 -1 44 19 7 19 58 1 110 -16 47 -32 57 -63 43
-21 -9 -23 -15 -17 -51 3 -22 12 -49 20 -60 26 -38 16 -53 -14 -21 -36 38 -48
115 -25 158 13 25 19 28 45 23 17 -3 37 -14 45 -24z m344 -105 c15 -20 15 -27
4 -55 -9 -20 -23 -34 -41 -38 -15 -4 -35 -15 -45 -25 -11 -11 -25 -19 -32 -19
-8 0 -19 -11 -25 -24 -6 -14 -23 -27 -39 -30 -16 -4 -33 -17 -38 -29 -12 -26
-40 -34 -60 -17 -25 21 -19 43 10 36 17 -4 25 -2 25 7 0 21 -12 28 -27 16 -10
-9 -13 -7 -13 7 0 26 11 40 38 48 12 4 22 14 22 22 0 8 11 19 25 24 13 5 33
17 43 27 37 35 66 53 83 53 9 0 19 7 23 15 7 18 26 11 47 -18z m-7523 -34 c10
-20 -1 -174 -17 -238 -5 -22 -18 -74 -27 -115 -10 -41 -21 -79 -26 -84 -4 -6
-8 -16 -8 -23 0 -7 -11 -35 -24 -63 -27 -55 -22 -66 29 -72 27 -3 30 -6 27
-37 -1 -19 -13 -55 -27 -80 -86 -165 -216 -444 -213 -458 2 -10 12 -19 23 -22
11 -2 23 -8 27 -15 8 -12 0 -55 -13 -72 -5 -6 -24 -49 -43 -95 -18 -46 -43
-104 -54 -129 -10 -25 -41 -97 -67 -160 -26 -63 -56 -134 -65 -157 -20 -45
-63 -74 -130 -88 -19 -4 -53 -15 -75 -25 -22 -10 -67 -24 -100 -30 -33 -7 -78
-16 -100 -20 -67 -14 -71 -6 -106 237 -6 45 -10 117 -8 160 4 73 3 78 -16 76
-36 -5 -61 6 -71 29 -10 22 -6 156 11 401 6 90 5 97 -12 97 -39 0 -60 27 -67
87 -12 94 -14 122 -21 253 -4 69 -9 142 -11 162 -10 68 -5 71 226 139 36 11
79 24 96 29 46 15 62 12 75 -12 13 -24 15 -164 4 -285 l-7 -82 28 -7 c54 -13
57 -20 48 -114 -8 -91 -9 -106 -18 -245 -3 -49 -9 -117 -12 -150 -13 -130 -12
-136 18 -151 24 -13 28 -21 28 -59 0 -45 12 -65 27 -43 4 7 18 37 30 66 21 53
21 54 2 73 -24 24 -24 29 2 92 12 29 25 61 29 72 5 11 23 56 40 100 44 112 66
161 101 228 16 31 27 62 24 67 -4 6 -20 17 -36 25 -25 13 -28 20 -23 43 9 36
43 139 59 177 24 55 28 70 31 93 2 13 7 29 13 35 5 7 23 64 39 127 28 110 31
116 72 148 23 17 49 32 58 32 9 0 33 10 52 22 48 31 142 77 157 78 7 0 16 -8
21 -17z m7687 -255 c5 4 4 0 0 -8 -16 -27 -14 -59 4 -65 9 -3 18 -15 19 -27 1
-13 3 -32 5 -43 2 -17 -5 -20 -41 -23 -39 -3 -42 -5 -36 -26 7 -29 -11 -43
-32 -25 -13 10 -17 10 -25 -2 -5 -8 -9 -22 -9 -31 0 -20 -22 -23 -50 -8 -28
15 -44 -12 -37 -65 4 -25 2 -47 -3 -50 -6 -3 -10 -22 -10 -41 0 -19 -4 -34
-10 -34 -11 0 -18 28 -22 84 -3 45 -31 72 -49 46 -5 -8 -12 -28 -16 -43 -7
-34 -28 -45 -54 -29 -16 10 -22 7 -41 -22 -18 -27 -28 -33 -52 -32 -23 1 -33
-5 -41 -21 -12 -27 -37 -31 -34 -5 3 32 -1 62 -9 62 -13 0 -32 -39 -38 -77 -9
-62 -14 -73 -39 -79 -14 -3 -26 -16 -29 -30 -4 -16 -11 -22 -18 -18 -9 6 -9 9
0 12 9 3 10 8 3 15 -14 17 -2 65 18 72 14 4 59 93 75 150 7 23 63 58 71 45 3
-5 1 -18 -5 -29 -14 -27 -13 -51 4 -51 15 0 40 60 57 138 7 33 16 52 25 52 18
0 18 -21 0 -87 -14 -51 -9 -66 12 -40 5 6 13 23 16 37 15 54 29 80 43 80 9 0
12 -7 9 -17 -15 -51 -18 -93 -7 -93 7 0 9 5 6 10 -3 6 0 10 7 10 7 0 19 13 26
29 8 18 22 31 35 33 12 2 28 15 35 31 14 30 32 36 32 11 0 -14 3 -14 15 -4 8
7 15 25 15 40 0 31 27 90 41 90 5 0 7 -18 4 -39 -3 -22 -1 -42 4 -46 10 -6 16
9 26 70 10 65 14 73 34 68 13 -3 20 2 24 18 5 18 9 20 20 11 8 -7 18 -8 22 -4z
m-8980 -443 c-1 -113 -18 -245 -37 -274 -12 -20 -81 -57 -148 -81 -19 -7 -49
-19 -67 -26 -17 -8 -36 -14 -43 -14 -6 0 -34 -7 -61 -16 -49 -16 -50 -16 -75
7 -13 13 -30 42 -37 65 -21 71 -72 115 -94 82 -4 -7 -24 -61 -44 -120 -36
-109 -35 -128 2 -128 39 0 49 -11 49 -56 0 -43 1 -44 28 -38 15 4 39 13 55 21
15 7 46 18 70 23 23 5 71 15 107 23 38 9 74 11 86 7 21 -8 103 -98 117 -128 4
-9 16 -30 26 -47 11 -16 20 -42 20 -56 1 -23 -8 -29 -76 -57 -120 -48 -323
-113 -375 -119 l-47 -6 -29 49 c-47 77 -64 92 -100 86 -19 -2 -32 -10 -32 -19
0 -8 -9 -33 -21 -56 -11 -23 -29 -64 -39 -90 -17 -45 -17 -49 -2 -53 65 -19
88 -59 63 -108 -13 -26 -31 -95 -31 -119 0 -15 6 -17 38 -12 39 6 145 29 222
47 160 38 306 68 327 68 30 0 31 -36 3 -150 -76 -311 -84 -330 -132 -330 -10
0 -26 -4 -36 -9 -66 -32 -362 -113 -400 -109 -23 3 -28 8 -32 43 -5 39 -6 40
-40 37 -19 -2 -46 -7 -60 -12 -14 -4 -52 -16 -85 -25 -33 -9 -82 -23 -110 -32
-27 -9 -73 -18 -103 -19 l-53 -3 5 47 c3 26 8 76 12 112 10 101 45 268 81 379
7 24 12 46 9 48 -3 3 -21 0 -40 -7 -20 -6 -40 -9 -46 -5 -22 14 -7 81 45 200
7 17 18 46 25 65 8 19 33 77 57 128 24 51 43 99 43 106 0 9 -12 12 -42 10 -78
-5 -82 21 -20 136 19 36 38 70 42 75 13 15 160 307 160 316 0 22 49 79 75 88
17 5 77 23 135 40 58 18 126 39 152 47 61 20 88 12 88 -27 0 -17 6 -32 15 -35
28 -11 145 29 272 92 126 63 128 62 128 -61z m-1245 -279 c0 -14 -13 -58 -30
-99 -16 -42 -30 -80 -30 -86 0 -6 -8 -25 -18 -43 -23 -41 -49 -114 -69 -193
-9 -33 -20 -70 -26 -82 -14 -30 -2 -57 23 -50 23 6 26 -12 9 -44 -6 -11 -12
-53 -14 -92 -2 -40 -10 -85 -19 -102 -9 -16 -16 -43 -16 -60 0 -16 -10 -61
-21 -100 -26 -87 -34 -135 -22 -135 4 0 14 -9 21 -20 10 -17 10 -33 -3 -86 -8
-36 -12 -70 -9 -75 3 -6 -2 -21 -11 -36 -18 -27 -18 -28 28 -54 9 -5 17 -18
17 -28 0 -10 7 -31 15 -47 10 -20 11 -32 4 -41 -6 -6 -8 -16 -5 -21 3 -6 -1
-15 -9 -22 -13 -11 -15 -7 -15 28 0 44 -12 54 -47 41 -18 -7 -23 -5 -23 9 -1
16 -22 52 -31 52 -7 0 -4 -65 4 -77 16 -26 -4 -34 -32 -13 -16 10 -32 16 -36
12 -4 -4 -5 3 -2 15 3 13 1 26 -4 29 -5 3 -9 -1 -10 -8 0 -7 -2 -23 -3 -36 -2
-14 5 -29 17 -37 14 -9 17 -19 12 -35 -4 -14 -3 -20 3 -16 5 3 12 -7 15 -22 6
-32 5 -34 -17 -26 -10 4 -16 18 -16 37 0 29 -1 30 -14 11 -20 -26 -32 -10 -19
26 9 23 8 28 -3 23 -17 -6 -17 -3 -3 33 12 34 20 194 9 194 -16 0 -17 50 -1
60 14 8 14 9 -1 10 -20 0 -24 20 -7 37 7 7 13 25 14 40 1 15 3 34 3 41 1 6 13
12 27 12 14 0 25 5 25 10 0 6 -9 10 -21 10 -19 0 -20 4 -14 43 4 23 10 43 14
44 3 2 5 22 4 45 0 24 3 50 8 60 5 9 5 18 0 20 -5 2 -5 25 -1 53 14 80 12 125
-4 119 -14 -5 -29 30 -17 41 3 4 6 21 7 38 7 188 72 477 118 523 24 25 189 94
224 94 17 0 22 -6 22 -24z m10095 -412 c1 -24 14 -46 25 -39 17 11 57 -34 58
-66 1 -37 -23 -89 -41 -89 -39 0 -87 14 -91 27 -9 23 25 194 38 190 6 -2 11
-12 11 -23z m250 -32 c6 -4 10 -16 10 -26 0 -11 6 -21 14 -24 9 -3 11 1 6 17
-8 26 12 28 31 4 13 -17 14 -17 20 5 8 27 8 28 39 -4 23 -23 25 -32 20 -66 -6
-33 -4 -42 14 -54 26 -19 27 -44 2 -44 -23 0 -40 19 -56 65 -6 20 -16 35 -21
33 -5 -2 -7 -7 -5 -13 2 -5 6 -27 9 -49 7 -62 -21 -40 -31 25 -4 29 -12 58
-17 63 -20 20 -23 -5 -8 -59 10 -34 12 -58 6 -61 -18 -11 -30 13 -44 87 -20
106 -18 123 11 101z m-10407 -870 c2 -17 0 -32 -5 -32 -4 0 -8 -21 -9 -47 0
-59 -13 -173 -21 -193 -4 -8 -7 -19 -7 -25 -2 -17 -36 -18 -36 -1 0 9 7 16 15
16 8 0 15 7 15 15 0 14 -3 14 -24 0 -25 -17 -41 -58 -30 -76 3 -6 -3 -13 -15
-16 -12 -3 -21 -10 -21 -17 -1 -19 -67 -89 -78 -82 -6 4 -9 13 -6 21 4 10 0
12 -18 8 -20 -6 -22 -5 -9 10 11 14 11 18 -3 23 -9 3 -16 13 -16 21 0 11 7 13
25 9 17 -4 27 -2 31 8 3 8 17 13 35 12 33 -2 49 11 25 20 -9 3 -16 11 -16 16
0 7 5 6 13 -1 16 -12 27 -5 27 18 0 22 35 51 60 51 11 0 20 5 20 10 0 6 -7 10
-16 10 -13 0 -15 7 -11 30 4 16 2 32 -4 36 -7 4 -5 13 4 27 18 28 12 46 -20
58 -24 9 -24 9 -6 32 70 87 96 97 101 39z m11712 -3339 c0 -13 4 -23 8 -23 4
0 8 -17 8 -37 0 -21 1 -124 3 -230 2 -127 -1 -198 -9 -212 -8 -15 -8 -21 0
-21 6 0 8 -5 4 -12 -5 -7 -7 -27 -5 -45 4 -44 -8 -93 -21 -90 -6 1 -14 -9 -18
-23 -6 -20 -9 -13 -15 35 -5 33 -8 64 -7 68 3 9 -15 69 -64 223 -18 56 -36
131 -40 167 -6 59 -4 71 20 119 33 63 78 106 112 104 18 -1 24 -7 24 -23z
m-8277 -11341 c16 -7 27 -19 27 -32 0 -16 -4 -18 -24 -10 -13 5 -33 6 -45 3
-12 -3 -28 0 -36 7 -23 19 -26 9 -10 -46 8 -27 17 -62 20 -77 5 -25 9 -28 35
-22 23 5 39 0 73 -24 49 -33 56 -49 47 -101 -6 -35 -7 -35 -17 -10 -17 39 -77
92 -96 84 -9 -3 -17 -10 -17 -15 0 -6 -16 3 -35 18 -19 15 -35 33 -35 39 0 6
-7 17 -15 24 -8 7 -17 27 -21 44 -5 28 -9 32 -29 28 -20 -3 -23 -1 -18 17 3
12 11 21 18 21 8 0 23 16 35 35 20 32 24 34 68 32 26 -2 59 -9 75 -15z"/>
<path d="M14308 26999 c-10 -5 -18 -17 -18 -24 0 -8 -3 -16 -7 -16 -34 -6 -61
-5 -86 2 -18 5 -37 4 -48 -2 -13 -7 -19 -6 -19 1 0 7 -8 9 -19 5 -11 -3 -29
-8 -41 -10 -12 -2 -37 -18 -57 -36 -33 -29 -39 -30 -88 -24 -51 6 -95 -7 -187
-56 -10 -5 -26 -9 -37 -9 -10 0 -30 -9 -44 -20 -14 -11 -33 -20 -42 -20 -23 0
-49 -15 -92 -55 -21 -19 -41 -35 -45 -35 -5 0 -8 -7 -8 -15 0 -8 -7 -15 -16
-15 -13 0 -15 -7 -11 -29 3 -15 1 -33 -6 -40 -19 -19 -27 -12 -20 19 3 17 1
30 -4 30 -11 0 -73 -68 -73 -79 0 -15 -39 -43 -53 -38 -7 3 -19 -4 -26 -15
-12 -19 -11 -20 11 -15 38 10 68 -2 68 -27 0 -29 24 -61 38 -52 7 4 12 18 12
32 0 13 5 24 10 24 17 0 11 -41 -10 -67 -11 -15 -18 -29 -15 -32 4 -3 9 -1 13
5 13 21 49 25 66 9 9 -9 16 -21 16 -26 0 -5 6 -9 14 -9 8 0 16 -7 20 -15 3 -8
17 -15 31 -15 14 0 28 -7 32 -16 3 -9 13 -14 24 -11 14 4 19 0 19 -16 0 -12
12 -31 27 -43 l27 -22 -42 -7 c-23 -4 -42 -11 -42 -17 0 -6 6 -8 14 -5 8 3 16
2 18 -3 2 -5 20 -10 41 -12 34 -2 39 -6 49 -39 7 -27 15 -36 26 -32 13 5 13 3
-1 -18 -9 -14 -13 -37 -10 -56 4 -26 11 -32 41 -39 21 -5 53 -9 72 -10 19 -1
58 -5 87 -8 39 -3 55 -1 64 10 10 13 10 17 -2 25 -8 5 -19 9 -26 9 -7 0 -12
16 -11 42 0 23 -5 44 -11 46 -18 6 -12 22 8 22 12 0 24 12 32 29 16 36 54 49
78 27 9 -8 25 -37 35 -65 12 -34 33 -64 69 -96 52 -47 52 -47 110 -42 47 4 64
11 95 39 59 52 92 104 92 143 0 33 2 35 35 35 24 0 45 -9 70 -31 41 -36 43
-49 13 -83 -43 -47 -58 -66 -58 -76 0 -13 13 -13 28 2 8 8 15 8 26 -1 8 -7 25
-14 38 -15 13 -2 34 -6 46 -10 21 -7 23 -5 17 13 -5 18 -1 23 24 32 17 6 36
20 42 30 5 10 19 19 30 19 11 0 31 11 44 24 13 13 35 26 49 30 47 12 28 40
-44 65 -30 11 -59 26 -66 35 -6 9 -23 16 -38 16 -14 0 -26 5 -26 10 0 6 -13
10 -29 10 -16 0 -42 5 -57 10 -108 42 -353 77 -402 59 -23 -9 -142 -21 -124
-13 6 3 12 13 12 21 0 12 -3 13 -13 4 -8 -6 -17 -8 -20 -4 -12 11 -8 23 8 23
9 0 15 9 15 25 0 14 5 25 12 25 7 0 22 12 34 28 21 26 26 27 103 26 45 -1 81
2 81 6 0 12 -58 33 -75 27 -8 -4 -17 -2 -20 3 -4 6 -17 10 -30 10 -19 0 -35
16 -35 36 0 3 16 2 35 -2 31 -6 35 -4 35 15 0 25 26 39 43 22 15 -15 27 -14
27 4 0 8 5 15 11 15 6 0 8 8 4 19 -5 16 0 19 45 20 28 0 64 7 80 16 16 8 38
15 48 15 11 0 25 7 32 15 7 8 19 15 28 15 18 0 62 46 62 65 0 21 -12 25 -53
16 -33 -8 -36 -7 -34 13 2 20 -2 21 -55 18 l-58 -4 4 32 c5 45 23 60 42 35 13
-17 16 -18 24 -5 5 8 21 15 34 15 22 1 24 -3 20 -22 -6 -21 -3 -23 29 -23 20
0 39 5 42 10 3 6 17 10 31 10 24 0 29 -11 25 -54 -1 -18 1 -18 24 4 14 13 28
20 32 17 7 -8 33 11 33 25 0 5 -10 8 -22 6 -24 -3 -25 1 -12 55 6 26 4 28 -17
22 -13 -3 -53 2 -89 11 -63 15 -124 23 -202 26 -21 0 -39 7 -42 14 -6 16 -15
17 -38 3z"/>
<path d="M14515 26491 c-17 -7 -16 -10 16 -25 20 -9 40 -16 45 -14 16 5 95
-32 100 -47 4 -8 12 -15 19 -15 7 0 16 -7 19 -16 5 -12 -3 -10 -32 7 -20 13
-38 26 -40 29 -1 4 -16 4 -32 2 -39 -6 -39 -31 0 -38 17 -4 30 -10 30 -15 0
-5 7 -9 15 -9 8 0 15 -4 15 -9 0 -14 102 -24 110 -10 5 7 18 9 34 5 32 -8 43
12 25 45 -11 21 -12 21 -24 5 -12 -16 -14 -15 -27 11 -11 21 -20 27 -40 25
-16 -1 -28 3 -32 13 -3 8 -15 15 -26 15 -11 0 -23 7 -26 15 -4 10 -20 15 -44
15 -22 0 -42 5 -45 10 -7 12 -31 12 -60 1z"/>
<path d="M13590 25089 c-51 -10 -134 -58 -138 -80 -2 -11 12 -18 55 -27 32 -6
80 -16 107 -22 28 -6 58 -8 68 -4 10 3 18 0 18 -6 0 -7 8 -9 20 -5 14 5 20 2
20 -9 0 -9 5 -25 12 -36 16 -26 5 -35 -42 -33 -33 2 -40 -1 -40 -17 0 -23 63
-54 92 -44 10 3 25 1 31 -5 8 -6 18 -6 27 -1 8 6 23 10 33 10 20 0 77 39 77
53 0 5 -14 7 -30 5 -21 -3 -35 1 -47 14 -9 10 -24 18 -33 18 -21 0 -33 46 -18
73 13 25 2 80 -21 101 -22 20 -126 28 -191 15z"/>
<path d="M14516 21003 c-45 -45 -44 -72 2 -87 37 -13 33 -26 -7 -27 -14 0 -20
-3 -13 -6 17 -7 15 -43 -4 -50 -23 -9 3 -21 36 -18 14 2 28 4 33 4 14 2 7 21
-8 21 -23 0 -18 24 8 35 24 11 31 42 7 37 -9 -1 -6 5 8 17 13 11 23 22 22 25
0 4 0 8 0 11 0 3 11 -2 25 -11 23 -15 25 -15 31 0 4 9 4 19 2 21 -8 8 -73 9
-103 0 l-30 -8 23 20 c21 20 30 53 14 53 -5 0 -25 -17 -46 -37z"/>
<path d="M13274 31188 c3 -7 8 -132 12 -278 4 -146 8 -296 9 -335 2 -38 4
-153 5 -255 1 -102 5 -239 10 -305 5 -66 11 -208 14 -315 6 -207 21 -300 53
-329 27 -26 63 -11 64 26 0 15 2 37 4 48 24 120 39 810 21 935 -3 19 -7 55
-11 79 -3 24 -9 49 -13 55 -3 6 -7 162 -7 346 l0 335 -82 3 c-64 2 -82 0 -79
-10z"/>
</g>
</svg>
