<svg xmlns="http://www.w3.org/2000/svg" width="595" height="810"><defs><clipPath id="a"><path d="M0 4.665h592.52V809.7H0z"/></clipPath></defs><path d="M311.495 510.745s8.505 7.105 11.2 11.065c25.33 8.205 75.11 25.265 93.895 38.375 14.055 9.8 26.455 18.24 15.05 116.79-2.205 18.955-8.66 67.21-18.155 79.875-6.23 8.3-18.485 16.26-31.97 16.26l-1.575 34.57H164.18l-4.405-30.79c-17.635 0-29.485-13.81-29.485-13.81-21.265-15.565-25.355-113.69-25.935-147.4-.515-30.085 14.56-51.69 23.44-57.295 13.045-8.255 66.91-27.415 93.025-36.48 4.94-13.395 25.475-20.375 25.475-20.375h46.93l18.27 9.215" fill="#6AC7E5"/><path d="M248.84 497.69l-1.24 14.435-6.68 1.59s-4.955 11.21-3.13 20.43c4.575 4.32 26.995 6.97 32.6 6.97 7.715 0 33.215-11.1 33.215-11.1l-3.41-14.02-7.345-5.53-1.045-13.595" fill="#F8D2B5"/><path d="M248.235 487.025h44.205l.38 21.51s-11.315 25.405-55.435 21.065l2.01-13.615 7.425-3.52 1.415-25.44" fill="#CF957E"/><path d="M210.905 543.1c-23.345 5.5-75.405 20.02-90.38 40.535-15.57 21.36-1.13 162.315-1.13 162.315s-12.88-78.415-14.01-119.9c-1.03-38.38 2.055-51.97 18.68-65.865 16.62-13.91 64.38-30.52 93.415-35.71l8.28-10.67 8.335-3.205 6.825 2.15s-23.045 20.885-30.015 30.35m111.605-18.85c89.26 26.27 99.64 39.24 104.48 52.375 2.415 6.57 5.215 16.035 3.665 15.34-1.28-7.635-11.035-20.085-29.19-28.38-9.035-4.135-50.535-18.375-72.215-22.43-1.175-5.545-6.74-16.905-6.74-16.905" fill="#D9EFF6"/><path d="M161.74 691.595l2.045 10.295 1.79.7c2.25.705 4.65 1.81 7.16 3.47 0 0 25.33-.9 37.56-2.98l.975-2.08c.06-.995.165-2.06.32-3.185 1.98-14.07 9.36-24.07 18.555-28.845l1.905-1.36s-15.195-9.54-26.53-8.36c-11.32 1.205-34.28 11.935-44.115 31.01l.335 1.335m203.36 9.525c3.515-1.83 7.665-4.445 10.23-7.62 0 0 23.235 6.165 32.015.4 8.77-5.77-7.695-11.71-7.695-11.71s9.795.795 12.635-3.925c3.84-6.345-12.4-10.535-12.4-10.535s11.845-5.45 3.61-10.11c-8.555-4.83-25.34-12.08-44.14-8.055-18.585 3.995-36.56 24.98-43.76 34.305 0 0 49.21 16.78 49.505 17.25" fill="#F7CCAA"/><path d="M317.53 686.315l-52.645-18.94s-23.34-.25-30.08 11.935l12.7 83.77 38.725-13.125 9.695 3.79 21.605-67.43" fill="#6AC7E5"/><path d="M143.085 709.82s5.53-7.95 14.17-7.95c8.645 0 15.48 4.19 15.48 4.19l37.56-2.98 1.595 9.51-44.605 4.495s-10.03-15.205-24.2-7.265" fill="#D9EFF6"/><path d="M217.255 522.995c-20.975 6.85-52.035 17.255-62.81 20.935-13.795 4.715-41.89 14.95-48.505 41.86-8.41 34.265 2.14 117.595 8.16 151.265 3.09 17.325 20.44 46.895 70.95 39.08 49.57-7.675 95.75-28.375 95.75-28.375m44.435-223.285c19.15 6.24 42.735 14.055 52.275 17.325 13.8 4.72 44.875 13.935 51.485 40.86 8.415 34.28-2.355 117.49-8.35 151.165-3.105 17.32-13.105 42.975-68.03 34.57-49.585-7.61-136.435-51.31-136.435-51.31s-4.18-7.265-3.06-17.305c2.145-19.2 22.595-36.28 40.815-31.32l115.82 35.335" stroke="#1A1919" stroke-width="7" stroke-linecap="round" stroke-linejoin="round" fill="none"/><path d="M241.58 729.175s-7.155-9.805-5.115-19.7c5.115-24.83 23.165-38.68 41.385-33.72" stroke="#1A1919" stroke-width="5" stroke-linecap="round" stroke-linejoin="round" fill="none"/><path d="M234.805 670.365s-20.48-12.86-31.915-11.66c-11.425 1.2-34.57 12.02-44.49 31.26m-16.835-73.975l19.235 85.705m235.14-88.74l-10.17 37.735m-244.205 57.32s11.425-13.23 28.26-2.095c0 0 29.735-.97 42.065-3.07m150.56-1.6c3.535-1.825 7.725-4.455 10.315-7.665 0 0 23.415 6.22 32.265.41 8.855-5.83-7.755-11.82-7.755-11.82s9.875.805 12.745-3.945c3.875-6.405-12.51-10.625-12.51-10.625s11.955-5.495 3.64-10.205c-8.61-4.87-25.545-12.185-44.51-8.115-19.19 4.125-36.96 25.57-43.855 34.59m84.49-1.7s-13.185-5.905-20.36-5.65c-13.4.475-22.705 8.125-22.705 8.125m43.3-17.045s-16.935-5.7-24.68-6.025c-7.36-.28-16.48.245-27.85 10.215M160.8 777.76l1.11 28.74m219.605-33.39l.465 33.39" stroke="#1A1919" stroke-width="7" stroke-linecap="round" stroke-linejoin="round" fill="none"/><path d="M236.465 532.695s36.175 20.69 67.545-2.63l-3.39 20-30.395 41.9-30.4-41.9-3.36-17.37" fill="#FFF691"/><path d="M249.265 497.735l-2.105 21.55m0-10.13s-10.745 3.3-10.745 22.265c0 9.5 3.41 18.645 3.41 18.645l-35.53 46.14s5.84-50.325 7.4-57.925c2.71-13.15 13.8-24.565 16.965-27.285 9.375-8.04 18.555-9.465 18.555-9.465m43.965-3.795l2.1 21.55m0-10.13s10.75 3.3 10.75 22.265c0 9.5-3.41 18.645-3.41 18.645l35.525 46.14s-5.825-50.325-7.395-57.925c-2.715-13.15-13.8-24.565-16.965-27.285-9.375-8.04-18.56-9.465-18.56-9.465m7.395 48.535l-30.395 41.9-30.4-41.9" stroke="#1A1919" stroke-width="7" stroke-linecap="round" stroke-linejoin="round" fill="none"/><path d="M241.58 550.305s30.695 17.55 57.305-2.235" stroke="#1A1919" stroke-width="5" stroke-linecap="round" stroke-linejoin="round" fill="none"/><path d="M236.455 532.695s36.175 20.69 67.545-2.63" stroke="#1A1919" stroke-width="7" stroke-linecap="round" stroke-linejoin="round" fill="none"/><path d="M31.665 336.785C-29.48 198.58 48.51 111.435 48.51 111.435c-21.605 7.09-45.01-6.62-45.01-6.62 61.135-63.485 151.16-59.47 151.16-59.47-10.585-7.63-20.81-31.985-20.81-31.985 115.57-24.2 172.845 44.01 172.845 44.01s85.69-16.655 127.145 86.325l-22.16 1.42s20.44 41.55 15.25 108.25l-2.285 18.005L46.31 357.62l-14.645-20.835" fill="#40332C"/><path d="M40.74 340.745c-49.11-118.29-2.01-182.335 21.435-205.02 6.715-6.495 5.43-9.385 2.365-9.55-9.425-.495-18.52-2.585-23.07-5.405-17.7 25.885-59.265 104.235-9.805 216.015l9.075 3.96M177.605 49.19c-6.735-9.825-22.895-26.555-22.895-26.555 46.855-9.815 84.125-4.425 111.875 5.435-28.69-14.945-73.18-27.605-133.695-14.935 0 0 10.23 24.355 20.81 31.98 0 0-90.03-4.02-151.16 59.475 0 0 21.595 6.49 34.745 8.515 45.04-54.36 112.295-54.915 138.43-54.48 6.86.12 4.685-5.355 1.89-9.435" fill="#8B7165"/><path d="M62.965 343.625s-13.78-16.335-31.3-6.84c-36.535 19.8-7.13 97.965 58.735 91.43M395.3 274.36s6.07-20.495 25.93-18.835c41.41 3.495 47.97 86.43-15.985 107.09" fill="#F8D2B5"/><path d="M181.105 193.305c-9.005 16.665-16.98 41.36-16.98 41.36C255.23 216.235 286 145.625 286 145.625s17.09 41.765 60.275 64.17l.8-20.71s28.25 18.48 42.92 67.915c8.08 30.875 17.29 80.975 11.63 124.37-10.59 81.18-91.34 115.98-131.38 124.365-40.035 8.375-127.97 8.9-170.23-61.21-23.895-39.61-35.55-92.75-40.03-123.805-7.18-78.355 55.005-112.335 55.005-112.335l-14.335 35.725c32.195-8.665 78.745-49.85 78.745-49.85l1.705-.955" fill="#F8D2B5"/><path d="M195.145 329.89c5.375 25.64-6.22 49.77-25.865 53.89-19.655 4.115-39.96-13.345-45.325-38.98-5.37-25.645 6.225-49.755 25.88-53.88 19.645-4.11 39.945 13.33 45.31 38.97m147.645-30.815c5.37 25.645-6.21 49.775-25.865 53.89-19.665 4.11-39.95-13.335-45.32-38.975-5.375-25.655 6.21-49.765 25.875-53.89 19.66-4.115 39.935 13.33 45.31 38.975" fill="#FFFFFE"/><path d="M148.81 391.175c1.53 7.3-10.12 15.925-26.015 19.255-15.905 3.33-30.035.105-31.57-7.205-1.525-7.305 10.13-15.935 26.025-19.26 15.905-3.325 30.03-.105 31.56 7.21m244.565-51.215c1.52 7.31-10.13 15.935-26.02 19.27-15.915 3.325-30.045.095-31.57-7.215-1.525-7.305 10.115-15.925 26.02-19.255 15.9-3.33 30.035-.1 31.57 7.2" fill="#EC9896"/><path d="M80.345 403.725l-9.09-29.115S59.32 357.87 46.31 357.62c-16.75-.325-11.925 24.365 1.965 35.97 21.255 17.765 32.07 10.135 32.07 10.135M405.73 335.6l-3.355-30.32s4.215-20.13 16.03-25.57c15.215-7.02 20.695 17.53 12.625 33.74-12.335 24.795-25.3 22.15-25.3 22.15" fill="#CF957E"/><path d="M155.36 301.645a69.58 69.58 0 0124.2-.77c-8.49-8.13-19.195-12.15-29.725-9.955-11.9 2.49-20.795 12.335-24.815 25.385 8.38-7.025 18.675-12.22 30.34-14.66m141.585-29.55a69.536 69.536 0 00-22.485 9.015c4.54-10.86 12.72-18.85 23.245-21.045 11.895-2.5 23.995 2.935 32.92 13.28-10.495-3.06-22.015-3.69-33.68-1.25" fill="#D2E0EB"/><path d="M24.015 183.275c69.685 1.16 106.42-10.965 129.115-21.24 15.255-6.875 5.24-9.78-2.355-8.805C72.58 163.29 42.08 142.68 42.08 142.68l-18.065 40.595" fill="#8B7165"/><path d="M164.37 253.43c-16.68-14.46-52.52-3.68-58.435 17.81m156.445-49.195c15.265 15.94 51.94 8.535 59.84-12.325" stroke="#1A1919" stroke-width="7" stroke-linecap="round" stroke-linejoin="round" fill="none"/><g stroke="#1A1919" stroke-linecap="round" stroke-linejoin="round" fill="none"><path d="M185.62 303.795c-21.53-28.34-84.14-15.4-59.65 57.01" stroke-width="8"/><path d="M62.965 343.625s-13.78-16.335-31.3-6.84c-36.535 19.8-7.13 97.965 58.735 91.43m-52.625-70.3s11.1-11.065 33.755 18.57" stroke-width="7"/></g><path d="M269.045 289.625c4.985-37.03 71.305-53.565 78.13 24.96" stroke="#1A1919" stroke-width="8" stroke-linecap="round" stroke-linejoin="round" fill="none"/><path d="M395.3 274.36s6.07-20.495 25.93-18.835c41.41 3.495 47.97 86.43-15.985 107.09m19.475-85.075s-14.605-5.695-23.475 30.555M243.55 378.24l-1.975-9.405" stroke="#1A1919" stroke-width="7" stroke-linecap="round" stroke-linejoin="round" fill="none"/><path d="M191.98 327.595c3.66 17.47-3.2 33.68-15.32 36.22-12.12 2.535-24.905-9.565-28.565-27.035s3.2-33.68 15.32-36.22c12.12-2.54 24.905 9.56 28.565 27.035m81.41-16.76c3.655 17.46 16.45 29.57 28.575 27.03 12.125-2.54 18.975-18.76 15.32-36.22-3.655-17.47-16.44-29.57-28.57-27.03-12.12 2.54-18.985 18.75-15.325 36.22" fill="#1A1919"/><path d="M189.38 317.085a6.61 6.61 0 01-5.125 7.835 6.618 6.618 0 11-2.71-12.955c3.57-.75 7.09 1.545 7.835 5.12m123.99-25.675a6.624 6.624 0 01-5.13 7.84c-3.575.755-7.08-1.535-7.835-5.13-.745-3.57 1.55-7.095 5.12-7.845a6.631 6.631 0 017.845 5.135" fill="#FFFFFE"/><g clip-path="url(#a)"><path d="M187.92 182.845c-11.335 13.28-23.795 51.82-23.795 51.82C255.23 216.235 286 145.625 286 145.625s17.09 41.765 60.275 64.17l.8-20.71s28.25 18.48 42.92 67.915c8.08 30.875 17.29 80.975 11.63 124.37-10.59 81.18-91.34 115.98-131.38 124.365-40.035 8.375-127.97 8.9-170.23-61.21-23.895-39.61-35.55-92.75-40.03-123.805-7.18-78.355 55.005-112.335 55.005-112.335l-14.335 35.725c32.195-8.665 78.745-49.85 78.745-49.85M31.665 336.785C-29.48 198.58 48.51 111.435 48.51 111.435c-21.605 7.09-45.01-6.62-45.01-6.62 61.135-63.485 151.16-59.47 151.16-59.47-10.585-7.63-20.81-31.985-20.81-31.985 115.57-24.2 172.845 44.01 172.845 44.01s85.69-16.655 127.145 86.325l-22.16 1.42s20.44 41.55 15.25 108.25m-177.28 222.96s11.025-12.015 34.02-.815" stroke="#1A1919" stroke-width="7" stroke-linecap="round" stroke-linejoin="round" fill="none"/><path d="M278.17 612.955a7.677 7.677 0 01-7.675 7.675c-4.24 0-7.68-3.44-7.68-7.675 0-4.24 3.44-7.675 7.68-7.675a7.673 7.673 0 017.675 7.675zm0 41.65a7.677 7.677 0 01-7.675 7.675c-4.24 0-7.68-3.44-7.68-7.675 0-4.23 3.44-7.665 7.68-7.665s7.675 3.435 7.675 7.665z" stroke="#1A1919" stroke-width="5" fill="none"/><path d="M476.54 190.09c4.67-9.25 16.06-13.145 25.485-8.39 9.26 4.67 13.07 16.23 8.395 25.485-4.575 9.085-15.955 12.98-25.395 8.22-9.43-4.755-13.06-16.225-8.485-25.315zm111.475-55.06c-7.05 13.97-15.455 16.3-23.25 18.285-7.265 1.81-14.54 3.625-21.795 5.435-14.105 3.19-17.015 8.075-19.55 12.27-1.675 2.435-7.395 12.04-18.575 6.405-8.385-4.23-8.71-11.84-5.185-18.825 5.9-11.7 17.645-19.365 30.695-22.2 6.13-1.3 25.915-5.335 27.84-6.555 2.46-1.39 4.915-3.22 6.59-6.54 3.345-6.635 1.99-18.27-13.03-25.85-13.625-6.875-26.665-4.47-31.605 5.315-.79 1.57-3.005 8.995-3.715 10.395-1.935 3.845-7.725 7.93-15.75 3.88-12.93-6.52-6.67-21.105-4.55-25.3 8.28-16.41 30.995-33.22 66.795-15.165 31.095 15.69 34.25 40.28 25.085 58.45" fill="#73659E"/></g></svg>