<svg xmlns="http://www.w3.org/2000/svg" xmlns:xlink="http://www.w3.org/1999/xlink" width="180" height="90" viewBox="0 0 47.625 23.813"><defs><linearGradient id="K" y2="362.28" xlink:href="#a" gradientUnits="userSpaceOnUse" x2="219.61" gradientTransform="matrix(1.0557 0 0 1.0108 -64.409 180.31)" y1="354.02" x1="219.61"/><linearGradient id="a"><stop offset="0" stop-color="#ffb142"/><stop offset="1" stop-color="#c87600"/></linearGradient><linearGradient id="L" y2="362.28" xlink:href="#a" gradientUnits="userSpaceOnUse" x2="238.98" gradientTransform="matrix(1.0557 0 0 1.0108 -84.855 180.31)" y1="354.02" x1="238.98"/><linearGradient id="M" y2="362.28" xlink:href="#a" gradientUnits="userSpaceOnUse" x2="229.44" gradientTransform="matrix(1.0557 0 0 1.0108 -74.78 180.31)" y1="354.02" x1="229.44"/><linearGradient id="N" y2="362.28" xlink:href="#a" gradientUnits="userSpaceOnUse" x2="176.39" gradientTransform="matrix(1.0557 0 0 1.0108 -18.775 180.31)" y1="354.02" x1="176.39"/><linearGradient id="O" y2="362.28" xlink:href="#a" gradientUnits="userSpaceOnUse" x2="195.75" gradientTransform="matrix(1.0557 0 0 1.0108 -39.221 180.31)" y1="354.02" x1="195.75"/><linearGradient id="P" y2="362.28" xlink:href="#a" gradientUnits="userSpaceOnUse" x2="186.21" gradientTransform="matrix(1.0557 0 0 1.0108 -29.146 180.31)" y1="354.02" x1="186.21"/><linearGradient id="Q" y2="537.41" xlink:href="#a" gradientUnits="userSpaceOnUse" x2="359.47" gradientTransform="matrix(.38018 0 0 .46111 30.642 185.89)" y1="537.41" x1="346.24"/><linearGradient id="b"><stop offset="0" stop-color="#333"/><stop offset="1" stop-color="#4d4d4d"/></linearGradient><linearGradient id="R" y2="362.28" xlink:href="#a" gradientUnits="userSpaceOnUse" x2="219.61" gradientTransform="matrix(1.0557 0 0 1.0108 -69.864 180.31)" y1="354.02" x1="219.61"/><linearGradient id="S" y2="362.28" xlink:href="#a" gradientUnits="userSpaceOnUse" x2="238.98" gradientTransform="matrix(1.0557 0 0 1.0108 -90.31 180.31)" y1="354.02" x1="238.98"/><linearGradient id="T" y2="362.28" xlink:href="#a" gradientUnits="userSpaceOnUse" x2="229.44" gradientTransform="matrix(1.0557 0 0 1.0108 -80.235 180.31)" y1="354.02" x1="229.44"/><linearGradient id="U" y2="362.28" xlink:href="#a" gradientUnits="userSpaceOnUse" x2="176.39" gradientTransform="matrix(1.0557 0 0 1.0108 -24.23 180.31)" y1="354.02" x1="176.39"/><linearGradient id="V" y2="362.28" xlink:href="#a" gradientUnits="userSpaceOnUse" x2="195.75" gradientTransform="matrix(1.0557 0 0 1.0108 -44.676 180.31)" y1="354.02" x1="195.75"/><linearGradient id="W" y2="362.28" xlink:href="#a" gradientUnits="userSpaceOnUse" x2="186.21" gradientTransform="matrix(1.0557 0 0 1.0108 -34.601 180.31)" y1="354.02" x1="186.21"/><linearGradient id="X" y2="537.41" xlink:href="#a" gradientUnits="userSpaceOnUse" x2="359.47" gradientTransform="matrix(.38018 0 0 .46111 25.187 185.89)" y1="537.41" x1="346.24"/><linearGradient id="Y" y2="501.65" gradientUnits="userSpaceOnUse" x2="580.86" gradientTransform="matrix(.2224 0 0 .20165 -607.55 -56.109)" y1="501.65" x1="214.14"><stop offset="0" stop-color="#46474a"/><stop offset="1" stop-color="#2f2f2f"/></linearGradient><linearGradient id="Z" y2="736.38" xlink:href="#b" gradientUnits="userSpaceOnUse" x2="361.38" gradientTransform="translate(-270.84 -146.8) scale(.3752)" y1="771.79" x1="361.38"/><linearGradient id="aa" y2="737.13" gradientUnits="userSpaceOnUse" x2="361.38" gradientTransform="matrix(.14024 0 0 .38469 -145.61 -153.98)" y1="768.49" x1="361.38"><stop offset="0" stop-color="#333"/><stop offset="1" stop-color="#4d4d4d"/></linearGradient><linearGradient xlink:href="#b" id="ax" gradientUnits="userSpaceOnUse" x1="284.61" y1="674.82" x2="263.9" y2="663.96"/><linearGradient xlink:href="#b" id="ab" gradientUnits="userSpaceOnUse" x1="284.61" y1="674.82" x2="263.9" y2="663.96"/><linearGradient xlink:href="#b" id="ac" gradientUnits="userSpaceOnUse" x1="284.61" y1="674.82" x2="263.9" y2="663.96"/><linearGradient xlink:href="#b" id="ad" gradientUnits="userSpaceOnUse" x1="284.61" y1="674.82" x2="263.9" y2="663.96"/><linearGradient xlink:href="#b" id="ae" gradientUnits="userSpaceOnUse" x1="284.61" y1="674.82" x2="263.9" y2="663.96"/><linearGradient xlink:href="#b" id="af" gradientUnits="userSpaceOnUse" x1="284.61" y1="674.82" x2="263.9" y2="663.96"/><linearGradient xlink:href="#b" id="ag" gradientUnits="userSpaceOnUse" x1="284.61" y1="674.82" x2="263.9" y2="663.96"/><linearGradient xlink:href="#b" id="ah" gradientUnits="userSpaceOnUse" x1="284.61" y1="674.82" x2="263.9" y2="663.96"/><linearGradient xlink:href="#b" id="ai" gradientUnits="userSpaceOnUse" x1="284.61" y1="674.82" x2="263.9" y2="663.96"/><linearGradient xlink:href="#b" id="aj" gradientUnits="userSpaceOnUse" x1="284.61" y1="674.82" x2="263.9" y2="663.96"/><linearGradient xlink:href="#b" id="ak" gradientUnits="userSpaceOnUse" x1="284.61" y1="674.82" x2="263.9" y2="663.96"/><linearGradient xlink:href="#b" id="al" gradientUnits="userSpaceOnUse" x1="284.61" y1="674.82" x2="263.9" y2="663.96"/><linearGradient xlink:href="#b" id="am" gradientUnits="userSpaceOnUse" x1="284.61" y1="674.82" x2="263.9" y2="663.96"/><linearGradient xlink:href="#b" id="an" gradientUnits="userSpaceOnUse" x1="284.61" y1="674.82" x2="263.9" y2="663.96"/><linearGradient xlink:href="#b" id="ao" gradientUnits="userSpaceOnUse" x1="284.61" y1="674.82" x2="263.9" y2="663.96"/><linearGradient xlink:href="#b" id="ap" gradientUnits="userSpaceOnUse" x1="284.61" y1="674.82" x2="263.9" y2="663.96"/><linearGradient xlink:href="#b" id="aq" gradientUnits="userSpaceOnUse" x1="284.61" y1="674.82" x2="263.9" y2="663.96"/><linearGradient xlink:href="#b" id="ar" gradientUnits="userSpaceOnUse" x1="284.61" y1="674.82" x2="263.9" y2="663.96"/><linearGradient xlink:href="#b" id="as" gradientUnits="userSpaceOnUse" x1="284.61" y1="674.82" x2="263.9" y2="663.96"/><linearGradient xlink:href="#b" id="at" gradientUnits="userSpaceOnUse" x1="284.61" y1="674.82" x2="263.9" y2="663.96"/><linearGradient xlink:href="#b" id="au" gradientUnits="userSpaceOnUse" x1="284.61" y1="674.82" x2="263.9" y2="663.96"/><linearGradient xlink:href="#b" id="av" gradientUnits="userSpaceOnUse" x1="284.61" y1="674.82" x2="263.9" y2="663.96"/><linearGradient xlink:href="#b" id="aw" gradientUnits="userSpaceOnUse" x1="284.61" y1="674.82" x2="263.9" y2="663.96"/><linearGradient id="d" y2="362.28" xlink:href="#a" gradientUnits="userSpaceOnUse" x2="219.61" gradientTransform="matrix(1.0557 0 0 1.0108 -69.864 180.31)" y1="354.02" x1="219.61"/><linearGradient id="e" y2="362.28" xlink:href="#a" gradientUnits="userSpaceOnUse" x2="238.98" gradientTransform="matrix(1.0557 0 0 1.0108 -90.31 180.31)" y1="354.02" x1="238.98"/><linearGradient id="f" y2="362.28" xlink:href="#a" gradientUnits="userSpaceOnUse" x2="229.44" gradientTransform="matrix(1.0557 0 0 1.0108 -80.235 180.31)" y1="354.02" x1="229.44"/><linearGradient id="g" y2="362.28" xlink:href="#a" gradientUnits="userSpaceOnUse" x2="176.39" gradientTransform="matrix(1.0557 0 0 1.0108 -24.23 180.31)" y1="354.02" x1="176.39"/><linearGradient id="h" y2="362.28" xlink:href="#a" gradientUnits="userSpaceOnUse" x2="195.75" gradientTransform="matrix(1.0557 0 0 1.0108 -44.676 180.31)" y1="354.02" x1="195.75"/><linearGradient id="i" y2="362.28" xlink:href="#a" gradientUnits="userSpaceOnUse" x2="186.21" gradientTransform="matrix(1.0557 0 0 1.0108 -34.601 180.31)" y1="354.02" x1="186.21"/><linearGradient id="j" y2="537.41" xlink:href="#a" gradientUnits="userSpaceOnUse" x2="359.47" gradientTransform="matrix(.38018 0 0 .46111 25.187 185.89)" y1="537.41" x1="346.24"/><linearGradient id="k" y2="501.65" gradientUnits="userSpaceOnUse" x2="580.86" gradientTransform="matrix(.2224 0 0 .20165 -607.55 -56.109)" y1="501.65" x1="214.14"><stop offset="0" stop-color="#46474a"/><stop offset="1" stop-color="#2f2f2f"/></linearGradient><linearGradient id="l" y2="736.38" xlink:href="#b" gradientUnits="userSpaceOnUse" x2="361.38" gradientTransform="translate(-270.84 -146.8) scale(.3752)" y1="771.79" x1="361.38"/><linearGradient id="m" y2="737.13" gradientUnits="userSpaceOnUse" x2="361.38" gradientTransform="matrix(.14024 0 0 .38469 -145.61 -153.98)" y1="768.49" x1="361.38"><stop offset="0" stop-color="#333"/><stop offset="1" stop-color="#4d4d4d"/></linearGradient><linearGradient xlink:href="#b" id="J" gradientUnits="userSpaceOnUse" x1="284.61" y1="674.82" x2="263.9" y2="663.96"/><linearGradient xlink:href="#b" id="n" gradientUnits="userSpaceOnUse" x1="284.61" y1="674.82" x2="263.9" y2="663.96"/><linearGradient xlink:href="#b" id="o" gradientUnits="userSpaceOnUse" x1="284.61" y1="674.82" x2="263.9" y2="663.96"/><linearGradient xlink:href="#b" id="p" gradientUnits="userSpaceOnUse" x1="284.61" y1="674.82" x2="263.9" y2="663.96"/><linearGradient xlink:href="#b" id="q" gradientUnits="userSpaceOnUse" x1="284.61" y1="674.82" x2="263.9" y2="663.96"/><linearGradient xlink:href="#b" id="r" gradientUnits="userSpaceOnUse" x1="284.61" y1="674.82" x2="263.9" y2="663.96"/><linearGradient xlink:href="#b" id="s" gradientUnits="userSpaceOnUse" x1="284.61" y1="674.82" x2="263.9" y2="663.96"/><linearGradient xlink:href="#b" id="t" gradientUnits="userSpaceOnUse" x1="284.61" y1="674.82" x2="263.9" y2="663.96"/><linearGradient xlink:href="#b" id="u" gradientUnits="userSpaceOnUse" x1="284.61" y1="674.82" x2="263.9" y2="663.96"/><linearGradient xlink:href="#b" id="v" gradientUnits="userSpaceOnUse" x1="284.61" y1="674.82" x2="263.9" y2="663.96"/><linearGradient xlink:href="#b" id="w" gradientUnits="userSpaceOnUse" x1="284.61" y1="674.82" x2="263.9" y2="663.96"/><linearGradient xlink:href="#b" id="x" gradientUnits="userSpaceOnUse" x1="284.61" y1="674.82" x2="263.9" y2="663.96"/><linearGradient xlink:href="#b" id="y" gradientUnits="userSpaceOnUse" x1="284.61" y1="674.82" x2="263.9" y2="663.96"/><linearGradient xlink:href="#b" id="z" gradientUnits="userSpaceOnUse" x1="284.61" y1="674.82" x2="263.9" y2="663.96"/><linearGradient xlink:href="#b" id="A" gradientUnits="userSpaceOnUse" x1="284.61" y1="674.82" x2="263.9" y2="663.96"/><linearGradient xlink:href="#b" id="B" gradientUnits="userSpaceOnUse" x1="284.61" y1="674.82" x2="263.9" y2="663.96"/><linearGradient xlink:href="#b" id="C" gradientUnits="userSpaceOnUse" x1="284.61" y1="674.82" x2="263.9" y2="663.96"/><linearGradient xlink:href="#b" id="D" gradientUnits="userSpaceOnUse" x1="284.61" y1="674.82" x2="263.9" y2="663.96"/><linearGradient xlink:href="#b" id="E" gradientUnits="userSpaceOnUse" x1="284.61" y1="674.82" x2="263.9" y2="663.96"/><linearGradient xlink:href="#b" id="F" gradientUnits="userSpaceOnUse" x1="284.61" y1="674.82" x2="263.9" y2="663.96"/><linearGradient xlink:href="#b" id="G" gradientUnits="userSpaceOnUse" x1="284.61" y1="674.82" x2="263.9" y2="663.96"/><linearGradient xlink:href="#b" id="H" gradientUnits="userSpaceOnUse" x1="284.61" y1="674.82" x2="263.9" y2="663.96"/><linearGradient xlink:href="#b" id="I" gradientUnits="userSpaceOnUse" x1="284.61" y1="674.82" x2="263.9" y2="663.96"/><filter id="c" x="-.038" width="1.076" y="-.769" height="2.537" color-interpolation-filters="sRGB"><feGaussianBlur stdDeviation="5.231"/></filter></defs><g transform="matrix(.097 0 0 .097 19.043 -41.638)"><ellipse cx="52.533" cy="660.775" rx="166.212" ry="8.166" transform="matrix(1.18142 0 0 .9278 -11.516 53.162)" fill="#4d4d4d" filter="url(#c)"/><path d="M156.05 537.24a8.445 13.645 0 01-16.891 0 8.445 13.645 0 1116.891 0z" fill="url(#d)" stroke="#000" stroke-width="2.963" stroke-linecap="round" stroke-linejoin="round" transform="translate(-3.152 113.037) scale(1.01262)"/><path d="M135.6 537.24a8.445 13.645 0 01-16.891 0 8.445 13.645 0 1116.891 0z" fill="url(#e)" stroke="#000" stroke-width="2.963" stroke-linecap="round" stroke-linejoin="round" transform="translate(-3.152 113.037) scale(1.01262)"/><path d="M145.68 537.24a8.445 13.645 0 01-16.891 0 8.445 13.645 0 1116.891 0z" fill="url(#f)" stroke="#000" stroke-width="2.963" stroke-linecap="round" stroke-linejoin="round" transform="translate(-3.152 113.037) scale(1.01262)"/><path d="M201.68 537.24a8.445 13.645 0 01-16.891 0 8.445 13.645 0 1116.891 0z" fill="url(#g)" stroke="#000" stroke-width="2.963" stroke-linecap="round" stroke-linejoin="round" transform="translate(-3.152 113.037) scale(1.01262)"/><path d="M181.24 537.24a8.445 13.645 0 01-16.891 0 8.445 13.645 0 1116.891 0z" fill="url(#h)" stroke="#000" stroke-width="2.963" stroke-linecap="round" stroke-linejoin="round" transform="translate(-3.152 113.037) scale(1.01262)"/><path d="M191.31 537.24a8.445 13.645 0 01-16.891 0 8.445 13.645 0 1116.891 0z" fill="url(#i)" stroke="#000" stroke-width="2.963" stroke-linecap="round" stroke-linejoin="round" transform="translate(-3.152 113.037) scale(1.01262)"/><path d="M125.613 643.237c-3.484 0-6.47 3.379-7.802 8.214 11.385 3.045 23.894 4.822 37.04 5.064-.179-7.373-3.926-13.278-8.533-13.278-1.981 0-3.8 1.097-5.251 2.926-1.45-1.829-3.27-2.926-5.251-2.926-1.912 0-3.677 1.023-5.102 2.738-1.424-1.715-3.189-2.738-5.1-2.738zm46.21 0c-4.595 0-8.336 5.875-8.533 13.222 13.132-.423 25.575-2.391 36.87-5.608-1.408-4.51-4.295-7.614-7.632-7.614-1.981 0-3.801 1.097-5.251 2.926-1.45-1.83-3.27-2.926-5.252-2.926-1.911 0-3.676 1.023-5.1 2.738-1.425-1.715-3.19-2.738-5.102-2.738z" fill-opacity=".314"/><path d="M257.285 551.382a99.36 99.36 0 01-198.718 0 99.36 99.36 0 11198.718 0z" fill="#742178" stroke="#000" stroke-width="3" stroke-linecap="round"/><path d="M207.038 601.061c-15.903-2.955-1.348 12.982-3.787 18.744-9.64-4.74-5.967 10.952-10.327 15.312-8.26-.442-9.55 7.887-15.312 10.326-6.962-3.863-12.096 3.788-18.743 3.788-6.648 0-10.581-7.35-18.744-3.788-5.762-2.438-7.052-10.467-15.312-10.326-4.36-4.36-3.687-20.953-10.327-15.312-2.438-5.763 8.816-22.899-3.787-18.744 0-6.647 13.352-18.983 3.787-18.744 2.439-5.762 14.67-10.052 10.327-15.312 8.719-8.718 20.76-14.114 34.056-14.114 13.294 0 25.337 5.395 34.055 14.114-6.443 3.16 7.888 9.55 10.327 15.312-10.764-.539 3.787 12.097 3.787 18.744z" fill="#f1adf4" stroke="#000" stroke-width="3" stroke-linecap="round" stroke-linejoin="round"/><path d="M245.71 504.831a99.662 99.662 0 011.594 25.619c-2.204-.11-4.548.011-7.051.375-21.135 4.5-12.107 31.005-17.61 58.738-12.725 20.486-19.454 22.85-52.088 31.055a99.627 99.627 0 01-22.385 2.533c-18.228 0-35.307-4.925-49.998-13.503-14.212-33.273 4.846-69.414-20.2-75.654-27.672-4.996-38.39 20.679-20.498 59.15 9.879 21.242 26.24 31.675 38.277 35.727 17.023 13.683 38.644 21.867 62.17 21.867 27.576 0 52.546-11.246 70.554-29.406 10.475-5.232 22.122-14.76 30.213-30.701 15.13-29.81 12.233-52.258-3.282-58.476a98.701 98.701 0 00-9.696-27.325z" fill-opacity=".314" fill-rule="evenodd"/><path d="M130.342 474.675c-18.745 0-33.97 17.603-33.97 39.292 0 21.69 15.225 39.292 33.97 39.292 11.016 0 20.791-6.086 26.997-15.501 6.205 9.422 16.001 15.501 27.023 15.501 18.744 0 33.97-17.602 33.97-39.292s-15.226-39.292-33.97-39.292c-11.02 0-20.818 20.938-27.023 30.358-6.206-9.413-15.983-30.358-26.997-30.358z" fill="#fff" stroke="#000" stroke-width="3" stroke-linecap="round"/><path d="M158.372 541.245c-5.575 0-11.633 6.198-11.39 10.112.242 3.915 9.936 20.225 12.117 20.225 2.18 0 10.663-15.984 10.42-20.55-.242-4.567-7.512-10.113-11.147-9.787z" fill-opacity=".314" fill-rule="evenodd"/><path d="M158.25 416.58c-5.505 0-11.488 5.515-11.248 8.999.24 3.483 9.813 17.997 11.966 17.997 2.154 0 10.53-14.224 10.291-18.288-.24-4.064-7.42-8.999-11.009-8.709z" fill="url(#j)" fill-rule="evenodd" stroke="#000" stroke-width="2.963" transform="translate(-3.152 113.037) scale(1.01262)"/><path d="M165.652 481.288c7.968-19.3 43.391-47.466 43.391-47.466s-29.46 35.62-22.691 32.82c10.481-4.337 43.808 9.253 43.808 9.253s-44.155-10.279-64.507 5.393zm-18.267-1.793c-7.968-19.3-26.158-46.871-26.158-46.871s12.227 35.026 5.458 32.225c-10.481-4.336-43.808 9.253-43.808 9.253s44.155-10.278 64.507 5.393z" fill="#f1adf4" fill-rule="evenodd" stroke="#000" stroke-width="3" stroke-linejoin="round"/><path d="M46.88 547.048c-2.072 9.905-.78 23.209 4.67 38.896 14.316 41.214 54.808 47.403 49.042 39.965a63.152 63.152 0 01-6.189-9.64c-11.374-2.734-32.436-14.632-41.954-42.034-3.528-10.157-5.313-19.31-5.57-27.189zm42.778 3.807c-.53 5.122-1.114 10.57-1.37 16.279.597-5.876 1.249-11.368 1.37-16.28z" fill-opacity=".314" fill-rule="evenodd"/><g transform="translate(-3.152 113.037) scale(1.01262)"><rect transform="rotate(-110.107)" rx="9.345" ry="8.925" height="113.17" width="81.285" y="-11.535" x="-559.78" fill="url(#k)" stroke="#000" stroke-width="2.963" stroke-miterlimit="0"/><path d="M188 516.07l-20.7-56.543 70.014-25.632 20.7 56.543z" fill="#c9c9c9" stroke="#000" stroke-width="2.854" stroke-linejoin="round" stroke-miterlimit="0"/><g transform="rotate(-110.107 212.906 150.403) scale(.7008)" stroke="#000" stroke-width="1.3"><rect rx="3.109" ry="3.374" height="6.749" width="42.47" y="133.53" x="-156.48" fill="url(#l)"/><rect rx="3.557" ry="3.46" height="6.92" width="15.875" y="133.44" x="-102.87" fill="url(#m)"/><circle transform="translate(-272.35 -136.85) scale(.3752)" cx="269.837" cy="682.015" r="8.965" fill="url(#n)" stroke-width="3.465"/><circle transform="translate(-263.49 -136.85) scale(.3752)" cx="269.837" cy="682.015" r="8.965" fill="url(#o)" stroke-width="3.465"/><circle transform="translate(-254.4 -136.85) scale(.3752)" cx="269.837" cy="682.015" r="8.965" fill="url(#p)" stroke-width="3.465"/><circle transform="translate(-245.54 -136.85) scale(.3752)" cx="269.837" cy="682.015" r="8.965" fill="url(#q)" stroke-width="3.465"/><circle transform="translate(-200.48 -136.8) scale(.3752)" cx="269.837" cy="682.015" r="8.965" fill="url(#r)" stroke-width="3.465"/><circle transform="translate(-191.62 -136.8) scale(.3752)" cx="269.837" cy="682.015" r="8.965" fill="url(#s)" stroke-width="3.465"/><circle transform="translate(-236.49 -136.85) scale(.3752)" cx="269.837" cy="682.015" r="8.965" fill="url(#t)" stroke-width="3.465"/><circle transform="translate(-227.63 -136.85) scale(.3752)" cx="269.837" cy="682.015" r="8.965" fill="url(#u)" stroke-width="3.465"/><circle transform="translate(-218.53 -136.85) scale(.3752)" cx="269.837" cy="682.015" r="8.965" fill="url(#v)" stroke-width="3.465"/><circle transform="translate(-209.67 -136.85) scale(.3752)" cx="269.837" cy="682.015" r="8.965" fill="url(#w)" stroke-width="3.465"/><circle transform="translate(-272.35 -128.01) scale(.3752)" cx="269.837" cy="682.015" r="8.965" fill="url(#x)" stroke-width="3.465"/><circle transform="translate(-263.49 -128.01) scale(.3752)" cx="269.837" cy="682.015" r="8.965" fill="url(#y)" stroke-width="3.465"/><circle transform="translate(-254.4 -128.01) scale(.3752)" cx="269.837" cy="682.015" r="8.965" fill="url(#z)" stroke-width="3.465"/><circle transform="translate(-245.54 -128.01) scale(.3752)" cx="269.837" cy="682.015" r="8.965" fill="url(#A)" stroke-width="3.465"/><circle transform="translate(-200.48 -127.97) scale(.3752)" cx="269.837" cy="682.015" r="8.965" fill="url(#B)" stroke-width="3.465"/><circle transform="translate(-191.62 -127.97) scale(.3752)" cx="269.837" cy="682.015" r="8.965" fill="url(#C)" stroke-width="3.465"/><circle transform="translate(-236.49 -128.01) scale(.3752)" cx="269.837" cy="682.015" r="8.965" fill="url(#D)" stroke-width="3.465"/><circle transform="translate(-227.63 -128.01) scale(.3752)" cx="269.837" cy="682.015" r="8.965" fill="url(#E)" stroke-width="3.465"/><circle transform="translate(-218.53 -128.01) scale(.3752)" cx="269.837" cy="682.015" r="8.965" fill="url(#F)" stroke-width="3.465"/><circle transform="translate(-209.67 -128.01) scale(.3752)" cx="269.837" cy="682.015" r="8.965" fill="url(#G)" stroke-width="3.465"/><circle transform="translate(-272.3 -118.92) scale(.3752)" cx="269.837" cy="682.015" r="8.965" fill="url(#H)" stroke-width="3.465"/><circle transform="translate(-263.44 -118.92) scale(.3752)" cx="269.837" cy="682.015" r="8.965" fill="url(#I)" stroke-width="3.465"/><circle transform="translate(-209.7 -118.89) scale(.3752)" cx="269.837" cy="682.015" r="8.965" fill="url(#J)" stroke-width="3.465"/></g><path d="M200.83 506.1l-8.705-3.73 4.29-7.857-8.172-3.971 3.987-8.432-8.093-3.701 3.706-7.522c-2.563-1.195-5.457-2.352-7.818-3.308l3.499-8.554m12.386-5.195l-4.239 8.47 8.35 3.229-3.677 8.309 8.489 3.863-3.791 8.053 7.687 3.35c-1.186 2.568-2.649 5.32-3.835 7.574l8.195 4.274m12.241-3.992l-8.705-3.73 4.29-7.857-8.172-3.971 3.987-8.432-8.093-3.701 3.706-7.522c-2.563-1.195-5.457-2.352-7.818-3.308l3.499-8.554m29.486 43.095l-8.705-3.73 4.29-7.857-8.172-3.971 3.987-8.432-8.093-3.701 3.706-7.522c-2.563-1.195-5.457-2.352-7.818-3.308l3.499-8.554m28.756 42.885l-8.705-3.73 4.29-7.857-8.172-3.971 3.987-8.432-8.093-3.701 3.706-7.522c-2.563-1.195-5.457-2.352-7.818-3.308l3.499-8.554" opacity=".057" fill="none" stroke="#2d2d2d" stroke-width="2.58" stroke-linejoin="round"/></g><path d="M222.248 544.567c-2.725 42.579 6.172 38.64 1.343 65.706-6.615 37.081-3.07 25.326-11.558 26.17 2.756 4.33 6.014 10.563 18.84-30.257 10.168-32.357 5.838-55.506-7.762-62.297l-.863.678z" fill-opacity=".314" fill-rule="evenodd"/><path d="M77.89 529.165c28.873 10.382-8.5 56.498 22.697 96.737 5.766 7.437-34.729 1.254-49.044-39.96-13.923-40.081-.68-64.538 26.348-56.777z" fill="#742178" fill-rule="evenodd" stroke="#000" stroke-width="3"/><path d="M88.337 523.727c-8.035-2.766-16.336 4.551-17.923 8.51 8.11-2.072 11.835-2.656 13.934-.829-.905 2.024-10.448 4.046-13.405 17.327 7.459-5.171 13.384-11.148 15.766-8.692-1.73 3.021-3.72 8.7-2.378 14.332 4.285-5.656 8.665-11.63 12.688-11.791" fill="#742178" fill-rule="evenodd" stroke="#000" stroke-width="3" stroke-linecap="round" stroke-linejoin="round"/><path d="M237.802 529.367c-28.801 11.384 8.479 61.95-22.64 106.073-5.752 8.155 34.641 1.375 48.922-43.816 13.888-43.948.678-70.765-26.282-62.255z" fill="#742178" fill-rule="evenodd" stroke="#000" stroke-width="3.138"/><path d="M227.19 523.727c8.035-2.766 16.336 4.551 17.923 8.51-8.11-2.072-11.835-2.656-13.934-.829.904 2.024 10.447 4.046 13.405 17.327-7.459-5.171-13.385-11.148-15.766-8.692 1.73 3.021 3.72 8.7 2.378 14.332-4.285-5.656-8.665-11.63-12.688-11.791" fill="#742178" fill-rule="evenodd" stroke="#000" stroke-width="3" stroke-linecap="round" stroke-linejoin="round"/><path d="M247.25 527.727c-.248 0-.5.013-.75.02 9.729 8.668 13.846 28.725 8.87 56.618-6.615 37.082-32.153 53.079-40.64 53.924 2.755 4.33 36.59-5.391 49.417-46.212 12.181-38.768 3.553-64.317-16.898-64.35z" fill-opacity=".314" fill-rule="evenodd"/><path d="M203.39 524.706a17.826 17.826 0 11-35.653 0 17.826 17.826 0 1135.653 0z" stroke="#000" stroke-width="5.439" stroke-linecap="round"/><path d="M183.75 518.465a4.623 4.623 0 01-9.247 0 4.623 4.623 0 119.247 0z" fill="#fff"/><path d="M145.926 524.052a17.826 17.826 0 11-35.653 0 17.826 17.826 0 1135.653 0z" stroke="#000" stroke-width="5.439" stroke-linecap="round"/><path d="M126.286 517.811a4.623 4.623 0 01-9.246 0 4.623 4.623 0 119.246 0z" fill="#fff"/></g><path d="M161.505 537.24a8.445 13.645 0 01-16.891 0 8.445 13.645 0 1116.891 0z" fill="url(#K)" stroke="#000" stroke-width="2.963" stroke-linecap="round" stroke-linejoin="round" transform="translate(-4.333 -30.699) scale(.09823)"/><path d="M141.055 537.24a8.445 13.645 0 01-16.891 0 8.445 13.645 0 1116.891 0z" fill="url(#L)" stroke="#000" stroke-width="2.963" stroke-linecap="round" stroke-linejoin="round" transform="translate(-4.333 -30.699) scale(.09823)"/><path d="M151.135 537.24a8.445 13.645 0 01-16.891 0 8.445 13.645 0 1116.891 0z" fill="url(#M)" stroke="#000" stroke-width="2.963" stroke-linecap="round" stroke-linejoin="round" transform="translate(-4.333 -30.699) scale(.09823)"/><path d="M207.135 537.24a8.445 13.645 0 01-16.891 0 8.445 13.645 0 1116.891 0z" fill="url(#N)" stroke="#000" stroke-width="2.963" stroke-linecap="round" stroke-linejoin="round" transform="translate(-4.333 -30.699) scale(.09823)"/><path d="M186.695 537.24a8.445 13.645 0 01-16.891 0 8.445 13.645 0 1116.891 0z" fill="url(#O)" stroke="#000" stroke-width="2.963" stroke-linecap="round" stroke-linejoin="round" transform="translate(-4.333 -30.699) scale(.09823)"/><path d="M196.765 537.24a8.445 13.645 0 01-16.891 0 8.445 13.645 0 1116.891 0z" fill="url(#P)" stroke="#000" stroke-width="2.963" stroke-linecap="round" stroke-linejoin="round" transform="translate(-4.333 -30.699) scale(.09823)"/><path d="M8.693 20.734c-.338 0-.627.327-.756.796 1.104.296 2.317.468 3.593.492-.018-.716-.381-1.288-.828-1.288-.192 0-.369.106-.51.283-.14-.177-.317-.283-.509-.283-.185 0-.357.099-.495.265-.138-.166-.31-.265-.495-.265zm4.483 0c-.446 0-.809.57-.828 1.282a14.846 14.846 0 003.577-.544c-.137-.437-.417-.738-.74-.738-.193 0-.37.106-.51.283-.14-.177-.317-.283-.51-.283-.185 0-.356.099-.494.265-.138-.166-.31-.265-.495-.265z" fill-opacity=".314"/><path d="M21.466 11.823a9.639 9.639 0 01-19.277 0 9.639 9.639 0 1119.277 0z" fill="#362178" stroke="#000" stroke-width=".291" stroke-linecap="round"/><path d="M16.592 16.642c-1.543-.286-.13 1.26-.367 1.819-.936-.46-.58 1.062-1.002 1.485-.801-.043-.926.765-1.485 1.002-.676-.375-1.174.367-1.819.367s-1.026-.713-1.818-.367c-.559-.237-.684-1.016-1.485-1.002-.423-.423-.358-2.033-1.002-1.485-.237-.56.855-2.222-.367-1.819 0-.645 1.295-1.841.367-1.818.237-.559 1.423-.975 1.002-1.485a4.658 4.658 0 013.303-1.37c1.29 0 2.458.524 3.304 1.37-.625.306.765.926 1.002 1.485-1.045-.052.367 1.174.367 1.818z" fill="#95f2f8" stroke="#000" stroke-width=".291" stroke-linecap="round" stroke-linejoin="round"/><path d="M20.343 7.307a9.668 9.668 0 01.155 2.486 3.534 3.534 0 00-.684.036c-2.05.437-1.174 3.008-1.708 5.698-1.235 1.987-1.887 2.217-5.053 3.012a9.664 9.664 0 01-7.022-1.064c-1.378-3.227.47-6.733-1.96-7.339-2.684-.484-3.723 2.006-1.988 5.738.959 2.06 2.546 3.073 3.714 3.466a9.593 9.593 0 006.03 2.121 9.61 9.61 0 006.845-2.852c1.016-.508 2.145-1.432 2.93-2.978 1.468-2.892 1.187-5.07-.318-5.673a9.575 9.575 0 00-.94-2.65z" fill-opacity=".314" fill-rule="evenodd"/><path d="M9.152 4.382c-1.818 0-3.295 1.708-3.295 3.812s1.477 3.811 3.295 3.811c1.069 0 2.017-.59 2.619-1.503.602.914 1.552 1.503 2.621 1.503 1.819 0 3.295-1.707 3.295-3.811s-1.476-3.812-3.295-3.812c-1.069 0-2.02 2.031-2.621 2.945-.602-.913-1.55-2.945-2.619-2.945z" fill="#fff" stroke="#000" stroke-width=".291" stroke-linecap="round"/><path d="M11.871 10.84c-.54 0-1.128.601-1.105.98.024.38.964 1.963 1.176 1.963.211 0 1.034-1.55 1.01-1.994-.023-.443-.728-.98-1.08-.95z" fill-opacity=".314" fill-rule="evenodd"/><path d="M163.705 416.58c-5.505 0-11.488 5.515-11.248 8.999.24 3.483 9.813 17.997 11.966 17.997 2.154 0 10.53-14.224 10.291-18.288-.24-4.064-7.42-8.999-11.009-8.709z" fill="url(#Q)" fill-rule="evenodd" stroke="#000" stroke-width="2.963" transform="translate(-4.333 -30.699) scale(.09823)"/><path d="M12.577 5.024c.773-1.873 4.21-4.605 4.21-4.605s-2.858 3.456-2.202 3.184c1.017-.42 4.25.897 4.25.897s-4.283-.997-6.258.524zm-1.772-.174C10.032 2.977 8.268.303 8.268.303s1.186 3.398.53 3.126c-1.017-.42-4.25.898-4.25.898s4.283-.997 6.257.523z" fill="#95f2f8" fill-rule="evenodd" stroke="#000" stroke-width=".291" stroke-linejoin="round"/><path d="M1.056 11.403c-.201.96-.076 2.251.453 3.773 1.388 3.998 5.316 4.598 4.757 3.877a6.126 6.126 0 01-.6-.935c-1.104-.266-3.147-1.42-4.07-4.078-.342-.985-.515-1.873-.54-2.637zm4.15.369c-.052.497-.109 1.025-.133 1.58.057-.57.12-1.104.132-1.58zm12.861-.61c-.264 4.13.6 3.748.13 6.374-.641 3.597-.297 2.457-1.12 2.539.267.42.583 1.024 1.827-2.936.986-3.138.566-5.384-.753-6.043l-.084.066z" fill-opacity=".314" fill-rule="evenodd"/><path d="M4.064 9.668c2.8 1.007-.825 5.48 2.202 9.384.559.721-3.37.122-4.758-3.876-1.35-3.888-.066-6.26 2.556-5.508z" fill="#362178" fill-rule="evenodd" stroke="#000" stroke-width=".291"/><path d="M5.077 9.14c-.78-.268-1.584.442-1.738.826.786-.201 1.148-.258 1.351-.08-.087.196-1.013.392-1.3 1.68.724-.501 1.298-1.081 1.53-.843-.168.293-.362.844-.231 1.39.415-.548.84-1.128 1.23-1.143" fill="#362178" fill-rule="evenodd" stroke="#000" stroke-width=".291" stroke-linecap="round" stroke-linejoin="round"/><path d="M19.576 9.688c-2.794 1.104.823 6.009-2.196 10.29-.558.79 3.36.133 4.746-4.251 1.347-4.263.066-6.865-2.55-6.04z" fill="#362178" fill-rule="evenodd" stroke="#000" stroke-width=".304"/><path d="M18.547 9.14c.78-.268 1.585.442 1.738.826-.786-.201-1.148-.258-1.351-.08.088.196 1.013.392 1.3 1.68-.723-.501-1.298-1.081-1.53-.843.169.293.362.844.232 1.39-.416-.548-.841-1.128-1.231-1.143" fill="#362178" fill-rule="evenodd" stroke="#000" stroke-width=".291" stroke-linecap="round" stroke-linejoin="round"/><path d="M20.493 9.528l-.073.002c.944.841 1.343 2.787.86 5.493-.641 3.597-3.119 5.149-3.942 5.23.267.42 3.55-.522 4.794-4.482 1.182-3.76.345-6.24-1.64-6.243z" fill-opacity=".314" fill-rule="evenodd"/><path d="M16.238 9.235a1.73 1.73 0 11-3.458 0 1.73 1.73 0 113.458 0z" stroke="#000" stroke-width=".528" stroke-linecap="round"/><path d="M14.333 8.63a.448.448 0 01-.897 0 .448.448 0 11.897 0z" fill="#fff"/><path d="M10.664 9.172a1.73 1.73 0 11-3.459 0 1.73 1.73 0 113.459 0z" stroke="#000" stroke-width=".528" stroke-linecap="round"/><path d="M8.759 8.567a.448.448 0 01-.897 0 .448.448 0 11.897 0z" fill="#fff"/><path d="M156.05 537.24a8.445 13.645 0 01-16.891 0 8.445 13.645 0 1116.891 0z" fill="url(#R)" stroke="#000" stroke-width="2.963" stroke-linecap="round" stroke-linejoin="round" transform="translate(-119.198 -133.095) scale(.19302)"/><path d="M135.6 537.24a8.445 13.645 0 01-16.891 0 8.445 13.645 0 1116.891 0z" fill="url(#S)" stroke="#000" stroke-width="2.963" stroke-linecap="round" stroke-linejoin="round" transform="translate(-119.198 -133.095) scale(.19302)"/><path d="M145.68 537.24a8.445 13.645 0 01-16.891 0 8.445 13.645 0 1116.891 0z" fill="url(#T)" stroke="#000" stroke-width="2.963" stroke-linecap="round" stroke-linejoin="round" transform="translate(-119.198 -133.095) scale(.19302)"/><path d="M201.68 537.24a8.445 13.645 0 01-16.891 0 8.445 13.645 0 1116.891 0z" fill="url(#U)" stroke="#000" stroke-width="2.963" stroke-linecap="round" stroke-linejoin="round" transform="translate(-119.198 -133.095) scale(.19302)"/><path d="M181.24 537.24a8.445 13.645 0 01-16.891 0 8.445 13.645 0 1116.891 0z" fill="url(#V)" stroke="#000" stroke-width="2.963" stroke-linecap="round" stroke-linejoin="round" transform="translate(-119.198 -133.095) scale(.19302)"/><path d="M191.31 537.24a8.445 13.645 0 01-16.891 0 8.445 13.645 0 1116.891 0z" fill="url(#W)" stroke="#000" stroke-width="2.963" stroke-linecap="round" stroke-linejoin="round" transform="translate(-119.198 -133.095) scale(.19302)"/><path d="M-94.654-32.032c-.664 0-1.233.644-1.487 1.565 2.17.581 4.554.92 7.06.966-.034-1.406-.749-2.531-1.627-2.531-.377 0-.724.209-1 .557-.277-.348-.624-.557-1.002-.557-.364 0-.7.195-.972.522-.271-.327-.608-.522-.972-.522zm8.808 0c-.876 0-1.59 1.12-1.627 2.52 2.503-.08 4.875-.456 7.028-1.069-.268-.86-.818-1.451-1.455-1.451-.377 0-.724.209-1 .557-.277-.348-.624-.557-1.001-.557-.365 0-.701.195-.973.522-.271-.327-.608-.522-.972-.522z" fill-opacity=".314"/><path d="M-69.556-49.541a18.94 18.94 0 01-37.878 0 18.94 18.94 0 1137.878 0z" fill="#362178" stroke="#000" stroke-width=".572" stroke-linecap="round"/><path d="M-79.134-40.071c-3.031-.564-.257 2.474-.722 3.572-1.837-.903-1.137 2.088-1.968 2.919-1.574-.084-1.82 1.503-2.919 1.968-1.327-.736-2.305.722-3.572.722s-2.017-1.4-3.573-.722c-1.098-.465-1.344-1.995-2.919-1.968-.83-.831-.702-3.994-1.968-2.919-.465-1.098 1.68-4.364-.722-3.572 0-1.268 2.545-3.619.722-3.573.465-1.099 2.796-1.916 1.968-2.919a9.153 9.153 0 016.492-2.69 9.153 9.153 0 016.491 2.69c-1.228.602 1.504 1.82 1.968 2.919-2.051-.103.722 2.306.722 3.573z" fill="#fff" stroke="#000" stroke-width=".572" stroke-linecap="round" stroke-linejoin="round"/><path d="M-71.762-58.414a18.997 18.997 0 01.304 4.883c-.42-.02-.867.002-1.345.072-4.028.857-2.307 5.91-3.356 11.196-2.426 3.905-3.708 4.355-9.929 5.92a18.99 18.99 0 01-4.267.482 18.84 18.84 0 01-9.53-2.574c-2.709-6.342.924-13.23-3.85-14.42-5.275-.953-7.318 3.941-3.907 11.275 1.883 4.048 5.001 6.037 7.296 6.81a18.85 18.85 0 0011.85 4.168 18.883 18.883 0 0013.448-5.606c1.997-.997 4.217-2.813 5.76-5.852 2.883-5.682 2.331-9.96-.626-11.146a18.814 18.814 0 00-1.848-5.208z" fill-opacity=".314" fill-rule="evenodd"/><path d="M-93.753-64.162c-3.573 0-6.475 3.355-6.475 7.49 0 4.134 2.902 7.489 6.475 7.489 2.1 0 3.963-1.16 5.146-2.955 1.183 1.796 3.05 2.955 5.15 2.955 3.574 0 6.476-3.355 6.476-7.49 0-4.134-2.902-7.49-6.475-7.49-2.1 0-3.968 3.992-5.151 5.787-1.183-1.794-3.046-5.786-5.146-5.786z" fill="#fff" stroke="#000" stroke-width=".572" stroke-linecap="round"/><path d="M-88.41-51.473c-1.063 0-2.218 1.181-2.171 1.927.046.747 1.894 3.855 2.31 3.855.415 0 2.032-3.046 1.986-3.917-.046-.87-1.432-1.927-2.125-1.865z" fill-opacity=".314" fill-rule="evenodd"/><path d="M158.25 416.58c-5.505 0-11.488 5.515-11.248 8.999.24 3.483 9.813 17.997 11.966 17.997 2.154 0 10.53-14.224 10.291-18.288-.24-4.064-7.42-8.999-11.009-8.709z" fill="url(#X)" fill-rule="evenodd" stroke="#000" stroke-width="2.963" transform="translate(-119.198 -133.095) scale(.19302)"/><path d="M-87.022-62.902c1.518-3.679 8.27-9.047 8.27-9.047s-5.615 6.79-4.325 6.256c1.998-.827 8.35 1.763 8.35 1.763s-8.416-1.959-12.295 1.028zm-3.482-.341c-1.519-3.68-4.986-8.935-4.986-8.935s2.33 6.677 1.04 6.143c-1.998-.827-8.35 1.764-8.35 1.764s8.416-1.96 12.296 1.028z" fill="#fff" fill-rule="evenodd" stroke="#000" stroke-width=".572" stroke-linejoin="round"/><path d="M-109.662-50.367c-.395 1.888-.148 4.424.89 7.414 2.73 7.856 10.447 9.036 9.348 7.618a12.05 12.05 0 01-1.18-1.838c-2.167-.52-6.182-2.789-7.996-8.012-.673-1.936-1.013-3.68-1.062-5.182zm8.154.726c-.1.976-.212 2.014-.26 3.103.113-1.12.237-2.167.26-3.103z" fill-opacity=".314" fill-rule="evenodd"/><g transform="translate(-119.198 -133.095) scale(.19302)"><rect x="-559.78" y="-11.535" width="81.285" height="113.17" ry="8.925" rx="9.345" transform="rotate(-110.107)" fill="url(#Y)" stroke="#000" stroke-width="2.963" stroke-miterlimit="0"/><path d="M188 516.07l-20.7-56.543 70.014-25.632 20.7 56.543z" fill="#c9c9c9" stroke="#000" stroke-width="2.854" stroke-linejoin="round" stroke-miterlimit="0"/><g transform="rotate(-110.107 212.906 150.403) scale(.7008)" stroke="#000" stroke-width="1.3"><rect x="-156.48" y="133.53" width="42.47" height="6.749" ry="3.374" rx="3.109" fill="url(#Z)"/><rect x="-102.87" y="133.44" width="15.875" height="6.92" ry="3.46" rx="3.557" fill="url(#aa)"/><circle r="8.965" cy="682.015" cx="269.837" transform="translate(-272.35 -136.85) scale(.3752)" fill="url(#ab)" stroke-width="3.465"/><circle r="8.965" cy="682.015" cx="269.837" transform="translate(-263.49 -136.85) scale(.3752)" fill="url(#ac)" stroke-width="3.465"/><circle r="8.965" cy="682.015" cx="269.837" transform="translate(-254.4 -136.85) scale(.3752)" fill="url(#ad)" stroke-width="3.465"/><circle r="8.965" cy="682.015" cx="269.837" transform="translate(-245.54 -136.85) scale(.3752)" fill="url(#ae)" stroke-width="3.465"/><circle r="8.965" cy="682.015" cx="269.837" transform="translate(-200.48 -136.8) scale(.3752)" fill="url(#af)" stroke-width="3.465"/><circle r="8.965" cy="682.015" cx="269.837" transform="translate(-191.62 -136.8) scale(.3752)" fill="url(#ag)" stroke-width="3.465"/><circle r="8.965" cy="682.015" cx="269.837" transform="translate(-236.49 -136.85) scale(.3752)" fill="url(#ah)" stroke-width="3.465"/><circle r="8.965" cy="682.015" cx="269.837" transform="translate(-227.63 -136.85) scale(.3752)" fill="url(#ai)" stroke-width="3.465"/><circle r="8.965" cy="682.015" cx="269.837" transform="translate(-218.53 -136.85) scale(.3752)" fill="url(#aj)" stroke-width="3.465"/><circle r="8.965" cy="682.015" cx="269.837" transform="translate(-209.67 -136.85) scale(.3752)" fill="url(#ak)" stroke-width="3.465"/><circle r="8.965" cy="682.015" cx="269.837" transform="translate(-272.35 -128.01) scale(.3752)" fill="url(#al)" stroke-width="3.465"/><circle r="8.965" cy="682.015" cx="269.837" transform="translate(-263.49 -128.01) scale(.3752)" fill="url(#am)" stroke-width="3.465"/><circle r="8.965" cy="682.015" cx="269.837" transform="translate(-254.4 -128.01) scale(.3752)" fill="url(#an)" stroke-width="3.465"/><circle r="8.965" cy="682.015" cx="269.837" transform="translate(-245.54 -128.01) scale(.3752)" fill="url(#ao)" stroke-width="3.465"/><circle r="8.965" cy="682.015" cx="269.837" transform="translate(-200.48 -127.97) scale(.3752)" fill="url(#ap)" stroke-width="3.465"/><circle r="8.965" cy="682.015" cx="269.837" transform="translate(-191.62 -127.97) scale(.3752)" fill="url(#aq)" stroke-width="3.465"/><circle r="8.965" cy="682.015" cx="269.837" transform="translate(-236.49 -128.01) scale(.3752)" fill="url(#ar)" stroke-width="3.465"/><circle r="8.965" cy="682.015" cx="269.837" transform="translate(-227.63 -128.01) scale(.3752)" fill="url(#as)" stroke-width="3.465"/><circle r="8.965" cy="682.015" cx="269.837" transform="translate(-218.53 -128.01) scale(.3752)" fill="url(#at)" stroke-width="3.465"/><circle r="8.965" cy="682.015" cx="269.837" transform="translate(-209.67 -128.01) scale(.3752)" fill="url(#au)" stroke-width="3.465"/><circle r="8.965" cy="682.015" cx="269.837" transform="translate(-272.3 -118.92) scale(.3752)" fill="url(#av)" stroke-width="3.465"/><circle r="8.965" cy="682.015" cx="269.837" transform="translate(-263.44 -118.92) scale(.3752)" fill="url(#aw)" stroke-width="3.465"/><circle r="8.965" cy="682.015" cx="269.837" transform="translate(-209.7 -118.89) scale(.3752)" fill="url(#ax)" stroke-width="3.465"/></g><path d="M200.83 506.1l-8.705-3.73 4.29-7.857-8.172-3.971 3.987-8.432-8.093-3.701 3.706-7.522c-2.563-1.195-5.457-2.352-7.818-3.308l3.499-8.554m12.386-5.195l-4.239 8.47 8.35 3.229-3.677 8.309 8.489 3.863-3.791 8.053 7.687 3.35c-1.186 2.568-2.649 5.32-3.835 7.574l8.195 4.274m12.241-3.992l-8.705-3.73 4.29-7.857-8.172-3.971 3.987-8.432-8.093-3.701 3.706-7.522c-2.563-1.195-5.457-2.352-7.818-3.308l3.499-8.554m29.486 43.095l-8.705-3.73 4.29-7.857-8.172-3.971 3.987-8.432-8.093-3.701 3.706-7.522c-2.563-1.195-5.457-2.352-7.818-3.308l3.499-8.554m28.756 42.885l-8.705-3.73 4.29-7.857-8.172-3.971 3.987-8.432-8.093-3.701 3.706-7.522c-2.563-1.195-5.457-2.352-7.818-3.308l3.499-8.554" opacity=".057" fill="none" stroke="#2d2d2d" stroke-width="2.58" stroke-linejoin="round"/></g><path d="M-76.235-50.84c-.519 8.116 1.177 7.365.257 12.524-1.261 7.069-.586 4.828-2.204 4.989.526.825 1.147 2.013 3.592-5.768 1.938-6.167 1.112-10.58-1.48-11.874l-.164.129z" fill-opacity=".314" fill-rule="evenodd"/><path d="M-103.75-53.776c5.503 1.98-1.621 10.77 4.325 18.44 1.1 1.417-6.62.239-9.348-7.617-2.654-7.64-.13-12.302 5.022-10.823z" fill="#362178" fill-rule="evenodd" stroke="#000" stroke-width=".572"/><path d="M-101.76-54.812c-1.531-.528-3.113.867-3.416 1.622 1.546-.395 2.256-.506 2.656-.158-.172.386-1.991.771-2.555 3.303 1.422-.986 2.551-2.125 3.005-1.657-.33.576-.709 1.658-.453 2.732.817-1.078 1.651-2.217 2.418-2.248" fill="#362178" fill-rule="evenodd" stroke="#000" stroke-width=".572" stroke-linecap="round" stroke-linejoin="round"/><path d="M-73.27-53.737c-5.49 2.17 1.616 11.808-4.315 20.218-1.097 1.555 6.603.263 9.325-8.351 2.647-8.377.13-13.489-5.01-11.867z" fill="#362178" fill-rule="evenodd" stroke="#000" stroke-width=".598"/><path d="M-75.293-54.812c1.532-.528 3.114.867 3.417 1.622-1.546-.395-2.256-.506-2.656-.158.172.386 1.991.771 2.555 3.303-1.422-.986-2.551-2.125-3.005-1.657.33.576.709 1.658.453 2.732-.817-1.078-1.652-2.217-2.418-2.248" fill="#362178" fill-rule="evenodd" stroke="#000" stroke-width=".572" stroke-linecap="round" stroke-linejoin="round"/><path d="M-71.469-54.05c-.047 0-.095.003-.143.004 1.855 1.652 2.64 5.475 1.691 10.792-1.261 7.068-6.129 10.118-7.747 10.279.526.825 6.975-1.028 9.42-8.809 2.322-7.39.677-12.26-3.221-12.266z" fill-opacity=".314" fill-rule="evenodd"/><path d="M-79.83-54.626a3.398 3.398 0 11-6.795 0 3.398 3.398 0 116.796 0z" stroke="#000" stroke-width="1.037" stroke-linecap="round"/><path d="M-83.573-55.815a.881.881 0 01-1.762 0 .881.881 0 111.762 0z" fill="#fff"/><path d="M-90.782-54.75a3.398 3.398 0 11-6.796 0 3.398 3.398 0 116.796 0z" stroke="#000" stroke-width="1.037" stroke-linecap="round"/><path d="M-94.526-55.94a.881.881 0 01-1.762 0 .881.881 0 111.762 0z" fill="#fff"/></svg>