<svg xmlns="http://www.w3.org/2000/svg" viewBox="0 0 512 512"><path d="M512 256c0 141.385-114.615 256-256 256-130.445 0-238.101-97.562-253.973-223.702A257.45 257.45 0 010 256c0-20.041 2.299-39.549 6.656-58.264C33.029 84.428 134.656 0 256 0c121.041 0 222.469 84.01 249.135 196.901a254.539 254.539 0 016.51 45.641A250.4 250.4 0 01512 256z" fill="#f2f2f2"/><path fill="#3b8739" d="M243.195 276.559V210l-57.642-33.279L127.912 210v66.559l57.641 33.279z"/><path d="M470.204 266.459l37.564 21.692-37.564 21.692-57.637-33.28v-66.56l57.637-33.28 34.931 20.177a254.539 254.539 0 016.51 45.641l-21.358 12.33v-23.186l-20.083-11.588-20.083 11.588v23.186l20.083 11.588z" fill="#333"/><path fill="#66a060" d="M481.392 249.74v-12.92l-11.189-6.46-11.19 6.46v12.92l11.19 6.461z"/><path d="M100.686 210.004v87.771l-38.442-21.932V230.85L43.05 219.763l-19.195 11.086v44.993L2.027 288.298A257.45 257.45 0 010 256c0-20.041 2.299-39.549 6.656-58.264l36.394-21.013 57.636 33.281z" fill="#333"/><path fill="#6da75d" d="M185.549 176.718l57.64 99.833-57.638 33.278-57.64-99.833z"/><path fill="#55a344" d="M127.912 276.559l19.792-32.276L127.912 210z"/><path fill="#639d57" d="M223.979 243.277L243.195 210l-57.642-33.279z"/><path d="M346.551 99.579v88.304l-19.32-11.16-57.647 33.28v66.56l57.647 33.28 57.637-33.28V120.09l-38.317-20.511zm-.105 154.791l-19.216 11.097-19.216-11.097v-22.183l19.216-11.097 19.216 11.097v22.183z" fill="#333"/><g fill="#66a060"><path d="M282.149 358.717s-1.132-9.729-11.539-9.729c-10.408 0-17.534 1.357-17.534 7.127s20.25 5.77 27.943 8.032c7.693 2.262 14.48 8.145 11.086 18.553-3.394 10.408-13.802 11.539-29.866 11.539s-19.685-13.35-19.685-18.553h9.05s-1.132 8.145 9.502 9.502c10.634 1.357 20.802 2.121 22.173-6.108 1.81-10.861-34.391-5.43-37.559-16.064-2.676-8.985-1.132-20.815 16.969-22.626 18.101-1.811 28.056 6.181 28.056 18.101l-8.596.226z"/><path d="M194.723 401.131l20.008 11.551c10.053 5.804 22.619-1.451 22.619-13.059v-57.495h-8.155v55.227c0 6.339-6.862 10.302-12.353 7.131l-13.965-8.062v-58.94l51.043-29.467 51.043 29.467v58.94l-51.043 29.467-14.704-8.489-9.602 3.872 24.305 14.033 59.198-34.179v-68.351L253.92 298.6l-59.198 34.179v68.352h.001z"/></g></svg>