<svg xmlns="http://www.w3.org/2000/svg" viewBox="0 0 24 24"><path d="M12 1C5.925 1 1 5.925 1 12s4.925 11 11 11 11-4.925 11-11S18.075 1 12 1zM8.625 7.5c3.029 0 3.156 3.06 3.156 3.844v1.437c0 .614-.077 3.719-3.156 3.719-3.074 0-3.156-3.008-3.156-3.719v-1.437C5.469 9.904 6 7.5 8.625 7.5zm7.156 0c2.547 0 2.75 2.2 2.75 2.719h-1.75c0-.184-.031-1.281-1.031-1.281-.937 0-.969.89-.969 1.03.001 1.587 3.75 1.025 3.75 4.095 0 2.333-2.301 2.437-2.718 2.437-2.362 0-3.032-1.729-3.032-2.875h1.781c0 .265-.08 1.438 1.25 1.438.935 0 .938-.828.938-.97 0-1.893-3.75-1.152-3.75-4.155 0-2.29 2.372-2.438 2.781-2.438zM8.625 8.969c-.229 0-1.406-.13-1.406 2.344v1.468c0 .397-.075 2.25 1.406 2.25 1.439 0 1.375-1.853 1.375-2.25v-1.469c0-.506.092-2.343-1.375-2.343z"/></svg>