<svg version="1.0" xmlns="http://www.w3.org/2000/svg" width="4160" height="4160" viewBox="0 0 3120 3120"><path d="M0 1560v1560h1594.2l-.4-3.5c-.2-1.9 0-3.5.5-3.5s.4-.7-.3-1.5-1.9-1.5-2.7-1.5c-1.1 0-1.3-.5-.7-1.7.4-1 .7-3.1.7-4.8 0-1.6.7-3.5 1.5-4.1 1.4-1 1.4-1.4.3-2.8-1.1-1.4-1.1-1.6.3-1.6.9 0 1.6-.8 1.6-2 0-2.6 2-2.6 2.7 0 .3 1.1.9 1.8 1.3 1.5.5-.3 1.1-.1 1.5.5.3.5.1 1-.5 1-2.1 0 1.9 5.7 5 7 1.6.7 3 1.6 3 2.1 0 1.3 3.4 1.1 4.8-.3.7-.7 1.2-2 1.2-3 0-2.6 3.5-2.3 5.4.4 1.3 1.7 1.8 2 2.8 1 1-1 .7-1.5-1-2.8-2.5-1.7-2.9-4.4-.7-4.4s1.8-1.7-.6-2.3c-3.1-.8-5.1.2-4.4 2.3.5 1.5.2 1.7-1.5 1.3-2.4-.6-2.6-1.9-.4-3.1 1.5-.8 1.5-1.1 0-3.4-1.1-1.7-1.5-3.5-1-5.2.5-2.1.3-2.5-.9-2-1.9.7-2.9 3.1-1.7 3.9.5.3.5 1.8.1 3.3-.4 1.5-.6 3.2-.4 3.8.6 1.8-2.5 2.5-4.1.8-.8-.8-2.1-1.3-2.8-1.2-.7.2-1.3-.4-1.3-1.2 0-.8 1-1.6 2.3-1.8 1.3-.2 2.1-.9 1.9-1.5-.2-.7 0-2.1.6-3.2 1.3-2.5 1.1-5.3-3-45.8-.3-3-.1-4.7.6-4.7.6 0 1.1.6 1.1 1.2 0 2 4.9 3.8 8.3 3.1 2.1-.4 2.8-.3 2.3.5s.2 1.2 2 1.2c3.1 0 7.8 4.5 7 6.6-.3.9.1 1.4 1.3 1.4 1 0 2.3 1.1 2.9 2.5.6 1.4 1.6 2.5 2.2 2.5.5 0 1 .6 1 1.4 0 .8.9 2.2 2.1 3 1.3.9 1.8 1.9 1.4 2.7-.5.7-.2 1.7.7 2.3 1.7 1.2 2.6 4.3 3.8 13.1.4 3.3 1.5 7.7 2.5 9.9 2.4 5.5 5.7 21.7 5 24.6-.4 2-.3 2.2.6 1 .9-1.2 1-1.1.6.8-.4 1.5.1 3 1.4 4.3 1.9 1.9 6.4 1.9 249.9 1.9 136.4 0 248-.3 248-.7 0-.4-.9-2.7-2.1-5.2-5.9-12.9-6.1-13.6-6.5-26.1-.5-12.2-.8-15.6-1.7-18-.3-.8-.6-2.6-.6-4 .1-3 .1-25.7 0-28.4 0-1.5.5-1.7 3.4-1.2 4.4.9 5-.4 2.5-5.1-2.4-4.5-2.6-7.1-.5-7.9 2-.8 2.2-13.3.3-13.5-2.5-.2-4.3.3-5.9 1.7-1.4 1.3-1.7 1.3-2.2 0-.3-.8-.1-1.7.6-1.9.8-.3.6-1-.7-1.9-1.5-1.2-1.7-1.8-.7-3.6.7-1.4 2.1-2.2 3.6-2.2 1.7 0 2.5-.6 2.5-1.8 0-1 .5-2.3 1.2-3 .9-.9.7-1.2-1-1.2-1.2 0-2.7-1-3.3-2.3-.7-1.2-3.9-4.7-7.1-7.8-3.2-3-5.8-6.1-5.8-6.7 0-.7-.4-1.2-.8-1.2-.5 0-1.9-2.6-3.2-5.8-1.3-3.1-3.6-8-5.1-10.8-2.9-5.5-3.3-8.8-4.4-38.4-.3-8.5-1.1-15.1-2.6-20.5-1.2-4.4-2.1-8.9-2.1-10 .1-1-.3-2.4-.7-3-.5-.5-1.1-2.8-1.5-5-.3-2.2-1-6.5-1.6-9.5-.6-3-1.3-8-1.6-11-.3-3-.8-5.8-1.1-6.3-.8-1.4-.8-9.9.1-12.5.4-1.2 1.2-2.2 1.8-2.2.5 0 .8-.7.5-1.5-.4-.8-.2-1.7.3-2 .4-.3 1.1.1 1.3.7.3.8.6.6.6-.5.1-1.2.5-1.6 1.4-1.1.8.5.7.2-.2-.9-.8-1-2.1-1.5-3.2-1.2-1.6.5-1.7-.3-1.6-10.7.1-6.2-.1-13.6-.5-16.3-.8-5-.8-5 4.2-10.5 2.7-3 5.2-6.6 5.5-8 .3-1.4 1-4.4 1.5-6.8.6-2.4.8-4.8.4-5.3-.3-.6-.8-3.2-1.1-5.7-.3-2.6-1.1-6.5-1.8-8.7-.8-2.2-1.6-5.5-2-7.2-.3-1.8-1.6-5.3-3-7.7-1.4-2.5-2.5-5.3-2.5-6.3s-.6-2.7-1.4-3.8c-1.3-1.9-5.4-14.4-7.7-23.5-.6-2.5-1.4-5.6-1.8-7-.3-1.4-.5-8.7-.4-16.4.1-13.4.2-14.1 3.2-20 1.7-3.3 6.1-9.5 9.7-13.6 8.4-9.7 8.4-9.7 11.8-14.5 1.6-2.2 4.2-5.2 5.7-6.6 1.5-1.4 3.3-4.5 3.9-7 .7-2.4 2.1-6.2 3.2-8.4 1.9-3.7 2-5.1 1.4-21-1.4-36.2-3.3-48.7-10.8-70.5-1.5-4.3-1.8-19.8-.6-27.6.6-4.2.5-8.8-.6-16.4-1.1-7.7-1.6-22.2-1.8-54.2-.2-24-.1-43.8.2-44.1.6-.5 10.9-6.1 25.5-13.7 5.5-2.8 10.5-5.5 11-5.9.6-.4 3-1.3 5.5-2 6.3-1.8 14.3-8.3 19.8-16 2.6-3.6 6-8.1 7.7-10 1.6-1.9 5.3-6 8-9.2 2.8-3.1 6.9-7.9 9.3-10.7 4.1-4.8 7.6-6.9 8.7-5.1.3.4 1.8.6 3.3.4 6.8-1.2 21.3-1.1 23 .1 1.2.9 3.9 1.1 9.7.7 9.6-.8 36.8-.8 55.5.1 7.4.3 14 .6 14.5.6.6 0 10.9-.1 23-.3 12.1-.2 25.8-.1 30.5.3 4.7.3 8.9.5 9.3.2 2.2-1.1 52.7 0 56.7 1.3 1 .3 2.1.2 2.4-.3.3-.5 3.4-.5 6.9-.1 5.2.6 26.2 1.6 46.2 2.1 2.2.1 7.8-.3 12.5-.7 10.7-1.1 10.4-1.1 17-.1 3 .4 6.3 1.5 7.3 2.4 1.3 1.1 2 1.3 2.5.5s2.1-.9 5.2-.3c2.4.4 5.2.7 6.2.5 2.3-.5 9.1 1.4 9.9 2.8.4.6 1.9.1 3.8-1.2 2.5-1.8 5-2.4 12.4-2.8 15.6-1 29.1-1 30.4 0 .7.5 1.9.7 2.7.4.7-.3 3.1-.1 5.2.4 2.2.5 9.3 1.2 15.9 1.4 6.6.2 19 .6 27.5.9 14.2.4 24.7 1.7 27.1 3.2.6.3 1.6.1 2.3-.5.8-.7 2.3-.7 4.6-.1 2.5.7 3.9.6 5.4-.4 1.2-.7 2.5-1.3 2.9-1.4 1.1 0 6.7-5.3 6.7-6.3 0-1.4-4-1.6-5.1-.3-1.5 1.8-2.6 1.8-5.3-.4-1.9-1.4-2.1-2-1-3 2.4-2.2.1-14.2-2.6-14.2-.6 0-1 .4-1 .9 0 1.7-4.1-.1-5.7-2.5-.8-1.3-1.9-2.2-2.3-1.9-.9.5-9.9-2.3-11.7-3.8-.7-.5-1-1.3-.7-1.9.3-.5-1-.8-3-.6-2 .1-3.6.5-3.6.9 0 .3-1.1.4-2.5.1-1.8-.3-2.5 0-2.5 1.2 0 3.1-5.1 1.9-8.7-2-1.8-2-3.3-4.2-3.3-4.8 0-.6-.7.2-1.5 1.7s-1.2 3.4-.8 4.2c.3.8.1 1.5-.5 1.5s-1.2-.5-1.4-1.1c-.3-.8-1.4-.6-3.7.6-2.5 1.2-3.6 1.4-4.1.5-.5-.9-1.7-.9-4.4-.2-2.4.7-3.6.7-3.6 0 0-1.2-6.3 0-6.8 1.3s-3.6 1.1-5-.3c-.8-.8-1.5-.8-2.7.2-1.3 1.1-1.8 1-2.8-.3-.7-.9-4.2-2-8.7-2.7-6.6-1-10.3-2-7.2-2 2.1 0 1.2-3.4-1.3-5.3-2.4-1.7-2.5-1.7-2.7 0 0 1-.2 2.5-.2 3.3-.1.8.3 1.8.9 2.2.5.4-.9.8-3.3.8-2.8 0-4.5.5-4.8 1.4-.3.8-1.2 1.2-1.9 1-.8-.3-1.9.3-2.6 1.4-.8 1.3-1.9 1.7-3.6 1.4-1.5-.3-2.9.1-3.4.9-1 1.4-1.4 1.1-5.5-4.6-1.4-1.9-1.4-1.9-3 .3-1.7 2.5-6.4 3.1-6.4.8 0-2-2-3.1-2.9-1.7-.6.9-1.5.8-3.7-.4-3.7-1.9-5.4-1.9-5.4 0 0 1.8-1.2 1.9-2.8.3-.8-.8-1.5-.8-2.6.1s-1.5.9-1.8 0c-.3-.8-1.5-.9-3.6-.4-3.5.7-4.2 2.1-1.4 2.8.9.3 0 .5-2 .6-2.1 0-3.8-.4-3.8-.9 0-.6-1.6-1-3.6-1-2.3 0-3.3-.4-2.8-1.1.5-.8.1-.8-1.4 0-1.1.6-4.1 1.1-6.7 1.1-2.5 0-6 .6-7.8 1.3-3.9 1.6-15.9 1.5-16.5-.2-.2-.6-1.2-1.1-2.1-1.1-1 0-4-1.1-6.7-2.5-5.2-2.7-7.9-3.1-8.9-1.5-.9 1.5-2.5 1.2-2.5-.5 0-1.1-.8-1.3-3-.9-2.2.5-3 .3-3-.7-.1-1-.5-.9-1.4.4-1.2 1.5-1.4 1.6-2 .2-.5-1.4-.8-1.4-3 0-1.5 1-3.3 1.4-4.6 1-1.1-.4-2-.2-2 .4 0 .6-.7.8-1.5.5-.9-.4-1.5 0-1.5 1 0 4-6.8 4.1-10.7.1-3.4-3.5-14.4-4.9-18.4-2.4-2.9 1.9-11.4 1.5-16.6-.6-3.2-1.4-3.7-1.4-4.8.1-.8 1.2-1.4 1.4-1.9.6-1-1.7-4.6-1.5-4.6.3s-1.6 2-2.3.2c-.4-.8-.8-.8-1.4-.2-1 1.3-5.3 1.8-5.3.6 0-1-5-.9-6.7.2-.7.5-1.3.4-1.3-.1s-2-1.9-4.5-3.2c-3.7-1.9-4.4-2.7-4-4.4.5-1.9.4-1.9-.6.1-1.2 2.4-4.3 3.1-5.4 1.3-.3-.6.1-1.7 1-2.6.9-.9 1.4-1.8 1.2-2-.9-.9-3.5.8-4.7 3.2-1.6 2.9-3.4 3.4-12.3 3.7-5.2.2-6.7-.1-6.7-1.2 0-1.1-.4-1.1-1.8.2-1 1-2.5 1.7-3.3 1.7-.8 0-2 .5-2.7 1.2-.7.7-1.2.8-1.2.2 0-1.2-6-1.7-15.6-1.3-2.9.2-4.9-.3-5.4-1.1-.6-1-1.2-.8-2.6.9-2.5 2.9-5 2.7-6-.7-.5-1.9-.8-2.2-1.1-1-.5 1.9-3 3.1-3.8 1.8-.7-1.1-4.5.5-5.8 2.4-.5.7-1.4.2-2.8-1.4-1.2-1.5-2.2-2-2.5-1.4-.3.7-1.4 1-2.5.7-1-.3-2.6 0-3.4.7-1.3 1.1-1.4 1-.9-.4.5-1.2 0-1.6-1.9-1.6-1.4 0-2.8.4-3.1.9-.6 1-5.5.7-9.3-.4-1.8-.6-2.3-.3-2.3 1.1-.1 1.7-.3 1.6-2-.5-1.1-1.3-2-1.8-2-1.2 0 .6-1.1 1.1-2.5 1.1s-2.5-.5-2.5-1c0-.6-1-1-2.2-1-1.3 0-3.1-.7-4.1-1.5-1.1-.7-2.6-1.1-3.5-.8-1.5.6-1.5.4.1-1.4.9-1.1 1.7-2.8 1.7-3.8 0-1.4.3-1.5 1.5-.5 2.1 1.8 2.9.6 1.4-1.8-1.1-1.7-1-2.7.6-5.9 1.1-2.1 2.5-4.5 3.2-5.4.7-.8 2.2-5.3 3.3-9.9 1.2-4.5 3.8-11.7 5.9-15.9 2.1-4.2 4.9-10.1 6.2-13.1 1.2-3 3-6.6 3.9-8 .9-1.4 3.3-7.6 5.4-13.9 2-6.3 4.3-12.8 5-14.5.8-1.7 3.1-7.6 5.2-13.1 2.9-7.7 4.8-11 8.1-14.3 2.3-2.3 4.5-4.2 4.9-4.2.4 0 3.7-2.8 7.4-6.2 3.6-3.5 9.7-9 13.5-12.2 14.3-12.2 37.7-38.2 42-46.6 3.8-7.5 7.5-31.4 7.5-48.8 0-8.8 2.5-20.5 5.5-25.7 2.4-4.1 3.1-4.5 6.4-4.5 5.4 0 10.1-1.8 9.9-3.8-.5-6.5.4-9.2 5.3-15.8 2.8-3.8 6.2-9.4 7.5-12.4 1.4-3 3.1-6.9 3.9-8.5.8-1.7 1.9-4.2 2.4-5.8.6-1.5 1.5-2.7 2.1-2.7.5 0 1-.4 1-1 0-.5 1.5-3 3.2-5.4 2.2-3 4-4.4 5.3-4.3 1.5.1 1.9-.3 1.7-1.8-.2-1.8-.2-1.8.8-.3.6 1 1.7 1.8 2.4 1.8 1.1 0 1.3 4.7 1.2 24.8-.1 13.6-.5 25.3-.9 25.9-.5.8-.3 1.3.3 1.3.7 0 1 .6.7 1.4-.7 1.8 1.1 3.9 4.3 5.2 1.4.6 6.8 1 12 .9 23-.5 32.9-.5 39 .1 3.6.3 7.2.6 8 .6.8 0 2.2.2 3 .5 1.8.6 10.4.5 14.2-.3 1.6-.3 3-1.4 3.4-2.7.8-2.5.8-27.2-.2-113.2-.4-32.5-.8-71.8-1-87.5-.2-30.6-1.1-74-1.9-104-.3-10.2-.7-34.9-1-55-.3-20.1-.6-41.1-.8-46.8-.2-5.6.1-10.2.6-10.2.4 0 .5-.5.2-1-.4-.6-.8-11.3-1-23.8-.2-12.5-.7-31-1-41.2-.3-10.2-.7-36.5-.8-58.5-.1-22-.6-40.6-1-41.3-.5-.7-.4-1.2.2-1.2.6 0 .8-3.8.6-10.3-.3-5.6-.5-10.2-.5-10.2-.1 0-.2-3.5-.3-7.8-.1-4.2 0-7.7.3-7.7.8 0 .3-13.8-.6-15.1-.3-.6-.1-1.5.6-1.9.7-.4.9-1.3.5-1.9-.4-.7-.9-23.3-1.1-50.4-.2-27.1-.4-49.4-.5-49.7 0-.3 0-4.6.1-9.5.1-5 .1-10.6.1-12.5-.2-5.3-1-95.5-1.6-170-.2-36.6-.7-73.9-1-83-.4-9.1-.6-17.9-.5-19.5.1-1.7.2-3.9.1-5-.2-4.5 0-15.3.3-20.4.2-3 0-6.4-.4-7.6-.6-1.4-.4-2.7.3-3.4.9-.9.9-1.4-.1-2-.8-.5-1.1-1.8-.8-3.2 1.2-4.9 1.4-9.9.5-10.5-.5-.3-.6-1-.3-1.6.7-1.1.7-22.8 0-29.1-.2-2-.1-3.9.3-4.1.4-.3.6-3.9.6-8.1-.1-4.2.2-7.8.7-8.1.4-.3.5-1.1.2-1.9-.4-.8-1.1-1.2-1.7-.8-.6.4-.7.1-.2-.7 1.2-2 1.6-18.1 1.6-84.5 0-9.4.1-23.8.1-32 0-8.3 0-18.2-.1-22 0-3.9.1-11.5.4-17 .9-16.9 1-34.5.3-34.5-.4 0-.3-1.4.2-3.1.5-1.7.6-3.9.1-4.8-.4-.9-.6-4.3-.5-7.6.4-9.2.6-16.9.4-18-.1-.6-.2-1.4-.1-2 .2-1 1-63.3 1.6-130.5.4-49.4 1-68.3 1.9-69.8.4-.7.4-1.7.1-2.3-.4-.6-.6-8.6-.6-17.7.1-9.2.3-25.8.4-36.9.1-11.2.6-20.3 1-20.3.5 0 .5-.5.1-1.2-1-1.6-1.2-14.3-.3-18.6.5-2.1.3-3.2-.5-3.2-.7 0-.7-.3-.1-.8.6-.4 1-5.7 1-12.2 0-6.5.4-11.8 1-12.2.6-.5.6-.8-.1-.8s-1-1.2-.7-2.8c.4-3 1-13.8 1.7-33.8.3-7.2.8-13.9 1.2-14.8.3-.9.1-1.6-.6-1.6-.6 0-.8-.5-.5-1 .4-.6.6-6.1.5-12.3-.1-6.2-.1-11.7-.1-12.2.1-.6.4-24 .6-52 .3-28.1.9-73.1 1.5-100.1.5-27 1-57.9 1-68.7V0h-45.5c-49.3 0-46.7-.3-44.6 5.3.6 1.4 1.2 17.5 1.5 35.9.3 18.3 1 36.7 1.6 40.8.6 4.1 1.3 11.2 1.4 15.6.2 4.5.7 9.1 1.1 10.3.4 1.3.1 2.9-.7 3.8-.7.9-.8 1.4-.2 1 .8-.4 1.1.7 1.1 3.6 0 2.3.1 7.5.3 11.5.2 3.9.1 7.4-.2 7.7-.3.3-.2 2.5.2 5 .4 2.9.3 4.6-.4 4.9-.7.3-.6.5.2.5 1 .1 1 .5 0 2.1-1.1 1.7-1 2.2.1 2.9.8.5 1.2 1.8.8 3-.3 1.2-.2 3.5.3 5 .4 1.6.4 3.3-.1 3.8s-.4 2.4.2 4.6c.5 2 .7 4.3.3 4.9-.7 1.1-.9 6.4-.4 7 .9 1.1.7 18.4-.2 19.5-.9 1.1-.8 1.3.3 1.1.8-.2 1.3.3 1.1 1.1-.2.8-.5 3-.7 5-.2 2-.7 4.4-1 5.3-.5 1.3-.2 1.8 1 1.8s1.5.5 1 2.1c-1.2 3.6-1.3 16.3-.2 17.7.7.9.7 1.6 0 2.3-.7.7-.7 2.4-.2 4.7.4 2 .4 3.9-.1 4.2-.7.4-.7 10.4 0 12 .5 1.2.5 4.7-.1 7.7-.4 1.8-.3 3.3.2 3.3.6 0 .5.8-.1 1.9-1.3 2.5-1.3 3.4 0 2.6 1.2-.8 1.3-.3 0 2.9-.7 2-.6 2.7.8 3.5.9.6 1.3 1.1.7 1.1-1.1 0-1.2 20.1-.1 21.8.3.5.3 1.2-.1 1.5-.7.7-.6 61.7.1 66 .2 1.5.1 4.1-.4 5.7-.5 1.6-.5 3.2-.2 3.4 1 .6.7 36.9-.2 38.5-.5.8-.3 1.7.5 2.2 1 .7 1.1 1.1.3 1.6-.7.5-1 2.1-.7 3.8.8 5.4.9 15.9.2 18.6-.4 1.5-.3 3.1.3 3.7.6.6.6 1.2-.1 1.6-.6.4-1.1 1.2-1.1 1.7 0 .6.3.8.8.6.4-.3.6 1.1.5 3.1-.1 2.1-.2 3.7-.3 3.7-.1 0-.3 1.7-.5 3.8-.2 2.1-.1 3.5.4 3.3.4-.3.6 1.5.4 4-.3 2.6.1 5.1.8 6 .6.8.8 1.4.3 1.4-1.1 0-1 42.2 0 43.9.4.6.2 1.1-.4 1.1-.6 0-.8.5-.5 1 1 1.6 1.2 33.1.3 33.6-.5.3-.5 1-.1 1.7.3.6.8 6.1 1 12.1.2 6.1.4 11.5.4 12.1.2 1.8-1 8.5-1.6 9.5-.3.6-.1 1 .4 1 .7 0 1 2.7.8 7.5-.2 4.1.1 7.9.7 8.5.6.6.6 1 .1 1-.9 0-1.3 24.5-.5 27.5.1.5.1 1.2 0 1.5-.7 1.6-.6 18.8.1 20.2.6 1 .5 1.9-.1 2.3-.5.3-.7 1.2-.4 2 .3.7 0 2.3-.6 3.5-.9 1.8-.9 2.4.1 3 .9.6 1.2 5.5 1.1 19.7-.1 10.3-.1 18.8-.2 18.8 0 0-.2 11.6-.4 25.8-.3 19.1 0 26.7.9 29.5.8 2.2.9 3.9.4 4.3-.6.3-.8 4-.5 8.4.3 4.5.1 8.6-.5 9.7-.8 1.4-.7 2.4.3 3.5.8 1 .9 1.8.3 2-.6.2-.8 3.6-.5 9 .3 4.9.2 10.6-.1 12.8-.4 2.2-.6 12.4-.5 22.7.1 12.3-.2 18.8-.9 18.8s-.7.3 0 .8c.9.6 1.1 2.8.5 4.2-.1.3-.3 3.8-.5 7.8-.2 5.3.2 7.7 1.2 8.8 1 .9 1.1 1.4.2 1.4-.8 0-.9.4 0 1.3.8 1 .7 1.7-.1 2.5-.7.7-.8 1.6-.2 2.4.6.7.9 3.9.9 7-.1 3.2.2 5.8.7 5.8.4 0 .5 2.9.2 6.5-.4 4.9-.2 6.5.8 6.5s1 .2 0 .9c-.9.5-1.2 2-.9 4 .3 1.7.2 3.3-.2 3.5-.8.6-.7 6.3.3 9.3.5 1.4.3 2.3-.3 2.3-.7 0-1 3.1-.9 9 .2 5 .1 9-.2 9-.8 0-.5 9.4.4 10.8.4.7.3 1.9-.4 2.7-.8.9-.8 1.5 0 2 .6.4.7 1.2.3 1.8-.5.7-.7 2.5-.6 4.2.3 3.5.4 4.5.2 18.5-.1 5.8-.5 11.3-1.1 12.3-.6 1.3-.5 2.3.3 3.3 1 1.2 1 1.7.1 2.3-.8.5-.9 1.7-.3 3.9.7 2.2.6 3.2-.1 3.2-.6 0-.6.6.2 1.5.7.8.9 1.5.4 1.5-1.3 0-1.3 27.4 0 28.2.8.5.7 1.1-.2 2-1.6 1.6-1.6 4.5.1 5.1.9.4.8.8-.3 1.7-1 .8-1.1 1.3-.3 1.6.8.4.8 1.5.2 4-.6 1.9-.6 4.8-.2 6.6.9 3.5.8 8.3-.2 20.8-.8 9.7-.7 8-.2 20 .2 5.8.1 11.4-.3 12.5-.4 1.1-.4 3 .1 4.2.5 1.3.5 2.3.1 2.3-.9 0-.9 21.2.1 22.7.4.6.3 1.4-.3 1.8-1 .6-.6 10.9.6 14.7.3 1 .1 1.8-.5 1.8-.7 0-.8.9-.3 2.2.5 1.3.7 3.4.5 4.8-.2 1.4-.4 6.2-.6 10.7-.1 4.5-.6 8.5-1 8.9-1 1-.9 2.6.1 2 .5-.3.8 6.2.6 14.4-.2 10 .1 15 .8 15 .7 0 .7.4-.1 1.3-.6.8-.8 1.7-.4 2 .3.4.1.7-.5.7-.7 0-1.2.5-1.2 1.1 0 .5.4.8.9.5 1-.7.9 4.4-.2 6.1-.4.6-.4 1.4.1 1.7.4.2.6 4.6.5 9.8-.2 5.1-.4 13.7-.6 19-.2 5.7.1 9.9.7 10.1.5.2.3 1.7-.6 3.4-1.4 2.9-1.4 3.2 0 3.8 1 .4 1.2.9.6 1.3-1.4.9-1.6 4.6-1.3 18.2.1 4.1 0 12.1-.1 17.7s.1 10.6.4 11.2c.4.5.2 1.3-.4 1.6-.6.4-.8 1.4-.5 2.4.4 1.3.7 18 .5 30 0 1.3.4 2.9 1 3.6.6.7.6 1.5 0 2.1-.5.5-1.1 6.7-1.4 13.9-.2 7.1-.6 13.7-.9 14.5-.2.8-.2 1.2 0 .7 1.4-2.5 1.8 1.3 1.6 17.5-.3 26.3-.6 32.8-1.4 32.8-.4 0-.4 1.5.1 3.2.5 1.8.9 9.4.9 16.8s.1 21.8.1 31.9c.1 14-.2 18.6-1.2 19.3-1 .6-.9.8.4.8 1.7 0 1.8.8.4 8.1-.2.9 0 2.3.5 3 .4.7.3 2.1-.2 3.1-.6 1-.6 1.8-.1 1.8 1.1 0 .9 25.6-.1 26.6-.4.4-.1 1.5.7 2.3 1.2 1.3 1.3 2.6.6 5.6-.5 2.2-.6 4.1-.2 4.2.6.2.7 13.2.1 15.3-.2.9.1 10.3.6 17 .2 3.6.2 7.2-.2 8-1 2.4-1.1 37.3-.1 40 .5 1.4.5 2.6 0 2.8-.4.1-.5 2.5-.2 5.2.4 2.8.4 5.3.1 5.5-.7.8-.8 8.5-.1 8.5.7 0 .6 4.8-.1 5.5-.3.3-.3 2.7.1 5.5.5 4 .3 5-.8 5s-1.2.3-.4 1.3c.7.8.7 1.8.2 2.7-.5.8-.7 2.2-.5 3.1.3.9-.2 2.2-1 2.9-1.3 1.1-1.3 1.5-.3 2.1.9.6.7.9-.9.9-1.2 0-2.3.5-2.5 1.1-.2.6-1-.2-1.7-1.8-.7-1.5-1.7-3.5-2.2-4.5-.4-.9-2.9-9.6-5.4-19.3-2.5-9.8-5.2-19.2-5.9-20.9-2.6-5.6-5.8-15-6.3-18.1-.2-1.7-.7-3.7-1-4.5-.3-.8-.7-2-.9-2.5-.1-.6-1.1-4.2-2.2-8-4.8-16.5-8.1-27.3-9.7-31.5-.9-2.5-2.1-6.4-2.5-8.8-1.1-5.1-4.9-17.6-9.9-33.2-2.1-6.3-4.6-14.2-5.7-17.5-1-3.3-2.1-6.7-2.5-7.5-1.5-3.3-6.3-16.9-9.1-26-1.2-3.6-2.4-7.4-2.9-8.5-1.9-4.7-8-22.8-11-32.3-2.4-7.7-3.9-10.8-5.6-11.9-2.9-1.9-5.3-7.3-5.3-12.1 0-1.9-.8-5.3-1.8-7.3-1.8-4-3.2-5-3.2-2.4 0 1.8-2.3 1.9-5.2.4-1.8-1-2-.9-1.5.5.3.8.1 1.8-.5 2.2-1.5.9-5.8-4.5-5.8-7.2 0-1.1-.7-2.9-1.5-4-3-4-.9-8 2.6-4.8 1.8 1.6 2 1.6 3.7.1 1-1 2.4-1.7 3.1-1.7 1.3 0 .6-6.5-.9-8.5-.4-.6-1.1-2.1-1.5-3.5-.4-1.4-1.6-5.1-2.7-8.2-1.8-5.1-2.4-5.8-5.3-6.4-3.3-.6-4.9-2.8-5.7-7.9-.4-2.5-3.1-2.6-3.6-.2-.2.9.6 3.8 1.8 6.3 1.2 2.5 2 4.7 1.8 4.9-1 1-4.8-4.3-5-6.8-.3-3.1-.6-3.2-3.1-1.2-1.8 1.3-1.8 1.4.3 2.5 4.2 2.2 5 10 1 10-1 0-2.5 1.1-3.4 2.5-1 1.6-2.6 2.5-4.2 2.5-2 0-2.9-.9-4.4-4.3-1.1-2.3-2-5.4-2-6.8 0-2.8 3-6.2 5-5.7.6.2 1.7-.6 2.3-1.7 1.6-2.7 3.3-4 10-7.8l5.8-3.2-.7-4c-.3-2.2-1-4.5-1.5-5.1-1.8-2.3-7.9.4-22.1 9.8-17.9 11.8-20.6 13.5-24 14.9-1.6.6-2.8 1.5-2.8 2s-.4.9-.9.9-3.3 1.6-6.3 3.5c-12.2 8.1-17.8 9.2-19.9 3.9-.5-1.5-2.5-5.3-4.5-8.7-3-5.2-3.4-6.4-2.5-8.9 1.2-3.4 2.4-4.6 7.1-7.2 7.8-4.2 10.7-6 14.1-8.7 2-1.6 3.9-2.9 4.2-2.9.5 0 6.7-4.1 31.5-21.1 5.2-3.5 10.2-7.5 11.3-8.9 1-1.4 2.9-3.5 4.1-4.8 1.2-1.2 1.7-2.2 1.1-2.2-.9 0-.9-.9-.1-3.3 1.2-3.9 1.1-8.1-.2-8.5-.6-.2-.4-1.3.5-2.5 2-2.8 1.9-3.7-.2-3.7-1.2 0-1.4-.3-.6-.8 1.4-.9 2.5-10.2 1.2-10.2-.5 0-1.1-1.1-1.5-2.5-.3-1.4-1.1-2.5-1.8-2.6-.6 0 0-.5 1.4-1.1 1.4-.6 2.8-1 3.3-1 .4.1.7-.3.7-.8 0-.6-.4-1-1-1-.5 0-1-1.1-1-2.5s-.4-2.5-1-2.5c-.5 0-1-.5-1-1 0-.6.7-1 1.5-1 .9 0 1.5-1 1.5-2.6 0-1.4-.4-2.3-1-1.9-.5.3-1 .1-1-.5s.7-1.3 1.5-1.6c.9-.4 1.5-1.9 1.5-4.1 0-2-.4-3.2-1-2.8-.5.3-1-.3-1-1.4 0-1.2-.5-2.1-1.2-2.1s-.5-.7.5-1.8c1.1-1.2 1.3-2.2.6-3.5-.6-.9-.7-2.2-.4-2.8.4-.5.1-1.7-.6-2.5-.9-1.2-1-1.7 0-2.7 1-.9 1.1-.8.5.8-.4 1.2-.3 1.7.2 1.2 1.2-1.2 1.1-5-.1-6-.6-.5-.4-1.2.7-2 1.5-1.2 1.5-1.4 0-2.3-1.4-.9-1.5-1.5-.4-3.5 1.1-2.2 1.2-2.3.6-.2-.4 1.8-.2 2.2 1.1 1.7 1.6-.7 1.2-4.5-.6-5.2-.5-.2-.9-.8-.9-1.3 0-.6.5-.7 1-.4.6.3 1 .3 1-.2 0-1.3-1.4-2.9-3.4-4-1.7-.9-1.6-1.1.8-1.7 1.4-.3 2.6-1.1 2.6-1.6 0-1.4-2.3-1.2-3.9.2-1.1 1.1-1.3 1-.7-.5.3-1 .6-2.5.6-3.3 0-.9.5-1.2 1-.9.6.3 1-.1 1-1s.5-1.3 1-1c2 1.2 1-1.4-1.1-2.9-2.1-1.4-2.3-5.3-.3-4.9 1.2.2.6-5.5-.7-6.2-.4-.3-.1-2.1.7-4 .9-2.2 1-3.6.4-4-.6-.4-.8-1.5-.5-2.6.5-1.4 0-2.2-1.7-2.9-2.3-1-2.3-1.1-.1-.6 1.3.2 2.6-.1 3-.6.4-.7.1-.8-.7-.3-1 .6-1.1.4-.5-1.1.9-2.3 1.2-9.4.4-10-.4-.2-.5-2.5-.2-5.1.8-8.4.8-14.1.1-13.7-.4.2-.9 0-1.3-.6-.3-.5-.1-1 .6-1 1 0 1-.3.2-1.1-.9-.9-.8-1.5.3-2.6 1.7-1.8 1.8-3.4.2-3-.7.1-1.4-.8-1.6-2.1-.2-1.3.2-2.2 1-2.2 1 0 1-.2-.1-.9-.8-.6-1-1.4-.5-2.2.5-.8.7-2.2.6-3.2-.2-.9.2-1.7.9-1.7.8 0 .5-.8-.6-2-1.6-1.7-1.6-2-.2-2 .9 0 1.9-.4 2.2-1 .3-.6-.1-.7-.9-.4-.9.3-1.6.2-1.7-.2 0-.5-.2-1.7-.4-2.7-.2-1.1.3-1.7 1.5-1.7 1 0 2.2-.5 2.6-1.1.7-1.1-1.2-2.9-3.1-2.9-.5 0-.3.4.5 1 .8.5 1.1 1.2.7 1.6-.4.4-1.3.2-1.9-.4-1-1-1-1.7 0-3.3 1.1-1.6 1.1-2.4.1-3.6-1-1.2-1-1.6.2-2.4 1.1-.7 1.2-1.1.1-1.8-1.1-.6-1.1-1.1.2-2.4 2.2-2.2 2-3-.4-1.7-1.6.9-2 .8-2-.5 0-.8.6-1.5 1.4-1.5.8 0 1.7-.7 2-1.6.5-1.4.4-1.5-.8-.5-1.1.9-1.5.8-1.9-.3-.4-.9.3-1.7 1.6-2.1 1.9-.6 2-.8.5-1.2-2.1-.5-2.3-1.4-.6-3.1 1-1 1-1.5-.2-2.2-1.3-.9-1.3-1.1 0-2 1.2-.8 1.3-1.2.2-1.9s-1.1-.9.2-1.4c.9-.4 1.6-1.5 1.6-2.6 0-2.4-1.6-3.6-2.3-1.9-.4.9-.6 1-.6.1-.1-.6.3-1.4.9-1.8.6-.4.6-1.5 0-3.1-.6-1.4-.8-2.9-.6-3.2.2-.4.7-2.4 1-4.5.5-3.3.4-3.7-1.7-3.8-1.7-.1-1.8-.2-.4-.6 1.2-.3 1.6-1 1.2-2.4-.5-1.3-.2-1.9 1-1.9 1 0 1.3-.4.9-1.2-1.2-1.9-1.5-10.6-.4-11.3 1.7-1.1 1.1-2.3-.9-1.8-1 .3-2.2-.1-2.6-.8-.5-.7-.4-1 .1-.7.5.3 1.5 0 2.1-.7 1-1.1 1-1.7 0-2.7-1.6-1.7-1.5-6.1.1-7.1.8-.6 1.1-1.8.8-3.2-.3-1.3-.2-2.7.4-3 .7-.4.6-1.4-.1-2.8-.9-1.6-.9-2.2 0-2.5 1.2-.4 1.6-2.3.4-2.1-2 .3-2.3-.2-.9-1.7.9-.8 1.6-2.1 1.5-2.7 0-.9-.2-.8-.6 0-1.1 2.9-1.8.8-2-6.2-.2-4.9.2-7.5.9-7.5s.6-.5-.2-1.5c-1-1.2-1-1.5.1-1.5 1 0 1-.3.1-1.2-.8-.8-.8-1.7-.1-3 .8-1.5.5-2.8-1-5.4-2-3.3-2-3.5-.3-3 1.6.5 1.9.1 2-2.9.1-2.8-.2-3.5-1.8-3.5-1.3 0-1.8-.5-1.4-1.5.4-.8 1.2-1.5 2-1.5 1.6 0 1.8-.9.4-3-.6-1-1-1.1-1-.3 0 .7-.4 1.3-1 1.3-1.9 0-1-2.1 1.2-2.9 2.1-.8 2.1-.8.2-2.7-1.1-1.1-1.8-2.8-1.6-3.8.2-1-.1-2.3-.7-2.9-1.5-1.5-1.4-3.3.5-5.2 1.2-1.2 1.6-3.3 1.5-7.7-.1-4 .3-6.5 1.1-7 .9-.5.4-.8-1.2-.8-2.3-.1-2.4-.2-.7-1.4.9-.7 1.7-2 1.7-2.8 0-.8.4-1.8.9-2.4.6-.5.3-3.1-.9-6.8-1.1-3.2-1.8-6.2-1.5-6.6.3-.5-.1-1.1-.7-1.4-.7-.3-.3-.3 1 0 3 .7 2.8-.8-.8-4.8-2.9-3.1-2.9-3.3-1-4 1.1-.4 2-1.2 2-1.8 0-.5.5-.9 1.1-.7.6.1 1.3-.3 1.6-.9.4-1.2-2.5-1.2-4.5 0-1.7 1-1.5-1 .3-2.8.8-.8 1.5-1.9 1.5-2.4 0-.6.6-1.3 1.2-1.5.9-.4 1-.8.3-1.4-1.4-1.1-3.7-6.3-2.7-6.2 1.9.3 2.2-.3 1.2-2.1-.9-1.6-.8-2 .5-2 .9 0 1.5-.6 1.2-1.3-.2-.6-1.3-1.2-2.5-1.1-1.7 0-1.9-.3-1.1-1.8 1.2-2.2 1.8-2.3 3.6-.1.9 1.1 1.2 1.2.7.3-.4-.8-1.4-2.3-2.2-3.2-1-1.2-1.3-2.9-.9-5.3.4-2.7.2-3.5-.9-3.5-.8 0-1.2-.5-.9-1.1.4-.6 1.3-.8 2.1-.5 1.2.5 1.2.2.3-1.6-.9-1.6-1.3-1.8-2-.7-.5.8-.9 1.1-.9.6 0-.4.6-1.6 1.2-2.7 1-1.6 1-2.4-.1-4.2-1.4-2.2-1.4-2.2 1.2-.5l2.6 1.7-.2-3.1c-.2-2.3-.6-2.9-1.9-2.5-1 .2-1.8 0-1.8-.5s.7-.9 1.5-.9c1.5 0 1.9-1 1.5-4.4-.1-1 .4-2.3 1.2-2.7.9-.6.7-.9-.9-.9-2.8 0-2.9-.7-.5-3.3 1.1-1.3 1.3-2.1.6-2.4-.6-.2-.9-1.5-.6-2.9.3-1.6-.1-3-.9-3.5-1-.6-1-.9-.1-.9.6 0 1.2-1 1.2-2.3 0-1.3.5-2.8 1.1-3.4.8-.8.8-1.3 0-1.7-1.8-1.1-1.4-4.9.5-4.2.8.3 1.2.2.9-.4-.3-.6-1.3-1-2.1-1s-1.4-.5-1.4-1.1c0-.5.5-.7 1-.4.6.3 1 .1 1-.5s-.7-1.3-1.5-1.6c-1.3-.5-1.3-.9 0-2.7 1.3-1.8 1.2-2.2-.3-3.4-1.5-1.3-1.5-1.3.6-.8 1.3.4 2.2.2 2.2-.4 0-.6-.5-1.1-1.2-1.1-.6 0-.8-.3-.5-.7.4-.3-.1-1.2-1.1-2-.9-.8-1.2-1.2-.5-.9 1.6.8 2.4-.7 1.3-2.4-.4-.7-.4-2.4.1-3.8.7-1.9.6-2.7-.8-3.8-1.3-.9-1.4-1.3-.4-1.4.7 0 1.1-.6.8-1.4-.3-.8-.1-1.7.6-2 .9-.3.8-.7-.2-1.4-.8-.6-.9-1.2-.3-1.6.6-.3.8-1.5.5-2.6-.3-1.1 0-2 .6-2 .5 0 .8-.7.5-1.5-.4-.8-1.3-1.5-2.1-1.5-1.3 0-1.3-.3-.3-1.5 2.3-2.8 3.1-26.6 1-27.3-.8-.3-.4-1 1.1-1.9 1.3-.8 1.6-1.2.7-.9-2.1.6-2.5-2-.5-2.7.9-.3.9-.8.1-1.8-1.4-1.8-1.7-6.9-.4-6.9.6 0 1-.7 1-1.5s-.7-1.5-1.7-1.5c-1.4 0-1.4-.2.3-2.1 1.4-1.6 1.5-2.3.7-2.6-.7-.3-1.3-.9-1.3-1.4 0-.6.4-.8.8-.5.4.2.8-.4.8-1.4 0-1-.6-1.6-1.3-1.3-1.5.6-1.8-1.3-.4-2.2.6-.3.6-1.7.1-3.5s-.5-3.2.1-3.5c1.8-1.2.9-2.6-1.3-2l-2.3.7 2.3-1.7c2-1.4 2.2-2.4 1.9-6.3-.3-2.6-.7-5.4-1-6.2-1.8-4.9-1.7-6.8.4-7.3 1.7-.5 1.9-.9.9-2.6-.6-1.2-1.7-2.1-2.5-2.1-.9 0-1.5-.9-1.5-2.1 0-1.5.5-1.9 1.5-1.5.8.3 1.5.1 1.5-.3 0-.5-.6-1.1-1.2-1.4-1-.3-1-.7-.1-1.9.7-.8 1-1.7.8-2-.3-.3-.1-1.6.4-3s.5-3.1 0-4c-.6-1.1-.5-2.6.3-4.3.9-2.1.9-2.8-.1-3.5-1.1-.6-1.1-.8 0-1.2 1.2-.5 1.2-.9.1-2.7-.7-1.2-.9-2.7-.5-3.4.4-.7.6-2 .5-3-.2-.9.2-1.7.8-1.7.6 0 .9-.4.5-1-.3-.5-1.3-.6-2.2-.3-1.3.5-1.5.2-.9-1.3.7-1.8 1.8-9.8 1.9-13.9.1-1.1.5-2.3 1.1-2.7.6-.4.6-1.1-.2-2.1-.7-.7-.9-1.6-.6-2 .3-.3.1-1.4-.5-2.5-.8-1.5-.8-2.2.2-2.5.9-.4.9-.8-.2-1.5-1.6-1.1-.7-4.7.9-3.7.5.3 1 .2 1-.4 0-.5-.4-1.2-.9-1.6-1.2-.7-1-21.5.1-21.5 1.2 0 .9-3.5-.4-4.8-.8-.8-.8-1.5 0-2.5.7-.8.9-1.7.5-2-.3-.4-.1-.7.5-.7.7 0 1.2-.7 1.2-1.6 0-1.4-.1-1.4-1.6 0-1.9 2-2.4 2-2.4 0 0-.8.4-1.3.9-1 1.5 1 2-3.4.6-4.8-.8-.7-1.1-1.6-.8-2 .4-.3.7-4.3.7-8.9.1-4.5.5-8.7.9-9.3.4-.7.1-1.4-.6-1.7-.9-.3-1.2-1.6-.9-3.6.2-1.7.8-2.8 1.3-2.5.5.3.9.1.9-.5 0-.5-.8-1.4-1.7-2-1.5-.8-1.6-1.2-.5-2.2.6-.7 1.2-1.9 1.2-2.7 0-.7-.6-1-1.2-.7-.7.4-.4-.1.6-.9 1.8-1.5 1.8-1.7.3-3.4-2.1-2.3-2.1-3.2-.2-3.2 1.9 0 1.9-.5-.2-2.9-2.1-2.5-2.6-7.1-.8-7.1s1.3-4.9-.6-6.1c-1.1-.7-.9-1.3 1-2.8 1.8-1.4 2.2-2.3 1.6-3.7-1.2-2.6-1.4-8.5-.4-7.8.5.3.9-.4.9-1.6 0-1.2-.4-1.8-1-1.5-.6.4-.9-2-.7-6.5.1-3.9.1-6.6-.1-6-.2.5-.8 1-1.3 1-.6 0-.6-.8.1-1.9 2-3.8 3-7.2 2-6.6-.6.3-1-.1-1-1s.5-1.3 1-1c.6.3 1 .2 1-.4 0-.5-.5-1.3-1.1-1.7-.8-.4-.7-.9.2-1.5 1-.6 1.1-1.1.3-1.7-1.8-1.3-2.4-4-.8-4.6.8-.3 1.4-1.3 1.4-2.1 0-.9-.4-1.4-.9-1.1-.5.4-.8-1.8-.5-5.1.5-7.4.5-7 0-12.3-.2-2.5 0-5.2.5-6.1.5-.9.4-2-.2-2.6-.8-.8-.7-1.3 0-1.7.7-.5.7-1.3-.2-2.7-1-1.7-.9-2.2.6-3.3.9-.7 1.7-1.7 1.7-2.1 0-.4-.8-.1-1.7.6-1.5 1.3-1.6 1.1-1-1 .3-1.4.2-3-.4-3.7-.7-.8-.7-1.4.1-1.9.5-.3 1 0 1 .7 0 .8.5.6 1.1-.5.8-1.3.7-2.2-.2-3.3-1.8-2.2-2.1-15.4-.3-16.1 1.1-.4 1.1-.8-.1-2-1.8-1.7-2-3.7-.3-2.7.8.5.9.2.5-.9-.4-1-1-2.4-1.4-3.4-.4-1.1-.3-1.4.5-.9.8.4.9-.6.6-3.5-.3-2.7-.1-3.9.6-3.4.5.3 1 .2 1-.4 0-.5-.5-1.3-1.1-1.7-.8-.4-.7-.9.2-1.5 1.1-.6 1.1-1.2-.1-3.4-1.2-2.2-1.2-2.8-.1-3.4.9-.6 1-1.1.2-1.5-1.7-1.1-1.3-2.6.7-2.7 1.4 0 1.4-.2.2-.7-1.6-.7-2.1-8.7-.7-10.9.4-.6.4-1.8.1-2.6-.3-1 .1-1.7 1.3-2 1.6-.4 1.6-.5.1-.6-1.7-.1-2.4-2.6-2-7.1.1-.8.2-3.2.3-5.3.1-2 .6-3.7 1-3.7s.6-1 .6-2.3c-.1-1.2.3-3.3.7-4.6.5-1.5.5-2.1-.2-1.7-.5.3-1.3-.1-1.6-1-.8-2.1-.8-3.4.2-3.3 1.9.3 2.3-.2 1.2-1.6-1.7-2-2.3-16.7-.7-17.7.9-.6.9-1 0-1.6-1.2-.8-1.2-3.2.1-9 .5-1.9.4-3.2-.2-3.2-.5 0-1.2-1.1-1.4-2.5-.5-2.2-.2-2.5 1.6-2 1.2.4 1.6.3 1.1-.2-1.2-.9-1.2-3-.1-5.6.5-1.1.4-2.9-.3-4.4-1-2.1-.8-3.2.7-6.4 1.3-2.6 1.6-4.2.9-5.4-.5-.9-.7-3.1-.4-4.8.3-1.8.3-2.6 0-2-.2.7-.9 1.3-1.4 1.3-.6 0-.6-.7 0-1.9.6-1 .7-2.1.4-2.5-1-.9-.7-7.7.3-8.4 1.2-.9 1.1-5.1-.1-6-1.1-.8-1.3-3.1-.4-4.7.8-1.4.4-7.9-.6-9.4-.4-.8-.2-1.6.5-2.1.8-.5 1.1-2.7.9-6.1-.1-3 .1-6.2.6-7.3.5-1.2.3-2.1-.6-2.7-1.2-.8-1.1-1.1.4-2 2-1.2 2.3-3.1.3-2.3-1 .4-1.2-.2-.9-2 .3-1.4 1-2.6 1.5-2.6.7 0 .7-.4 0-1.3-1.3-1.5-1.3-6.7 0-6.7.6 0 .7-.7.4-1.5-.3-.8-.9-2.2-1.2-3-.4-1 0-1.5 1.2-1.5s1.5-.3.8-.8c-1.5-1-2.6-11.2-1.3-11.2.6 0 .9-.6.6-1.3-.2-.6-1-1.1-1.6-.9-.9.2-.9-.4 0-2 .7-1.3 1.4-4.5 1.6-7.2.1-2.8.9-5.3 1.5-5.8 1-.6.9-1.1-.5-1.9-1.2-.7-1.5-1.5-.8-2.7.5-.9.6-3.2.4-5-.4-2.1-.1-3.2.7-3.2 1 0 1-.3 0-1.5-.7-.9-.8-1.5-.2-1.5.6 0 .9-2.1.7-5.3-.1-2.8 0-4.6.2-4 1 2.8 2.1 1.1 1.6-2.5-.7-5.5-.5-9.6.7-10 .5-.2 1-.8 1-1.3 0-.6-.5-.7-1.2-.3-.7.5-.8.3-.3-.7 1.4-2.1 2.3-9.9 1.2-9.9-.5 0-.4-.6.2-1.4.9-1.1.8-1.5-.5-2-1.5-.6-1.4-.9.6-2.6 1.9-1.6 2.1-2.2 1-3.5-1-1.2-1-1.8 0-3 .8-.9.8-1.5.2-1.5-.7 0-.8-1-.1-3.2.5-1.8.6-4 .4-4.9-.3-1-.2-2 .2-2.2 1-.6.9-16.4-.1-19.5-.5-1.3-.3-2.2.3-2.2s1.1-.4 1.1-1c0-.5-.7-.7-1.6-.3-1.4.5-1.5.3-.4-1.7.6-1.2 1-3.5.8-5.1-.3-1.6-.2-2.9.2-2.9.3 0 .6-.9.6-2s-.4-2-.7-2c-.4 0-.4-1.4.1-3 .8-2.9.4-12.5-.6-14.2-.3-.4.3-.8 1.2-.8 1.6 0 1.6-.1 0-1.9-1.2-1.3-1.4-2-.5-2.3 1.4-.5 2-9.6.6-10.5-.5-.3-.6-1.6-.3-2.8.3-1.3.1-3.6-.4-5.1-.8-2-.8-2.9.1-3.4 1.3-.8.3-5-1.2-5-.5 0-.9-.5-.9-1.1 0-.6.6-.9 1.4-.6.8.3 1.7-.7 2.4-2.9.5-1.9.6-3.2.2-2.9-.5.3-1.1.1-1.5-.5-.4-.7-57.1-1-172.5-1h-171.9l.5 2.7c.3 1.5.7 3 1 3.5.9 1.4-.7 4.8-2.2 4.8-.8 0-1.4-.5-1.4-1 0-.6.7-1 1.6-1 .8 0 1.2-.5.9-1-.3-.6-1.7-1-3.1-1-2 0-2.4.4-1.9 1.9.3 1.2 0 2.1-1 2.5-1.3.4-1.5.1-1-1.3.5-1.6.2-1.9-1.8-1.7-3 .3-8 3.6-5.4 3.6.9 0 1.7-.5 1.7-1 0-.6.4-1 .9-1 1.4 0 .1 3.8-1.5 4.4-.8.3-1.4 1.2-1.4 2 0 1.7 3.3 3.2 3.8 1.7.8-2.4 2.1-.9 1.6 1.8-.4 1.8-.1 3.2.6 3.6 1 .6 1.1.1.6-1.9-.5-1.9-.3-2.6.9-2.6.8 0 1.5.7 1.5 1.5s.6 1.5 1.4 1.5c.9 0 1.2-.8.9-2.4-.4-2.1-.2-2.3 2.2-1.8 2.1.4 2.6.1 2.3-.9-.3-.8-1-1.4-1.6-1.4-.5 0-1.4-.3-1.7-.7-.4-.4-1.6-.3-2.6.3-1.1.5-1.9.6-1.9.1 0-1.5 4.8-3.3 5.6-2 .4.7 1.3.3 2.4-1.2 1.6-2.2 1.7-2.1 1.7 3.9 0 3.9-.3 5.8-1 5.4-.6-.4-.7-.1-.3.6.5.7 1.4 1 2.2.7.8-.3 1.4.1 1.4.9s-.5 1.5-1.1 1.5c-1.3 0-.1 3.9 1.8 5.9 1.4 1.3 1.3 1.6-.4 2.2-1.1.4-2.3 1.7-2.6 2.9-.5 2.1-.5 2.1 1.5.3s2-1.7 1.7.2c-.2 1.1 0 2.6.4 3.3.5.7.5 1.2 0 1.1-2-.3-2.3.2-1.3 2.2.9 1.7.8 2.3-.7 3.4-1.7 1.3-1.7 1.5 0 5.1 1.5 3 1.6 3.9.5 4.5-.9.6-.4.9 1.5.9 3.5 0 3.5 1.7 0 2.3-2.7.4-2.7.4-.6 1.2 1.7.5 2.1 1.1 1.4 2.4-.7 1.1-.5 2.1.6 3.3 1.5 1.7 1.5 1.8-.2 1.8-1.8 0-1.3 1.4.6 1.6 2.2.3 2.3.5 1 1.3-1.1.7-1.1 1.5-.2 4.1.6 1.8.8 3.6.5 4.1-.3.5 0 .9.6.9s.8.4.5 1c-.3.5 0 1 .7 1 .8.1.5.7-.7 1.6-1.4 1.1-1.6 1.8-.7 2.1 1.5.6 1.6 4.9.1 5.9-.8.4-.8.9-.1 1.3.7.4.8 2 .2 4.6-.5 2.2-.5 4.4-.1 5 1.1 1.5 1.1 5.6 0 5-.5-.4-.9-.1-.9.4 0 .6.5 1.1 1 1.1.6 0 1 .7 1 1.5s-.4 1.5-.9 1.5-.7.9-.4 2c.3 1.1.9 2 1.4 2 .5 0 .9 1 .9 2.2 0 1.7-.3 1.9-.9 1-.6-.9-.8-.5-.9 1.5 0 1.5-.1 6.8-.1 11.7-.1 5.8.3 9.4 1.1 10.4 1.1 1.3 1 1.5-.6.9-1.4-.6-1.7-.4-1.2.8.3.8.1 1.5-.4 1.5-.6 0-1 .5-1 1.1 0 .6.7.9 1.5.5 1-.4 1.5.1 1.5 1.4 0 1.1-.6 2-1.2 2-.9 0-.9.3.1.9 1.2.8 1.2 1.3.3 2.4-.9 1.1-1 2.2-.2 4.3.8 1.9.8 3 .1 3.2-.7.2-.7 1.2 0 2.9.5 1.4.7 3.4.4 4.4-.4 1.1-.2 1.9.5 1.9.6 0 .8.5.4 1.2-1.4 2.2-1.1 5.9.5 5.3 1.1-.4 1.2-.3.1 1-1 1.1-1 1.8-.1 2.9.9 1 .9 1.6.1 2.1-.6.4-1.1 2.5-1.1 4.8v6.2c0 1.1.1 4.7.2 8.1.1 3.4-.1 6.6-.4 7.1-.4.6-.1 1.3.7 1.6 1.4.6 1.6 6.1.2 7.4-1.1 1.2-.6 2.3 1.2 2.3 1.5.1 1.6.2.1 1.3-1.2.9-1.4 1.6-.5 2.9.8 1.4.6 2.1-.9 3.2-1.1.9-1.4 1.6-.7 1.6.6 0 1.2.9 1.2 2s.5 2 1.1 2c.5 0 .7.5.3 1.1-.3.6 0 1.5.7 2 1.1.7 1 .9-.3.9-2.1 0-2.1.1-.8 3.4.7 2.1.6 2.6-.5 2.6-.8 0-1.5.4-1.5 1 0 .5.7 1 1.5 1 1.6 0 1.9 1.4 1.6 7.3-.2 3.2 0 3.6 1.6 3.1 1.4-.5 1.5-.4.4.4-.8.6-1.1 1.7-.8 2.5.3.8 0 2.6-.8 4-.8 1.6-.9 2.9-.3 3.5.6.6.5 2.5-.2 5.3s-.8 5.3-.2 6.9c.6 1.6.5 3.1-.1 4.1-.7 1.1-.7 3.3 0 6.6.8 4.4.7 5.4-1 7.7-1.9 2.6-1.9 2.7-.1 4 1.5 1.1 1.6 1.7.6 2.8-.6.8-.9 1.8-.5 2.2.4.3.8 1.2.9 1.9.2.7.6 2.3 1 3.6.6 2.1.5 2.3-1.2 1.8-1.8-.7-1.8-.6.1 1 1.3 1.2 2 3.1 2.1 5.8.1 2.2.2 5.1.2 6.5.1 1.4 0 5.1-.1 8.2-.2 5.2-.4 5.7-2.2 5.2-1.5-.4-1.6-.3-.6.4 1.7 1.2 2.3 6.4.9 7.3-.8.5-.8 1.6.1 3.8 1.1 2.6 1.1 3.3-.4 4.7-1.5 1.5-1.5 1.9-.3 2.8 1 .8 1.4 3.6 1.3 10.1 0 4.9.4 9.3.9 9.6.4.4.3 1.6-.3 2.7-.8 1.4-.8 2.3-.1 2.7.8.5.8 1.1 0 2-.7.9-.8 1.5-.1 1.9 1 .7.8 5.7-.4 7.6-.4.6-.2 1.7.4 2.4.7.8.9 2.8.6 4.6-.3 1.8-.1 3.8.5 4.5.8 1 .7 1.6-.6 2.3-1.6.9-1.5 1.2.5 4 2 2.9 2 3.1.4 4.1-1.2.7-1.4 1.3-.7 1.8 1.8 1.3 2.4 4.3 1.4 6.4-.7 1.3-.7 2.5 0 3.8.7 1.4.7 2-.2 2.3-.6.2-1.2 2.1-1.3 4.2-.2 2.9.1 3.6 1.3 3.1 1.2-.4 1.2-.1-.2 1.9-1.4 2.3-1.4 2.6 0 4 1.4 1.5 1.4 1.6 0 1.6-2 0-2 1.4 0 3.4 1 1.1 1.1 1.6.3 1.6-.7 0-.9.3-.6.6.3.4.2 1.6-.4 2.7-.6 1-.7 1.7-.2 1.4.5-.3 1.5-.2 2.3.4 1 .6 1.1.9.3.9-.7 0-1.2.6-1 1.2.1.7-.4 1.2-1 1.1-.7-.2-1.3.4-1.3 1.3 0 .8.4 1.3.9.9.5-.3 1.3 0 1.7.6.3.6 0 1.5-.7 2-1.1.7-1.1.9-.1.9 1.3 0 1.1 1.3-.6 5.9-.3.8-.1 1.2.5.8 1.2-.7 1.1 4.9-.1 7.5-.5 1-.5 2.6-.1 3.5 1.3 3.4 1.6 7 .6 9.6-.8 2-.7 2.6.2 2.4.8-.1 1.1.8.9 2.5-.1 1.6.2 2.8.8 2.8.5 0 1 .7 1 1.6 0 .9-.6 1.4-1.4 1.1-1-.4-1.3.7-1.1 5.1.1 3.2.6 5.7 1.3 6 .7.2 1.2.8 1.2 1.4 0 .6-.6.8-1.3.5-.9-.3-1.2 1.1-1.2 5.3 0 3.2.3 5.6.7 5.4 1.3-.8.9.5-.8 3.1-1.1 1.6-1.2 2.5-.5 2.5.6 0 1.4-.7 1.7-1.5.4-.8 1.1-1.5 1.7-1.5.5 0 .3.8-.5 1.7-1.7 2-2.4 10.8-.8 9.8 1.3-.8 1.3.8-.1 2.2-.8.8-.7 1.6.2 3.1 1 1.6 1 2.4.1 3.5s-1 2.2-.2 4.1c.8 2.1.6 3.3-.6 5.1-1.3 2-1.4 2.5-.3 2.5.9 0 1 .3.3.8-1.1.7-1.2 9.7-.1 10.8.4.4.2 1.5-.4 2.5-.6 1.3-.6 2.5.1 3.8.7 1.4.6 2.1-.2 2.3-1 .4-1 1.1 0 3.3 1 2.2 1 3 .1 3.6-1 .6-1 1.1-.1 2.1.7.8.7 1.9.2 2.8-.5.9-.5 1.9.2 2.7.7.9.7 1.3-.1 1.3-.6 0-1.1.9-1.1 2.1 0 1.1.5 1.7 1 1.4.5-.3 1-.1 1 .4 0 .6-.4 1.1-.9 1.1-1 0-.8 5.7.5 20.5.4 4.9.7 11.4.7 14.2 0 3.3.4 5.3 1.1 5.3.6 0 .3.5-.6 1.1-1 .5-1.8 2.1-1.8 3.5s.4 2.2 1 1.9c.5-.3 1 .1 1 .9 0 .9-.5 1.6-1.2 1.6-.6 0-.9.3-.6.6.4.3.2 1.9-.2 3.5-.5 1.8-.5 4.1 0 5.5.5 1.3.6 2.4.1 2.4s-1.1 1.1-1.3 2.5c-.3 1.3-.2 2.2.2 2 1.1-.7 1.6 1.4 1.4 5.5-.3 5.8-.4 6.1-1.4 5.5-1.4-.9-1.3.8.2 2.3.8.8.8 1.5-.1 2.6-.9 1-.9 1.6-.1 2.1s.8 1.1-.1 2.1c-.6.8-.8 1.4-.4 1.4s.2.7-.5 1.5c-1 1.2-.9 1.5.5 1.5s1.5.3.5 1.5c-.7.8-1.6 1.2-2.1.9-.5-.3-.6.2-.3 1.1.4.9 1.2 1.4 1.8 1.2.8-.3 1 .8.8 3.4-.3 2.5-.9 3.9-1.8 3.9-.8 0-1.4.4-1.4 1 0 .5.7 1 1.6 1 1 0 1.4.6 1.1 1.4-.3.7 0 1.9.6 2.5.8.8.7 1.1-.4 1.1-.9 0-1.6.7-1.6 1.5s.4 1.5.9 1.5.6 1.6.2 3.5c-.4 2.4-.2 3.5.6 3.5.7 0 .4 1.1-.8 2.7-1.5 2.2-1.7 3.4-1 5.3.5 1.4.7 3.5.5 4.7-.3 1.8.1 2.3 1.7 2.4 1.7.1 1.8.2.4.6-2.1.5-2.3 1.4-.5 3.2 1 1.1.8 1.3-1.1.8-1.9-.4-2.2-.2-1.7 1.3.3 1.1 0 2-1 2.4-1.4.5-1.4.9-.1 4.1.9 2 1.3 4.2 1 4.9-.3.7.2 2 1.1 2.9.9 1 1.1 1.8.5 2.2-1.6 1-1.1 2.8.6 2.1 1.2-.5 1.4-.1.8 1.7-.4 1.2-1.2 2.5-1.8 2.9-.8.6-.8.8 0 .8 2 0 2.6 3.3.9 4.2-1.2.7-1.3 1.4-.5 2.9.8 1.4.7 1.9-.2 1.9-1 0-1 .2.1.9.9.6 1.2 1.8.7 3.7-.5 2.1-.4 2.5.4 1.4 1.3-2 1.3-.4 0 2.1-.8 1.4-.7 1.9.2 1.9.9 0 .9.3-.2 1.1-1.1.7-1.2 1.2-.3 1.5.7.3.9 1.8.6 4.1-.4 2.6-.3 3.4.5 2.9.8-.4 1-.2.6.8-.3.8-1.2 1.7-2 2-.8.3-1.4 1-1.4 1.5 0 .6.6.8 1.3.5.8-.3 2 .2 2.7 1.1 1.1 1.3.9 1.5-.9 1.5-1.1 0-2.1.4-2.1 1 0 .5.5 1 1 1 .6 0 1 .5 1 1.1 0 .5-.4.8-.9.4-2.2-1.3-1.9 1.6.4 3.9 1.3 1.3 2 2.6 1.4 2.8-.6.2-1.1 2-1.2 4-.1 2.5-.6 3.9-1.6 4.1-1.4.4-1.4.5 0 .6 1.2.1 1.6 1.1 1.6 4.1 0 2.2-.4 4-.8 4-1.6 0-1 1.8 1.7 5 2.5 2.9 2.5 3.2 1 4.9-1.9 2.1-2.1 4.8-.3 5.4.9.3.9.7 0 1.7-1.5 1.6-.6 4 1.6 4 1.4 0 1.4.2.1 1.1-1.1.8-1.2 1.2-.2 1.6 1.8.7 1.4 2.4-.5 2.1-1.3-.2-1.7.3-1.5 1.7.2 1.1.8 2.1 1.3 2.3.5.2.2 1-.6 1.9-2.1 2.1-1.9 3.3.8 3.4 1.2 0 1.6.3.9.6-.6.2-1.2 1.1-1.2 1.9 0 .8-.4 1.4-1 1.4-1.4 0-1.2 2.8.3 3.3.9.3.9.8-.2 2.1-2.2 2.6-2.6 12-.6 14 .9.9 1.3 1.6.9 1.6s.1.6 1.1 1.4c1.1.7 1.6 2 1.2 2.9-.3.9 0 1.8.9 2.1.8.3 1.4 1 1.4 1.5 0 .6-.7.8-1.6.4-1.2-.4-1.5-.2-1.2.8.3.8 1.5 1.4 2.7 1.3 2.6-.1 2.7.5.4 2.2-1.7 1.3-1.7 1.5 0 2.8 1.7 1.3 1.7 1.5.1 3.1-1.5 1.4-1.5 1.8-.3 2.6 1.1.8 1 1-.6.8-3.4-.2-3.5 0-1.4 3.7 2.2 4 1.9 5.5-.7 3.3-1.5-1.2-1.6-1.1-1 .9.4 1.3.3 2.2-.3 2.2-.5 0-1.2.9-1.6 1.9-.4 1.4-1.2 1.8-2.3 1.4-1.4-.5-1.5-.3-.4.8 1.9 2 1.4 3.1-.9 2.4-1.6-.5-1.9-.4-1.4.5.6.9.4 1.1-.6.5-.7-.5-2.6-.8-4.1-.7-2 .2-2.8-.2-2.8-1.4 0-1-.5-1.4-1.5-1-.8.3-1.5.1-1.5-.4s-.8-.6-1.7-.3c-1.3.5-1.5.3-.8-1.3 1.7-4.2 1.7-6.5-.1-8.5-1.1-1.2-1.8-2.3-1.6-2.5.8-1.3 0-1.6-.9-.4-.8 1.2-.9 1.1-.4-.6.3-1.2.1-3.4-.5-5-.9-2.2-.8-2.9.4-3.6 2-1.1.8-4.6-1.8-5.1l-2.1-.4 2.2-.8c2.8-.9 3-3.1.3-4-1.6-.5-1.8-1-1-2.5 1.6-3.1 1.3-4.2-.9-3-3.1 1.6-3.2 1.2-1-2.6 1.6-3 1.8-3.9.7-4.5-.7-.5-1.7-.9-2.2-.9-.4 0-.5-1.1-.2-2.4.4-1.6.1-2.6-.9-3-2.1-.8-1.9-2.6.4-2.6 2.7 0 2.1-3-1.1-5.8-1.7-1.4-2.5-2.9-2.1-3.8.3-.9 0-2-.8-2.5-1.1-.6-.8-.9.9-.9 1.2 0 2.2-.5 2.2-1.1 0-.6-.7-.8-1.7-.5-1.6.6-1.6.5-.1-1.1 2-2.2.5-4.9-3-5.5-1.3-.1-2.2-.8-2.1-1.3 0-.6.5-.9.9-.8.5.2 1.2-.6 1.5-1.7.4-1.1 1.5-2 2.6-2s1.7.4 1.4 1c-.3.5-.2 1 .4 1 .5 0 1.2-.4 1.6-.9.7-1.3-3.2-3.4-4.6-2.5-.6.3-1.9-.2-3-1.2-2.4-2.2-2.9-1.7-3.1 3-.1 3.1-.4 3.7-2 3.3-2.2-.6-2.3.6-.2 2.7.8.9 1.4 2.6 1.3 3.9-.2 1.2 0 2.8.4 3.5.5.7.2 1.4-.7 1.8-.9.3-1.6 1.2-1.6 2 0 .7.6 1.1 1.3.8 1-.4 1.2.3.9 2.6-.3 2.5-.7 2.8-1.8 1.9-1.9-1.6-1.7.1.3 2.3 1.5 1.7 1.5 1.9-.3 4-1 1.2-1.3 1.8-.7 1.4 1.3-.7 1.7.9 1.3 4.8-.1 1 .4 2.2 1.1 2.7.9.5 1 1.1.3 2.1-.6.7-.9 2.8-.7 4.6.2 2.1-.3 4-1.3 5-1.5 1.4-1.5 1.7 0 2.7 1.2.9 1.3 1.4.4 2.3-.9.9-.9 1.2.2 1.2 1 0 .8.4-.5 1.4-1.1.7-1.6 2-1.2 2.9.3.9-.1 1.8-1.1 2.2-1.6.6-1.6.7.1 1.6 2.8 1.6 2 2.9-2 3-3.4.1-3.5.2-1.3.9 1.7.5 1.9.8.8.9-1.3.1-1.8.9-1.8 3.1 0 1.6-.4 3-.9 3s-1.6.3-2.5.6c-1.2.5-1.6 0-1.6-2 0-1.5-.7-2.9-1.6-3.3-.8-.3-1.3-1.2-1-1.9.3-.9 0-1.1-1.1-.7-1.2.5-1.5.2-1.1-.8.3-.8 0-2.3-.8-3.3-.8-1.1-1.1-3-.7-4.9.4-2 .3-2.8-.4-2.4-1.5 1-2.6-4.2-1.3-5.8.8-1 .7-1.7-.3-2.7-1.2-1-1.2-1.6-.1-3.3.7-1.1 1.4-2.9 1.5-4 .4-2.7-1.1-8.7-2.5-10.4-.8-1.1-.8-1.5.2-1.8 1.8-.7 1.5-2.3-.5-2.4-1.2-.1-.9-.4.7-.9 2.2-.6 2.3-.8.8-1.5-1-.4-1.8-1.5-1.8-2.5s-.7-2-1.5-2.4c-.8-.3-1.5-1.3-1.5-2.2 0-1.2.3-1.4 1.3-.6.7.6 1.7.8 2.3.4 1.2-.8 1.3-9.1.1-11-.6-.8-.2-1.2 1.3-1.2 2.7 0 2.2-2.1-.9-3.6-1.6-.8-1.8-1.3-.8-1.7.9-.3 1.2-1.5.9-3.6-.2-1.7 0-3.1.4-3.1 1.1 0 1.1-8 .1-9.8-.6-.8-.2-1.2 1.2-1.2s1.9-.5 1.5-1.5c-.5-1.2-.9-1.3-2-.4-1.2 1-1.3.9-.8-.5.7-1.8 2-2.1 2.9-.5.5.7 1.5.5 3.2-.6 1.3-.9 3.2-1.4 4-1.1 1 .4 2.2-.2 3-1.4 1.4-2 1.6-2 2.8-.4 1.2 1.8 5 3 3.9 1.3-.3-.5.6-.9 2-.9s2.6-.5 2.6-1c0-1.7 2.8-1.1 3.9.7.9 1.6 1.2 1.6 2.1.3.9-1.3 1.1-1.3 2 0 1.4 2.1 1.2.3-.2-2.3-1-2-1-2.1.5-.8 1.3 1 1.7 1 1.7.1 0-.7.7-1 1.6-.6 1.3.5 1.5.1 1-1.8-.4-1.8-.1-2.9 1.4-3.9 1.8-1.2 1.8-1.5.4-3.5-.8-1.2-1.2-2.2-.8-2.2.4 0 0-.8-.9-1.8-1.3-1.5-1.4-2.1-.4-3.2 1-1 .9-1.2-.5-.7-2.3.8-2.3.1.1-3 1.1-1.3 1.7-3.1 1.4-3.9-.3-.9 0-2.6.7-3.9.8-1.4.9-3.1.5-4.2-.8-1.6-.9-1.6-1.2.4-.3 1.3-.8 2.3-1.3 2.3-.4 0-.3-1.6.3-3.5 1.1-3.8 2.3-4.5 3-1.8.2 1 .4.2.3-1.7 0-1.9-.5-3.8-1.1-4.2-.6-.4-.3-1.9.8-3.8 1.6-2.7 1.6-3.1.3-3.6-2.2-.8-2-3.4.2-3.4 2 0 2.6-3 .8-4.2-.7-.5-.3-.8.8-.8 1.8 0 1.8-.1.3-1.8-1-1-1.4-2.2-1-2.6.5-.4 0-1.3-.9-2-1.6-1.2-1.6-1.4.2-3.4 1.3-1.3 1.7-2.7 1.3-3.9-.6-1.5-.9-1.3-1.9 1.2-.7 1.7-1.3 2.3-1.4 1.5 0-.8-.3-2.6-.7-3.9-.4-1.7-.3-2.2.5-1.7.7.4 1.2.3 1.2-.3 0-.5-.4-1.1-1-1.3-.6-.2-.4-2.3.4-5.6 1.2-4.3 1.2-5.2.1-5.2-.8 0-1.6 1-1.8 2.2-.3 1.4-.5.9-.6-1.5-.1-3.1.2-3.7 1.9-3.7 1.1 0 2-.5 2-1 0-.6-.5-1-1.1-1-.5 0-.7-.5-.4-1 .3-.6.1-1-.5-1s-.8-.5-.5-1c.3-.6 0-1-.7-1.1-.7 0-.4-.4.7-.9s1.4-.9.7-.9c-.7-.1-1-.6-.7-1.1.3-.6-.1-1-.9-1-.9 0-1.6-.5-1.6-1.1 0-.6.9-.8 2.1-.4 2.1.7 2.1.7.1-1.3-1.6-1.6-2-3.2-1.8-9 .1-5.2-.1-6.8-1-6.2-.6.6-1.4.7-1.7.3-1.2-1.1-.8-2.3.8-2.3s1.6-.1 2-3.6c.2-1.7-.2-2-1.9-1.6-2 .4-2 .4-.4-1.3 1.3-1.4 1.4-2.4.7-4.3-.5-1.3-.7-3.3-.4-4.2.3-1 .1-2.2-.6-2.5-.7-.5-.7-1-.2-1.4.6-.3 1.3-2.3 1.7-4.4.6-3.4.5-3.9-1.3-4.4-1.2-.3-2.1-1.2-2.1-2 0-1.3.3-1.3 1.5-.3 1.3 1.1 1.8 1.1 2.8 0 .8-.8.8-1.1.1-.7-.7.4-1.9-.4-2.8-1.7-1.4-2.2-1.4-2.5-.1-2.8 1.3-.2 1.2-.9-.5-4.1-2.1-3.8-1.7-5.1.6-2 .7 1 1.5 1.5 1.8 1.2.4-.3-.3-1.7-1.4-3.2-2.2-2.7-2.6-4.7-1-4.7.6 0 1-1.1 1-2.5 0-1.6-.6-2.5-1.5-2.5-1.9 0-1.9-2 0-4.7 1.5-2.2.5-4.1-1.5-2.8-.5.3-1 .2-1-.4 0-.5.4-1.2.8-1.5.5-.3.9-2.2 1-4.3.1-2.1.6-3.9 1.2-4.1.6-.2.8-.7.5-1.2-.3-.5-.1-1.9.4-3.2.7-1.9.5-2.7-1-3.6-1.7-1.1-1.8-1.5-.5-3.5 1.9-3 2.8-10.7 1.3-10.7-.7 0-.3-.7.8-1.6 1.3-1 1.6-1.7.9-2.2-1.1-.7-3.4-4.6-3.4-5.8 0-.3.7-.1 1.5.6 2 1.7 2-.4 0-2.4-1.3-1.2-1.4-2-.4-3.7.9-1.8.8-2.4-.5-3.1-1.1-.6-1.4-1.4-.7-2.5.4-.9.6-2.4.4-3.3-.3-1 0-2.1.6-2.5.8-.4.3-1.3-1.1-2.5-2.3-1.9-2.3-1.9-.3-3.4 2-1.6 2-1.6-.2-2.2-2.4-.7-3-1.9-1.3-2.9.6-.3 1-.2 1 .4 0 .6.7.8 1.5.5 1.7-.7 2.1-3.4.5-3.4-.5 0-1-.7-1-1.5s-.5-1.5-1.1-1.5c-.5 0-.7-.5-.4-1 .4-.6 1-.8 1.5-.5.5.3.4-1.1-.2-3.1-.7-2.7-.7-3.9.2-4.4.8-.5.7-.9-.3-1.3s-1.3-1.3-1-2.7c.4-1.5.9-1.8 1.6-1.1.6.6 1.6 1.1 2.2 1.1.5-.1 0-.9-1.3-2-1.9-1.6-2.1-2.3-1.2-4 .8-1.5.8-2.5.1-3.4-.7-.9-.7-1.6.1-2.4.9-.9.9-1.2-.1-1.2-.8 0-1-.7-.6-2.2.6-1.6.4-2-.8-1.5-1.1.4-1.4.2-1.1-.7.3-.8 1.4-1.2 2.5-.9 1 .3 1.9 0 1.9-.6s-.9-1.1-1.9-1.1c-3 0-3.4-2.8-.6-4.6 2.4-1.6 2.4-3.3.1-6.4-1.9-2.5-1.8-6.6.1-8.6 1.6-1.5 1.6-1.7.1-1.2-1.8.7-3.4-1.7-1.7-2.8.6-.3.8-1.2.5-2-.3-.8.1-1.7.9-2 .8-.4 1.5-1 1.5-1.5 0-.4-.6-.6-1.4-.3-.8.3-1.7.1-2-.4-.3-.6.1-1.2.9-1.6 1.5-.5 1.5-4.3 0-8-.5-1.1-.3-2.1.5-2.6.7-.4 1-1.7.8-2.8-.4-1.3 0-2.3 1.1-2.8 1.3-.5 1.2-.8-.8-1.3-3-.8-4-3.1-1.4-3.2 1 0 1.3-.3.6-.6-.7-.2-1.3-1.4-1.3-2.5 0-1.8-.2-1.9-1.7-.7-1.4 1.2-1.4.9.3-2.1 1-1.9 2.4-3.8 2.9-4.2.6-.5.4-.8-.5-.8-1.1 0-1.1-.3-.2-1.2 1.7-1.7 1.5-2.6-.5-3-1.5-.3-1.5-.4.1-2.1 1-1 1.5-2.4 1.2-3.2-.3-.8-.1-1.7.4-2 2-1.2 1-3.5-1.4-3.5s-2.4-.1-1-3c.9-1.6 1.3-3.4.9-4-.3-.5-.1-1 .5-1 .8 0 .8-.6 0-2-.7-1.4-.7-2 0-2 .5 0 1-.5 1-1 0-.6-.8-1-1.8-1-1.3 0-1.8-.6-1.6-2.3.1-1.2.3-2.6.3-3 .1-.5.6-.5 1.2-.2.6.4.8 1.3.5 2.1-.3.8-.1 1.4.4 1.4s.8-1.4.8-3c-.1-2.2-.5-2.9-1.5-2.6-.7.3-1.3-.1-1.3-1 0-.8.4-1.2 1-.9.6.3 1-.1 1-.9 0-.9.5-1.6 1.1-1.6.8 0 .8-.4 0-1.3-1.3-1.6-.6-7.7 1-8.7.6-.4.9-1.2.5-1.8-1-1.6-1.6-10.2-.7-10.2.4 0 .8-1.6.9-3.5.1-2-.3-3.3-.8-3-.5.3-1.1.1-1.5-.5-.3-.5.2-1 1.2-1 1.4 0 1.5-.2.4-.9-.8-.5-1.1-1.6-.6-3 .4-1.3.1-2.8-.5-3.6-1-1.2-.9-1.5.6-1.5 1.4 0 1.5-.3.6-.8-.7-.5-1-1.6-.6-2.5.3-.9.2-1.7-.4-1.7-.5 0-1.3-.7-1.6-1.6-.4-1.2-.2-1.5.9-1 1.8.7 2-.5.3-2.2-1.5-1.5-.3-1.6 2.2-.2 1.6.8 1.8.8 1.4-.5-.4-.8-1-1.5-1.5-1.5s-.9-.7-.9-1.6c0-1 .5-1.4 1.6-1 1.9.7.8-1.4-1.8-3.2-2.1-1.5-2.4-3.7-.4-2.9 1.6.6 2.1-4.9.5-5.9-.6-.4-.6-1.1.1-1.9.8-1 .7-1.6-.7-2.3-1.6-.9-1.5-1.1 1-1.7 1.9-.5 2.5-1.1 1.9-1.7-.6-.6-.8-1.7-.5-2.6.4-1 .2-1.3-.5-.8-.8.5-1.2 0-1.2-1.4 0-1.1.7-2.3 1.5-2.6.8-.4 1.5-1.1 1.5-1.6 0-.6-.6-.6-1.4.1-1.1.9-1.6.9-2.2 0-.4-.7-.2-1.5.4-1.7 1.4-.4 1.6-3.2.3-3.2-.6 0-.9-.9-.8-1.9 0-1.1.4-1.8.8-1.5.4.2 1.1-.1 1.4-.7.4-.6-.2-1.3-1.4-1.6-1.5-.4-2-1.1-1.6-2.3 1.8-5.7 2-7.9.9-10.4-.4-1.1-.4-1.7.2-1.4.5.4 1-2 1.2-5.3.2-5.1 0-5.9-1.5-5.9-1.7-.1-1.7-.1-.1-1.1 1-.5 1.5-1.6 1.2-2.4-.4-.8-.1-1.5.5-1.5.8 0 .9-.5.1-1.9-.7-1.4-.7-2.2 0-2.6.6-.4.7-1.1.3-1.8-.3-.6-.7-2.7-.7-4.6-.1-2.3-.5-3.5-1.4-3.4-1.8.4-1.5-1.4.6-2.6 1.4-.9 1.5-1.2.3-2-.7-.5-1.1-1.3-.8-1.8.4-.6 0-1.9-.8-2.9-1.7-2.2-2-6.4-.5-6.4.6 0 1-.9 1-2s.5-2 1.2-2c.6 0 .1-.9-1.2-2s-2-2.3-1.5-2.8c.4-.4 1-.1 1.2.5.3.7.9 1.3 1.4 1.3 1.4 0 1.1-2.8-.4-3.3-.9-.3-.9-1.1 0-3.6.6-1.7.8-2.9.3-2.6-1.1.7-2.1-2.2-1.4-4 .4-.8.1-2.1-.5-2.9-.9-1.1-.7-1.5.9-1.9 1.1-.3 2-1.1 1.9-1.9 0-1-.2-1-.6-.1-1.1 2.9-2.3 1-1.8-3 .3-2.3.2-3.6-.1-2.9-.9 1.9-2.3.5-1.7-1.8.3-1.1 1.2-2 1.9-2 .8 0 1.4-.7 1.4-1.5 0-1.7-1.6-2.1-2.2-.5-.2.6-.8.6-1.8-.1-1.3-.8-1.3-1.1.3-2 2-1.2 2.3-4.5.5-5.2-.7-.2-1-.7-.6-1.1.3-.4 1.7-.2 3 .5 2.2 1.2 2.3 1.1.5-.8-.9-1.1-1.5-2.7-1.2-3.6.4-.8.2-1.8-.4-2.2-.6-.3-1.1-1.4-1-2.3 0-1.4.2-1.4.8.2.5 1.3 1 1.6 1.5.8.4-.6.2-2-.4-3.1-1.4-2.7-1.3-3.1.7-3.1 1.3 0 1.4-.3.5-1.2-1.6-1.6-1.5-2.8.3-2.8 1.9 0 1.9-.9 0-3.4-1.2-1.6-1.2-2.2-.2-2.9.9-.7.9-1 0-1.4-1.8-.7-1.6-2.3.3-2.3 1.4 0 1.4-.3.4-1.5-.9-1.1-.9-1.5-.1-1.5s.7-1-.3-3.4c-1.2-3-1.2-3.6.2-5 1.5-1.5 1.5-1.6-.1-1.6-.9 0-1.7-.5-1.7-1 0-.6.9-1 2.1-1 1.5 0 1.9-.4 1.5-1.6-.3-.9-.6-1.8-.6-2 0-.2-.7-.4-1.5-.4-1.9 0-1.9-.9-.1-2.4.9-.7 1.2-2.2.9-4.4-.5-3-.6-3.1-2-1.5-1.4 1.7-1.4 1.7-.7-.2.4-1.1.8-3.5.8-5.3 0-2.2.4-3.2 1.5-3.2 1.3-.1 1.2-.4-.4-1.6-2-1.4-1.9-1.5.2-2 2.1-.6 2.1-.8.7-3-.9-1.3-1.2-2.9-.8-3.6 1.2-1.9 1.4-16.6.4-19.4-.5-1.3-.6-2.4-.1-2.4s.7-2.3.6-5c-.2-4.1 0-4.8 1.1-3.9 1.1.9 1.1.5.5-1.9-.6-2-.5-3.4.2-4.1.9-.9.6-1.3-1.1-1.7-2.4-.7-3.1-2.4-.9-2.4.7 0 1.4-1 1.4-2.2.2-1.6 0-1.9-.6-.9-.5.8-1.1.9-1.5.3-.8-1.3.4-4.3 1.5-3.7.4.3.2-1.4-.5-3.9-.8-2.5-1.2-4.7-1-4.9.2-.2-.6-1.2-1.7-2.3-1.6-1.4-2.3-1.5-2.6-.7-.3.7-1.1 1.3-1.9 1.3-1.6 0-1.9 1.6-.5 2.4.5.3 1.2-.2 1.5-1.1.6-1.5.8-1.5 2.2-.2 1.1 1.2 1.3 2.2.5 4.2-1 2.7-4.3 3.9-3.8 1.4.1-.6-.5-1.3-1.3-1.3-.8-.1-1.9-.2-2.5-.3-.5 0-.4-.6.3-1.3 1.5-1.5 1.6-3.2.2-2.3-.5.3-1 0-1-.7s-.3-2.4-.7-3.7c-.5-2-.3-2.2 1.6-1.6 1.2.4 2.1.2 2.1-.4 0-.6-.5-1.1-1.1-1.1-.6 0-.8-.9-.4-2 .4-1.2.2-2-.5-2-.6 0-.9.4-.6.9.5.7-1.4 2.1-2.8 2.1-.1 0-.1-1.8-.1-4.1 0-2.2.1-3.6.3-3 .6 1.9 1.7 1.2 1.8-1.3.1-1.6-.3-2.3-1.1-2-.7.3-1.5-.4-1.8-1.5-.3-1.2-.1-1.9.4-1.5.5.3.9-.2.9-1.1 0-.8-.7-1.8-1.5-2.1-.8-.4-1.3-1-1-1.4.3-.4-.4-1-1.6-1.3-1.6-.4-1.8-1.1-1.3-3.1.4-1.6.2-2.6-.5-2.6-1.7 0-1.4-6.7.4-7.4.8-.3 1.5-1.2 1.5-2s.6-1.7 1.2-1.9c.8-.3.6-.6-.4-.6-1-.1-1.8-.8-1.8-1.7 0-1 .6-1.4 1.4-1.1.9.4 1.6-.3 2-1.6.7-2.7 0-3.3-1.9-1.7-1.2 1-1.5 1-1.5-.3 0-.8.7-1.7 1.5-2.1.8-.3 1.5-1.2 1.5-2 0-1-.6-1.3-1.5-1-1 .4-1.5 0-1.5-1.1s.5-1.5 1.5-1.2c1.1.5 1.2.1.5-1.9-1.4-3.5-1.2-4.4.5-4.4.8 0 1.5-.5 1.5-1 0-.6-.4-1-.9-1s-1.1-.9-1.4-2c-.3-1.2-.1-1.7.5-1.4.5.3 1.2-.3 1.5-1.5.3-1.2 1-2.1 1.5-2.1s.6-.5.3-1c-.3-.6.4-1 1.5-1 1.5 0 2-.5 1.6-1.5-.3-.8.2-1.9 1.2-2.4 2.3-1.4.6-1.4-2 0-1.4.8-2.3.8-3.1 0-.8-.8-.8-1.1.1-1.1.6 0 1.1-1.1 1-2.5-.1-1.4-.6-2.5-1-2.5s-.8-.7-.8-1.5.5-1.5 1.1-1.5c.5 0 .7-.5.4-1-.4-.6-1.1-.7-1.7-.4-.6.4-.8-.1-.3-1.5l.6-2.1h-394.9l.4 14.2c.2 7.9.5 16.4.8 19 .3 2.7 0 5-.6 5.4-.7.4-.6.9.3 1.4 1 .7 1 1.1 0 2.4-1.1 1.3-1.1 1.9-.1 3.1.7.8 1 2.1.7 3-.4.8-.2 1.7.4 2 .5.4.6 1.1.2 1.8-.6 1.1-.6 9.1.3 32.2.3 6 .6 15.8.7 21.7.1 6 .4 10.8.7 10.8.3 0 .5 4.2.4 9.3-.1 5 .3 9.7.8 10.4.5.7.6 1.7.2 2.4-1 1.6-1.2 41.9-.2 42.5.5.3.5 1 .2 1.6-1.3 2.1-.4 56.1.9 57.4.4.4.3 1.2-.3 1.8-.5.7-.6 2.7-.1 4.6.8 4.1.6 13.3-.4 15-.4.6-.2 1.7.4 2.4.6.6 1.2 6 1.3 11.8.2 6 .7 10.4 1.2 10 .5-.3.5.1.1.9-1.3 2.1-1.4 9.9-.1 9.9.6 0 .4.5-.4 1-1.3.8-1.3 1.3.3 4 1.4 2.2 1.5 3 .5 3-.8 0-.6.5.5 1.1.9.5 1.7 1.9 1.7 3 0 1.6 4.1 9 6 10.9.3.3 1.4 2.3 2.5 4.4 1.1 2.2 2.5 4.5 3 5.1 1.7 1.8 3.5 4.8 4.8 7.7.6 1.6 1.7 2.8 2.3 2.8 1.1 0 2.5 3 2.8 6 .1.8.7 1.4 1.4 1.2.9-.1 1 .6.6 2.3-.4 1.5-.2 2.5.5 2.5.6 0 1.1.7 1.1 1.5s.4 1.5.8 1.5c.9 0 3.6 10.6 3 11.4-.2.2.5 1.3 1.5 2.3.9 1.1 1.4 2.3 1.1 2.6-.4.4-.2 1.2.4 1.9 1.7 2.1 4.4 12 4.9 17.8.4 5.6 2.2 11 3.5 11 .4 0 .5.7.2 1.5-.4.8-.2 1.5.3 1.5s.9 1.5 1 3.2c0 1.8.5 4.5 1.1 6.1.6 1.5 1.3 6 1.6 10 .2 3.9.6 8 1 8.9 1.4 4 1.4 4.6.3 5.7-.9.9-.9 1.4.1 2 1 .6 1.2 2.6.9 7.5-.3 3.6-.1 6.8.4 7.1.4.3.4 1.6 0 2.9-1.1 2.6-.1 8.8 1.4 8.6.5-.1 1.1.4 1.4 1.1.2.7-.1.9-.8.5-.6-.4-1.1-.3-1.1.3 0 .5-.3 1.7-.7 2.7-.4 1.2-.3 1.5.5 1s1.2 0 1.2 1.3c0 1-.5 2.1-1.1 2.3-1.6.5-2.2 10.8-.7 10.8.8 0 .7.6-.3 1.5-1.2 1.2-1.4 2.7-.9 6 .4 2.7.3 4.6-.3 4.8-1 .3 1.3 3.7 4.1 6.1.7.6 2.1 1.9 3 2.8.9 1 2.2 1.8 3 1.8.9 0 1.1.7.7 2-.4 1.2-.2 2 .5 2 .6 0 .8-.5.5-1-.4-.7.3-.8 2-.4 1.8.4 3 .2 3.6-.7.7-1.1.9-1.1.9.3 0 .9-.8 1.9-1.7 2.1-1.7.4-1.7.5 0 .6 1.3.1 1.7.6 1.2 2-.4 1.4 0 2.1 1.5 2.6 2.5.8 2.6 2.1 0 3.5-2.4 1.3-2.7 3.2-.4 2.3 1.3-.5 1.5-.2.9 1.5-.5 1.6-.2 2.2.9 2.2.9 0 1.6.4 1.6 1 0 .5-.5 1-1.1 1-.6 0-.8.9-.4 2.1.6 1.8.4 2-1.3 1.5-1.7-.6-2-.1-2.5 3.6-.3 2.4-.2 4.7.4 5.2 1.5 1.6 1.1 7.6-.6 7.6-1.5 0-1.5 1.8 0 5.4.5 1.2.3 2.1-.6 2.7-1.1.6-1.1 1.1-.1 2.1.6.6 1.2.9 1.2.4 0-.4.7-.1 1.5.8 2 1.9 1.9 2.6-.2 2.6-1.7.1-1.7.1 0 1.4.9.7 1.7 2.2 1.7 3.4 0 1.1.5 2.2 1.2 2.4 1 .4 1 1.3.1 4.1-.6 2-.7 3.9-.3 4.2.5.3.7 1.6.5 3-.1 1.4.2 2.8.6 3.1.5.3.5 1.3-.1 2.4-.7 1.3-.6 1.9.6 2.4 1.4.5 1.4.7 0 2.2-2 2-2 2.9 0 4.9.9.9 1.4 1.8 1.1 2.1-.3.3.1 1.7.9 3.2.7 1.4 1 2.9.5 3.2-.5.3-.7 4-.6 8.2.3 5.9 0 7.8-1.1 8.2-.8.3-1.4 1.1-1.4 1.7 0 .8.4.8 1.5-.1 1.2-1 1.5-1 1.5.4 0 .9-.3 1.6-.7 1.6-.5 0-.8 1.4-.7 3.2.1 2.1.7 3.4 2 3.9 1.4.6 1.5.8.3.8-2.1.1-6.8 5.1-4.8 5.1.8 0 1.5.9 1.6 2 .1 1.2-.4 2-1.3 2-.8 0-1.3.4-1 .9.3.5-.1 1.1-.8 1.4-.9.4-1.7-.1-1.9-1.1-.3-1-.5-.7-.5.8 0 1.4-.4 3.6-.8 4.9-.5 1.6-.4 2.2.3 1.8.6-.4 1.4 0 1.7.9 1 2.7.7 3.2-1.6 2.6-2.1-.5-2.2-.4-.9 1.2 1.2 1.4 1.2 1.9.1 2.6-.7.4-1 1.5-.7 2.4.4 1 .1 1.9-.8 2.2-.7.3-1.1 1.2-.8 2 .3.8-.4 2.4-1.6 3.5-1.1 1.1-2.1 2.4-2.1 2.9 0 .6-.6 1-1.4 1-.8 0-2.3 1-3.3 2.2-1 1.4-3 2.4-4.8 2.5-1.6 0-3.1.6-3.3 1.2-.2.6-2.5-1-5.2-3.6-5.8-5.8-6.6-9.9-4.5-22.2 1-5.4 1.2-8.9.5-10-1.5-2.9-2.4-16.7-1.1-17.5 1.5-1 .5-14.7-1.5-20-.8-2.1-1.4-5.8-1.2-8.3.1-2.6-.3-4.8-1-5.2-.9-.5-.8-1.2.3-2.7 1.8-2.4 1.9-3.8.1-3.1-1 .4-1.2 0-.9-1.4.7-2.4 1.2-2.4 2.9-.2 1.3 1.6 1.4 1.6 1.1-.7-.1-1.4-.6-2.8-1.2-3.3-.6-.4 0-1 1.3-1.3 2.6-.7 2.7-1.3.8-3.9-.7-1-1.2-3-1-4.4.2-2-.4-3-2.6-4.3-2.9-1.6-6.5-8.2-5.5-9.9.3-.4-.4-3.4-1.5-6.6-2-5.8-2.7-14.3-1.1-14.3 1.3 0 2-3.7.9-4.8-1.3-1.3 1.2-5.2 3.4-5.2 1 0 1.8-.6 1.8-1.3 0-.7 1.8-2 4-3 2.5-1 4-2.4 4-3.4s.7-2.6 1.5-3.7c.7-1 1.7-4.3 2.1-7.2.4-3.4 1.2-5.8 2.3-6.4 1.1-.6 1.2-1.2.5-1.7-.6-.5-1.8-3.7-2.8-7.3-2.6-9.5-5.6-19-7.2-22.8-.8-1.8-1.2-3.8-.8-4.3.3-.5-.2-2.8-1.1-5.2-.8-2.3-1.7-5.8-2-7.7-.2-1.9-1.4-6.4-2.6-10-4.7-13.6-9.1-25.6-10.4-28.5-3.6-8.3-7.5-18.5-7.5-19.8 0-.9-.4-1.7-.8-1.9-1.1-.4-7.2-11.5-7.2-13 0-.6-.8-2.1-1.8-3.2-2.8-3.2-9.2-14.2-9.2-15.8 0-.8-1.1-2.4-2.5-3.6-1.4-1.2-2.5-2.9-2.5-3.7 0-.8-.4-1.5-1-1.5-.5 0-1-.7-1-1.5 0-2.3-1.5-1.8-3 1-1.9 3.6-4.1 2.8-6.9-2.6l-2.5-4.6 2.2-2.8c3.4-4.3 1.6-4.4-2.2-.2-3.7 4.2-5.1 4.6-5.9 1.7-.3-1.4-1.4-2-3.1-2-1.8 0-4.6-1.8-8.9-5.6-12-10.9-14.3-12.9-17.4-15.4-1.7-1.4-6.9-6.1-11.7-10.4-4.7-4.3-9.8-8.8-11.3-10-1.6-1.2-4.4-3.6-6.3-5.3-1.9-1.8-7.1-5.9-11.5-9.2-4.4-3.3-8.7-6.7-9.6-7.6-.9-.8-2.3-1.5-3.1-1.5-.9 0-2.2-.7-2.9-1.6-2.3-2.7-19.6-14.1-24.9-16.3-1.4-.6-3.2-1.5-4-2.1-.8-.5-2.8-1.6-4.5-2.3-1.6-.8-3.6-2.1-4.4-3-.7-1-2-1.7-2.8-1.7-.7 0-3.7-1.2-6.6-2.7-2.9-1.5-5.6-2.6-6-2.5-.5.1-2.3-.8-4-2-1.7-1.2-3.6-2.3-4.2-2.3-.5 0-3.5-1.2-6.6-2.7-3-1.5-6.4-2.9-7.6-3.1-1.2-.1-2.8-.9-3.6-1.6-2.1-1.6-38.8-14-44.1-14.7-2.3-.4-5-1.2-6.1-1.8-1.1-.7-3.8-1.3-5.9-1.5-2.1-.1-4.8-.6-5.8-1.2-1.1-.6-2.6-.8-3.4-.5-.8.3-4.5-.2-8.2-1-20.3-4.8-55.4-6.4-73.2-3.5-8.4 1.4-11.1 1.7-16.9 2-1.6 0-3.6.7-4.3 1.5-.8.7-4.1 2-7.4 2.7-3.2.7-7 2-8.3 2.8-1.4.9-3.8 1.6-5.4 1.7-1.6.1-3.2.6-3.6 1-1.2 1.7-7.3 4.4-9.8 4.4-1.5 0-2.3.3-2 .7.8.7-7.9 5.3-9.9 5.3-.7 0-1.5.7-1.8 1.6-.3.8-1 1.3-1.5 1-.5-.3-1.4.1-2.1.9-.7.8-1.9 1.5-2.7 1.5-.9 0-3.7 1.6-6.4 3.6s-4.9 3.3-4.9 2.9c0-.3-.6-.1-1.2.5-3.8 3.2-14.4 11-15 11-.5 0-.8-.8-.8-1.7 0-.9.3-1.3.6-1 .9.8 4.4-1.1 4.4-2.4 0-1.9 4.4-6.9 6.1-6.9 1 0 2.4-.6 3.1-1.3.7-.7 2.1-1.6 3-2 1.2-.4 1.5-1.2 1.1-2.3-.4-1.2-.2-1.5.8-1.2.8.3 2.3-.5 3.4-1.8 1.1-1.2 5.3-4 9.4-6.1 12-6.2 12.6-6.6 12.9-7.5.2-.4.8-.8 1.3-.8.6 0 .7.6.4 1.2-.4.7 0 .5.8-.5.8-.9 1.9-1.7 2.5-1.7.6 0 1.7-.7 2.6-1.5.8-.9 2.9-1.7 4.6-1.8 1.8-.1 3.2-.9 3.5-1.9.5-1.2 4.8-3.3 6.2-2.9.2.1 2.1-.7 4.4-1.6 2.2-.9 5.3-1.7 6.7-1.8 1.5-.1 4.3-.9 6.2-1.7 12.3-5.7 18.4-7.3 33-8.9 8.5-.9 12.3-1.8 14.5-3.3 4-2.8 4.2-3.1 3.9-6.9-1-15.7-1.5-39.3-1.9-86.2-.2-30.3-.6-59.7-.8-65.5-.2-5.8-.5-15.6-.6-21.8L1232 0H0v1560zM1091 262.6c0 .9-.9 1.8-2 2.1-1.1.3-1.8.9-1.5 1.3.3.4-1.5 2.6-4 4.9-2.5 2.3-4.5 4.5-4.5 4.9 0 .4-1.6 2.4-3.5 4.4-1.9 2-3.5 4.1-3.5 4.6 0 .4-1.1 1.9-2.5 3.2-1.4 1.3-2.5 2.7-2.5 3.2s-1.1 2.1-2.5 3.6-2.5 3.2-2.5 3.9c0 .7-.6 1.3-1.2 1.3-.7 0-2.9 2.8-4.8 6.1-1.9 3.4-4.3 6.5-5.2 7-1.5.8-1.6.6-.6-2.3.6-1.8 2-4 3-4.9.9-.9 1.5-1.9 1.2-2.2-.4-.3.3-1.9 1.5-3.5 1.2-1.7 2.1-3.3 2.1-3.7 0-.4 1.6-2.6 3.5-4.9 1.9-2.4 3.5-4.8 3.5-5.4 0-.6.9-1.6 2-2.2 1.1-.6 2-1.7 2-2.5s.6-1.5 1.3-1.6c.6 0 3.2-2.5 5.7-5.4 2.5-3 5-5.5 5.7-5.5.6 0 1.3-1 1.5-2.1.2-1.3 1.8-3 3.8-4 4.2-2.3 4-2.3 4-.3zM1426.9 371c1.9.5 3.9.6 4.5.1 1-.7 2.7-.7 8.5 0 .8.1 1.9 1.5 2.5 3.1.7 1.9 1.7 2.8 3.3 2.8 1.3 0 2.3-.5 2.3-1.1 0-.7 1-.9 2.8-.4 1.5.4 3.5.7 4.4.7.9 0 1.9.6 2.2 1.4.3.8.2 1.3-.3 1-1.1-.7-2.6 1.2-3.4 4.1-.3 1.6-.1 2.3.9 2.3.8 0 1.9 1.1 2.4 2.5.6 1.5 1.7 2.4 2.7 2.3h6.4c3.8.2 4.8.6 5.2 2.2.3 1.4 1.4 2 3.1 2 1.4 0 2.6.4 2.6 1 0 2 1.9 1 2.2-1.2.4-2.5 1.7-3.2 3.8-1.8 1.3.9 1.3 1.2-.3 2.1-1.8 1-1.8 1.1 0 3.1 1.3 1.5 1.5 2.2.6 2.5-1.9.7-1.6 5.3.4 6 .9.4 1.9.1 2.1-.5.2-.7 1.2-1.2 2.2-1.2.9 0 2.3-.7 3-1.5.7-.8 1.8-1.5 2.5-1.5.8 0 1.6-.6 1.8-1.3.3-.6.6 0 .6 1.5.1 1.4-.5 2.8-1.1 3.1-1.7.6.8 3.2 4 4.2 2.1.6 2.3.4 1.7-1.4-.9-2.9.4-2.6 4.3.9 1.9 1.8 3.2 3.9 3.2 5.4 0 2.5 2 3.9 4.5 3 .8-.4 1.7.1 2.1.9.3.9 1.9 1.9 3.5 2.2 3.4.8 3.8 2 .9 2.8-2.6.7-2.6 2.4 0 3.2 1.1.4 2.3 2 2.8 3.7.9 3.5 4.1 6.2 4.9 4 .5-1.4 3.3-1.7 3.3-.2 0 .5-.6 1.5-1.4 2.2-1.2 1.1-.9 1.5 1.8 2.8 1.8.9 3.2 2.4 3.4 3.8.2 1.2.8 2.2 1.4 2.2.6 0 .8 1.1.6 2.5-.3 1.3-.1 2.2.3 1.9.9-.5 1.3 1 1 3.5-.2.7.9 3.6 2.2 6.5 3.3 6.9 5.7 14.5 5.7 17.8 0 1.5.4 2.9.9 3.2.5.3 1.4 3.6 2.1 7.3 1.7 10.3 8.6 35.1 10.1 36.7.5.6.9 2 .9 3.2 0 1.3.5 2.6 1 2.9.6.3 1 2 1 3.6 0 1.7.7 4.4 1.6 6.1.9 1.7 1.8 4.5 2 6.2.3 1.7 1.1 4.9 1.9 7.1.8 2.2 1.6 5.9 1.8 8.3.3 2.3.7 4.5 1.1 4.9.3.3.6 4.8.6 9.9 0 5.1.4 9.5.9 9.8 1.1.7.4 15.8-.9 19.8-.5 1.7-.5 3 .1 3.3 1.2.8 1.2 5.2 0 5.9-.5.3-.7 1.4-.4 2.4.2 1-.1 3.1-.8 4.7-1.8 4.5-2 15.3-.3 21 1.3 4.5 1.3 5.1-.2 6.2-1.3 1-1.4 1.5-.5 2.6.9 1.1.8 1.7-.4 2.7-1 .9-1.5.9-1.5.1 0-1.9-1.7-1.2-2.3.9-.3 1.1-.1 1.8.4 1.4.5-.3.9 0 .9.6s1 .9 2.3.8c1.2-.2 2.3.1 2.5.7.1.5-.7 1.1-1.9 1.1-2.1.1-5.8 3.8-5.9 5.8 0 .4 1 .6 2.2.3 1.5-.4 2.9.2 4.6 2l2.5 2.7-2.4 1.9c-1.7 1.3-2 2-1.1 2.6.7.4 1 1.5.7 2.3-.4.9 0 1.8.9 2.1 1.2.5 1.4 1.7.9 5.4-.3 2.6-.7 9.5-.8 15.2-.2 10.6-1.5 14.1-5 14.1-2 0-1.9 1.6.3 3 1.2.8 1.3 1.3.5 1.6-2 .8-1.5 4.2.6 5.6 1.5.9 1.7 1.6 1 3-.6 1.2-.5 2.4.3 3.7 1.5 2.5.4 3.8-1.7 2.1-.9-.7-1.5-.8-1.5-.2 0 .6-.3 1.7-.6 2.6-.5 1.2 0 1.6 1.9 1.6 2 0 2.5.5 2.3 2.5-.1 2.2-.5 2.5-2.8 2-3.4-.8-4.5 1.1-2.2 3.6.9 1 1.5 2 1.3 2.2-3.5 2-5.3 2.7-7.4 2.7-1.8 0-2.5.5-2.5 2 0 1.1-.3 2-.8 2-.4 0-1.3 1.3-2 3-1 2.1-2.1 3-3.8 3-2.6 0-3.3 1.8-.9 2.5 4.8 1.5 4.8 1.6 3.7 2.7-.8.8-1.5.8-2.7-.2-1.2-1-1.8-.8-3.4 1.1-1.1 1.3-2.3 3.6-2.6 5.1-.4 1.6-1.6 3-2.8 3.4-1.2.4-3.9 1.8-6 3.1-2.5 1.6-4.5 2.2-5.9 1.7-1.8-.5-2-.3-1.4 1.9.5 2.1.1 2.7-2.4 3.7-1.7.7-3 1.9-3 2.7 0 .7-1 1.7-2.2 2.2-1.8.7-2.6.4-3.9-1.5-.8-1.3-1.9-2.1-2.2-1.7-1.2 1.1-.8 2.3.9 2.3.9 0 1.4.6 1.1 1.2-.2.7.3 1.8 1.2 2.4 1.3 1 1.1 1.5-1.5 3.7-3.3 3-5.5 3.6-3.2.9 4.2-4.9 1.4-5.1-3.2-.2-1.4 1.4-3 2.5-3.6 2.3-.5-.2-1.5 1-2.1 2.7-.6 1.6-.7 3-.2 3 2.2 0 .6 1.6-2.6 2.6-1.9.6-3.5.9-3.5.7 0-.2 1-1.7 2.1-3.2 2.4-3.3 2.3-6.3-.1-3.9-.8.8-2.3 1.7-3.4 2.1-1.1.4-1.6 1.3-1.2 2.2.4 1.2-.1 1.5-2.3 1.3-2.2-.2-2.7-.6-2.3-2 .2-1 0-1.8-.6-1.8s-1.2 1-1.4 2.2c-.2 1.7-1 2.3-2.8 2.3-1.9 0-2.5.5-2.4 2.2 0 1.3-.5 2.3-1.2 2.3-1 0-1.1-.6-.4-2.5 1.1-2.9-.3-3-3.4-.2-1.1.9-2.8 1.5-3.8 1.1-1.1-.3-1.8 0-1.8.7 0 .8-.6.6-1.8-.4-2.3-2.1-3.9-2.2-2.2-.1 1.1 1.3.8 2-1.8 4.4-1.8 1.6-3.2 3.4-3.2 4.1 0 .6-.6.9-1.3.6-.7-.3-3.3 1.2-5.8 3.4-2.7 2.4-5 3.7-6.1 3.3-.9-.3-2.1.2-2.6 1.2-.6 1.1-1.4 1.4-2.3.8-2.8-1.7-9-1.3-10.7.7-2 2.3-3.2 2.4-3.2.3 0-1-.6-1.4-1.4-1.1-.8.3-1.7-.1-2-1-.6-1.4-1-1.2-3.3.8-1.4 1.3-2.7 1.9-3 1.4-1.3-3.5-2.1-3.9-4.2-2.1-1.5 1.4-2.4 1.5-4 .7-2.5-1.4-2.7-1.4-4.6.5-.9.9-1.3 2.5-1 3.8.2 1.1.2 1.5-.1.8-.7-1.4-4.4-1.6-4.4-.2 0 2-1.9.9-2.2-1.2-.2-1.3-1.5-2.9-3-3.6-1.6-.7-2.8-1.8-2.8-2.5s-.5-.4-1.1.5c-1.4 2.4-2.3 2.3-3.9-.7-1.2-2.2-1.8-2.4-4.7-1.9-2.5.5-3.4.2-3.9-1-.3-.9-1.2-1.6-2-1.6-1.7 0-1.8 1.7-.1 2.3.6.2.8.8.4 1.3-.5.5-1.4.1-2.1-.9-.7-.9-1.8-1.7-2.4-1.7-.6 0-1.2-.3-1.5-.8-.2-.4-.3-.2-.1.5.5 1.9-.8 2.3-3 .8-1.1-.8-2.7-1.5-3.5-1.5-.8 0-2.3-.8-3.3-1.7-1.7-1.5-2-1.5-4.1.7-1.9 2.1-2.2 2.2-2.5.7-.4-1.8-2.2-2.4-2.2-.8 0 1.8-3.7 2.1-6.6.6-1.6-.8-3.5-1.5-4.3-1.5-.8 0-2-.8-2.7-1.8-1.3-1.6-1.5-1.6-2.8 0-.7 1-1.8 1.8-2.5 1.8-1.2 0-1.5-1.3-.4-2.3.3-.4.8-1.9.9-3.3.2-2.1 0-2.3-1.2-1.3-.8.6-1.4 1.8-1.4 2.5 0 2.1-2.1 1.7-2.7-.6-.3-1.1-1.2-2-1.9-2-1.9 0-1.8-2.9.1-3.6.8-.4 2.2-.1 3 .6.9.7 1.8 1.1 2 .8.6-.5-4.7-5.3-5.5-5-.6.3-.5-.7.5-3.6 1-3 2.7-2.8 1.9.3-.5 2.2-.3 2.5 2 2.5s2.6-.3 2-2.6c-.6-2.5-.5-2.6 2.4-2.2 1.7.2 2.9.1 2.7-.3-.3-.4.3-1.3 1.2-2 1.5-1.2 1.6-1.1 1.1.8-.7 2.5-.6 2.6 1.6 1.7.9-.3 1.6-1.2 1.6-2 0-1.9.7-1.8 3.7.6 2 1.6 2.8 1.7 4.4.7 2.8-1.7 2.3-3-.8-2.3-1.6.3-2.2.3-1.5 0 .6-.3 1.2-1 1.2-1.6 0-.6.8-1.7 1.8-2.4 1.6-1.2 1.6-1.4-.3-2.8-1.1-.8-1.5-1.5-1-1.5.6-.1 2.1.8 3.5 1.9 3.4 2.6 4.3 2.5 3.6-.6-.6-2.2-.4-2.5 1.7-2.2 2.9.3 6.7-3.1 6.3-5.7-.2-1.1.2-2.7.9-3.5.7-.8 1.6-2.9 1.9-4.5 1-4.1 5.3-9.5 7.6-9.5 1.3 0 1.7-.5 1.3-1.9-.4-1.5.3-2 4.1-2.5 2.5-.4 4.6-1.2 4.6-1.7 0-.6.9-.7 2-.4 3.1 1 2.3-.9-1.2-3-3.3-2-4.1-2.2-9-3.2-1.6-.3-2.8-1.2-2.8-1.9 0-.8-.3-1.4-.7-1.4-.5 0-1.7-1.4-2.8-3-1.1-1.6-2.6-3-3.2-3-.7 0-1.3-.5-1.3-1 0-1.4-3.8-1.2-4.3.2-.3 1-.9.8-2.4-.5-2.6-2.3-3.7-2.2-5.7.5-1.5 2.2-1.6 2.2-2.9.5-1.5-1.8-6.2-2.3-7.2-.7-.4.7-1.3.7-2.4 0-1-.5-3.6-.8-5.8-.7-2.1 0-5.6-.7-7.7-1.7-2.7-1.3-4.8-1.6-7.8-1.1-2.6.5-3.8.4-3.4-.3.3-.5-.9-2.3-2.8-4-5.3-4.6-5.4-6.6-.6-8.2 2.2-.7 4-1.6 4-2 0-.7 4-1.5 19.9-4 2.9-.5 5.8-1.3 6.4-1.9.6-.6 2.8-1.1 5-1.1 2.1 0 4.8-.5 6-1.2 1.2-.7 4.2-1.3 6.7-1.4 2.5-.2 5.6-.5 7-.7 1.4-.3 2.7-.6 2.9-.6.3-.1 0-.6-.6-1.2-.8-.8-1.7-.7-3.2.2-1.5 1-2.3 1.1-3.2.2-1.6-1.6.7-5.7 2.8-4.9.8.3 2.8.6 4.5.6 2.6 0 3 .3 2.5 2.1-.6 2.4-2.4 2.4 16.3-.2 8.5-1.2 16.9-1.3 21.4-.3 1.7.4 3.6.8 4.1.9 4.8.5 9.2 2.1 10.6 3.8 1.6 2 1.6 2 8-1.2 3.5-1.7 7.8-4.7 9.6-6.6 3.5-3.7 4.3-5.8 1.9-4.9-1.1.4-1.3-.3-.9-3.8.7-5.1 1.2-5.8 3.7-4.9 1.7.7 1.7.8.2 2.3-1.5 1.6-1.4 1.8.6 3.2 3.1 2.2 3.6 2 3-.9-.5-2.7.7-3.2 2.6-1.3.7.7 1.2.8 1.2.3 0-1.5-1.3-3.1-3-3.8-.8-.4.1-.4 2-.1 1.9.4 3.6 1 3.8 1.5.4 1 4.2-1.2 4.2-2.5 0-.4-.7-.3-1.5.4-2.1 1.7-3.2.4-1.7-2 1-1.6 1-2-.1-2-.7 0-1.9.6-2.6 1.2-1.1 1.1-1.3.9-.8-1 .4-1.6.1-2.2-1.3-2.2-1 0-2.3-.7-3-1.5-1-1.3-1-1.9.5-3.5s1.6-2.2.5-3.6c-.8-.8-2.2-1.3-3.2-1.1-1.2.4-1.8 0-1.8-1.3 0-1.2-1-1.9-3-2.2-1.7-.3-3.3-.1-3.6.3-.2.4-1.7.1-3.2-.6-4.3-2.1-6.4-2.1-11.6.3-5.8 2.6-6.6 2.7-6.6.7 0-1.1-.7-1.4-2.4-.9-1.9.4-3-.1-4.7-2-1.4-1.6-3.3-2.6-5-2.6-1.5 0-2.9-.6-3.2-1.3-.4-.9-.7-.9-1.7 0-1.1 1-1 1.4.3 1.9.9.3 1.7 1.4 1.7 2.4 0 2.4 1.6 3.4 2.4 1.5.6-1.6 3.6-2.1 3.6-.5 0 .5-.8 1.3-1.7 1.9-2 1.1-1.7 1.6 1.3 2.5 1.7.5 2.3.1 2.9-1.6l.8-2.3.4 2.2c.2 1.3 1.1 2.3 1.9 2.3.8 0 1.4.4 1.4 1 0 1.4 2.7 1.2 3.3-.3.3-.6.6-.2.6 1 .1 1.4.7 2.3 1.7 2.3.9 0 1.8.9 2.1 2 .3 1.1 1.4 2 2.4 2s3.2 1.3 4.9 3c1.7 1.6 3.4 3 3.9 3s1.4.7 2.1 1.5c.6.8 1.5 1.3 1.8 1.2 1-.3 1.3 1.5.6 3.6-.6 1.8-.7 1.7-2.9-.3-1.3-1.2-2.8-1.9-3.3-1.6-.5.3-2.7.8-4.8 1.1-2.2.2-5.9.9-8.4 1.4-2.8.6-4.9.6-5.6 0-1.5-1.2-4.2-.1-5.5 2.2-.6 1.2-1.5 1.7-2.2 1.2-.7-.4-2.2-.6-3.4-.4-1.3.1-2.3-.2-2.3-.8 0-.6-.4-1.1-1-1.1-.5 0-1 .8-1 1.7 0 1.3-.3 1.4-1.2.5-1.4-1.4-7.4-1.6-8.3-.2-.4.6-1.5.4-2.8-.5-1.8-1.1-3.6-1.3-8.2-.6-3.3.5-8 .8-10.5.6-2.5-.2-6.9-.3-9.7-.4-3.8-.1-5.3-.5-5.3-1.5 0-.7-1-1.6-2.2-2-2.4-.6-5.6 2.5-7 6.8-.6 2.1-.6 2.1-.7 0-.1-1.6-.7-2.2-2.3-2.2-4.4 0-10.3-1.5-11.1-2.9-.5-.7-2.3-1.3-4-1.3-4.3.1-11.5-1.5-15.4-3.5-3-1.5-4.4-2.7-2.5-2.3 1.8.4 6.2-2.7 6.2-4.4 0-1 .5-1.8 1.1-1.8.5 0 .7-.5.4-1.1-.4-.5-.4-2.2-.1-3.5.6-2.1.9-2.4 2.2-1.3.8.6 1.8.9 2.2.5.4-.4-.1-1.3-1.1-2-2-1.5-2.3-3.6-.4-3.6.6 0 2.5-1.9 4-4.1l2.9-4-2.6.7c-2.8.7-3.2-.3-1.7-4.1.5-1.2.3-3.3-.5-5.4-.8-1.8-1.1-3.7-.8-4.2.3-.5-.4-.9-1.6-.9h-2.1l2-2.9c1.4-1.9 3.3-3.1 5.8-3.6 5.6-1 9.3-3.3 10.4-6.3 1.3-3.3 1-3.7-1.7-3.4-1.7.2-2.3-.4-2.7-2.7-.5-2.3-1.3-3.2-3.4-3.6-1.5-.4-5.2-1.5-8.1-2.6-3-1-6.5-1.9-7.9-1.9-1.8 0-2.4-.4-1.9-1.5.3-.9 0-1.5-.9-1.5-.8 0-1.5.4-1.5 1 0 .5-.5 1-1.1 1-.6 0-.9-.9-.6-2 .3-1.1.1-2-.4-2-1.7 0-4.9-3.5-4.9-5.3 0-1.6-.2-1.7-1.5-.7-.9.7-1.3 1.5-1 1.8.8.9-1.6 3.2-3.4 3.2-1.4 0-1.4-.2-.1-1 .8-.5 1.1-1.2.7-1.6-.4-.4 0-1.8.8-3.1 1.7-2.6.5-3.2-1.6-.7-.9 1.1-2.2 1.4-4.7.9-2.8-.5-3.4-.3-3.9 1.4-.3 1.2-.9 1.8-1.4 1.5-.5-.3-.9.4-.9 1.5 0 1.2-.5 2.1-1.1 2.1-.7 0-.9 1-.5 2.5s.1 2.9-.9 3.7c-5.2 4.5-7.2 6.7-6.7 7.3.4.4-.1.5-1 .3-.9-.1-1.7.1-1.7.5 0 .5-.7 1.4-1.7 2.1-.9.7-1.4 1.8-1 2.4.4.7.1 1.2-.8 1.2-1.9 0-2.6 2-1.4 4.3 1.3 2.6 1.9 5.5 1.9 10.6 0 2.4.5 5.5 1 6.8.6 1.6.5 2.2-.1 1.8-.6-.3-1-.2-1 .4 0 .5.5 1.3 1 1.6.6.3 1 1.5 1 2.7 0 1.5.5 1.9 1.9 1.5 1.7-.4 3.5.9 5.5 4.1.5.8.2 1-.9.5-1.5-.5-1.5-.3-.4 1.5 1.7 2.7.2 7.3-2.9 8.7-1.2.5-2.2 1.3-2.2 1.8 0 .4-.4.6-.9.2-.5-.3-1.2.4-1.6 1.5-.4 1.1-1.2 2-1.8 1.9-2.5-.3-5.7 1.4-5.7 3 0 .9-.5 2.2-1.2 2.9-.9.9-1.5.6-2.4-1.6-1.2-2.6-1.3-2.6-1.9-.6-.4 1.2-1.8 2.8-3.2 3.5-2.2 1.2-2.6 1.1-3.4-.4-.7-1.1-1.8-1.6-3.4-1.3-2.6.5-6.9 3.1-7.1 4.4-.8 4.1-1.7 5-4.9 4.7-2.3-.2-3.6.2-3.9 1.2-.4 1-1.4 1.3-3 .9-2-.5-2.3-.3-1.9 1.4.5 1.8.2 1.9-1.8 1.1-1.3-.4-2.4-1.3-2.4-1.9 0-1.9-1.4-2.5-2.1-.8-.3.9-1.7 1.6-3 1.6-1.4 0-2.4.6-2.4 1.5 0 1.8-3.6 3.9-4.5 2.6-.3-.5-.1-1.2.5-1.6 1-.6 1.5-5.5.6-5.5-.3 0-1.6.4-3 1-1.7.6-2.6.6-2.6 0s-.7-1-1.5-1-1.5-.5-1.5-1c0-.6-.7-1-1.6-1-.9 0-1.8-.9-2.1-2-.3-1.1-1-2-1.7-2-.6 0-2-1.1-3-2.5-2.5-3.3-3.1-3.2-3 .7.1 1.9.7 3.2 1.3 3.1.6-.2 1.1.4 1.1 1.2 0 .8-.9 1.5-1.9 1.5-2.2 0-3.7-3-2-4.1 2-1.2.2-4.1-2.2-3.4-1.8.6-2 .5-1-1.4s.9-2.1-1.2-2.1c-2.6 0-5.2-2.2-4-3.4.4-.4 0-.4-1 0-2.4.9-2.1 2.1 1 4.8 2.3 2 2.6 4.6.4 4.6-.9 0-7.6-9.2-7.6-10.5 0-1.9-3.9-4.4-5.2-3.3-1.3 1.1-3.3.3-3.3-1.3 0-.6.5-.7 1-.4.6.3 1-.3 1-1.4 0-1.1-.8-2.4-1.7-3-1.7-.9-1.7-1 0-1.7 1.4-.5 1.7-1.3 1.2-3.5-.4-1.9-.3-2.9.5-2.9.6 0 .9-.4.5-1-.3-.5-1.2-.7-2-.3-1.4.5-1.9-.7-1.6-3.6.2-.8-.2-1-1-.5-.9.5-1.1.1-.7-1.4.5-1.7-.1-2.6-2.2-3.9-2.2-1.2-2.7-2.2-2.4-4.1.3-1.4 1.4-3.3 2.5-4.2 2.4-2.1 2.5-4.2.2-3.8-1 .2-1.9-.5-2.1-1.5-.3-1.3.1-1.7 1.5-1.5 1.5.2 1.8-.5 2.1-4.4.2-4.1 0-4.7-1.4-4.1-.9.3-1.5.2-1.3-.3.3-.5 1.1-2.2 1.9-3.8 1.1-2.3 1.2-3 .2-3.4-.6-.2-1.2-1-1.2-1.8 0-.9.4-1.3.9-1 1.3.8 2.4-4.5 1.2-5.7-.6-.6-1.1-1.9-1.1-2.9 0-1.6.3-1.7 2.1-.8 2.8 1.6 5.6-.5 3.4-2.6-.7-.8-1.8-1.4-2.4-1.4-.6 0-1.1-.5-1.1-1 0-1.7 2.9-1.1 3.9.9 1.5 2.7 5.1 3.4 5.1 1 0-1.2-.7-1.9-2-1.9-1.4 0-1.8-.5-1.3-1.6.3-.9 1.3-1.4 2.4-1.1 1.2.3 1.9 0 1.9-.9 0-2.2 2.8-.5 3.9 2.4 1 2.7 1 2.7 1.6.4.4-1.2 1.4-2.2 2.1-2.2.8 0 1.7-.7 2-1.5.5-1.2 1-1 2.6.8 1.8 2.1 1.9 2.1 1.3.1-.4-1.6.3-2.4 3.6-3.8 2.2-1 4.8-1.6 5.8-1.3 1.4.3 1.7 0 1.4-1.4-.6-2 1.1-2.6 2.2-.8.5.7 1.5.4 2.9-.9 1.1-1 3.8-2.9 5.9-4.1 2-1.3 3.7-2.6 3.7-2.9 0-1.1 5.2-3.2 6.2-2.6 1 .6 10.8-5.4 10.8-6.6 0-.5 1.4-1.1 3-1.5 1.7-.4 3-1.2 3-1.9 0-1.5 4.7-3.9 6-3.1.4.3.6-.4.3-1.5-.6-2.4 1.8-2.7 4.1-.5 1.7 1.7 2.5.9 2.8-2.9.3-3.1.9-3.3 2.5-.7 1.2 1.9 3.8 2.1 6.4.6.6-.4 1.3.2 1.5 1.2.8 3.1 3.7 4.4 6.7 2.8 2.5-1.3 7.7-1 7.7.5 0 .4-.7 1.3-1.5 2s-1.2 1.6-.9 2.2c.3.5 1.2.4 2.2-.4 1.3-1.2 1.4-1 .8 1.7-.4 1.6-1.4 3.4-2.2 3.8-1.3.7-1.3 1.1-.2 2.5 1.1 1.3 1.1 1.5-.4.9-1.4-.5-1.6.1-1.3 4.4.2 2.8.5 5.3.8 5.6.3.2.2 1.7-.3 3.3-.7 2.3-.5 2.9 1.1 3.3 1 .3 1.9 1 1.9 1.6 0 .6-.7.8-1.5.5-.8-.4-1.5-.1-1.5.5 0 1.8 2.1 1.3 5.6-1.4 3.7-2.9 4.4-3 4.4-1.2 0 .9 1.2 1.3 3.5 1.3 3.3-.1 3.7-.4 4.9-4.6 1.1-3.4 1.6-4.1 2.1-2.8.4 1 1.1 1.5 1.6 1.2.5-.3.7-1 .4-1.5-.4-.5-.1-1.7.4-2.6.7-1.2 1-1.4 1.1-.4 0 1.1.3 1.1 1.5.1.8-.7 1.5-1.8 1.5-2.5 0-.6.9-2 2-3s1.8-2.1 1.5-2.3c-.3-.3.5-1.6 1.7-2.9 1.8-2 2-2.6.9-3.3-.8-.4-2-.6-2.7-.3-.6.2-1.5 0-1.9-.6-.3-.6 0-1.2.7-1.3.7 0 1.8-.2 2.3-.2 1.6-.2 1.7-.9 1-3.9-.6-2.4-1.2-2.8-3.1-2.4-1.5.2-2.4-.1-2.4-.8 0-.7 1-1.1 2.5-1 2.1.3 2.5-.2 3.1-3 .3-1.8.1-4.2-.5-5.3-1.4-2.6-1.5-5.4-.1-3.2s2 .9 2.4-5c.3-4-.1-6.2-1.6-8.8-1.6-2.9-1.7-3.9-.8-5.8.7-1.2.9-3.1.6-4.2-.4-1.1-.2-2.3.3-2.6.6-.4.8-1.3.5-2-.3-.8-.1-1.7.4-2 .6-.4.7-2 .2-4.3-.6-2.3-.5-4.2.1-4.9.6-.7.7-2.8.3-4.8-.5-3.1-.4-3.5 1-3 .9.3 1.6.2 1.6-.2 0-.5.3-1.9.6-3.2.5-1.8.3-2.1-1-1.6-.9.3-2.3.3-3.2 0-1.5-.6-1.5-.9.1-3.3s1.6-2.6 0-2c-1.4.6-1.6.3-.9-2.6.4-1.7.8-5.2.9-7.7.3-5.6.2-5.5 2-4 .9.7 1.9.9 2.3.5.4-.4.1-1-.5-1.2-.7-.3-1.3-1.1-1.3-1.9 0-.8-.6-1.4-1.2-1.3-2.4.3-3.8-.1-3.8-1.1 0-1.5-3.3-5-4.7-5-.7 0-1.3-.9-1.3-2 0-2.4-2.8-3.9-3.9-2.1-.4.6-1.5.9-2.4.5-1-.3-2.3-.1-3.1.5-1.1.9-1.9.5-3.9-1.9-1.4-1.6-3.2-3-3.9-3-.7 0-2.1-1.8-3.1-4-1.1-2.4-2.6-4-3.5-4-1.5 0-1.5.2-.2 1 1 .7 1.2 1.2.4 1.7-.6.5-1.6 1.8-2.2 2.9-1 1.9-1.7 2.1-4.4 1.5-1.8-.4-5.4-.6-8-.5-4.3.3-4.9 0-6.3-2.4l-1.4-2.7-.1 2.7v2.7l-8.7-.4c-4.9-.3-10-.5-11.5-.5-1.6 0-2.8-.5-2.9-1.2 0-.7-.4-.4-.8.6-.7 1.9-.8 1.9-2.7 0-2.2-2.2-4.4-2.1-4.4.2 0 1.6-.9 1.8-3 .4-1.3-.8-1.2-1 .4-1 1.1 0 1.6-.3 1.3-.7-.4-.3-.2-1.2.5-2 .6-.7.8-1.7.4-2.1-.4-.4-1.6.3-2.6 1.5-2.2 2.7-3.6 2.9-4.4.7-.9-2.2 0-3 1.8-1.5.8.7 1.6.8 1.8.4.1-.5 1.9-1.8 3.8-3.1 3.5-2.2 3.5-2.2.8-2-1.6.1-2.8.8-2.8 1.5 0 1.7-1.5 1.6-3-.2-1.4-1.7-.5-3.5 1.9-3.5 1 0 3-1.4 4.4-3 1.5-1.7 2.3-3 1.8-3-.5 0-.7-.9-.4-2.1.4-1.4.9-1.7 1.6-1 .6.6 1.5 1.1 1.9 1.1 1.2 0 1-1.7-.5-3.2-.7-.7-1.7-2.2-2.1-3.3-.6-1.6-.5-1.8.5-.8 1.6 1.6 5.9 1.7 5.9.2 0-.5.4-.8.9-.5.8.6 2.3-1.8 2.5-3.9.1-.5 1.4-1.6 3.1-2.4 1.6-.8 2.5-1.6 1.8-1.8-.8-.3-.5-1.1.8-2.4 2.3-2.3 3.9-1.8 2 .5-1.5 1.8-.6 3.7 1.4 2.9 1.1-.4 1.3-.1.9 1.1-.3.9-.3 1.6 0 1.6s1.3-1.8 2.2-4c.9-2.2 2-3.7 2.5-3.4.5.3.6-.1.4-.9-.3-.7.3-2.1 1.4-3.2 1.8-1.5 2.3-1.6 3.8-.4 1.6 1.3 1.7 1.2.4-.4-.7-.9-2.3-1.7-3.5-1.8-1.1 0-1.5-.3-.8-.6 1.7-.7 1.5-2.3-.4-2.3-1.3 0-1.4-.3-.5-1.4.6-.8 1.1-1.8.9-2.2-.1-.5.5-2.3 1.5-3.9 1.4-2.6 2.3-2.2 1.8.8-.1.4.6 1 1.4 1.3.8.4 1.5 1.2 1.5 2s.7 1.4 1.6 1.4c1.4 0 1.4-.3.4-1.5-1.1-1.3-.8-1.5 1.4-1.5 1.6 0 2.6-.5 2.6-1.5 0-.8-.8-1.5-1.7-1.5-1.5 0-1.6-.2-.3-1s1.3-1 .1-1c-2.2 0 2-2.9 4.2-3 2.8 0 .9-2-1.9-2-1.3 0-2.4-.5-2.4-1.2s-1.2-2.4-2.6-3.9c-1.6-1.6-2.3-3.2-1.9-4 .6-.8 1.3-.5 2.6 1.2 1 1.3 1.9 3 1.9 3.6 0 .7.2 1.3.4 1.3s1.1.3 2 .6c.9.3 1.6.1 1.6-.6 0-.6-.5-.8-1.2-.4s-.8.3-.4-.4c1.3-2.1 4.2-1.3 5.5 1.4.6 1.5 1.4 2.4 1.8 2.1.3-.4 0-1.3-.6-2.1-1.6-1.9.1-3 3.2-2 1.8.5 1.7.1-1-2.3-3.8-3.4-4.1-5.3-1.3-7.1 1.2-.7 1.7-1.8 1.3-2.7-.3-.9.2-2.2 1.3-3 2.6-1.9 3.4-1.8 3.4.4 0 1.8 1.8 3.1 4.4 3.1.7 0 1.8-1.1 2.4-2.5.8-1.7 2-2.5 3.6-2.5 1.4 0 2.8-.5 3.1-1 .3-.6 1.5-1 2.6-1 1 0 1.9-.7 1.9-1.5 0-1.5 3.3-3.7 4.9-3.3.5.2 1.6-.6 2.4-1.7 1.2-1.6 1.8-1.7 3-.7 1.1.9 1.7 1 2.2.2.4-.6 1.5-.8 2.6-.5 1.1.4 1.9.2 1.9-.4 0-1.6 2.6-1.3 4 .4 1 1.2 1 1.5 0 1.5-.7 0-1 .7-.6 1.5.3.8.9 2.2 1.3 3.2.5 1.3.2 1.5-1.5 1.1-1.3-.4-2.3 0-2.6.9-.8 2.1-.8 2.3.9 2.3.9 0 1.2.6.9 1.5-.7 1.6 1.2 4.5 2.8 4.5.5 0 .6-.9.3-2-.6-1.9-.3-2 3.3-1.4 4.3.7 8.2-.8 8.2-3.1 0-1.6 3-3.5 5.5-3.5 2.6 0 1.3 3.3-1.5 4-1.4.3-2.6 1.4-2.8 2.3-.5 2.6 4.8 2.3 5.5-.3.6-2.4 2.3-2.7 2.3-.4 0 1.8 3.4 1.1 6.2-1.3 1-.9 2.7-1.3 3.8-1 2.6.7 13.3-1.8 16.4-3.8 1.2-.8 4.6-1.6 7.4-1.8 2.8-.2 5.4-.6 5.8-1 .3-.3 1.8-.4 3.3-.2 7.8 1.2 12.5 1.4 11.1.5-1.1-.7-1.2-1.2-.3-2.1.9-.9 1.5-.6 2.4 1.4 1.1 2.4 1.8 2.7 6.1 2.7 2.6 0 4.8-.5 4.8-1 0-.6 1-1 2.3-1 1.3 0 3.3-.9 4.6-2.1 1.2-1.1 2.8-1.8 3.6-1.5.8.3 2.9-.1 4.7-.9 4-1.7 3.6-1.7 7.7-.5zm357.9 73.7c-1.6 2-1.3 5.3.6 5.3.7 0 2.1-.7 3.2-1.6 1.6-1.3 1.6-1.5.2-1-1.2.3-1.8 0-1.8-.9 0-1.1.5-1.2 2.5-.5 2 .8 2.7.6 3.1-.5.4-.8 1-1.5 1.6-1.5.5 0 .6.6.1 1.2-.4.7-.8 2-.8 2.8 0 .8-1.1 1.7-2.5 2.1-1.5.4-1.8.7-.8.8 2 .1 1.4 2.9-1.1 4.8-1.4 1.1-1.3 1.2.5 1.3 2.3 0 4 2.5 2.3 3.5-.5.4-.7 1.1-.4 1.6.4.5-.3.9-1.4.9h-2.8c-.4 0-.8-.6-.9-1.5-.1-.8.2-1.5.7-1.5.5 0 .9-.5.9-1.1 0-.6-1-.9-2.2-.7-1.7.2-2.2.9-2.1 2.6.2 1.6-.2 2.2-1.8 2.2-1.2 0-1.8-.4-1.3-1.1.5-.8-.3-1-2.5-.7-1.7.2-3.1.1-3.1-.4 0-.4-.7-.8-1.5-.8-1.8 0-2.1-5.5-.4-6.6.7-.4.9 0 .5 1.4-.5 1.5-.1 2.4 1.3 3.2 1.9.9 2 .8 1.2-1.2-1-2.7 3.6-11.8 6.6-12.9 3-1.2 3.7-1 2.1.8zm-552 78.2c6.1-.1 8.7.3 9.8 1.4.4.4 1.8.4 3 .1 1.5-.4 2.4-.2 2.4.6 0 .6-.9 1.4-2 1.7-1.1.3-2 .8-2 1.2 0 .4-3.3.7-7.2.8-8.9.2-10.1.3-16.1 1.5-3.4.7-5.2.7-6.1-.1-1.1-.9-1.5-.7-1.9 1-.4 1.3-1.2 1.9-2.4 1.8-1-.2-2.4 0-3.1.5-.7.4-1.5.6-1.8.3-.3-.2 1.1-1.2 3.1-2.1 1.9-.9 4.2-3 5-4.6.9-1.7 2-3 2.5-3 .6 0 1-.7 1-1.6 0-1.3.7-1.5 3.3-1.1 1.9.3 4 .1 4.8-.4.9-.6 1.5-.4 1.7.6.3 1.2 1.7 1.5 6 1.4zm16.4 13.7c3.4 1.8 5.8 5.2 5.8 8.3 0 3.1-6 11-8.4 11.1-1.5 0-1.6.3-.6 1.5 1.2 1.4 1.5 1.4 3 0 2-1.8 12-5.8 12.7-5.1.3.2-.6 1.4-1.9 2.6-1.2 1.1-3.1 2.8-4 3.6-1.2 1.1-2.1 1.3-3.4.6-1.3-.7-2.4-.2-5 2.6-1.9 2-3.4 4.2-3.4 4.9 0 1.6-1.5 1.7-4.1.2-1.5-.8-2.4-.7-3.5.2-1.8 1.5-2.9.6-2-1.7.4-1.1 1.3-1.4 2.9-1 2 .5 2.3.2 2.2-2.7-.1-1.8-.4-3.8-.8-4.3-.3-.6.3-2.5 1.3-4.2 1.8-2.8 1.9-4 1-9.9-1.3-9.5.2-10.8 8.2-6.7zm497.3 17.3c-.3.5-.1 1.2.4 1.5.5.3.7 1.5.4 2.6-.3 1.1 0 2 .6 2s1.1-.9 1.1-2c0-2.4 1.5-2.7 2.4-.5.4 1.1 1.3 1.4 3.1.9 1.9-.5 2.5-.2 2.5 1 0 1.9-.1 1.9-3.3.7-1.4-.6-2.7-.7-3-.4-.9.9 2.2 3.5 3.3 2.8.5-.3 1 .1 1 1 0 .8.7 1.8 1.6 2.2.9.3 2.8 1.7 4.2 2.9 3 2.9 4.7 3.1 3 .4-1.4-2.2-.8-3.3 1.6-2.4.9.3 1.6 1.6 1.6 2.8 0 1.8.9 2.6 4 3.6 2.2.7 4 1.7 4 2.3 0 .5-.8.6-1.7.2-1.9-.7-3.3-.9-6.9-.6-1.5.1-2 .7-1.9 2.3.2 2.9 2.3 3.5 3.3 1 .6-1.8.9-1.9 2.5-.7 1.9 1.4 2 5.1.2 4.6-.5-.1-.9-.9-.7-1.7.2-.8-.2-1.4-.8-1.4-.5 0-1 .3-1 .7 0 .5-.4 1.4-.9 2.2-.7 1.2-1.3 1.2-4 0-3.3-1.5-4.1-4.5-1.9-6.7.9-.9.9-1.5 0-2.4-.9-.9-1.2-.7-1.2 1.2-.1 2.4-.1 2.4-1.5.6-.8-1.1-1.5-2.9-1.5-4-.1-2.4-2.2-5.6-3.8-5.6-.5 0-1.2-.7-1.6-1.5-.3-.8-1.2-1.5-1.9-1.5-2.1 0-4.8-3.5-4.2-5.2.4-.9-.1-1.8-.9-2.1-1-.4-1.6-.1-1.6.8 0 .8-.4 1.5-1 1.5-1.2 0-1.2-.3-.4-2.4.3-.9 1.7-1.6 3.1-1.6 1.3 0 2.2.4 1.8.9zm-21.5 78.2c0 1.1-.6 1.9-1.2 1.9-.7 0-.4.7.7 1.6 1.1.8 2.6 1.2 3.3.9 1-.4 1.2 0 .8 1.1-.5 1.2-.2 1.5 1 1 .8-.3 2-.6 2.5-.6.4 0 .6-.7.3-1.5-.7-1.8.3-2 2-.2.7.7 1.1 1.8.8 2.5-.2.7.4 2.3 1.4 3.4 2.3 2.6.1 1.6-3.3-1.5-1.3-1.1-2.3-1.5-2.3-.9s.5 1.4 1 1.7c2.3 1.4.8 2.1-2.4 1.1-1.9-.6-3.4-1.3-3.4-1.6.3-3.9-1.4-3.5-1.8.5-.2 2.3 0 2.5 2.7 2 1.6-.3 2.9-.1 2.9.5 0 .5.6 1 1.4 1 1.7 0 3.1 1.8 2.1 2.8-.3.3-1 0-1.4-.7-.5-.7-1.4-1-2-.7-2 1.3-1.2 2.6 1.7 2.6h2.7l-3.2 2.1c-3.2 2-4.3 3.9-2.3 3.9.6 0 1 .4 1 1 0 .5-1.5 1-3.2 1-3-.1-3.1-.2-1.5-1.4 1.7-1.3 1.7-1.5-1-4-3-2.8-4.3-3.2-4.3-1.5 0 .5-.5.7-1.2.3-.8-.5-.6-1.1.6-1.9 1.4-1.1 1.4-1.4.2-2.4-1.1-.9-2-1-3.5-.1-1.8.9-2.1.8-2.1-1.1 0-1.6.5-2 2-1.6 2.2.6 4.5-1.6 3.7-3.7-.3-.7-.1-1.8.4-2.3.6-.6.6-1.9.1-3.3-1.1-3 1.4-6.5 3.5-4.8.7.6 1.3 1.9 1.3 2.9zm35.6-1.7c-.2 1.3-.2 2.7.1 3 1 .9 4.1-1.7 3.6-3.1-.6-1.6.9-1.7 2.5-.1 2.1 2.1 1.5 4-1 3.2-2-.6-2.1-.5-.9 1 1.7 2 4.1 2.1 4.1 0 0-3.2 2.5-.6 2.8 2.9.3 3.2 0 3.7-1.7 3.7-1.2 0-2.1-.7-2.1-1.6 0-1.1-.6-1.4-2-.9-1.4.5-2 .2-2-.9 0-.9-.2-1.6-.4-1.6s-1.3-.3-2.3-.7c-1.7-.7-1.7-.6 0 1.1.9.9 1.7 2.6 1.7 3.7s.7 2.2 1.5 2.5c.8.4 1.2 1 .9 1.5-.3.5-1 .6-1.6.3-.7-.5-.9 0-.5 1.5.4 1.8.3 2-.9 1-.8-.6-1.8-.9-2.1-.5-.4.4-.1 1.1.7 1.6.8.6 1.1 1 .7 1-1.7 0-6.7-4.2-6.7-5.6 0-1.4-1.1-1.8-3.7-1.5-.7.1-1.3-.2-1.3-.8 0-1.7 5.9-2.4 7.7-.9 1.5 1.2 1.5 1.1.2-1-.9-1.4-2.4-2.2-4.1-2.2-1.6 0-2.8-.5-2.8-1.1 0-.5.4-.8.9-.4.5.3 1.2.1 1.6-.4.3-.6 1.2-.8 2-.5 1.5.6 4.9-4.8 3.8-6-.4-.3-.1-.6.6-.6s1 1 .7 2.4zm17.5 91c-.7.8-1.2 4.1-1.2 7.3 0 3.3-.5 6.1-1.2 6.5-.8.5-.6.8.6.8.9 0 1.7.4 1.7 1 0 .5.8 1 1.8 1 1.5-.1 1.5-.2.1-1.3-1-.8-1.4-1.9-.9-3.1.6-1.7.9-1.5 2.8 1.6 2.4 3.8 2.8 5.8 1.2 5.8-.5 0-1-.5-1-1 0-.6-.7-1-1.5-1-2.4 0 .4 4.9 3.2 5.6 2.8.7 3.1 2.4.3 2.4-1.1 0-2-.4-2-.9 0-.7-6.4-5.1-7.4-5.1-.2 0-.6 1.1-.8 2.5-.4 1.7-.1 2.5.9 2.5.8 0 1.1-.5.8-1-.3-.6 0-1 .9-1 .8 0 1.3.8 1.2 1.7-.2 1.2-1.2 1.8-2.7 1.8-3 0-5.1 1.3-4.3 2.7.4.6.1.9-.6.6-1.8-.6-2-4.8-.3-4.8.8 0 1.2-.4.8-1-.3-.5-1.3-.6-2.1-.3-.9.3-2 0-2.5-.8-.8-1.2-1.1-1.1-2 .3-1.5 2.6-2.7 2.2-2.1-.7.3-2 0-2.5-1.7-2.5-1.1 0-2.1-.5-2.1-1.1 0-1.3 5.3-.2 5.8 1.2.7 1.7 2.2.9 2.2-1.1 0-1.3-.7-2-2-2-1.1 0-2-.5-2-1.1 0-.6.9-.8 2-.4 1.1.3 2.8.2 3.7-.4 1-.6 1.2-1.1.6-1.1-2.1 0-1.5-3 .6-3 1.5 0 1.8-.8 1.8-5-.1-4.8.7-7 1.9-5.7.4.4.1 1.3-.6 2.2-2.1 2.5.1 1.7 2.6-1s5.6-3.7 3.5-1.1zm-47.3 12.5c1.2.7 1.2 1.2.1 3-1.5 2.3-3.4 2.9-2.6.7.4-.9-.3-1.6-1.9-1.9-1.3-.2-2.4-.3-2.4-.1 0 .1-.3 1-.7 2-.4 1.2-.3 1.5.5 1s1.2 0 1.2 1.3c0 1.2.5 2.1 1 2.1.6 0 1-.5 1-1.1 0-.5.4-.8.9-.4.5.3 1.2.1 1.6-.5.9-1.5 2.5-1.2 2.5.5 0 2 1.7 1.9 2.9-.3 1-1.6 1.2-1.6 2.5 0 1.8 2.5 3.6 2.2 3.6-.4 0-1.7.3-1.9 1.2-1 .9.9.9 1.5 0 2.4-.7.7-1.2 2-1.2 3 0 1.1-.7 1.8-1.8 1.8-1 0-2.3.5-3 1.2-.6.6-1.5.8-1.9.4-.4-.4 0-1.2 1-1.7.9-.6 1.7-1.7 1.7-2.5s-.5-1.2-1-.9c-.6.4-.7 1.1-.4 1.7.5.7.2.9-.8.5-2.6-.9-3.8 1.1-2.6 4.5.6 1.6.8 3.2.4 3.5-.3.3-.1 1.2.5 2 .9 1 .7 1.3-1 1.3-2.1 0-2.4-.5-2.5-4.9-.1-3-2.6-4.1-2.6-1.2 0 1.2-.4 2.1-.9 2.1s-1.2 1.1-1.5 2.5c-.4 1.4-1.1 2.5-1.6 2.5-1.6 0-1.2-2.7.6-4.5.9-.9 1.5-1.7 1.3-1.8-2.7-1.8-6.3-2.6-7.5-1.6-.7.6-1.9.7-2.6.3-.9-.6-.5-1 1.2-1.4 1.6-.4 2.4-1.2 2.2-2.3-.2-.9.2-1.7.9-1.7s.9-1 .5-2.8c-.4-1.7-.3-2.2.2-1.4.7 1 1.1.8 1.5-.9.3-1.3.2-2.8-.3-3.4-.6-.7.4-1 3.1-1 2.1 0 3.9-.3 3.9-.7 0-1 1.2-1 2.8.1zm-145.3 15.3c.4 1.5.3 3.3-.1 3.9-.5.9-.2 1 .9.6.9-.3 1.9-.2 2.2.3.4.6.1 1-.5 1-1.6 0-.1 7.2 1.8 8.7.9.8 1.1 1.3.4 1.3-1.4 0-1.6 2.9-.2 3.1.6.1 1.6.2 2.2.3 2.2.2 1.9 3.2-.4 4.4-2.3 1-2.3 1.1.9 2.3 3.4 1.4 5.2 3.9 2.9 3.9-.8 0-1.6 1-1.9 2.2-.7 2.4.3 4.1 1 2 .8-2.2 2.5-1.2 2.1 1.3-.4 1.6 0 2.5 1.1 2.8 1.1.3.9.5-.6.6-3.1.1-4 2.1-1 2.1 2 0 2.5.5 2.5 2.7 0 1.6-.4 3.2-.8 3.8-1.4 1.8-.9 6.4.6 5.8 1.1-.4 1.2 0 .6 1.8-1.1 2.8-.7 10.9.8 19.4 1.6 9.2 1.8 55.5.3 55.5-.7 0-1.3.4-1.3 1 0 .5.6 1 1.4 1 1.3 0 2.7 8 2.7 15-.1 13.6 0 21.4.5 22.2.3.5.1 1.4-.4 2.1-.6.7-.8 3.9-.6 7.2.3 3.3.4 7.6.4 9.5 0 1.9.5 4.6 1.2 5.9 1.1 1.9 1 2.5-.5 3.6-1.9 1.3-2.3 4-.7 5 .6.3 1 1.5 1 2.6 0 1.2.7 1.9 2 2 1.1.1 2.5.3 3 .4.6.1 1.3.3 1.6.4.3 0 .2.6-.2 1.3-.4.7-.9 2.2-1 3.3-.3 2.7 2.6 2.7 5.7-.1 1.6-1.4 2.3-1.5 2.6-.7.3.7 1.1 1.3 2 1.3 1.1 0 1.3.7.8 3-.4 1.9-.3 3 .4 3 .6 0 1.1 1.6 1.1 3.5 0 2.1-.5 3.5-1.2 3.5s-2.4 1.6-3.7 3.5c-1.3 1.9-3 3.5-3.7 3.5-.8 0-1.4.3-1.4.7 0 1.9-14.9 18.6-20.7 23.3-2.4 1.9-4.3 4.1-4.3 4.7 0 .7-.6 1.3-1.3 1.3-.7 0-2.7 1.3-4.5 3-1.8 1.6-3.6 3-3.9 3-.3 0-3.3 2.4-6.6 5.3-3.4 3-8.1 6.7-10.3 8.3-3.8 2.6-21.5 16.7-27.3 21.6-2 1.7-25.4 17.4-33.2 22.3-.9.5-4.4 2.9-7.7 5.2-3.4 2.4-6.3 4.3-6.6 4.3-.3 0-2.8 1.6-5.5 3.5-2.6 1.9-5.2 3.5-5.6 3.5-.4 0-2.2 1.2-4 2.7-1.8 1.6-5.2 4.4-7.6 6.3-6.1 5-12.9 10.5-16.5 13.4-3.6 3-8.5 4.9-17.9 7.1-6.2 1.4-9.6 1.5-28 .5-20.5-1-33.2-2.7-35.8-4.8-.6-.5-4.3-1.7-8.2-2.5-3.8-.8-11.7-2.9-17.5-4.7-5.8-1.7-12.1-3.6-14-4-1.9-.5-5.8-1.6-8.7-2.4-2.8-.9-6.1-1.6-7.2-1.6-1.1 0-2.3-.5-2.6-1-.3-.6-2.1-1-3.9-1-1.7 0-3.6-.4-4.2-.9-.5-.5-4-2-7.9-3.4-4.8-1.7-7-2.9-6.9-4 .1-.9-.4-1.3-1.1-1.1-.7.3-1.5-.6-1.9-2.2-.6-2.1-.9-2.5-1.6-1.4-.5.8-1.2 1.1-1.6.8-1-1.1.4-3.9 1.8-3.7 3 .4 5.8-.2 5.8-1.1 0-.6-.8-1.1-1.7-1.1-1.6-.1-1.6-.2-.1-.6 1.3-.3 1.6-1.4 1.3-4.8-.1-2.5.1-4.3.5-4 .5.3.6-.3.4-1.2-.5-2 4.6-8.3 6.7-8.3.8-.1.2-1.1-1.4-2.3-1.5-1.3-2.4-2.6-2.1-3 1.3-1.2 2.2-.8 2.9 1.4.5 1.4 1.3 1.9 2.5 1.6 1-.3 2.1.1 2.4.9.3.7 2.3 1.8 4.4 2.4 2.2.5 4.3 1.7 4.6 2.5.8 2.2 3.1 1.8 4.8-.6 1.8-2.8 6.3-1.8 5.5 1.2-.5 1.8-.1 1.9 2.9 1.4 3.2-.5 3.5-.3 2.9 1.4-.9 3 5 2.6 7-.6.9-1.2 2.1-2.3 2.7-2.3.7 0 .2.9-1 2-3.1 2.9-2.8 3.5 1.8 3.4 3.6 0 4 .2 3.5 2-.5 1.7-.4 1.8.4.5.7-1 1.9-1.5 3.4-1.2 1.4.3 3.1-.2 4-1.2 1.4-1.4 1.7-1.4 1.7-.2 0 .8.7 1.8 1.6 2.1 2.4.9 3-.2 1-1.7-1.7-1.3-1.7-1.5.8-4.3l2.5-2.9.1 2.7c0 1.6.3 2.8.6 2.8 1.5 0 4.4-2.2 4.4-3.4 0-.8.7-1.6 1.5-2 1.6-.6 1-3.6-.7-3.6-.6 0-.8.7-.4 1.5.3.9 0 1.5-.9 1.5-1.2 0-3.2-3.7-2.3-4.4 1.1-1 5.8-1.5 5.8-.6 0 .5.6 1 1.4 1 .8 0 1.7.6 1.9 1.2.4.8.6.7.6-.4.1-.9 1.6-2.2 3.4-2.8 3.1-1.2 3.2-1.3.8-1.9-2-.5-2.5-1.3-2.5-4.1 0-3.8 2.2-5.3 3.1-2.1.3 1.2 1 2.1 1.5 2.1s1.9 1 3 2.2l1.9 2.3-.6-3c-.4-1.7-1.1-3.2-1.6-3.3-.5-.2-.9-1.6-.9-3 .1-3.2 2.5-6.8 3.5-5.3 1 1.8 3.5 1.2 3.5-.7 0-2.4 4.2-7 4.8-5.3.3.8 0 1.6-.6 2-.5.3-1.3 2.3-1.6 4.4-.4 2.3-.2 3.6.3 3.2.5-.3 1.2-.1 1.5.4.7 1.1 4.6.2 4.6-1 0-.6-.7-1.2-1.5-1.5-.8-.4-1.5-1.1-1.5-1.6 0-.7.4-.7 1.3-.1.6.6 2 1.3 3 1.6 1.5.6 1.7.3 1.2-1.6-.7-2.1-.6-2.1 1.1-.5 1.7 1.6 1.9 1.6 3.6.1 1.7-1.5 1.8-1.5 1.8 1 0 1.5-.4 2.7-1 2.7-.5 0-1 .5-1 1.1 0 .7 1.3.8 3.9.4 2.9-.5 4.2-.2 5.5 1.1 1.4 1.4 2.2 1.5 4.2.5 2.9-1.3 4.4-.7 4.4 1.6 0 1-.6 1.4-2 1-1.1-.3-2-.1-2 .4s1.3.9 2.8.9c1.6 0 3.2.3 3.6.7.8.8 1.3.9 4.1 1.2.9.1 1.2.7.9 1.8-.4 1.1-.3 1.4.3.7.4-.7 2.4-1.3 4.3-1.5 1.9-.2 4.1-.7 4.8-1.2 1.8-1.4 2.7 0 1.2 1.8-1.5 1.8-.7 3 1.4 2.2.9-.4 1.3-1.3 1-2.1-.4-1.1.4-1.7 3-2.2 3.6-.6 4.7-1.9 2.4-2.7-1-.3-1-.8.2-2.1 1.3-1.7 1.4-1.7 2.1.1.3 1 1.6 1.8 2.7 1.8 1.2 0 2.1.4 1.9 1-.1.5-1.1.9-2.1.7-1.1-.1-2.3.3-2.8 1-1.2 2-1 2.8.6 2.2.9-.3 1.7.3 2.1 1.5 1 3.1 3.5 2.6 3.5-.7.1-2.3.2-2.5 1.3-1.2 1.5 1.9 4.7 1.4 4.7-.6 0-.9-.5-1.2-1.1-.8-.6.3-1.5 0-2-.7-1.2-2-1.1-2.5.7-4.4 2-2 1.3-2.8-2.6-3.1-3-.2-4.1 1-1.7 1.9.6.2 1 .7.7 1-.9 1-3.9-1.9-3.2-3 .4-.6 2.7-1.4 5.2-1.7 2.5-.2 4.6-.5 4.8-.5.1-.1.2-.7.2-1.5 0-2-2.7-2.7-4-1.1-1.8 2.2-5.4 1.2-5.8-1.4-.3-1.9 0-2.2 1.8-1.6 3.5 1.1 2-1.7-2-3.7-4.4-2.3-7.4-5.3-6.6-6.7.4-.6 1.2-1.1 1.7-1.1.6 0 .8.4.5.9-.8 1.3 1.9 3.2 4.9 3.6 3 .3 4.3-1.8 2.6-3.9-.9-1-.9-1.6-.1-2.1.6-.4.9-1.4.6-2.2-.4-.9.1-1.7 1.4-2 1.2-.3 1.9-1.2 1.8-2.1-.2-1 .5-1.8 1.7-2 2.6-.5 3.6-2.2 2.9-4.8-.3-1.2.1-2.8 1.1-3.8 1-.9 1.4-2.4 1-3.5-.5-1.6-.2-1.8 1.6-1.4 1.9.5 2 .4 1-1.6-.7-1.1-1.7-2.1-2.4-2.1-1.6 0-4 3.8-3.2 5 .8 1.2-.3 5-1.4 5-.5 0-1.2-1.9-1.7-4.3-.5-2.3-1.4-4.3-1.9-4.3-3.3-.5-5.5-1.9-5.5-3.5 0-2.3-1.6-3.3-2.7-1.6-.4.8-2.1 2.2-3.7 3.3l-2.9 1.8 1.2-2.3c1.6-2.8.6-3.9-1.9-2.3-2.6 1.6-2.5.4.2-2.5 2.6-2.8 3.8-2.9 3.1-.3-.7 2.5 1 2.6 3.3.2 1-.9 2-1.6 2.3-1.5 1.1.3.2-4.8-1-6.3-1.5-1.9-3.3-1.8-2.5.1.5 1.5-.4 1.9-3.8 1.5-1-.1-2.2.4-2.7 1.1-.6 1-1.1.5-1.8-1.6-.6-1.7-1.5-3.7-2-4.5-1.1-2.1-4.1-2.5-4.1-.6 0 1 .6 1.3 1.5 1 1.1-.5 1.5.2 1.5 2.6 0 3.1-.1 3.2-1.7 1.8-1-.9-2.4-1.3-3-1.1-.7.3-1.3 0-1.3-.5 0-.6.6-1.3 1.3-1.5.7-.4.6-.6-.5-.6-2.3-.1-2.8-2.3-1-4.4.9-1 1.1-1.7.4-1.7-.6 0-2.1 1.3-3.3 2.9-1.2 1.6-3 3.1-4 3.4-2.2.6-5.4-2.7-4.6-4.8.7-1.7 2.3-2 3.2-.5.7 1.2 3.5.1 3.5-1.4-.1-.6-1.6-1.8-3.5-2.7-3-1.4-3.6-1.4-4.8-.1-.8.8-2 1.1-2.6.8-1.6-1-1.3-3.6.5-4.3.9-.3 1.3-1.2.9-2.1-.5-1.3-.3-1.3 1.3.1 2.1 2 2.8 1.5 4.8-3.2.8-1.9 1.7-3.1 2-2.8.4.4 1.5.2 2.6-.4 1.4-.7 2.3-.7 3.4.2 1.1.9 1.4.7 1.4-1.2 0-3.7 1.4-5.2 3.9-4.4 1.8.5 2.4.2 2.8-1.4.3-1.2 1.3-2.1 2.4-2.1 1.2 0 1.9-.7 1.9-2 0-1.1.7-2 1.5-2 2.5 0 1.9-4.8-.7-5.2-1.2-.2-2.3-.9-2.6-1.6-.3-.9.3-1.1 2.2-.6 1.5.3 3.2.1 4-.5.7-.6 2-.9 2.9-.5 2.1.8 3-1.1 1.2-2.6-2.3-1.9-1.8-4.5 1.1-6 1.9-1 2.4-2 2-3.6-.5-1.9-.2-2.1 2.9-1.8 3.8.3 6.9-2.1 4.5-3.6-.7-.4-1.1-1.7-.8-2.8.3-1 .1-2.7-.5-3.7-.6-1.2-.6-1.6.1-1.1.6.3 1.3.2 1.7-.4.3-.5.2-1-.3-1-1.2 0-3.4-4.9-2.6-6.1.3-.6 1.2-.2 1.9.8s1.1 2.1.9 2.5c-.2.4.1 1 .7 1.4.8.4.9.3.5-.4-.5-.8.3-1.2 2.6-1.2 2.7 0 3.5-.5 4.6-3 .8-1.7 2-3 2.8-3 .8 0 1.4-.9 1.4-2.1 0-1.1-.4-1.7-1-1.4-1.5.9-1.2-.8.6-3.3 1.7-2.5 4.4-2.9 4.4-.7 0 .8.4 1.5.9 1.5 1.6 0 2.4-2.1 1.2-3.3-1.7-1.7-1.3-2.7 1.2-2.7 3.4 0 5-1.5 4.2-3.9-.7-2.3.1-2.6 3.9-1.1 2.4.9 2.5.8 2-2-.6-2.6-.3-3 2.2-3.6 4.2-1 5.7-2.4 4.3-4-.9-1.1-.8-1.4.6-1.4 1 0 1.5-.3 1.1-.8-.4-.4-1.3-.7-1.9-.7-.5 0-1.2-.6-1.5-1.4-.3-.8 0-1.1.7-.7 2.6 1.7 5.1 1.4 6.6-.7.8-1.2 1.8-2.1 2-2 1.5.8 2.5.1 2.5-1.7 0-1.1.4-2 .9-2 .4 0 .6-1.1.3-2.5-.3-2-.1-2.4 1.2-1.9.9.3 1.6 1 1.6 1.6 0 .5.5.6 1 .3.6-.3 1-1.1 1-1.6 0-.6-.4-.7-1-.4-.5.3-1-.1-1-.9 0-.9.5-1.6 1.1-1.6 1.8 0 4.8-4.4 4.3-6.3-.3-.9-.2-1.7.2-1.7s1.6.8 2.7 1.7c1.1 1 1.7 1.2 1.3.5-.4-.6-.2-1.2.4-1.2.6 0 .8-1 .4-2.4-.6-2.7 2-4.3 4.2-2.5 1.6 1.3 1.8.5.4-2.1-.8-1.5-.6-1.7 1-1.3 1.1.3 2 0 2-.6s-.4-1.1-.9-1.1-1.1-.9-1.4-1.9c-.3-1.3 0-1.8.8-1.5 1.8.7 3-1.5 1.6-2.9-1.6-1.6-1.4-3.2.3-1.8 1 .9 1.6.9 2.1.1.4-.6 1.5-.8 2.5-.5 1 .3 2.1.1 2.5-.4.3-.6 0-.8-.8-.5-1 .4-1.6-.4-1.9-2.6-.4-2.6-.2-2.9 1.4-2.4 1.2.3 1.8 0 1.8-1 0-1.9 1.1-2.1 2.8-.4 1.7 1.7 1.5.3-.4-3.3-1.5-3-1.5-3.1.6-2.4 1.9.6 2.1.4 1.5-1.4-.5-1.6-.3-2 .9-1.5s1.6 0 1.6-1.8c0-1.6.9-2.9 2.5-3.8 1.5-.8 2.5-2.2 2.5-3.5 0-1.3.7-2.8 1.5-3.5.8-.7 1.5-1.7 1.5-2.2 0-.6 1.2-1.9 2.6-3 1.4-1.2 2.2-2.4 1.7-2.7-.4-.3-1.4-1.3-2.1-2.2-1.1-1.5-.9-1.6 1.5-1.5 1.6.1 3.5.6 4.3 1.1 1.2.7 1.3.6.4-.6-1.6-2-1.4-5.2.2-3.8 1 .8 1.5.1 2.4-3 .6-2.2 1.7-4.7 2.5-5.5.8-.8 1.5-1.9 1.5-2.4s.9-1.7 2-2.7c1.1-1 2-2.3 2-2.8 0-.6 1.1-2.5 2.5-4.3 1.4-1.8 2.5-3.7 2.5-4.3 0-.6.5-1.1 1-1.1.6 0 1-.8 1-1.8s.9-2.8 2-4c1.1-1.2 2-3 2-4 0-2.9 2.9-9.4 5.3-12l2.1-2.3 1.8 2.3c.9 1.3 2 3.5 2.3 5zm164.5 16.7c-1.4 2.6-1.3 3.4.4 2.8.7-.3 2.3.1 3.5.9 1.9 1.4 2.1 1.3 2.1 0 0-.9.5-1.6 1-1.6.6 0 1 .4 1 .9s.3 1.6.6 2.5c.5 1.2 0 1.6-2 1.6-2.7 0-3.1.7-2 3.4.7 1.9 3.5 2.2 3 .3-.1-.6-.1-.9.1-.5.3.5 1.3.8 2.4.8 1.1 0 1.9.7 1.9 1.6 0 1.3-.3 1.4-1.4.5-.8-.7-1.7-.8-2-.3-.3.6.1 1.5.9 2.2.8.7 1.4 2.7 1.4 4.4-.2 3-.2 3-.6.3-.2-1.5-1-2.7-1.8-2.7-1.8 0-1.2 5 .9 6.5.8.7 1.3 1.5.9 1.8-.3.4 0 1.3.7 2.2.7.8.9 1.5.5 1.5-1.2 0-4.5-4.2-4.5-5.6 0-.8-.6-1.1-1.5-.8-1.7.7-2.1-1.1-.5-2.1.6-.3 1-1.4 1-2.3 0-1.2-.3-1.3-1.2-.4-1.7 1.7-2.9 1.5-2.2-.3.4-.8 1.5-1.5 2.6-1.5 1.7 0 1.8-.2.4-1.5-.8-.8-2-1.5-2.6-1.5-.6 0-.8-.5-.5-1 .3-.6.1-1-.6-1s-.9 1-.7 2.5c.3 1.4.1 2.8-.4 3.1-.4.3-.6 1-.3 1.5 1 1.5-2.2 1-3.9-.6-2.1-2.1-2.7-1.9-2.2.8.6 3.3-2.1 3.1-5.3-.5-2-2.1-3-2.6-4.1-1.8-1.3.8-1.2 1 .3 1 .9 0 1.7.4 1.7 1 0 .5-.9 1-2.1 1-2.9 0-1.4 1.8 2.4 2.9 3 .9 3.1.9.6 1-1.5.1-3.3.9-4 1.8-1.2 1.5-1.2 1.6.4 1 .9-.3 1.7-.2 1.7.3 0 .6-1.4 1-3.2 1-2.5 0-2.9-.3-2-1.2.7-.7 1.2-1.7 1.2-2.3 0-.5-.4-.4-.9.4s-1.4 1-2.1.6c-1-.6-.8-1.1.6-2.2 1.9-1.4 1.9-1.5 0-2.9-1.2-.8-1.5-1.4-.7-1.4 1.1 0 1.1-.3.1-1.5-.9-1-.9-1.5-.1-1.5.6 0 1.1-.5 1.1-1 0-1.5-1.6-1.2-3.4.5-1.8 1.8-2.8 1.9-2.4.2.1-.6-.2-2.2-.6-3.5-.6-1.8-1.1-2.1-2.1-1.2-.8.7-1.9.9-2.5.5-1.6-1-2.4 2.3-1 4 2 2.4.6 2.8-1.5.5-1.7-1.9-1.7-2.1 0-4 1-1.1 2.2-1.7 2.7-1.4.6.4.8-.5.3-2.4-.8-3.9 1.2-5.2 2.5-1.6.8 2.1 1.3 2.5 2.3 1.5.9-.9.9-1.4-.3-2.1-.8-.5-1.1-1.2-.8-1.6.4-.3 1.5.1 2.4 1.1 1.4 1.4 1.5 2.1.6 3.6-1.5 2.3-1.5 3.9-.2 3.9.6 0 1-.6 1-1.3 0-2.3 2.2-3.8 3.7-2.5 1.1.9 1.5.7 2-1 .4-1.7 1.2-2.2 3.4-2 2.1.2 2.8.6 2.4 1.7-.6 1.6 2.5 4.9 4.2 4.4.7-.3.9-1.1.6-1.9-.3-.8 0-2 .6-2.8.6-.7.8-1.6.4-1.9-.3-.4.1-.7 1-.7 2 0 2.1.4.7 3.1-.9 1.5-.7 1.9.5 1.9.9 0 1.3-.5 1-1-.3-.6-.1-1 .4-1 .6 0 1.1.4 1.1 1 0 1.4 2.7 1.2 3.6-.3.4-.6.4-.9 0-.5-2.2 1.9-6-6.4-3.9-8.5 1.4-1.5 2.3-.6 1.3 1.2zm15.5 81.9c-2.3 1.9-2.2 5.2.2 5.2 1.3 0 1.3-.3.3-1.5-.7-.8-1-1.5-.7-1.5.3 0 1.3-.3 2.3-.7 1.4-.5 1.6-.2 1.2 2-.4 2.3-.3 2.5 1.3 1.6 1.4-.7 1.9-.6 1.9.2 0 .7.9.9 2.1.6 1.5-.4 1.9-.2 1.5.8-.3.8 0 1.5.6 1.7 1.4.5.3 3.8-1.2 3.8-.5 0-1-.7-1-1.5s-.4-1.5-1-1.5c-1.4 0-1.3 1.3.3 2.9 1 1.1 1 1.4 0 1.8-.7.3-1.3 1-1.3 1.7s-.8 2.3-1.9 3.5c-1.6 1.8-2 1.9-2.5.6-.3-.9-.2-1.3.4-1 1.2.7 1.2.3.4-1.9-.3-.9-1.5-1.6-2.5-1.6s-1.9-.5-1.9-1c0-.6-.7-1-1.6-1-1.3 0-1.4.3-.4 1.5.6.8.9 1.8.6 2.4-.4.5.1 1.6 1 2.5 1.4 1.4 1.3 1.6-.9 1.4-1.9-.2-2.3-.6-1.9-2.3.5-1.9.5-1.9-1.2-.2-1.8 1.7-1.9 1.7-3.3-.3-.8-1.1-1.2-2.4-.8-2.9.3-.5-.8-1.2-2.5-1.6-1.6-.4-3-1.1-3-1.6 0-1.2.7-1.1 3 .1 1.3.7 2.1.6 3-.5.7-.9.9-1.9.5-2.3-.4-.4-1-.1-1.2.5-.8 2.3-2.3 1.3-1.7-1.1.4-1.8 0-2.8-1.7-4-1.3-.8-2-1.9-1.6-2.3.4-.3 1.3-.1 1.9.5 1.7 1.7 3.8 1.5 3.2-.3-.9-2.2 1.3-1.8 2.9.6 1.6 2.2 3.1 1.2 1.6-1.1-1.4-2.3-1.1-2.9 1.3-2.2 1.4.3 1.9.1 1.4-.6-.5-.8-.1-1 1-.5 1.4.5 1.6.2 1.1-1.7-.6-2.2-.5-2.2 1.1-.6s1.6 1.8-.3 3.4zm426.7 100.4c.5 4.4.4 6.7-.3 6.2-.5-.3-.9-.1-.9.5 0 .5.5 1.3 1.1 1.7.8.4.7.9-.2 1.5-.7.4-1 1.1-.6 1.6 1 1 4.3-1.2 3.9-2.6-.4-2.1 2.8-2.4 7.3-.6 2.7 1 4.2 2.1 3.9 2.7-.5.7.3.9 2.2.4 1.6-.4 3.1-1.2 3.2-1.7.2-.5 1.1-.9 1.9-.9 1.3 0 1.3.3.3 1.5-.7.8-1 2.1-.6 3 .4 1.2.2 1.3-1.3.3-1.3-.8-2.3-.8-3.7.1-1.2.7-1.4 1.1-.4.9 2-.3 6 2.3 6 3.9 0 .7-.7 1-1.5.7-.8-.4-1.5-.1-1.5.5s1.1 1.1 2.5 1.1 2.5.4 2.5 1c0 .5-1.1 1-2.5 1-3 0-3.3 1.6-.5 2.3 3.2.8 7.5-.7 7.2-2.6-.4-2.4 1.9-3.3 3.4-1.3.7 1 1.8 1.5 2.4 1.1.9-.5 1-.1.5 1.6-.4 1.3-1.2 2.6-1.6 2.7-.5.2-.6.8-.3 1.3.3.6.1 1.6-.5 2.3-1.4 1.7-.4 4.6 1.6 4.6.9 0 1.3.8 1.1 2.2-.2 1.7.1 2.2 1.4 2 1.3-.2 1.6.2 1.2 1.3-.4 1-1.3 1.3-2.5 1-2.4-.8-2.4 0 .1 2.7 1.5 1.6 1.7 2.5.9 4-1.4 2.6-.4 3.4 2.5 2 2.4-1.1 3.6-.7 3.6 1.1 0 .5-.6.7-1.4.4-.8-.3-2.3.5-3.5 1.7-2.5 2.7-2.7 3.8-.5 2.9 1-.4 2.1.1 2.7 1.3 1.5 2.5 1.8 4.6.6 3.8-.5-.3-.9.2-.9 1 0 2 1.4 2 3 .1s2.6-1.9 3.4.1c.3.8.2 1.3-.3 1-.5-.3-1.4.1-2.1.8-.9 1.1-.8 2 .1 3.8 1.7 3 1.9 4.7.8 5.4-1.5.9-3.2-.7-2.1-1.8 1.4-1.4.4-3.8-1.5-3.8-1.1 0-1.3.3-.5 1.2.8 1 .4 1.3-1.4 1.4-2.8.2-2.8.1-1.2-2.5.9-1.5.9-2.5 0-4.3-.7-1.3-1.1-1.6-.8-.7.5 1.9-2.7 7.2-3.8 6.2-.4-.4-.4 0-.1.9.4 1 1.3 1.4 2.2 1.1 1.4-.5 1.3-.1-.3 2.5-1 1.8-2.3 3.1-2.9 3.1-2.7-.3-4.6.2-4 1.1.8 1.4-1.1 1.3-3.4-.2-1.5-.9-1.7-1.5-.8-2.9 1.5-2.4.5-3.2-2.7-2.3-2.7.6-3.6 2.4-1.3 2.4.7 0 1.3.9 1.4 2 .1 1.1-.2 2-.8 2-.5 0-.9-.7-.9-1.5s-.6-1.5-1.4-1.5c-2.2 0-3-1.9-1.6-3.5 1.5-1.8.3-2-1.4-.2-1.5 1.5-.2 6.2 1.4 5.2.5-.3 1 .1 1 .9 0 .9-.2 1.6-.4 1.6s-1.1.3-1.9.6c-1 .4-1.7-.2-1.9-1.6-.2-1.1-.7-2-1.3-2-.5.1-.9.8-.7 1.6.2.8-.2 1.4-.7 1.4-1.7 0-2.3-2-1.1-3.5.7-.8.7-1.5.1-1.9-1.2-.8-2.1.6-2.7 3.9-.4 2.5.1 2.9 4.1 2.6 1.7-.2 1.7 0 .5.8-1.3.9-1.2 1.1.3 1.1 1 0 1.5.5 1.2 1-.4.7-1.4.5-2.8-.5-2.8-2-3.4-1.9-4.2.6-.5 1.6-.9 1.8-1.5.9s-1.1-.6-2 1c-1.2 2.2-1.3 2.3-2.6.6-.8-1.2-1.9-1.6-3.3-1.1-1.2.3-1.9 1-1.6 1.5.3.5-.4 1.8-1.7 2.9-1.2 1.2-1.8 2.4-1.5 2.8.4.3.7.1.7-.5 0-.7.9-1.2 2-1.2 1.8 0 1.9.3 1 2-.6 1.1-1.9 2-2.9 2-2.1 0-2.2 4.1-.2 4.8.9.3 1.1-.2.7-1.6-.6-1.8-.1-2.3 2.6-3.1 1.8-.5 2.7-1 2.1-1-1.8-.1-1.6-2.1.1-2.1 1.8 0 3 3.1 1.6 4-.6.4-.8 1.5-.3 2.6.6 1.6.5 1.7-.9.6s-1.7-1-2.4 1c-.4 1.3-.7 2.7-.6 3.1.1.4-.5 1-1.5 1.4-1.5.6-1.5.7.3 1.4 1.7.7 1.7.8.2.8-1 .1-1.8.5-1.8 1.1 0 1.2 2.3 1.3 3.4.2 1.1-1 5-.9 5.8.2.4.6 1.3.4 2.2-.3 2.4-2 1.9-3.2-.9-2.5-2.1.5-2.5.3-2.5-1.4 0-1.1-.8-2.3-1.7-2.5-1.1-.3-.6-.5 1.1-.6 2.3-.1 2.7.2 2.3 1.8-.3 1.3 0 1.7 1.2 1.5.9-.3 2.2 0 3 .5 1.1.7 1 1.3-.7 3.1-1.2 1.4-2.7 2-3.7 1.7-.9-.4-2.4.2-3.5 1.3-2.4 2.4-4.9 2.8-2.9.4 1.2-1.4 1.1-1.6-.6-1.3-1.1.3-2.2 1.6-2.7 3.5-.7 2.9-3.4 5.2-4.6 3.9-.3-.3 0-.5.6-.5.7 0 1.2-.7 1.2-1.5s.5-1.5 1.1-1.5c.8 0 .8-.4 0-1.4-.7-.8-.9-2.5-.5-4 .5-2.2.3-2.6-1.6-2.6-1.6 0-2-.4-1.6-1.5.3-1-.1-1.5-1.1-1.5-1.4 0-1.4-.2.3-1.5s1.7-1.4.2-1.5c-1.2 0-1.5-.5-1.1-1.7.4-1.1.3-1.4-.6-.9-1.2.8-1.1 4.2.3 6.4.4.7.5 1.6.2 1.9-.3.3.5 1.4 1.7 2.4 2.1 1.8 2.1 1.8.2 1.9-1.8.1-1.9.1-.2 1.1 2.1 1.2 2.3 3.1.2 2.3-.8-.4-1.5-.1-1.5.5s.5 1.1 1.2 1.1c.9 0 .9.3 0 1.2-1.7 1.7-1.6 5.1.2 4.5.7-.3 1.8-.1 2.4.5.8.8 1.3.6 1.8-.8.4-1 1.4-2.7 2.2-3.7 1.2-1.3 1.7-1.5 2.4-.5 1.2 2 .9 3.1-.7 2.4-2.4-.9-2.8 1.8-1 5.5 1.5 2.9 1.5 3.1.1 2.6-1.2-.5-1.6 0-1.6 1.8 0 1.4-.5 2.5-1.1 2.5-.5 0-.7.4-.4 1 .3.5.2 1-.3 1-1.9 0-2.1-1.4-.5-4.1 2-3.3 1.1-4.9-1.7-3.1-2.6 1.6-3 1.5-3-.4 0-.8-.4-1.3-.9-1-.4.3-.6-.6-.3-2 .3-1.5-.1-2.9-.8-3.4-.7-.4-.9-1.3-.6-1.9.4-.6 1.2-.9 1.7-.6.5.4.9.1.9-.4 0-.6-.5-1.1-1.1-1.1-.8 0-.8-.4.1-1.5.6-.8.9-1.9.5-2.5-.8-1.3-4.5-1.3-4.5.1 0 .5-.5.7-1.2.3-.9-.6-.9-.9-.1-1.1.7-.3.9-1.1.6-1.9-.3-.9-1.3-1.2-3.2-.7-2.6.6-2.6.6-.7-1.6 1.9-2.1 1.9-2.1-.4-2.1-2 0-2.1-.2-.9-1.7 1.1-1.3 1.1-1.7.2-2-.7-.3-1.3-1.1-1.3-1.9 0-.9-1.1-1.4-3.1-1.4-2.5 0-2.9-.3-2.4-1.9.3-1.2 0-2.1-1-2.5-.8-.3-1.5-1.3-1.5-2.3.1-1.5.4-1.5 2 .6 1.5 1.7 2.6 2.2 4.5 1.7 1.8-.5 2.5-.2 2.5.9 0 .8.5 1.5 1.1 1.5.6 0 .8-.9.3-2.3-.9-3-.9-3-3.2-1.8-2.1 1.1-4.2-.2-4.2-2.6 0-.7-.7-1.3-1.5-1.3-2.8 0-1.8-5.4 1.5-7.8 3.5-2.7 3.7-2.7 4.3-.5.3 1 .4.6.4-.9-.1-2.3-.5-2.7-2.2-2.2-1.1.4-2.3 1.1-2.7 1.7-.4.7-1.2.6-2.2-.2-2.2-1.9-2-3.4.4-2.8 2.3.6 2.5.2.8-1.7-.9-1-1.5-.9-2.9.5-1.6 1.6-1.7 2.1-.4 4.6 1.3 2.5 1.3 2.8 0 3.1-1.8.4-1.9 1.4-.3 3 .8.8.8 1.2.1 1.2-2 0-3.7-3-2.5-4.2 1.5-1.5 1.6-3.2.2-2.3-.6.4-1-.6-1-2.4 0-1.6-.3-3.6-.6-4.5-.4-1.1 0-1.6 1.2-1.6 1.6 0 1.6-.2.4-1-1.2-.8-1.2-1 .3-1.6 2.4-.9 2.1-2.1-.9-4.9-2.4-2.3-2.4-3 0-2.6.4.1.6-.9.2-2.3-.4-1.5-.1-2.7.7-3 .6-.3.1-.3-1.1 0-2.1.5-2.3.3-1.7-1.5.5-1.6.2-2.1-1-2.1-.9 0-1.5.6-1.2 1.2.2.7-.3 1.9-1.2 2.6-.9.8-1.1 1.1-.6.8.6-.2 1.7 0 2.5.5 1.3.8 1.3 1.1 0 2.2-2.1 1.7-2.3 3.7-.5 3.7.8 0 1.5.4 1.5.9s-.7 1.4-1.5 2.1c-1 .9-1.5.9-1.5.1 0-.6-.5-1.1-1.1-1.1-.5 0-.7.5-.3 1.1.3.6 0 1.5-.7 2-1 .6-.7.8.9.6 1.2 0 2.2-.5 2.2-.9s.7-.8 1.5-.8 1.5-.5 1.5-1.1c0-.5.5-.7 1.1-.3.7.4.7.9.2 1.3-.6.3-1.2 1.2-1.5 2-.2.8-1.8 1.5-3.6 1.5-2.6.1-3.4-.4-3.9-2.2-.3-1.3 0-2.9.6-3.5 1.7-1.7 1.3-2.2-1.6-2.5-1.5-.1-3 .4-3.5 1-.5.9-.8.5-.8-1.1 0-1.3-.7-2.9-1.6-3.6-1.5-1.1-1.5-1.2 0-1.2.9 0 1.6.4 1.6.9 0 .4.9.8 1.9.8 1.1 0 2.1.6 2.4 1.2.2.8.8.9 1.3.4s.4-1.1-.3-1.3c-1.8-.6-1.6-2.3.1-2.3.8 0 1.9-1.5 2.4-3.3 1.6-5.1 1-8.2-1.1-6-.4.3-.2 1.2.5 2 1.3 1.6.2 3.1-1.2 1.7-.5-.5-1.6-2.7-2.4-4.9l-1.5-4v3.2c-.1 3.9-1.3 4.2-3.1.8-.7-1.3-1.7-2.2-2.2-1.9-.5.3-.1 1.2.9 1.9s1.5 1.7 1 2.1c-.4.4-1.3.2-1.9-.4-1.5-1.5-3.8-1.6-3.8-.1 0 .5.4.8.9.4 1.3-.7 2.4 1.3 2.5 4.6.1 2.1-.2 2.5-1.1 1.7-.7-.6-1-1.4-.8-1.9.6-.9-2.5-4.4-4.6-5.1-.7-.2-.9-.9-.5-1.7.5-.7 1.4-1 2.2-.7 1.7.7 1.8-.6.2-2.3-1.1-1.1-.8-1.3 1.7-.8 1.7.4 2.4.4 1.8.1-.7-.3-1.3-1.4-1.3-2.4 0-1.9-2.5-3.4-4.1-2.4-1.7 1-.9 2.4 1.4 2.5 1.6.1 1.7.3.5.6-.9.2-2 1.3-2.3 2.4-.7 2.2-2.5 2.6-2.5.5 0-1.3-3.5-3.2-5.1-2.8-1.1.2-5.9-4.6-5.9-5.8 0-.7.9-1.4 2-1.7 1.1-.3 2-1 2-1.5 0-.6.7-.7 1.6-.4.9.3 1.2.2.9-.5-.4-.6-1.4-.8-2.2-.5-1.1.4-1.3.2-.9-.9.3-.9 0-1.5-1-1.5-.8 0-1.4.7-1.2 1.6.2 1-.3 1.9-.9 2.1-1.8.6-3.6-4.7-2.5-7.2.5-1.1.8-3.2.8-4.8-.1-1.6.3-2.7 1.2-2.7.8 0 1-.5.6-1.3-.5-.9-.3-.9.7.1 1.2 1.1 1.2 1.4-.1 2.2-1.1.7-.8 1 1.3 1.5 2.6.7 3.8 2.5 1.7 2.5-1.6 0-1.1 1.9 1 3.7 1.1 1 2 2.3 2 3 0 .7.9 1.3 2 1.3s2-.5 2-1.1c0-.5-.4-.7-1-.4-.5.3-1 .1-1-.4 0-.6.4-1.1.8-1.1.5 0 .7-1.4.6-3-.2-2.5.2-3 1.9-3 2.1.1 2.1.2.5 1.4-1 .7-1.8 1.7-1.8 2.1 0 .5.9 0 2.1-1.1 1.3-1.2 1.9-2.7 1.6-4.1-.3-1.8-.1-2.1.9-1.2.7.6 1 1.7.7 2.5-.6 1.7.8 1.8 2.6.1 1.1-1 1.3-.8.9.9-.4 1.3.1 2.5 1.3 3.3 1.6.9 1.9.8 1.9-.5 0-.8-.4-1.2-1-.9-.5.3-1 .1-1-.4 0-.6.5-1.1 1-1.1 1.5 0 1.2-1.9-.5-3.6-.8-.9-1.5-2.1-1.4-2.7 0-.9.2-.9.5 0 .3.7 1.2.9 2 .6 1-.4 1.2 0 .8 1.1-.3.9-.1 1.6.5 1.6s1.1.6 1.1 1.4c0 .8.7 1.7 1.6 2 .8.3 1.3 1 .9 1.5-.3.6.7 1.7 2.2 2.4 2.5 1.4 2.9 1.3 4.5-.6l1.8-2v2.1c0 3 1.2 2.8 2.7-.4 1-2.2 1-2.5-.3-2-.7.3-1.4.1-1.4-.5 0-.5-1.1-.7-2.4-.3-1.3.3-2.7.1-3.1-.6-.4-.6-1.8-1.5-3.1-2s-2.4-1.5-2.4-2.2c0-1 .2-1 .8-.1.6 1 1.2 1 2.8-.1 1.8-1.4 1.8-1.5-.5-2.4-1.5-.5-2-1.1-1.3-1.6.6-.3 2 .3 3.1 1.5 1.6 1.8 1.8 2.5.9 3.7-1 1.1-.8 1.3.8 1 1.2-.1 2.8.3 3.7 1 1.2 1 2.1 1.1 3.6.3 2.5-1.4 5.1-1.4 5.1-.1 0 .6-1 1.4-2.2 1.9-2 .7-2 .8-.2 1.5 1.9.7 4.8-1.8 4.1-3.7-.3-1.1-7.5-3.9-10-3.8-1.4 0-1.5-.3-.4-1.2 1.4-1.3 5.4-3.7 6.2-3.7.3 0 .5.7.5 1.5s-.5 1.5-1.2 1.5c-2.1 0 1 2.4 3.3 2.5 2.1.2 2.1.1.4-1.2-1.8-1.2-1.8-1.3-.1-1.3 1.9 0 4.8 2.4 4 3.3-.3.3.4.3 1.6 0 1.2-.3 1.9-1.1 1.6-1.9-.3-.7.2-1.8 1-2.5 1.3-1.1 1.5-1 1.2.2-.1.7.2 1.6.7 1.9.6.3 1-.6 1.1-2 .1-1.4.5-3.3.9-4.3.5-1.2.3-1.7-.9-1.7-.9 0-1.6-.4-1.6-.9s-1.5-1.2-3.2-1.7l-3.3-.8 3.5-.4c2.3-.2 3.8.1 4.6 1.2.6.9 1.6 1.6 2.3 1.6.6 0 1.1.5 1.1 1.1 0 .6.9.8 2.1.4 2.5-.8 3.9.8 3.9 4.7 0 2-.4 2.6-1.4 2.2-1.1-.4-1.3 0-.9 1.5.4 1.6.9 1.9 1.8 1.1 1.5-1.2 3.1.3 2.1 1.9-.7 1 2.7 2.1 6.5 2.1 2.9 0 4-1.7 3.4-5-.5-2.6.3-2.5 4 .4 2.9 2.3 2.9 2.4 1.2 5-1 1.4-2.5 2.6-3.5 2.6s-2.4.6-3.1 1.2c-1 1.1-1.4 1-2.2-.5-.6-.9-1.5-1.7-2.1-1.7-.7 0-.7.4.1 1.4.6.7.8 2.1.5 3.1-.6 1.4-.3 1.6 1.4 1 1.7-.5 2.2-.2 2.2 1 0 .9.7 2.3 1.5 3.1 1.3 1.4 1.5 1.3 1.5-.6 0-1.2-.4-1.8-1-1.5-.5.3-1-.3-1-1.5s.4-1.8 1-1.5c.5.3 1.5-.3 2.2-1.5.7-1.1 1.8-2 2.4-2 .7 0 1.4-.7 1.8-1.5.3-.8 1-1.5 1.6-1.5.7 0 .7.6 0 2.1-1.3 2.3-.4 4.1.9 2 .7-1 1-1 1.6-.1.4.7.2 1.6-.6 2.1-1.1.6-1.1 1.1-.1 2.1.9.9 1.2.9 1.2-.5 0-.9.5-1.7 1.1-1.7.7 0 .5-1-.5-2.5-.9-1.3-1.6-3.2-1.6-4.1 0-1 1.3.2 3 2.7 2.4 3.5 2.6 4.5 1.4 4.7-.9.2-1.3 1-1 1.8.3.8-.1 1.4-1 1.4-.8 0-1.3.4-1 .9.3.5-.5 1.2-1.9 1.5-1.4.4-2.5 1.3-2.5 2.1 0 .7-.9 1.7-2 2-1.1.3-2 1.1-2 1.7 0 .7.5.6 1.5-.2.8-.6 1.8-.9 2.4-.6.5.4 1.2-.3 1.6-1.4.3-1.1 1.3-2 2-2 .9 0 1.2.6.9 1.5-.4.8-1.1 1.5-1.6 1.5-.6 0-.7.7-.4 1.6.4 1-.1 2.5-1 3.5-1.6 1.8-1.6 1.9.4 1.9 1.8 0 2.2-.6 2.2-3.3 0-3.9 1.3-6.2 3-5.2.8.5.7 0-.2-1.4-.8-1.4-1-2.4-.3-2.9.6-.4 1.7-1.8 2.6-3.1 1.4-2.2 1.4-2.8.2-5.3-.8-1.5-1.7-2.8-1.9-2.8-.3 0-.2.4.1 1 .3.5.2 1-.4 1-.5 0-1.5-1.6-2.1-3.5-.6-1.9-1.6-3.5-2.1-3.5s-.9-.7-.9-1.6c0-1 .6-1.4 1.5-1 1.8.7 2-1.5.3-3.2-1.4-1.4-3.8-1.6-3.8-.3 0 .5 1 1.2 2.3 1.4 1.6.3 1.4.5-1 .6-1.7 0-3.4.5-3.7.9-.3.5-1.9.7-3.6.4-1.8-.3-3 0-3 .7 0 1.2-5.7 1-7.8-.3-1.7-1.1-1.5-2.6.5-2.6 1.4 0 1.3-.3-.5-2.3-1.2-1.3-2.2-2.9-2.2-3.6 0-.8-.7-1-2-.6-2.2.7-2.6-.5-.8-2.3 1.5-1.5 5.2.4 4.4 2.4-.3.8.5 2.4 1.9 3.6 1.9 1.6 2.2 2.4 1.3 3-1 .6-1 1 .2 1.8 1 .6 1.9.5 2.9-.4 1.5-1.6.7-3.6-1.5-3.6-.8 0-1.4-.5-1.4-1.1 0-.7 1-.9 2.6-.5 1.7.5 2.3.3 1.9-.4-.3-.5-.2-1 .3-1 1 0 .8-4.2-.3-5.9-.3-.6.1-1.1.9-1.1.9 0 1.7.6 1.8 1.2zm-303.1 82.5c3.9 1.7 5.8 5 3.3 6-.8.3-2.5-.2-3.9-1.1-2.7-1.8-3.5-2-3.5-.9 0 .5 1.4 1.6 3 2.5 1.9 1.1 2.8 2.2 2.4 3.2-.8 2.2-3.4 2.8-5 1.1-1.7-1.7-3.4-2-3.4-.6 0 .5.9 1.3 2 1.6 1.1.4 2 1.5 2 2.7 0 1.7-.5 2-2.7 1.5-1.6-.3-3.6-.9-4.6-1.2-1.3-.6-1.6-.3-1.1.9.3.9 1.4 1.6 2.4 1.6 2.6 0 3.5 1.9 1.7 3.7-1.3 1.3-1.9 1.2-5.8-.9-4.8-2.7-6-6.1-2.3-6.6 1.6-.2 2-.9 1.6-3.2-.4-2.5-.1-2.8 1.7-2.3 1.7.4 2.1.1 2.1-2.1 0-1.9.5-2.6 2-2.6 1.3 0 2-.7 2-1.8 0-3.6 1-3.8 6.1-1.5zm332.9 9.5c0 .7.3 3 .6 5.1.4 2.1.3 3.7-.2 3.5a.8.8 0 00-1.1.6c-.1.4-1.4 1.4-2.8 2.2-2.3 1.2-2.9 1.2-4.2-.1-1.9-1.9-3.3-1.9-3.3 0 0 .8-1.1 1.7-2.5 2.1-3.1.8-2.7 2.9.4 2.8 1.2 0 2 .4 1.8 1-.2.6-1.4 1.2-2.6 1.2-1.2.1-2.4.4-2.8.7-.6.7-3.3-1.7-3.3-2.9 0-.5.5-.3 1.2.4 2 2 3.3 1.4 1.4-.7-.9-1-1.4-2.5-1-3.5.3-.9.1-1.6-.5-1.6s-1.1.7-1.1 1.5-.4 1.5-1 1.5c-1.9 0-1-2.2 2-5 1.7-1.5 3-3.3 3-3.9 0-.6.2-1.1.4-1.1s1.3-.3 2.3-.7c1.6-.6 1.6-.5.4 1-1.8 2.2.2 2.2 2.4.1 1.5-1.6 1.8-1.6 3.3.1 1.6 1.6 1.6 1.7-.5 1-1.7-.5-2.3-.2-2.3 1 0 1.1.7 1.4 2.4 1.1 2-.4 2.3-.1 1.9 1.7-.5 1.9-.2 1.9 2.1-.7 2.9-3.2 3.4-6.4 1.1-7.2-2.2-.9-1.8-2.4.5-2.4 1.1 0 2 .6 2 1.2zm-352.2 18.1c1.7 1 3.2 2.5 3.2 3.3 0 2.3-2.8 2.8-5.6.9-1.4-.9-2.8-1.5-3-1.2-.9.8.8 3.7 2.2 3.7 1.8 0 1.8 2.9.1 3.6-.7.2-2.7-.2-4.3-1.1-4-2-5.1-1.9-2.9.5 1 1.1 2.2 1.7 2.6 1.4.5-.3.8.5.6 1.7-.2 1.3-.9 2.5-1.5 2.7-1.2.4-9.2-4.4-9.2-5.6 0-1.4 2.3-3.2 4.1-3.2 1 0 1.6-.7 1.5-1.8-.1-1.2.6-1.7 2.7-1.7 2.4.1 2.7-.3 2.7-3.2 0-3.6.6-3.6 6.8 0zm-15 14.8c1.7 1.6 3.2 3.4 3.2 4 0 1.9-3 2.1-5.6.4-1.4-.9-2.9-1.3-3.2-1-.4.4.3 1.4 1.6 2.2 2.4 1.7 3 5.3.9 5.3-.7 0-2.2-.7-3.3-1.5-2.9-2.2-3.7-1.8-1.4.7 3.8 4.1 1.9 6.9-3 4.3-3.2-1.7-4.1-1-1.3 1 2 1.5 1 5-1.2 4.1-5.1-2.1-5.1-2.1-3.1.3 2.6 2.9.9 5-2.9 3.3-2.6-1.2-3.3-.4-1.4 1.5 2.9 2.9-2.2 4.4-5.3 1.6-1-.9-1.8-1.1-1.8-.6 0 .6.7 1.3 1.5 1.7 1.9.7 2 3.5.1 4.2-1.7.7-7.6-3.4-7.6-5.3 0-.7.6-1.3 1.4-1.3.8 0 2.2-1 3-2.1.9-1.3 2.1-1.9 3-1.6 1.1.5 1.6 0 1.6-1.4 0-1.2.8-2.3 1.9-2.6 1.1-.3 2.1-1.5 2.3-2.7.2-1.6.9-2 2.9-1.8 2.3.2 2.5-.1 2.1-2.8-.3-2.3 0-3 1.2-3 .9 0 2.1-1.1 2.6-2.5s1.6-2.5 2.5-2.5c.9 0 2-1.1 2.5-2.5 1.2-3.3 2.8-3.1 6.8.6zm-92.5 85.5c1 .4 1.7 1.7 1.7 3.1 0 2.3-.3 2.5-3 1.9-3.6-.7-3.8-.1-.8 2.3 2.9 2.4 1.8 5.6-1.7 4.7l-2.4-.6 2.4 2.4c2.1 2.1 2.3 2.9 1.4 4.9-.8 1.8-.8 3 0 4.6 1.1 1.9.9 2.2-2 2.8l-3.2.6 2.7 1.4c1.8.9 2.6 2 2.2 3-.3.8-.6 1.9-.6 2.4 0 1-4.1.5-6-.6-1.4-.9-1.3-3.8.3-5.4 1-1.1 1-1.4 0-1.8-1.6-.6-1.7-3.5-.2-5 .8-.8.8-1.7-.1-3.3-.9-1.8-.9-2.5.5-4 1.1-1.2 1.4-2.6.9-4.4-.4-1.9-.2-2.7 1-3.2.9-.4 1.6-1.8 1.6-3.3 0-3.1.9-4.4 2.4-3.6.6.3 1.9.8 2.9 1.1zm-130.7 45.6c.1 2.6.7 5.5 1.4 6.3.9 1.1 1.3 5.2 1.2 13.6-.1 14.1-.7 15.3-8 16.2-2.6.4-5.8.9-7.2 1.2-1.4.3-4.1.7-6 1-8.1.8-8.5 1.1-11.9 9.5-1.8 4.3-3.6 9.4-4.1 11.4-.8 3.5-.7 3.6 1.9 2.9 1.4-.3 4.3-1.2 6.5-2 2.1-.7 4.8-1.3 6.1-1.3 1.2 0 2.5-.3 2.9-.7.4-.4 1.3-.8 1.9-.8.7-.1 3.8-.9 7-1.9 10.1-3.1 9.1-8.3 9.2 51.2.1 58.9.8 54.4-7.8 56.8-2.3.7-7.6 2.2-11.7 3.4-17.6 5.1-21 5.4-21 1.3 0-2.3-5.2-1.2-20 4.3-8.6 3.1-23.2 7.4-25.3 7.4-1.3 0-2.8.5-3.4 1.1-1.9 1.9-5.8.6-6.2-2.1-.4-3.3 2.9-18.1 7.1-31.9l2.3-7.4 5-1.7c2.8-1 8.8-2.8 13.5-4 4.7-1.2 12.1-3.3 16.5-4.6 4.4-1.3 9.8-2.6 12-2.9 3.7-.6 4.1-.4 5.7 2.4 1.3 2.4 2.4 3.1 4.6 3.1 3.9 0 4.6-1.1 7.7-11 1.5-4.7 4.1-12.3 6-17 1.8-4.7 3-8.9 2.8-9.4-.6-1-7.6 0-10.1 1.4-2.7 1.5-13.9 5-16.1 5-1.2 0-2.8-1.2-3.8-2.8-.9-1.5-3.1-4.3-4.8-6.3-1.6-2-4.1-5.3-5.5-7.3-2.7-3.8-3.6-4.1-9-2.6-1.9.5-4.8 1.1-6.5 1.4-1.6.3-4.2.8-5.6 1.1-1.7.4-3.2 0-4.2-1-1.5-1.4-1.5-2 .2-6.3 1.1-2.6 2.7-6.7 3.6-9.2 2-4.9 9.6-23.2 12.4-29.5 1-2.2 2.4-5.8 3.1-8 .7-2.2 1.6-4.5 2-5 .3-.6 1.5-3.3 2.5-6 3.1-8.7 5.2-11.3 9.8-12.5 2.3-.6 9.4-2.7 15.7-4.7 6.3-1.9 13.1-4 15-4.5 1.9-.6 4.4-1.4 5.5-1.9 1.1-.4 3.1-.7 4.5-.6 2.3.2 2.5.6 2.6 4.9zM257 1240c0 .5-.7 1-1.5 1s-1.5.5-1.5 1.1c0 .5.8.9 1.8.8 2.9-.5 6 1.9 6.7 5.1.4 1.7 1.1 2.8 1.6 2.4.5-.3.9.2.9 1.1 0 .9.9 3.3 1.9 5.4 1.6 3 1.9 5 1.4 9.5-.5 4.9-1.1 6.1-3.9 8.4-5.1 4.2-9.2 6.4-9.9 5.2-.3-.5.1-1 .9-1 .9 0 1.6-.8 1.6-1.8 0-1.2-.2-1.4-.8-.4-.6.9-1.4 0-2.7-2.8-1-2.2-2.1-4-2.4-4-1.2 0-3.1-8.1-3.1-13.4 0-3.5.5-6 1.5-7 .8-.8 1.5-2.5 1.5-3.8 0-2.8.9-4.1 3.5-5.6 2.5-1.4 2.5-1.4 2.5-.2zm1306.6 12.4c-.8 2-1.3 3.6-1.1 3.6.2 0-.2 1.5-1 3.4-.8 1.8-1.1 3.6-.8 4 .4.3.1.6-.5.6-.7 0-1.2.7-1.2 1.5s-.4 1.5-1 1.5c-.5 0-1 .6-1 1.4 0 .8-1.4 4.6-3.1 8.6-1.6 3.9-4.1 12.4-5.5 18.8-4 18.2-8 28.8-16.8 44.1-3.6 6.3-3.6 6.4-1.6 7.8 1.1.8 2 2.2 2 3.1 0 1.8-2.1 8-3.2 9.8-.4.6-1.4 3.8-2.2 7-1.5 6.5-5.2 17.5-8.5 25.7-.6 1.5-1.1 4-1.1 5.5 0 3.2-4.4 15.7-6.5 18.7-5.2 7.1-11.4 14-12.6 14-1.1 0-1.3-1.2-1.1-5 .9-12.9 4-38.6 5.7-46.8 1.9-9 1.9-10.7 0-10.7-2.3 0-1.9-6.5 1-15.6 1.4-4.3 2.5-8.7 2.5-9.7s1.1-4.2 2.4-7c1.3-2.9 2.7-6.3 3.1-7.7.4-1.4 1.8-4.7 3.1-7.4 1.3-2.8 2.4-5.1 2.4-5.3 0-.2-2.1-.3-4.6-.3h-4.7l.6-4.4c.6-4.5 2-7.8 12.4-29.6 8.2-17.2 11.3-23.3 12.7-25.2 1.8-2.4 29.3-10.2 30.9-8.8.5.4.2 2.4-.7 4.4zm659.1 5.4c6.5 8.3 7.1 22.2.9 22.2-2 0-2.1-3.6-.1-4.4 1.9-.7 1.9-5.8.1-11-1.6-4.7-3.2-5.7-6.3-4.3-2.1.9-2.3 1.5-1.7 5.1.3 2.2 1.2 4.9 2 6 2.6 3.8 1.6 5.3-1.4 2.1-3.6-3.8-4.8-11.5-2.5-15.8 1.3-2.5 1.9-2.8 4.5-2.3 1.7.3 3.7 1.4 4.5 2.4zm34.4 10.5c1.5 2 1.5 2.7.4 5.5-.9 2-2.3 3.4-4.1 3.8-1.5.4-3.5 1.5-4.5 2.5-1.1 1.1-2.5 1.9-3.2 1.9-.8 0-1.9 1.1-2.5 2.4-.6 1.4-2.3 2.7-3.9 3-1.6.4-3.3 1.7-3.8 2.9-1.2 2.6-4 3.4-6 1.7-2.5-2.1-1.9-4.3 1-3.6 1.7.4 2.5.2 2.5-.7 0-2.1-1.2-2.8-2.7-1.6-1 .9-1.3.7-1.3-.7 0-2.6 1.1-4 3.8-4.8 1.2-.4 2.2-1.4 2.2-2.2 0-.8 1.1-1.9 2.5-2.4 1.3-.5 3.3-1.7 4.3-2.7 3.7-3.5 6.6-5.3 8.3-5.3.9 0 1.9-.7 2.3-1.5.7-1.8 2.6-1.1 4.7 1.8zm-752.3 3.4c1 2-.1 17.4-1.7 23.8-.5 2.2-1.8 7.4-2.7 11.5-1 4.1-2.1 7.9-2.6 8.4-.4.6-.8 1.6-.8 2.3 0 .7-1.1 3.5-2.4 6.3-2.7 5.5-2.2 6.6 2.9 7.2 2.7.3 3 .6 2.7 3.7-.1 1.9-1.3 5.5-2.7 8-8.6 16.5-21.6 44.4-21.3 45.8.2 1 1.2 1.9 2.3 2.2 1.1.2 2.3.8 2.7 1.5.8 1.2 0 5.5-1.3 7.2-.5.6-2.4 4.9-4.3 9.5-1.8 4.6-4.3 10.4-5.4 12.9-1 2.5-4.1 9.7-6.7 16-2.6 6.3-5.6 13.4-6.5 15.7-2 4.5-6.3 7.4-13 8.8-1.9.4-5.3 1.5-7.5 2.5s-6.7 2.4-10 3c-3.3.7-7.8 1.6-10 2-6.7 1.4-7.1.6-10.6-23.7-.6-4.5-1-11.7-.8-16 .4-7.3.3-7.8-1.6-7.6-3.6.5-6.1-.6-7.1-2.9-1-2.2-.6-15.6 1.1-40.1.6-9 .5-9.7-1.2-9.7-3.9 0-6-2.7-6.7-8.7-1.2-9.4-1.4-12.2-2.1-25.3-.4-6.9-.9-14.2-1.1-16.2-1-6.8-.5-7.1 22.6-13.9 3.6-1.1 7.9-2.4 9.6-2.9 4.6-1.5 6.2-1.2 7.5 1.2 1.3 2.4 1.5 16.4.4 28.5l-.7 8.2 2.8.7c5.4 1.3 5.7 2 4.8 11.4-.8 9.1-.9 10.6-1.8 24.5-.3 4.9-.9 11.7-1.2 15-1.3 13-1.2 13.6 1.8 15.1 2.4 1.3 2.8 2.1 2.8 5.9 0 4.5 1.2 6.5 2.7 4.3.4-.7 1.8-3.7 3-6.6 2.1-5.3 2.1-5.4.2-7.3-2.4-2.4-2.4-2.9.2-9.2 1.2-2.9 2.5-6.1 2.9-7.2.5-1.1 2.3-5.6 4-10 4.4-11.2 6.6-16.1 10.1-22.8 1.6-3.1 2.7-6.2 2.4-6.7-.4-.6-2-1.7-3.6-2.5-2.5-1.3-2.8-2-2.3-4.3.9-3.6 4.3-13.9 5.9-17.7 2.4-5.5 2.8-7 3.1-9.3.2-1.3.7-2.9 1.3-3.5.5-.7 2.3-6.4 3.9-12.7 2.8-11 3.1-11.6 7.2-14.8 2.3-1.7 4.9-3.2 5.8-3.2.9 0 3.3-1 5.2-2.2 4.8-3.1 14.2-7.7 15.7-7.8.7 0 1.6.8 2.1 1.7zm768.7 25.5c.5-.4.4 0 0 .8-1.6 2.7-1.4 5.9.4 6.5.9.3 1.8 1.5 1.9 2.7.1 1.3.3 3.2.5 4.3.2 1.7-.5 2-4.1 2.3-3.9.3-4.2.5-3.6 2.6.7 2.9-1.1 4.3-3.2 2.5-1.3-1-1.7-1-2.5.2-.5.8-.9 2.2-.9 3.1 0 2-2.2 2.3-5 .8-2.8-1.5-4.4 1.2-3.7 6.5.4 2.5.2 4.7-.3 5-.6.3-1 2.2-1 4.1 0 1.9-.4 3.4-1 3.4-1.1 0-1.8-2.8-2.2-8.4-.3-4.5-3.1-7.2-4.9-4.6-.5.8-1.2 2.8-1.6 4.3-.7 3.4-2.8 4.5-5.4 2.9-1.6-1-2.2-.7-4.1 2.2-1.8 2.7-2.8 3.3-5.2 3.2-2.3-.1-3.3.5-4.1 2.1-1.2 2.7-3.7 3.1-3.4.5.3-3.2-.1-6.2-.9-6.2-1.3 0-3.2 3.9-3.8 7.7-.9 6.2-1.4 7.3-3.9 7.9-1.4.3-2.6 1.6-2.9 3-.4 1.6-1.1 2.2-1.8 1.8-.9-.6-.9-.9 0-1.2.9-.3 1-.8.3-1.5-1.4-1.7-.2-6.5 1.8-7.2 1.4-.4 5.9-9.3 7.5-15 .7-2.3 6.3-5.8 7.1-4.5.3.5.1 1.8-.5 2.9-1.4 2.7-1.3 5.1.4 5.1 1.5 0 4-6 5.7-13.8.7-3.3 1.6-5.2 2.5-5.2 1.8 0 1.8 2.1 0 8.7-1.4 5.1-.9 6.6 1.2 4 .5-.6 1.3-2.3 1.6-3.7 1.5-5.4 2.9-8 4.3-8 .9 0 1.2.7.9 1.7-1.5 5.1-1.8 9.3-.7 9.3.7 0 .9-.5.6-1-.3-.6 0-1 .7-1s1.9-1.3 2.6-2.9c.8-1.8 2.2-3.1 3.5-3.3 1.2-.2 2.8-1.5 3.5-3.1 1.4-3 3.2-3.6 3.2-1.1 0 1.4.3 1.4 1.5.4.8-.7 1.5-2.5 1.5-4 0-3.1 2.7-9 4.1-9 .5 0 .7 1.8.4 3.9-.3 2.2-.1 4.2.4 4.6 1 .6 1.6-.9 2.6-7 1-6.5 1.4-7.3 3.4-6.8 1.3.3 2-.2 2.4-1.8.5-1.8.9-2 2-1.1.8.7 1.8.8 2.2.4zm-898 44.3c-.1 11.3-1.8 24.5-3.7 27.4-1.2 2-8.1 5.7-14.8 8.1-1.9.7-4.9 1.9-6.7 2.6-1.7.8-3.6 1.4-4.3 1.4-.6 0-3.4.7-6.1 1.6-4.9 1.6-5 1.6-7.5-.7-1.3-1.3-3-4.2-3.7-6.5-2.1-7.1-7.2-11.5-9.4-8.2-.4.7-2.4 6.1-4.4 12-3.6 10.9-3.5 12.8.2 12.8 3.9 0 4.9 1.1 4.9 5.6 0 4.3.1 4.4 2.8 3.8 1.5-.4 3.9-1.3 5.5-2.1 1.5-.7 4.6-1.8 7-2.3 2.3-.5 7.1-1.5 10.7-2.3 3.8-.9 7.4-1.1 8.6-.7 2.1.8 10.3 9.8 11.7 12.8.4.9 1.6 3 2.6 4.7 1.1 1.6 2 4.2 2 5.6.1 2.3-.8 2.9-7.6 5.7-12 4.8-32.3 11.3-37.5 11.9l-4.7.6-2.9-4.9c-4.7-7.7-6.4-9.2-10-8.6-1.9.2-3.2 1-3.2 1.9 0 .8-.9 3.3-2.1 5.6-1.1 2.3-2.9 6.4-3.9 9-1.7 4.5-1.7 4.9-.2 5.3 6.5 1.9 8.8 5.9 6.3 10.8-1.3 2.6-3.1 9.5-3.1 11.9 0 1.5.6 1.7 3.8 1.2 3.9-.6 14.5-2.9 22.2-4.7 16-3.8 30.6-6.8 32.7-6.8 3 0 3.1 3.6.3 15-7.6 31.1-8.4 33-13.2 33-1 0-2.6.4-3.6.9-6.6 3.2-36.2 11.3-40 10.9-2.3-.3-2.8-.8-3.2-4.3-.5-3.9-.6-4-4-3.7-1.9.2-4.6.7-6 1.2-1.4.4-5.2 1.6-8.5 2.5-3.3.9-8.2 2.3-11 3.2-2.7.9-7.3 1.8-10.3 1.9l-5.3.3.5-4.7c.3-2.6.8-7.6 1.2-11.2 1-10.1 4.5-26.8 8.1-37.9.7-2.4 1.2-4.6.9-4.8-.3-.3-2.1 0-4 .7-2 .6-4 .9-4.6.5-2.2-1.4-.7-8.1 4.5-20 .7-1.7 1.8-4.6 2.5-6.5.8-1.9 3.3-7.7 5.7-12.8 2.4-5.1 4.3-9.9 4.3-10.6 0-.9-1.2-1.2-4.2-1-7.8.5-8.2-2.1-2-13.6 1.9-3.6 3.8-7 4.2-7.5 1.3-1.5 16-30.7 16-31.6 0-2.2 4.9-7.9 7.5-8.8 1.7-.5 7.7-2.3 13.5-4 5.8-1.8 12.6-3.9 15.2-4.7 6.1-2 8.8-1.2 8.8 2.7 0 1.7.6 3.2 1.5 3.5 2.8 1.1 14.5-2.9 27.2-9.2 12.6-6.3 12.8-6.2 12.8 6.1zm-124.5 27.9c0 1.4-1.3 5.8-3 9.9-1.6 4.2-3 8-3 8.6 0 .6-.8 2.5-1.8 4.3-2.3 4.1-4.9 11.4-6.9 19.3-.9 3.3-2 7-2.6 8.2-1.4 3-.2 5.7 2.3 5 2.3-.6 2.6 1.2.9 4.4-.6 1.1-1.2 5.3-1.4 9.2-.2 4-1 8.5-1.9 10.2-.9 1.6-1.6 4.3-1.6 6 0 1.6-1 6.1-2.1 10-2.6 8.7-3.4 13.5-2.2 13.5.4 0 1.4.9 2.1 2 1 1.7 1 3.3-.3 8.6-.8 3.6-1.2 7-.9 7.5.3.6-.2 2.1-1.1 3.6-1.8 2.7-1.8 2.8 2.8 5.4.9.5 1.7 1.8 1.7 2.8 0 1 .7 3.1 1.5 4.7 1 2 1.1 3.2.4 4.1-.6.6-.8 1.6-.5 2.1.3.6-.1 1.5-.9 2.2-1.3 1.1-1.5.7-1.5-2.8 0-4.4-1.2-5.4-4.7-4.1-1.8.7-2.3.5-2.3-.9-.1-1.6-2.2-5.2-3.1-5.2-.7 0-.4 6.5.4 7.7 1.6 2.6-.4 3.4-3.2 1.3-1.6-1-3.2-1.6-3.6-1.2-.4.4-.5-.3-.2-1.5.3-1.3.1-2.6-.4-2.9-.5-.3-.9.1-1 .8 0 .7-.2 2.3-.3 3.6-.2 1.4.5 2.9 1.7 3.7 1.4.9 1.7 1.9 1.2 3.5-.4 1.4-.3 2 .3 1.6.5-.3 1.2.7 1.5 2.2.6 3.2.5 3.4-1.7 2.6-1-.4-1.6-1.8-1.6-3.7 0-2.9-.1-3-1.4-1.1-2 2.6-3.2 1-1.9-2.6.9-2.3.8-2.8-.3-2.3-1.7.6-1.7.3-.3-3.3 1.2-3.4 2-19.4.9-19.4-1.6 0-1.7-5-.1-6 1.4-.8 1.4-.9-.1-1-2 0-2.4-2-.7-3.7.7-.7 1.3-2.5 1.4-4 .1-1.5.3-3.4.3-4.1.1-.6 1.3-1.2 2.7-1.2 1.4 0 2.5-.5 2.5-1 0-.6-.9-1-2.1-1-1.9 0-2-.4-1.4-4.3.4-2.3 1-4.3 1.4-4.4.3-.2.5-2.2.4-4.5 0-2.4.3-5 .8-6 .5-.9.5-1.8 0-2-.5-.2-.5-2.5-.1-5.3 1.4-8 1.2-12.5-.4-11.9-1.4.5-2.9-3-1.7-4.1.3-.4.6-2.1.7-3.8.7-18.8 7.2-47.7 11.8-52.3 2.4-2.5 18.9-9.4 22.4-9.4 1.7 0 2.2.6 2.2 2.4zm1009.5 41.2c.1 2.4 1.4 4.6 2.5 3.9 1.7-1.1 5.7 3.4 5.8 6.6.1 3.7-2.3 8.9-4.1 8.9-3.9 0-8.7-1.4-9.1-2.7-.9-2.3 2.5-19.4 3.8-19 .6.2 1.1 1.2 1.1 2.3zm25 3.2c.6.4 1 1.6 1 2.6 0 1.1.6 2.1 1.4 2.4.9.3 1.1-.1.6-1.7-.8-2.6 1.2-2.8 3.1-.4 1.3 1.7 1.4 1.7 2-.5.8-2.7.8-2.8 3.9.4 2.3 2.3 2.5 3.2 2 6.6-.6 3.3-.4 4.2 1.4 5.4 2.6 1.9 2.7 4.4.2 4.4-2.3 0-4-1.9-5.6-6.5-.6-2-1.6-3.5-2.1-3.3-.5.2-.7.7-.5 1.3.2.5.6 2.7.9 4.9.7 6.2-2.1 4-3.1-2.5-.4-2.9-1.2-5.8-1.7-6.3-2-2-2.3.5-.8 5.9 1 3.4 1.2 5.8.6 6.1-1.8 1.1-3-1.3-4.4-8.7-2-10.6-1.8-12.3 1.1-10.1zm-1040.7 87c.2 1.7 0 3.2-.5 3.2-.4 0-.8 2.1-.9 4.7 0 5.9-1.3 17.3-2.1 19.3-.4.8-.7 1.9-.7 2.5-.2 1.7-3.6 1.8-3.6.1 0-.9.7-1.6 1.5-1.6s1.5-.7 1.5-1.5c0-1.4-.3-1.4-2.4 0-2.5 1.7-4.1 5.8-3 7.6.3.6-.3 1.3-1.5 1.6-1.2.3-2.1 1-2.1 1.7-.1 1.9-6.7 8.9-7.8 8.2-.6-.4-.9-1.3-.6-2.1.4-1 0-1.2-1.8-.8-2 .6-2.2.5-.9-1 1.1-1.4 1.1-1.8-.3-2.3-.9-.3-1.6-1.3-1.6-2.1 0-1.1.7-1.3 2.5-.9 1.7.4 2.7.2 3.1-.8.3-.8 1.7-1.3 3.5-1.2 3.3.2 4.9-1.1 2.5-2-.9-.3-1.6-1.1-1.6-1.6 0-.7.5-.6 1.3.1 1.6 1.2 2.7.5 2.7-1.8 0-2.2 3.5-5.1 6-5.1 1.1 0 2-.5 2-1 0-.6-.7-1-1.6-1-1.3 0-1.5-.7-1.1-3 .4-1.6.2-3.2-.4-3.6-.7-.4-.5-1.3.4-2.7 1.8-2.8 1.2-4.6-2-5.8-2.4-.9-2.4-.9-.6-3.2 7-8.7 9.6-9.7 10.1-3.9zM2416 1834.7c0 1.3.4 2.3.8 2.3s.8 1.7.8 3.7c0 2.1.1 12.4.3 23 .2 12.7-.1 19.8-.9 21.2-.8 1.5-.8 2.1 0 2.1.6 0 .8.5.4 1.2-.5.7-.7 2.7-.5 4.5.4 4.4-.8 9.3-2.1 9-.6-.1-1.4.9-1.8 2.3-.6 2-.9 1.3-1.5-3.5-.5-3.3-.8-6.4-.7-6.8.3-.9-1.5-6.9-6.4-22.3-1.8-5.6-3.6-13.1-4-16.7-.6-5.9-.4-7.1 2-11.9 3.3-6.3 7.8-10.6 11.2-10.4 1.8.1 2.4.7 2.4 2.3zm-827.7 1134.1c1.6.7 2.7 1.9 2.7 3.2 0 1.6-.4 1.8-2.4 1-1.3-.5-3.3-.6-4.5-.3-1.2.3-2.8 0-3.6-.7-2.3-1.9-2.6-.9-1 4.6.8 2.7 1.7 6.2 2 7.7.5 2.5.9 2.8 3.5 2.2 2.3-.5 3.9 0 7.3 2.4 4.9 3.3 5.6 4.9 4.7 10.1-.6 3.5-.7 3.5-1.7 1-1.7-3.9-7.7-9.2-9.6-8.4-.9.3-1.7 1-1.7 1.5 0 .6-1.6-.3-3.5-1.8s-3.5-3.3-3.5-3.9c0-.6-.7-1.7-1.5-2.4s-1.7-2.7-2.1-4.4c-.5-2.8-.9-3.2-2.9-2.8-2 .3-2.3.1-1.8-1.7.3-1.2 1.1-2.1 1.8-2.1.8 0 2.3-1.6 3.5-3.5 2-3.2 2.4-3.4 6.8-3.2 2.6.2 5.9.9 7.5 1.5z"/><path d="M1430.8 420.1c-1 .5-1.8 1.7-1.8 2.4 0 .8-.3 1.6-.7 1.6-3.4.6-6.1.5-8.6-.2-1.8-.5-3.7-.4-4.8.2-1.3.7-1.9.6-1.9-.1s-.8-.9-1.9-.5c-1.1.3-2.9.8-4.1 1-1.2.2-3.7 1.8-5.7 3.6-3.3 2.9-3.9 3-8.8 2.4-5.1-.6-9.5.7-18.7 5.6-1 .5-2.6.9-3.7.9-1 0-3 .9-4.4 2-1.4 1.1-3.3 2-4.2 2-2.3 0-4.9 1.5-9.2 5.5-2.1 1.9-4.1 3.5-4.5 3.5-.5 0-.8.7-.8 1.5s-.7 1.5-1.6 1.5c-1.3 0-1.5.7-1.1 2.9.3 1.5.1 3.3-.6 4-1.9 1.9-2.7 1.2-2-1.9.3-1.7.1-3-.4-3-1.1 0-7.3 6.8-7.3 7.9 0 1.5-3.9 4.3-5.3 3.8-.7-.3-1.9.4-2.6 1.5-1.2 1.9-1.1 2 1.1 1.5 3.8-1 6.8.2 6.8 2.7 0 2.9 2.4 6.1 3.8 5.2.7-.4 1.2-1.8 1.2-3.2 0-1.3.5-2.4 1-2.4 1.7 0 1.1 4.1-1 6.7-1.1 1.5-1.8 2.9-1.5 3.2.4.3.9.1 1.3-.5 1.3-2.1 4.9-2.5 6.6-.9.9.9 1.6 2.1 1.6 2.6s.6.9 1.4.9c.8 0 1.6.7 2 1.5.3.8 1.7 1.5 3.1 1.5 1.4 0 2.8.7 3.2 1.6.3.9 1.3 1.4 2.4 1.1 1.4-.4 1.9 0 1.9 1.6 0 1.2 1.2 3.1 2.7 4.3l2.7 2.2-4.2.7c-2.3.4-4.2 1.1-4.2 1.7 0 .6.6.8 1.4.5.8-.3 1.6-.2 1.8.3.2.5 2 1 4.1 1.2 3.4.2 3.9.6 4.9 3.9.7 2.7 1.5 3.6 2.6 3.2 1.3-.5 1.3-.3-.1 1.8-.9 1.4-1.3 3.7-1 5.6.4 2.6 1.1 3.2 4.1 3.9 2.1.5 5.3.9 7.2 1 1.9.1 5.8.5 8.7.8 3.9.3 5.5.1 6.4-1 1-1.3 1-1.7-.2-2.5-.8-.5-1.9-.9-2.6-.9-.7 0-1.2-1.6-1.1-4.2 0-2.3-.5-4.4-1.1-4.6-1.8-.6-1.2-2.2.8-2.2 1.2 0 2.4-1.2 3.2-2.9 1.6-3.6 5.4-4.9 7.8-2.7.9.8 2.5 3.7 3.5 6.5 1.2 3.4 3.3 6.4 6.9 9.6 5.2 4.7 5.2 4.7 11 4.2 4.7-.4 6.4-1.1 9.5-3.9 5.9-5.2 9.2-10.4 9.2-14.3 0-3.3.2-3.5 3.5-3.5 2.4 0 4.5.9 7 3.1 4.1 3.6 4.3 4.9 1.3 8.3-4.3 4.7-5.8 6.6-5.8 7.6 0 1.3 1.3 1.3 2.8-.2.8-.8 1.5-.8 2.6.1.8.7 2.5 1.4 3.8 1.5 1.3.2 3.4.6 4.6 1 2.1.7 2.3.5 1.7-1.3-.5-1.8-.1-2.3 2.4-3.2 1.7-.6 3.6-2 4.2-3 .5-1 1.9-1.9 3-1.9s3.1-1.1 4.4-2.4c1.3-1.3 3.5-2.6 4.9-3 4.7-1.2 2.8-4-4.4-6.5-3-1.1-5.9-2.6-6.6-3.5-.6-.9-2.3-1.6-3.8-1.6-1.4 0-2.6-.5-2.6-1 0-.6-1.3-1-2.9-1-1.6 0-4.2-.5-5.7-1-10.8-4.2-35.3-7.7-40.2-5.9-2.3.9-14.2 2.1-12.4 1.3.6-.3 1.2-1.3 1.2-2.1 0-1.2-.3-1.3-1.3-.4-.8.6-1.7.8-2 .4-1.2-1.1-.8-2.3.8-2.3.9 0 1.5-.9 1.5-2.5 0-1.4.5-2.5 1.2-2.5s2.2-1.2 3.4-2.8c2.1-2.6 2.6-2.7 10.3-2.6 4.5.1 8.1-.2 8.1-.6 0-1.2-5.8-3.3-7.5-2.7-.8.4-1.7.2-2-.3-.4-.6-1.7-1-3-1-1.9 0-3.5-1.6-3.5-3.6 0-.3 1.6-.2 3.5.2 3.1.6 3.5.4 3.5-1.5 0-2.5 2.6-3.9 4.3-2.2 1.5 1.5 2.7 1.4 2.7-.4 0-.8.5-1.5 1.1-1.5.6 0 .8-.8.4-1.9-.5-1.6 0-1.9 4.5-2 2.8 0 6.4-.7 8-1.6 1.6-.8 3.8-1.5 4.8-1.5 1.1 0 2.5-.7 3.2-1.5.7-.8 1.9-1.5 2.8-1.5 1.8 0 6.2-4.6 6.2-6.5 0-2.1-1.2-2.5-5.3-1.6-3.3.8-3.6.7-3.4-1.3.2-2-.2-2.1-5.5-1.8l-5.8.4.4-3.2c.5-4.5 2.3-6 4.2-3.5 1.3 1.7 1.6 1.8 2.4.5.5-.8 2.1-1.5 3.4-1.5 2.2-.1 2.4.3 2 2.2-.6 2.1-.3 2.3 2.9 2.3 2 0 3.9-.5 4.2-1 .3-.6 1.7-1 3.1-1 2.4 0 2.9 1.1 2.5 5.4-.1 1.8.1 1.8 2.4-.4 1.4-1.3 2.8-2 3.2-1.7.7.8 3.3-1.1 3.3-2.5 0-.5-1-.8-2.2-.6-2.4.3-2.5-.1-1.2-5.5.6-2.6.4-2.8-1.7-2.2-1.3.3-5.3-.2-8.9-1.1-6.3-1.5-12.4-2.3-20.2-2.6-2.1 0-3.9-.7-4.2-1.4-.6-1.6-1.5-1.7-3.8-.3z"/><path d="M1451.5 470.9c-1.7.7-1.6 1 1.6 2.5 2 .9 4 1.6 4.5 1.4 1.6-.5 9.5 3.2 10 4.7.4.8 1.2 1.5 1.9 1.5s1.6.7 1.9 1.6c.5 1.2-.3 1-3.2-.7-2-1.3-3.8-2.6-4-2.9-.1-.4-1.6-.4-3.2-.2-3.9.6-3.9 3.1 0 3.8 1.7.4 3 1 3 1.5s.7.9 1.5.9 1.5.4 1.5.9c0 1.4 10.2 2.4 11 1 .5-.7 1.8-.9 3.4-.5 3.2.8 4.3-1.2 2.5-4.5-1.1-2.1-1.2-2.1-2.4-.5s-1.4 1.5-2.7-1.1c-1.1-2.1-2-2.7-4-2.5-1.6.1-2.8-.3-3.2-1.3-.3-.8-1.5-1.5-2.6-1.5s-2.3-.7-2.6-1.5c-.4-1-2-1.5-4.4-1.5-2.2 0-4.2-.5-4.5-1-.7-1.2-3.1-1.2-6-.1zM1359 611.1c-5.1 1-13.4 5.8-13.8 8-.2 1.1 1.2 1.8 5.5 2.7 3.2.6 8 1.6 10.7 2.2 2.8.6 5.8.8 6.8.4 1-.3 1.8 0 1.8.6 0 .7.8.9 2 .5 1.4-.5 2-.2 2 .9 0 .9.5 2.5 1.2 3.6 1.6 2.6.5 3.5-4.2 3.3-3.3-.2-4 .1-4 1.7 0 2.3 6.3 5.4 9.2 4.4 1-.3 2.5-.1 3.1.5.8.6 1.8.6 2.7.1.8-.6 2.3-1 3.3-1 2 0 7.7-3.9 7.7-5.3 0-.5-1.4-.7-3-.5-2.1.3-3.5-.1-4.7-1.4-.9-1-2.4-1.8-3.3-1.8-2.1 0-3.3-4.6-1.8-7.3 1.3-2.5.2-8-2.1-10.1-2.2-2-12.6-2.8-19.1-1.5zm92.6 408.6c-4.5 4.5-4.4 7.2.2 8.7 3.7 1.3 3.3 2.6-.7 2.7-1.4 0-2 .3-1.3.6 1.7.7 1.5 4.3-.4 5-2.3.9.3 2.1 3.6 1.8 1.4-.2 2.8-.4 3.3-.4 1.4-.2.7-2.1-.8-2.1-2.3 0-1.8-2.4.8-3.5 2.4-1.1 3.1-4.2.7-3.7-.9.1-.6-.5.8-1.7 1.3-1.1 2.3-2.2 2.2-2.5v-1.1c0-.3 1.1.2 2.5 1.1 2.3 1.5 2.5 1.5 3.1 0 .4-.9.4-1.9.2-2.1-.8-.8-7.3-.9-10.3 0l-3 .8 2.3-2c2.1-2 3-5.3 1.4-5.3-.5 0-2.5 1.7-4.6 3.7zM1327.4 1.2c.3.7.8 13.2 1.2 27.8.4 14.6.8 29.6.9 33.5.2 3.8.4 15.3.5 25.5.1 10.2.5 23.9 1 30.5.5 6.6 1.1 20.8 1.4 31.5.6 20.7 2.1 30 5.3 32.9 2.7 2.6 6.3 1.1 6.4-2.6 0-1.5.2-3.7.4-4.8 2.4-12 3.9-81 2.1-93.5-.3-1.9-.7-5.5-1.1-7.9-.3-2.4-.9-4.9-1.3-5.5-.3-.6-.7-16.2-.7-34.6V.5l-8.2-.3c-6.4-.2-8.2 0-7.9 1z"/></svg>